<svg width="7" height="381" viewBox="0 0 7 381" fill="none" xmlns="http://www.w3.org/2000/svg">
<g clip-path="url(#clip0_229_6579)">
<path d="M0.899658 380.831C1.66876 379.901 2.43071 378.792 3.19306 377.594C3.87318 376.723 4.51695 373.294 5.01823 367.872C5.51951 362.45 5.84838 355.359 5.95062 347.767C6.40211 327.43 6.10718 308.293 6.04976 287.743C5.84139 253.158 6.37026 217.64 6.5299 182.723C6.63974 162.184 6.72772 141.198 6.76792 120.208C6.78382 106.273 6.61613 92.4154 6.67982 78.4841C6.73441 66.5972 6.57133 54.8207 6.20066 43.8804C5.82473 32.9368 5.25211 23.0541 4.517 14.8221C3.98492 8.81233 1.65555 3.72393 0.946412 0.629639" stroke="#222222"/>
</g>
<defs>
<clipPath id="clip0_229_6579">
<rect width="7" height="381" fill="white"/>
</clipPath>
</defs>
</svg>
