<svg viewBox="0 0 12 383" width="12" height="383" preserveAspectRatio="none" xmlns="http://www.w3.org/2000/svg" fill="none">
<path d="M11.9999 0.745605V382.868C10.1262 381.366 8.31313 378.46 6.62678 374.256C4.4417 368.142 3.54618 351.778 2.13125 339.807C1.8626 337.482 2.00588 334.21 1.77304 331.712C-0.215015 308.631 0.626776 286.24 1.25364 262.814C1.50047 244.757 1.41656 226.63 1.0029 208.644C0.841702 187.544 0.805881 166.444 0.447672 145.43C0.125284 126.828 0.77006 108.312 0.0894627 89.2789C-0.304567 78.6859 0.734239 66.8872 1.182 55.6914C1.46857 48.371 1.88051 41.2229 2.13125 33.9886C2.75812 16.0753 4.47752 5.91292 8.27454 3.58763C9.52827 2.81253 10.7462 1.86519 11.9999 0.745605Z" fill="currentColor"></path>
</svg>