<svg width="608" height="13" viewBox="0 0 608 13" fill="none" xmlns="http://www.w3.org/2000/svg">
<g clip-path="url(#clip0_229_6575)">
<path d="M608.142 0.86792V5.42188C601.598 5.91828 594.984 6.30677 588.404 6.50101C567.469 7.1485 546.51 7.61612 525.527 7.90389C523.002 7.90389 520.477 7.90389 517.952 7.90389C507.568 7.90389 497.112 7.60173 486.692 7.60173H317.514V6.8895C259.403 7.58015 201.256 8.18447 143.251 9.04778C136.992 9.04778 130.839 10.6881 124.545 11.3571C120.076 11.8486 115.563 12.1801 111.03 12.3499C104.238 12.6305 97.2672 12.9111 90.3678 12.8679H89.7632C84.642 12.8679 79.5208 11.724 74.3996 11.724C65.4731 11.724 56.6177 12.2636 47.62 12.5442H39.9382C30.087 12.5442 20.2003 12.8463 10.4558 12.3284C6.94877 12.1692 3.45845 11.8954 0 11.5082V0.86792" stroke="#222222"/>
</g>
<defs>
<clipPath id="clip0_229_6575">
<rect width="608" height="13" fill="white"/>
</clipPath>
</defs>
</svg>
