<svg preserveAspectRatio="none" fill="none" height="381" width="7" xmlns="http://www.w3.org/2000/svg" viewBox="0 0 7 381">
    <path fill="currentColor" d="M5.95062 347.767C5.84838 355.359 5.51951 362.45 5.01823 367.872C4.51695 373.294 3.87318 376.723 3.19306 377.594C2.43071 378.792 1.66876 379.901 0.899662 380.831L0.946416 0.629639C1.65555 3.72393 3.98492 8.81233 4.517 14.8221C5.25211 23.0541 5.82473 32.9368 6.20066 43.8804C6.57133 54.8207 6.73441 66.5972 6.67982 78.4841C6.61613 92.4154 6.78382 106.273 6.76792 120.208C6.72772 141.198 6.63974 162.184 6.5299 182.723C6.37026 217.64 5.84139 253.158 6.04976 287.743C6.10718 308.293 6.40211 327.43 5.95062 347.767Z"></path>
    </svg>