<svg width="12" height="383" viewBox="0 0 12 383" fill="none" xmlns="http://www.w3.org/2000/svg">
<g clip-path="url(#clip0_229_6577)">
<path d="M11.9999 0.745605C10.7462 1.86519 9.52825 2.81253 8.27452 3.58763C4.4775 5.91292 2.7581 16.0753 2.13123 33.9886C1.88049 41.2229 1.46855 48.371 1.18198 55.6914C0.73422 66.8872 -0.304586 78.6859 0.0894435 89.2789C0.770041 108.312 0.125265 126.828 0.447653 145.43C0.805862 166.444 0.841683 187.544 1.00288 208.644C1.41654 226.63 1.50045 244.757 1.25362 262.814C0.626757 286.24 -0.215034 308.631 1.77302 331.712C2.00586 334.21 1.86258 337.482 2.13123 339.807C3.54616 351.778 4.44168 368.142 6.62676 374.256C8.31311 378.46 10.1262 381.366 11.9999 382.868" stroke="#222222"/>
</g>
<defs>
<clipPath id="clip0_229_6577">
<rect width="12" height="383" fill="white"/>
</clipPath>
</defs>
</svg>
