<svg preserveAspectRatio="none" fill="none" height="13" width="608" xmlns="http://www.w3.org/2000/svg" viewBox="0 0 608 13">
<path d="M608 12.9952H0V6.58964C9.4145 4.8402 19.066 4.00414 28.739 4.10013C43.8554 4.85537 59.1496 3.48474 74.3728 3.1211L90.2005 2.84138C98.559 2.61761 106.882 2.4218 115.098 2.44978C229.165 2.7295 343.232 3.34488 457.298 3.34488C477.43 3.34488 497.597 2.75747 517.764 2.14208C531.422 1.7225 545.08 1.30292 558.738 1.0232C566.777 0.85537 574.815 1.55467 582.818 1.86236C586.126 1.86236 589.433 2.25397 592.706 2.19803C597.889 2.00388 603.071 2.60235 607.964 3.96027" fill="currentColor"></path>
</svg>