<?xml version="1.0" encoding="UTF-8"?><svg id="Layer_1" xmlns="http://www.w3.org/2000/svg" viewBox="0 0 48 48"><defs><style>.cls-1{fill:none;}</style></defs><rect class="cls-1" width="48" height="48"/><path d="m22.65,15.8c-.16.02-.31.09-.47.08-.03,0-.05.02-.08.02-.14.04-.27.11-.42.09-.06,0-.12.02-.18.05-.12.05-.23.1-.35.15-.37.13-.73.29-1.09.46-.22.11-.41.26-.62.37-.04.02-.08.07-.12.07-.14.01-.23.11-.33.2-.18.15-.36.3-.55.45-.06.05-.13.07-.19.12-.14.12-.28.24-.4.36-.25.26-.52.51-.75.78-.18.21-.35.43-.51.67-.01.03-.03.05-.05.07-.17.12-.24.33-.37.48-.09.11-.11.25-.19.37-.08.14-.16.28-.25.41-.06.09-.12.19-.16.3-.05.15-.1.29-.17.43-.06.15-.12.3-.16.46-.08.22-.15.44-.23.66-.02.06-.03.12-.04.19-.06.34-.13.68-.19,1.02-.02.12-.02.24-.03.36.14.05.28.09.42.12.16.04.32.07.48.12.21.05.41.11.62.17.14.04.15.05.16.2,0,.13.01.27,0,.4-.02.41,0,.82.03,1.23.02.2.02.39.04.59.01.13.03.27.05.4,0,.06.03.11.04.16.02.14.08.27.08.41,0,.08.04.16.07.24.02.08.06.14.04.22,0,0,0,.01,0,.02.07.18.12.37.15.57.04.16.12.31.13.49.01.06.04.12.07.17.09.17.17.35.24.54.1.25.23.49.35.74.09.18.17.37.26.55.01.03.02.07.04.1.18.24.3.52.48.76.06.08.12.17.18.26,0,0,0,.01.01.02.04.07.01.15.09.21.06.05.11.1.16.16.02.02.05.04.06.06.08.22.26.36.4.53.05.05.09.11.12.17.04.06.09.12.15.18.05.04.09.09.13.14.08.13.17.24.29.33.16.15.31.32.47.48.14.14.3.27.44.41.02.02.06.03.06.05.05.17.22.2.33.29.09.08.21.14.28.25.03.04.08.08.13.1.22.13.43.28.64.42.22.15.44.28.68.4.2.1.39.2.6.29.12.05.25.09.36.16.2.1.39.06.58-.02.11-.05.22-.12.33-.17.25-.13.5-.27.75-.4.05-.03.09-.07.13-.09.06-.04.12-.07.18-.1.07-.03.14-.07.2-.11.11-.08.24-.14.36-.21.15-.08.28-.18.41-.28.04-.04.09-.07.14-.09.06-.03.12-.07.16-.13.04-.04.08-.08.13-.11.13-.1.25-.2.38-.3.06-.05.13-.11.19-.16.02-.02.04-.04.06-.06.05-.11.16-.17.24-.26.09-.08.17-.16.25-.25.05-.05.09-.11.14-.15.06-.06.11-.12.15-.2.02-.05.06-.1.09-.14.14-.17.29-.34.44-.51.02-.02.04-.05.06-.08.06-.14.15-.27.26-.38.09-.11.17-.24.21-.38.03-.09.08-.18.14-.26.07-.07.12-.16.15-.25.01-.05.04-.09.06-.13.13-.23.26-.47.38-.7.06-.1.11-.21.09-.34,0-.06.02-.11.04-.16.02-.06.05-.12.07-.17.1-.24.14-.5.22-.74.14-.42.22-.86.25-1.3.02-.34.1-.67.14-1,0,0,0-.01.02-.03.03-.02.06-.03.1-.04.04,0,.07,0,.11,0,.23.04.45,0,.68.01.2.02.4.01.6,0,.04,0,.09,0,.13.02.05.12.07.26.06.39-.01.2-.02.39-.01.59,0,.02,0,.05,0,.06-.08.11-.04.23-.04.34,0,.19,0,.38-.09.56-.02.04-.03.09-.03.14-.02.18-.05.35-.09.52-.05.24-.15.45-.2.69,0,.01,0,.03-.01.04-.12.15-.12.34-.19.51-.08.19-.16.38-.24.57-.03.07-.08.14-.1.21-.06.2-.21.36-.28.57-.05.16-.16.3-.24.44-.06.14-.15.27-.25.39-.09.1-.14.24-.21.36-.02.05-.06.1-.1.13-.13.1-.24.23-.31.38-.06.1-.13.2-.21.29-.18.23-.36.46-.57.67-.13.13-.23.3-.38.41-.02.02-.05.05-.06.08-.13.16-.28.31-.43.45-.02.03-.05.05-.08.06-.12.04-.21.13-.3.21-.13.11-.26.21-.39.31-.07.06-.14.12-.21.18-.03.03-.06.07-.1.07-.13.01-.21.1-.31.17-.19.12-.36.26-.54.38-.1.07-.21.14-.32.19-.21.09-.4.23-.6.32-.18.08-.35.16-.53.24-.12.05-.23.12-.35.18-.04.03-.08.05-.13.07-.16.06-.33.11-.49.16-.03,0-.07.02-.1.04-.07.05-.15.07-.23.07-.04,0-.08,0-.12.02-.04.02-.07.05-.09.08-.18-.02-.35-.08-.51-.17-.14-.08-.28-.14-.44-.18-.17-.06-.33-.13-.49-.23-.13-.08-.26-.15-.41-.21-.05-.02-.1-.05-.14-.09-.04-.04-.09-.06-.15-.07-.07-.02-.14-.05-.2-.11-.08-.08-.17-.14-.28-.17-.06-.03-.11-.06-.15-.1-.11-.08-.2-.17-.33-.2-.06-.02-.11-.06-.15-.11-.11-.09-.21-.21-.34-.28-.14-.09-.28-.18-.4-.29-.22-.17-.43-.35-.62-.56-.16-.18-.33-.34-.51-.48-.03-.02-.05-.04-.08-.07-.16-.18-.33-.36-.49-.54-.03-.03-.05-.07-.07-.1-.02-.04-.04-.07-.07-.11-.14-.13-.26-.27-.37-.42-.12-.15-.25-.28-.33-.46,0-.02-.02-.04-.03-.05-.17-.12-.21-.33-.31-.49-.07-.11-.13-.23-.24-.31-.04-.03-.07-.07-.09-.12-.06-.12-.12-.24-.18-.36-.05-.11-.11-.23-.18-.33-.13-.21-.25-.42-.35-.65-.04-.09-.09-.18-.13-.26-.12-.24-.26-.48-.32-.75-.03-.09-.06-.17-.11-.25-.03-.07-.06-.14-.09-.21-.05-.15-.07-.32-.17-.45-.02-.04-.04-.08-.04-.12-.08-.23-.15-.47-.23-.7-.03-.08-.05-.16-.07-.24-.09-.35-.2-.69-.25-1.05,0-.06-.01-.11-.02-.17,0-.11-.02-.22-.05-.33-.02-.06-.03-.12-.03-.19-.02-.19-.03-.38-.05-.57,0-.01,0-.03,0-.04-.06-.17-.09-.36-.07-.54,0,0,0-.01-.02-.03-.13-.03-.27-.07-.41-.1-.4-.09-.79-.17-1.19-.25-.09-.02-.12-.04-.12-.14,0-.06,0-.11.01-.17.05-.18.07-.38.04-.57,0-.06,0-.12.01-.17.06-.2.06-.41.07-.61.02-.26.07-.52.12-.77.04-.23.06-.46.15-.68.03-.29.11-.57.24-.82.04-.07.06-.16.06-.24,0-.15.05-.29.12-.42.08-.13.14-.27.19-.42.06-.18.13-.35.2-.53.12-.25.24-.49.38-.72.05-.08.1-.15.16-.22.02-.02.04-.05.05-.07.11-.25.27-.46.41-.68.04-.06.09-.13.13-.19.1-.12.21-.23.31-.34.02-.02.04-.04.05-.07.06-.15.18-.25.3-.34.07-.06.12-.13.17-.2.09-.12.2-.23.31-.33.06-.06.13-.1.19-.17.11-.11.22-.21.35-.3.14-.11.29-.22.41-.35.18-.17.38-.3.6-.41.02,0,.04-.02.05-.03.06-.12.17-.16.28-.2.04-.01.08-.04.11-.06.13-.13.3-.17.46-.23.13-.04.24-.1.35-.18.03-.03.07-.05.11-.06.19-.07.37-.15.54-.25.13-.07.28-.12.43-.14.06,0,.12-.03.17-.07.06-.05.13-.08.21-.09.16,0,.31-.05.45-.13.05-.03.11-.04.17-.05.21-.01.41-.05.61-.11.02,0,.04-.01.06-.01.2.01.38-.08.57-.09.09-.01.18-.03.26-.05.01-.04.02-.07.03-.11.02-.17.09-.32.13-.48.01-.04.03-.08.04-.12.06-.39.2-.74.35-1.1.15-.36.32-.7.48-1.05.01-.03.02-.05.04-.07.13-.13.19-.31.28-.46.03-.06.06-.11.11-.15.11-.1.21-.23.28-.36.05-.09.1-.18.17-.26.2-.23.4-.45.6-.67.08-.08.16-.15.25-.23.07-.06.14-.12.2-.18.11-.11.21-.22.38-.27.09.03.16.09.21.16.14.22.33.39.51.58.16.17.31.34.47.51.03.04.06.08.08.12,0,.04-.02.08-.04.12-.02.04-.05.07-.08.09-.09.08-.18.15-.27.23-.02.03-.05.05-.08.06-.11.02-.17.11-.25.18-.13.13-.24.29-.4.4-.04.04-.08.08-.11.13-.07.1-.15.19-.23.27-.05.04-.08.09-.11.15-.12.24-.26.46-.41.68-.11.17-.2.35-.27.55,0,.03-.01.06-.03.08-.13.1-.12.26-.17.39-.04.14-.09.28-.16.41-.07.12-.06.27-.08.42.14-.02.26.02.38-.02.02,0,.05,0,.07,0,.21.01.43.01.64.04.27.03.53.08.79.13.04.01.08.02.12.04.06.03.13.05.2.06.19,0,.37.06.53.14.03,0,.05.01.08.01.02,0,.04,0,.06,0,.11.05.22.09.33.12.11.02.21.05.31.11.17.09.34.18.51.27.04.02.09.04.14.05.16.05.31.12.44.22.04.03.08.05.13.07.06.04.13.07.19.12.04.04.09.06.15.07.07.02.14.05.2.11.2.17.41.33.61.49.02.02.04.04.07.05.17.03.27.16.4.26.03.03.07.04.1.07.07.05.13.1.19.16.11.13.24.26.37.37.08.07.16.16.23.24.07.08.14.15.23.21.02.01.03.02.05.04.17.24.38.45.57.67.03.03.05.07.07.1.09.14.17.29.26.43,0,.02.02.04.04.05.21.13.28.36.4.55.02.03.02.07.04.09.14.2.25.42.33.66.01.03.03.07.05.09.19.19.25.45.34.69.03.09.06.17.1.25.06.11.1.23.13.35.04.16.08.31.11.47.02.08.04.16.08.24.06.13.13.25.12.4,0,.02,0,.04,0,.06.07.22.1.45.1.69,0,.05.02.1.02.15,0,.1.01.2.02.29,0,.01,0,.03,0,.04.04.16.02.32.04.48.02.12.02.24,0,.36,0,.1-.01.2-.01.3-.01.17-.03.35-.04.54-.16.1-.34.21-.55.21-.02,0-.04,0-.06.01-.41.15-.84.17-1.26.24-.12.02-.25.03-.37.01-.15,0-.3,0-.45.02-.14.01-.28,0-.41-.02-.1-.02-.21-.03-.31-.02-.15,0-.3.02-.45-.04-.03,0-.05-.01-.08-.01-.19-.03-.39,0-.55-.12,0,0-.03,0-.04,0-.15,0-.3-.03-.44-.08-.36-.1-.71-.22-1.06-.36-.14-.07-.29-.13-.44-.18-.01,0-.03,0-.04-.02-.24-.2-.54-.27-.8-.42-.16-.1-.32-.22-.48-.32-.26-.15-.46-.37-.71-.55-.21-.15-.42-.32-.61-.5-.17-.15-.35-.3-.47-.5-.04-.04-.08-.08-.12-.12-.1-.11-.21-.22-.28-.36-.02-.04-.05-.07-.08-.09-.13-.15-.27-.3-.35-.49-.02-.03-.06-.06-.08-.09-.11-.14-.21-.28-.3-.43-.16-.28-.32-.56-.45-.85-.1-.22-.22-.43-.29-.68-.06-.2-.16-.39-.24-.58-.02-.04-.04-.08-.04-.12,0-.17-.07-.32-.13-.48-.1-.27-.17-.55-.19-.84,0-.03-.01-.07-.02-.1-.03-.17-.06-.33-.09-.49,0-.01,0-.03,0-.04.06-.12,0-.23-.02-.35-.03-.12-.04-.23-.03-.35.01-.2,0-.41-.05-.61h0Zm1.9.04c-.04.11-.05.23-.04.35.01.18,0,.37.04.55.05.31.04.62.14.92.04.12.03.24.06.35.08.35.2.69.34,1.02.06.14.12.29.16.43.01.05.03.09.06.13.06.09.11.19.17.29-.02.13.08.2.13.3.03.05.06.09.09.14.08.17.18.32.29.47.16.23.34.44.51.67.02.02.04.04.05.07.04.14.15.22.25.31.13.12.27.24.36.4.01.02.03.04.06.06.2.16.4.33.6.49.33.26.68.5,1.05.71.21.13.45.21.65.37.04.02.08.03.12.04.1.03.2.06.29.1.08.05.17.09.27.1.04.01.08.03.11.05.04.02.09.04.13.06.12.03.24.06.36.08.2.04.41.08.61.1.16.01.31.07.47.07.21,0,.41.05.62.02.11-.03.23-.03.35,0,.03,0,.07,0,.1-.01.05-.01.09-.01.14,0,.05,0,.1,0,.14,0,.05-.01.09-.03.13-.06,0-.04,0-.07,0-.11-.03-.18-.04-.35-.02-.53,0-.04,0-.07,0-.11-.04-.25-.08-.5-.13-.75-.03-.17-.07-.33-.11-.49-.02-.09-.05-.18-.08-.26-.07-.25-.15-.5-.26-.73-.02-.03-.03-.06-.04-.1,0-.07-.03-.14-.07-.2-.14-.26-.28-.52-.41-.78-.06-.13-.13-.24-.22-.35-.05-.05-.09-.11-.13-.17-.14-.25-.32-.46-.47-.69-.06-.1-.13-.18-.22-.24-.07-.05-.13-.11-.18-.18-.16-.23-.39-.4-.58-.6-.12-.12-.27-.22-.39-.34-.14-.13-.3-.25-.45-.37-.1-.08-.2-.15-.31-.21-.3-.19-.58-.4-.91-.54-.1-.03-.19-.08-.27-.16-.01-.02-.03-.03-.05-.03-.2-.05-.4-.12-.58-.22-.02,0-.04,0-.06-.02-.03,0-.06-.02-.09-.04-.07-.05-.15-.08-.23-.09-.2-.04-.4-.09-.6-.16-.15-.05-.31-.04-.46-.11-.25,0-.51-.06-.76-.04-.1.01-.21.01-.31,0-.13-.02-.26,0-.38.03"/></svg>