<svg xmlns="http://www.w3.org/2000/svg" width="123" height="87" fill="none">
    <path fill="#222"
        d="m37.804 49.715-6.795-2.968c-5.048-2.204-8.796-6.67-10.305-12.252l-1.508-5.583-1.583 4.672c-2.076 6.155-6.497 11.18-12.127 13.795L.573 49.656l3.39 1.204c6.183 2.19 11.051 7.155 13.351 13.648l2.002 5.671 1.164-4.95c1.598-6.744 6.467-12.15 12.74-14.104l4.584-1.425v.014Zm-18.907 10.9C16.493 55.738 12.7 51.83 8.025 49.421c4.6-2.468 8.393-6.376 10.842-11.136 2.121 4.98 5.944 8.932 10.798 11.092-4.764 2.247-8.602 6.273-10.768 11.238ZM42.658 60.674l-1.434-5.289-1.568 4.672c-1.344 3.981-4.196 7.228-7.825 8.903l-4.361 2.027 3.39 1.205c3.987 1.41 7.109 4.613 8.587 8.8l1.912 5.377 1.165-4.951c1.015-4.334 4.151-7.801 8.154-9.05l4.301-1.337-5.735-2.497c-3.226-1.41-5.63-4.26-6.6-7.845l.014-.015Zm-1.703 16.44c-1.508-2.66-3.643-4.863-6.227-6.362 2.539-1.528 4.66-3.717 6.183-6.317 1.374 2.703 3.494 4.907 6.138 6.302-2.584 1.44-4.72 3.673-6.108 6.376h.014ZM42.987 46.908c3.285 0 4.928 0 6.556-.014 1.628 0 3.256-.015 6.511-.015 1.225 0 2.18-.734 2.18-1.675 0-2.585-.03-3.893-.059-5.186a187.59 187.59 0 0 1-.06-5.112c0-1-.91-1.778-2.076-1.778-3.27 0-4.898 0-6.54-.014h-6.542c-1.18 0-2.18.822-2.18 1.807 0 2.57 0 3.863-.016 5.156 0 1.293-.015 2.571-.015 5.142 0 .926 1.016 1.719 2.226 1.719l.015-.03Zm.97-6.846c0-1.175.015-2.335.015-4.48H54.95c0 2.115.03 3.276.06 4.436.03 1.146.045 2.277.06 4.32-2.629 0-4.092 0-5.556.014-1.464 0-2.927.015-5.585.015 0-2.057 0-3.203.014-4.349l.015.044ZM42.837 27.692c3.27 0 4.899.015 6.527.03 1.642 0 3.27.03 6.541.03 1.165 0 2.166-.809 2.166-1.778 0-2.571.03-3.85.06-5.128.03-1.292.059-2.585.059-5.17 0-.824-.792-1.47-1.897-1.587a1.783 1.783 0 0 0-.403-.045c-3.256 0-4.883-.029-6.511-.058-1.643-.03-3.286-.059-6.557-.059-1.18 0-2.18.793-2.18 1.748 0 2.586.015 3.879.045 5.171.015 1.279.03 2.571.03 5.128 0 .97.925 1.718 2.105 1.718h.015Zm6.497-11.209c1.493.03 2.987.059 5.705.059 0 1.998-.03 3.13-.06 4.246-.03 1.16-.06 2.336-.06 4.466-2.598 0-4.047-.015-5.496-.03-1.448 0-2.912-.029-5.495-.029 0-2.071-.015-3.217-.03-4.378-.015-1.16-.03-2.306-.045-4.393 2.598 0 4.047.03 5.496.06h-.015ZM71.586 18.893H85.76l1.15.088h7.109c1.18 0 2.135-.573 2.135-1.264 0-.69-.955-1.248-2.135-1.248h-7.109l-1.15-.074H71.571c-1.18 0-2.135.558-2.135 1.249 0 .69.955 1.249 2.135 1.249h.015ZM94.257 34.656h-7.11l-1.134-.073H71.825c-1.18 0-2.136.573-2.136 1.263s.956 1.249 2.136 1.249h14.188l1.135.073h7.109c1.18 0 2.135-.573 2.135-1.263s-.956-1.249-2.135-1.249ZM94.257 42.883c-1.837 0-2.748.03-3.66.059a95.15 95.15 0 0 1-3.45.044c-1.717 0-3.867-.103-4.778-.073-.866.014-1.733.044-3.45.044-1.718 0-2.599 0-3.465-.03a189.91 189.91 0 0 0-3.614-.03c-1.18 0-2.136.56-2.136 1.25s.956 1.248 2.136 1.248c1.747 0 2.629.015 3.495.03.896 0 1.792.03 3.599.03 1.807 0 2.718-.016 3.629-.045.866-.015 1.732-.044 3.45-.044 1.717 0 2.569.03 3.42.059h1.374c.866-.015 1.732-.044 3.45-.044 1.18 0 2.135-.559 2.135-1.25 0-.69-.956-1.248-2.135-1.248ZM71.586 27.399c1.748 0 2.629.014 3.495.03.896 0 1.792.029 3.6.029 1.806 0 2.717-.015 3.628-.045.866-.014 1.733-.044 3.45-.044l1.15.118c1.837 0 2.748-.03 3.659-.059a95.15 95.15 0 0 1 3.45-.044c1.18 0 2.135-.558 2.135-1.249 0-.69-.955-1.248-2.135-1.248-1.837 0-2.748.029-3.66.058-.865.03-1.732.044-3.449.044l-1.15-.117c-1.807 0-2.718.015-3.63.044-.865.015-1.732.044-3.449.044-1.717 0-2.599 0-3.465-.03-.896-.014-1.807-.029-3.614-.029-1.18 0-2.135.558-2.135 1.249 0 .69.955 1.249 2.135 1.249h-.015Z" />
    <path fill="#222"
        d="M27.5 4.833c-.03.588-.06 1.19-.06 2.38 0 1.337.284 2.042.537 2.674.21.529.404.999.404 1.983 0 .985-.165 1.484-.344 2.042-.209.617-.433 1.293-.433 2.6v4.643c0 1.249.134 1.895.269 2.512.12.544.224 1.073.224 2.13 0 1.058-.135 1.572-.269 2.116-.15.588-.313 1.263-.313 2.527 0 1.263.149 1.895.283 2.512.12.544.24 1.058.24 2.13 0 1.073-.105 1.587-.225 2.145a23.9 23.9 0 0 0-.179 1.029c-.045.396.12.984.343 1.307.777 1.116 2.046 3.247 3.122 2.835v-.352c0-.573-.03-1.146-.03-2.307 0-1.072.105-1.586.224-2.145.12-.617.254-1.248.254-2.497 0-1.249-.15-1.895-.284-2.512-.12-.544-.239-1.058-.239-2.13 0-1.073.134-1.572.269-2.116.15-.588.314-1.263.314-2.527 0-1.263-.135-1.895-.27-2.512-.119-.544-.223-1.073-.223-2.13v-4.643c0-1.013.164-1.484.343-2.042.21-.617.433-1.293.433-2.6 0-1.308-.283-2.027-.522-2.66-.21-.543-.404-.998-.404-1.997 0-1.146.03-1.719.06-2.277.015-.368.045-.735.06-1.234a46.24 46.24 0 0 0 2.823-.147c.896-.074 1.747-.132 3.48-.132h7.616c2.03 0 3.076-.06 4.077-.133a48.47 48.47 0 0 1 3.54-.103c1.582 0 2.3.103 3.18.236 1.03.161 2.21.337 4.436.337 2.046 0 3.091-.073 4.107-.147.911-.058 1.762-.117 3.51-.117 1.747 0 2.748.03 3.659.059.985.03 1.97.073 3.957.073 1.986 0 3.166-.088 4.137-.161.896-.074 1.747-.133 3.48-.133 1.732 0 2.494.074 3.405.162l2.195.132c.911-.03 1.837-.059 3.66-.059 1.97 0 2.956-.029 3.957-.073.926-.03 1.837-.059 3.689-.059 1.851 0 2.822 0 3.748.03.627 0 1.24.014 2.121.029-.015.544-.045.926-.075 1.307-.045.603-.089 1.19-.089 2.38 0 1.293.194 1.969.373 2.571.164.559.299 1.043.299 2.072 0 1.102-.06 1.66-.135 2.218-.074.603-.149 1.205-.149 2.424 0 1.043-.12 1.543-.269 2.101-.149.602-.329 1.278-.329 2.542 0 1.263.195 1.968.374 2.57.164.559.299 1.044.299 2.072 0 1.22.089 1.836.164 2.439.074.558.149 1.102.149 2.203v4.643c0 1.175-.045 1.69-.089 2.262-.045.603-.09 1.19-.09 2.38v4.643c0 1.175-.06 1.674-.12 2.233-.059.602-.134 1.204-.134 2.409 0 .97-.179 2.6-.164 2.88.059.558.104 1.13.104 2.247s-.104 1.602-.209 2.16c-.074.411-.164.837-.209 1.454-.627-.014-1.105-.044-1.598-.059-1-.044-2.001-.088-4.002-.088-2.002 0-3.047.059-4.033.103-.926.044-1.792.103-3.584.103-1.658 0-2.494-.059-3.345-.132-1.06-.088-2.12-.118-3.181-.088-.687.014-1.494.029-2.733.029-1.867 0-2.793-.015-3.734-.03-.97-.014-1.941-.043-3.883-.043-2.046 0-3.076.073-4.092.132-.91.058-1.762.117-3.524.117-1.852 0-2.778-.014-3.704-.044-.97-.014-1.957-.044-3.913-.044-1.956 0-2.927.03-3.913.044-.926.015-1.852.044-3.704.044-1.971 0-2.972.03-3.957.074-.374 0-.867-.265-1.18.03.313 1.16.313 2.629 2.39 2.864.686-.015 1.508-.03 2.747-.03h2.032l5.002-.073h.568c1.852 0 2.778.015 3.704.044.97.015 1.956.044 3.913.044 1.956 0 3.076-.073 4.092-.132.91-.059 1.762-.118 3.524-.118 1.867 0 2.793.015 3.734.03.97.015 1.941.044 3.883.044 1.941 0 2.957-.03 3.942-.059.926-.03.27 0 1.165.088.971.074 2.076.162 4.152.162s3.047-.059 4.032-.103c.926-.044 1.793-.103 3.585-.103s2.703.044 3.614.088c1.001.044.508.088 2.509.088h.104c1.106 0 1.778-.308 2.091-.499.822-.5.792-1.117.777-1.425 0-.132.194-2.586.239-3.012V52.858l.03-1.66c0-.03 0-.058.015-.088 0-.088 0-.161-.015-.25l.134-27.193v-.793l.03-4.54c0-.088 0-.176.03-.264.075-.412.119-.911.119-1.572 0-1.102.06-1.66.135-2.218.074-.603.149-1.205.149-2.425 0-1.292-.194-1.968-.373-2.57-.165-.559-.299-1.043-.299-2.072 0-1.131.045-1.69.09-2.262.044-.603.089-1.19.089-2.38 0-1.117-1.433-1.984-3.255-1.984-1.823 0-1.33 0-2.256-.029-.97-.015-1.941-.03-3.883-.03-1.941 0-2.987.03-3.987.074-.911.03-1.837.059-3.659.059-1.942 0-2.927.03-3.898.073-.418-.029-.776-.058-1.15-.102-.986-.103-2.106-.206-4.211-.206-2.106 0-3.166.088-4.137.161-.896.074-1.748.133-3.48.133-1.837 0-2.748-.03-3.659-.06-.986-.028-1.971-.073-3.958-.073-1.986 0-3.091.074-4.107.147-.91.06-1.762.118-3.51.118-1.582 0-2.3-.103-3.18-.235-1.03-.162-2.21-.338-4.436-.338-2.03 0-3.076.059-4.077.132-.91.059-1.777.103-3.54.103h-7.616c-2.076 0-3.166.088-4.137.162-.896.073-1.747.132-3.48.132-3.584 0-2.195 1.601-2.195 1.777 0 1.146-.03 1.72-.06 2.278l-.044-.03Z" />
    <path fill="#222"
        d="M122.229 20.538c-.105-.544-.194-1.058-.194-2.1 0-1.044.06-1.617.119-2.16.06-.588.135-1.176.135-2.366 0-1.278-.224-1.954-.418-2.556-.18-.529-.329-.999-.329-1.983 0-1.675-.418-2.116-1.538-2.116s-2.808-.014-2.883-.014c-1 .029-2.001.058-4.002.058-1.389 0-2.509.661-2.509 1.47 0 .572-.075 1.042 2.509 1.468 1.882.309 3.181-.029 4.241-.073h.702c.075.779.239 1.278.389 1.734.179.528.328.999.328 1.998 0 1.087-.06 1.63-.119 2.174-.06.588-.135 1.175-.135 2.35 0 1.176.12 1.822.224 2.424.105.544.194 1.058.194 2.116l-.029 4.54c0 1.101-.03 1.66-.075 2.218-.045.573-.075 1.16-.075 2.321 0 .97-.478 8.022-.478 9.08 0 1.145 0 1.718.03 2.291 0 .558.03 1.117.03 2.248 0 1.131-.06 1.63-.134 2.16-.075.587-.075 9.255.254 9.886.268.515-.12 3.673-.12 4.922 0 1.043-.119 1.543-.239 2.086-.09.382-.179.808-.239 1.41.045 0-.015.192-.03.25h-2.807c-.882 0-1.539 0-2.091-.03-1.18 0-1.927-.043-2.674-.058a87.931 87.931 0 0 0-4.121-.073c-1.927 0-1.404-.015-2.39-.044-1.015-.03-2.046-.044-4.062-.044-1.867 0-2.778-.045-3.734-.103-1.03-.06-2.106-.103-4.211-.103-2.106 0-3.316.088-4.331.176l-1.464.088c-1.03-.03-2.06-.073-4.107-.073-2.046 0-3.226.073-4.286.161-.94.074-1.837.133-3.659.133-1.822 0-2.778-.044-3.748-.103-1.046-.059-2.106-.103-4.212-.103-1.897 0-2.852-.044-3.793-.088-.792-.03-1.569-.074-2.793-.088-.105 0-.21 0-.314.014l-2.27.353 2.48 2.145c.313.279.731.44 1.164.455.508.015.941.03 1.374.059 1.046.044 2.091.088 4.167.088 1.882 0 2.808.044 3.778.103 1.03.059 2.106.103 4.182.103 2.076 0 3.226-.074 4.286-.162.941-.073 1.837-.132 3.66-.132 1.821 0 2.867.03 3.822.059 1.03.03 1.434-.03 2.435-.103.94-.074 1.822-.147 3.644-.147s2.792.044 3.763.103c1.03.059 2.091.103 4.182.103 1.926 0 2.897.014 3.883.044 1.015.03.552.044 2.569.044 1.896 0 2.852.03 3.808.073.776.03 1.568.06 2.793.074.612.014 1.344.03 2.285.03h4.958c.791 0 .03-.177.567-.515.881-.544.807-1.205.777-1.601 0-1.043.119-1.543.239-2.087.134-.573.284-1.234.284-2.468 0-1.028-.269-10.842-.254-11.767 0-.191-.015-.412-.015-.661 0-1.087.06-1.631.134-2.16.075-.588.15-1.19.15-2.38s0-1.719-.03-2.292c0-.558-.03-1.116-.03-2.247 0-1.22.478-7.772.478-9.08 0-1.101.03-1.66.074-2.218.045-.573.075-1.16.075-2.321l.03-4.54c0-1.219-.12-1.836-.224-2.438l-.03-.015Z" />
</svg>