<svg width="48" height="48" viewBox="0 0 48 48" fill="none" xmlns="http://www.w3.org/2000/svg">
<path d="M14.4509 21.7262C13.273 19.2945 14.6409 18.4586 15.2678 17.1477L17.5095 13.4432L20.1122 9.96657C20.6062 9.52962 20.9291 8.78871 21.4991 8.14279C22.05 7.49686 22.9239 6.96492 23.9878 7.30688C24.2727 8.71272 24.1967 9.28265 23.8168 9.87158C23.4558 10.4415 22.9049 10.9545 22.7529 11.6384L20.7012 15.4569L18.2504 19.0285C17.3006 20.1304 17.1486 21.7642 14.4129 21.7452L14.4509 21.7262Z" fill="white"/>
<path d="M24.1017 40.7999C21.803 38.0453 22.5249 35.2906 22.3729 32.5549L22.3159 24.2909L22.6769 16.0268C23.0568 13.5951 22.2209 10.1375 24.0447 7.76282C26.6474 10.0995 25.3366 13.5571 25.8115 16.0078L26.0965 24.2719L25.9065 32.5359C25.6785 35.2716 26.4194 38.0643 24.1017 40.7999Z" fill="white"/>
<path d="M24.4437 7.30685C27.1413 7.23085 27.3123 8.80767 28.2052 9.90955L30.5799 13.4431L32.5937 17.2047C32.9547 18.4775 34.6265 19.4844 33.7716 21.5172C30.9409 21.9351 31.0739 19.7314 29.972 18.9335L27.4073 15.5329L25.2416 11.8663C24.6526 10.5555 23.2658 9.75756 24.4247 7.30685H24.4437Z" fill="white"/>
</svg>
