<svg width="48" height="48" viewBox="0 0 48 48" fill="none" xmlns="http://www.w3.org/2000/svg">
<path d="M7.32589 23.5661C7.24994 20.87 8.82587 20.6991 9.92712 19.8067L13.4587 17.4333L17.2181 15.4207C18.4903 15.0599 19.4966 13.3891 21.5282 14.2435C21.9459 17.0725 19.7434 16.9396 18.946 18.0409L15.5473 20.6041L11.8828 22.7687C10.5727 23.3573 9.77522 24.7433 7.32589 23.5851V23.5661Z" fill="white"/>
<path d="M40.8002 23.908C38.0471 26.2054 35.294 25.4839 32.5598 25.6358L24.3005 25.6927L16.0411 25.332C13.6108 24.9522 10.1551 25.7877 7.78174 23.9649C10.1171 21.3637 13.5728 22.6738 16.0221 22.1991L24.2815 21.9143L32.5408 22.1042C35.275 22.332 38.0661 21.5915 40.8002 23.908Z" fill="white"/>
<path d="M21.7182 33.5344C19.2879 34.7116 18.4525 33.3445 17.1424 32.7179L13.4399 30.4775L9.96525 27.8762C9.52855 27.3826 8.78805 27.0598 8.14249 26.4902C7.49693 25.9396 6.9653 25.0662 7.30707 24.0029C8.71211 23.7181 9.28171 23.794 9.87031 24.1738C10.4399 24.5345 10.9526 25.0851 11.6361 25.237L15.4525 27.2876L19.0221 29.737C20.1233 30.6863 21.7562 30.8382 21.7372 33.5723L21.7182 33.5344Z" fill="white"/>
</svg>
