<svg width="48" height="48" viewBox="0 0 48 48" fill="none" xmlns="http://www.w3.org/2000/svg">
<path d="M40.6932 24.4343C40.7692 27.1319 39.1924 27.3029 38.0905 28.1958L34.5569 30.5705L30.7954 32.5843C29.5225 32.9453 28.5157 34.6171 26.4829 33.7622C26.0649 30.9315 28.2687 31.0645 29.0666 29.9626L32.4672 27.3979L36.1338 25.2322C37.4446 24.6432 38.2425 23.2564 40.6932 24.4153V24.4343Z" fill="#222222"/>
<path d="M7.2002 24.0923C9.95487 21.7936 12.7095 22.5155 15.4452 22.3635L23.7093 22.3065L31.9733 22.6675C34.405 23.0474 37.8626 22.2115 40.2373 24.0353C37.9006 26.638 34.443 25.3272 31.9923 25.8021L23.7283 26.0871L15.4642 25.8971C12.7286 25.6691 9.93587 26.41 7.2002 24.0923Z" fill="#222222"/>
<path d="M26.274 14.4604C28.7058 13.2825 29.5417 14.6504 30.8525 15.2773L34.5571 17.519L38.0337 20.1217C38.4706 20.6157 39.2115 20.9386 39.8575 21.5086C40.5034 22.0595 41.0353 22.9334 40.6934 23.9973C39.2875 24.2823 38.7176 24.2063 38.1287 23.8263C37.5587 23.4654 37.0458 22.9144 36.3619 22.7624L32.5433 20.7107L28.9717 18.26C27.8699 17.3101 26.236 17.1581 26.255 14.4224L26.274 14.4604Z" fill="#222222"/>
</svg>
