<svg
  width="48"
  height="48"
  viewBox="0 0 48 48"
  fill="none"
  xmlns="http://www.w3.org/2000/svg"
>
  <path
    d="M33.5339 26.282C34.7111 28.7123 33.344 29.5477 32.7174 30.8578L30.477 34.5603L27.8757 38.0349C27.3821 38.4716 27.0593 39.2121 26.4897 39.8577C25.9391 40.5033 25.0657 41.0349 24.0024 40.6931C23.7176 39.2881 23.7935 38.7185 24.1733 38.1299C24.534 37.5603 25.0847 37.0476 25.2366 36.3641L27.2871 32.5477L29.7365 28.9781C30.6858 27.8769 30.8377 26.244 33.5719 26.263L33.5339 26.282Z"
    fill="white"
  />
  <path
    d="M23.5659 40.6741C20.8697 40.75 20.6988 39.1741 19.8064 38.0728L17.4331 34.5412L15.4204 30.7818C15.0597 29.5097 13.3888 28.5034 14.2432 26.4718C17.0723 26.054 16.9394 28.2565 18.0406 29.054L20.6039 32.4527L22.7684 36.1172C23.357 37.4273 24.7431 38.2247 23.5849 40.6741H23.5659Z"
    fill="white"
  />
  <path
    d="M23.9077 7.19995C26.2051 9.95307 25.4836 12.7062 25.6355 15.4403L25.6925 23.6997L25.3317 31.959C24.952 34.3894 25.7874 37.845 23.9647 40.2184C21.3634 37.883 22.6735 34.4274 22.1989 31.978L21.9141 23.7187L22.1039 15.4593C22.3318 12.7252 21.5913 9.93408 23.9077 7.19995Z"
    fill="white"
  />
</svg>
