<svg width="48" height="48" viewBox="0 0 48 48" fill="none" xmlns="http://www.w3.org/2000/svg">
<path d="M21.5681 11.304C19.6481 10.568 20.2881 9.352 20.8481 8.296C21.1681 7.768 21.6961 7.256 22.3841 6.952C23.0561 6.664 23.7601 6.616 24.3841 6.728C25.6001 7.032 26.6241 8.056 26.9441 9.112C26.9921 9.608 27.2161 10.12 27.2001 10.664C27.1841 11.192 26.8961 11.72 26.0641 11.864C25.0721 11.288 24.8161 11.08 24.7681 10.824C24.7201 10.584 24.8161 10.296 24.5601 10.216C24.5601 10.216 24.3681 9.96 24.2081 9.928C24.0161 9.848 23.8241 9.88 23.8241 9.88C23.5841 9.832 23.6161 9.704 23.3761 9.912C23.0241 10.136 23.5361 10.568 21.5841 11.304H21.5681Z" fill="white"/>
<path d="M22.4961 11.528C21.7281 12.584 21.1841 13.112 20.5441 13.512C19.9201 13.912 19.2321 14.232 18.6881 14.792C17.5521 15.816 16.6401 17.144 16.0801 18.584C15.3921 20.008 14.9921 21.624 14.8321 23.304C14.4321 24.824 15.3121 26.856 14.0481 28.6C11.6321 27.416 12.4961 24.872 12.1921 23.208C12.1921 23.208 12.1761 21.768 12.4001 20.312C12.6081 18.856 13.1201 17.416 13.1201 17.416C13.9361 15.544 15.1521 13.864 16.7201 12.568C17.5361 11.976 18.3521 11.304 19.3441 10.968C20.3201 10.632 21.5041 10.664 22.4801 11.544L22.4961 11.528Z" fill="white"/>
<path d="M14.1123 27.976C14.9603 29.832 14.1123 29.8 13.7443 30.36C13.3123 30.824 12.9123 31.304 12.5123 31.784C12.0163 32.2 11.5363 32.616 11.0723 33.064C10.4643 33.32 10.5923 34.36 8.99227 33.976C7.48827 32.28 8.92827 32.2 8.96027 31.48L9.50427 30.6L10.0803 29.72C10.5763 29.224 11.0723 28.76 11.6003 28.296C12.2083 27.944 12.3043 27 14.1123 27.976Z" fill="white"/>
<path d="M9.87207 34.456C12.3361 32.536 14.8001 33.144 17.2641 33.016L24.6561 32.984L32.0481 33.304C34.2241 33.64 37.3121 32.936 39.4401 34.472C37.3441 36.664 34.2561 35.544 32.0481 35.944L24.6561 36.184L17.2641 36.008C14.8161 35.816 12.3041 36.424 9.87207 34.472V34.456Z" fill="white"/>
<path d="M34.5922 28.0401C36.4482 27.2401 36.3842 28.1041 36.8802 28.4881L38.0962 29.8481L39.0402 31.4481C39.1362 32.0721 40.1762 32.1841 39.3442 33.5921C37.3602 34.6321 37.6962 33.3201 37.0402 33.1761L35.6802 31.9441L34.6242 30.4401C34.3842 29.8481 33.5042 29.7841 34.5922 28.0561V28.0401Z" fill="white"/>
<path d="M25.9521 11.496C28.1121 10.056 29.8881 11.128 31.7121 12.136C32.6081 12.712 33.4561 13.48 34.0801 14.424C34.7041 15.368 35.0561 16.392 35.2801 17.384C35.5841 19.4 35.4881 21.16 35.4401 22.984C35.1521 24.568 35.7441 26.904 34.0641 28.296C32.0321 26.632 33.2321 24.584 32.8001 23.016C32.8001 23.016 32.7362 21.72 32.5762 20.456C32.4482 19.176 32.1601 18.088 32.1601 18.088C31.8881 16.584 31.2961 15.496 30.0961 14.648C28.9281 13.672 27.1681 13.816 25.9521 11.496Z" fill="white"/>
<path d="M19.2322 34.0079C20.1282 34.8079 20.5282 35.1919 20.7842 35.6719C21.0402 36.1199 21.2002 36.6479 21.6162 36.9999C22.3202 37.7839 23.2482 38.1519 24.2882 38.1039C25.3122 38.1679 26.4482 37.7999 27.2002 37.0479C27.6482 36.7759 27.8722 36.1679 28.1122 35.5759C28.3682 34.9679 28.6562 34.3759 29.4242 33.7679C30.5122 34.4079 30.6722 35.3999 30.4482 36.2959C30.2082 37.2079 29.6002 37.9759 29.2322 38.7279C29.2322 38.7279 29.0242 39.0159 28.6402 39.3999C28.2562 39.7679 27.6962 40.1999 27.0882 40.5359C25.8562 41.2239 24.4002 41.3199 24.4002 41.3199C22.4962 41.3679 20.5282 40.4559 19.3762 38.9999C18.8482 38.2639 18.2882 37.4959 18.0962 36.5839C17.9042 35.7039 18.1602 34.6319 19.2162 34.0239L19.2322 34.0079Z" fill="white"/>
</svg>
