<svg width="48" height="48" viewBox="0 0 48 48" fill="none" xmlns="http://www.w3.org/2000/svg">
<path d="M23.4392 33.0526C20.0312 33.1486 19.8152 31.1566 18.6872 29.7646L15.6872 25.3006L13.1432 20.5486C12.6872 18.9406 10.5752 17.6686 11.6552 15.1006C15.2312 14.5726 15.0632 17.3566 16.4552 18.3646L19.6952 22.6606L22.4312 27.2926C23.1752 28.9486 24.9272 29.9566 23.4632 33.0526L23.4392 33.0526Z" fill="white"/>
<path d="M36.0632 14.8365C37.5512 17.9085 35.8232 18.9645 35.0312 20.6205L32.1992 25.3005L28.9112 29.6925C28.2872 30.2445 27.8792 31.1805 27.1592 31.9965C26.4632 32.8125 25.3592 33.4845 24.0152 33.0525C23.6552 31.2765 23.7512 30.5565 24.2312 29.8125C24.6872 29.0925 25.3832 28.4445 25.5752 27.5805L28.1672 22.7565L31.2632 18.2445C32.4632 16.8525 32.6552 14.7885 36.1112 14.8125L36.0632 14.8365Z" fill="white"/>
</svg>
