<svg width="48" height="48" viewBox="0 0 48 48" fill="none" xmlns="http://www.w3.org/2000/svg">
<path d="M11.9365 33.1635C10.4485 30.0915 12.1765 29.0355 12.9685 27.3795L15.8005 22.6995L19.0885 18.3075C19.7125 17.7555 20.1205 16.8195 20.8405 16.0035C21.5365 15.1875 22.6405 14.5155 23.9845 14.9475C24.3445 16.7235 24.2485 17.4435 23.7685 18.1875C23.3125 18.9075 22.6165 19.5555 22.4245 20.4195L19.8325 25.2435L16.7365 29.7555C15.5365 31.1475 15.3445 33.2115 11.8885 33.1875L11.9365 33.1635Z" fill="white"/>
<path d="M24.5606 14.9474C27.9686 14.8514 28.1846 16.8434 29.3126 18.2354L32.3126 22.6994L34.8566 27.4514C35.3126 29.0594 37.4246 30.3314 36.3446 32.8994C32.7686 33.4274 32.9366 30.6434 31.5446 29.6354L28.3046 25.3394L25.5686 20.7074C24.8246 19.0514 23.0726 18.0434 24.5366 14.9474H24.5606Z" fill="white"/>
</svg>
