<svg width="48" height="48" viewBox="0 0 48 48" fill="none" xmlns="http://www.w3.org/2000/svg">
<path d="M15.6088 23.4479C15.5128 20.0399 17.5048 19.8239 18.8968 18.6959L23.3608 15.6959L28.1128 13.1519C29.7208 12.6959 30.9928 10.5839 33.5608 11.6639C34.0888 15.2399 31.3048 15.0719 30.2968 16.4639L26.0008 19.7039L21.3688 22.4399C19.7128 23.1839 18.7048 24.9359 15.6088 23.4719V23.4479Z" fill="white"/>
<path d="M33.8008 36.0479C30.7288 37.5359 29.6728 35.8079 28.0168 35.0159L23.3368 32.1839L18.9448 28.8959C18.3928 28.2719 17.4568 27.8639 16.6408 27.1439C15.8248 26.4479 15.1528 25.3439 15.5848 23.9999C17.3608 23.6399 18.0808 23.7359 18.8248 24.2159C19.5448 24.6719 20.1928 25.3679 21.0568 25.5599L25.8808 28.1519L30.3928 31.2479C31.7848 32.4479 33.8488 32.6399 33.8248 36.0959L33.8008 36.0479Z" fill="white"/>
</svg>
