<svg width="48" height="48" viewBox="0 0 48 48" fill="none" xmlns="http://www.w3.org/2000/svg">
<path d="M14.8364 11.9365C17.9084 10.4485 18.9644 12.1765 20.6204 12.9685L25.3004 15.8005L29.6924 19.0885C30.2444 19.7125 31.1804 20.1205 31.9964 20.8405C32.8124 21.5365 33.4844 22.6405 33.0524 23.9845C31.2764 24.3445 30.5564 24.2485 29.8124 23.7685C29.0924 23.3125 28.4444 22.6165 27.5804 22.4245L22.7564 19.8325L18.2444 16.7365C16.8524 15.5365 14.7884 15.3445 14.8124 11.8885L14.8364 11.9365Z" fill="#222222"/>
<path d="M33.0523 24.5606C33.1483 27.9686 31.1563 28.1846 29.7643 29.3126L25.3003 32.3126L20.5483 34.8566C18.9403 35.3126 17.6683 37.4246 15.1003 36.3446C14.5723 32.7686 17.3563 32.9366 18.3643 31.5446L22.6603 28.3046L27.2923 25.5686C28.9483 24.8246 29.9563 23.0726 33.0523 24.5366L33.0523 24.5606Z" fill="#222222"/>
</svg>
