<svg width="48" height="48" viewBox="0 0 48 48" fill="none" xmlns="http://www.w3.org/2000/svg">
<path d="M8.25537 8.26784C10.189 6.65649 12.1226 7.16675 14.0562 7.05933L19.8571 7.03247L25.658 7.30103C27.3633 7.58302 29.7938 6.99219 31.4589 8.28127C29.8206 10.1209 27.3902 9.18094 25.658 9.51664L19.8571 9.71806L14.0562 9.57035C12.136 9.40922 10.1621 9.91948 8.25537 8.28127V8.26784Z" fill="white"/>
<path d="M18.5143 31.8628C17.6549 33.4742 16.809 32.9639 15.9496 33.0713L13.3848 33.0982L10.8201 32.8296C10.0681 32.5476 8.99391 33.1385 8.25537 31.8494C8.98048 30.0098 10.0547 30.9497 10.8201 30.614L13.3848 30.4126L15.9496 30.5603C16.7955 30.7214 17.6684 30.2112 18.5143 31.8494V31.8628Z" fill="white"/>
<path d="M8.44656 8.39453C10.0579 10.3819 9.54765 12.3826 9.65507 14.37L9.68193 20.3454L9.41337 26.3208C9.13138 28.0799 9.72221 30.5909 8.43313 32.2963C6.5935 30.6043 7.53346 28.0933 7.19776 26.3208L6.99634 20.3454L7.14405 14.37C7.30518 12.3826 6.79492 10.355 8.43313 8.39453H8.44656Z" fill="white"/>
<path d="M16.5608 15.5343C18.1721 17.5216 18.0494 20.8844 18.1568 22.8717L18.1836 28.8472L17.9151 34.8226C17.6331 36.5817 18.2239 39.0927 16.9348 40.798C15.0952 39.1061 16.0352 36.5951 15.6995 34.8226L15.498 28.8472L15.6458 22.8717C15.8069 20.8844 14.9226 17.4948 16.5608 15.5343Z" fill="white"/>
<path d="M17.6235 16.5969C19.5572 14.9856 19.3653 15.6685 21.2989 15.561L27.0998 15.5342L32.9007 15.8027C34.606 16.0847 38.2758 15.3078 39.9408 16.5969C38.3026 18.4365 39.5476 18.3867 37.8154 18.7224L27.0998 18.2198L21.2989 18.0721C19.3788 17.9109 19.5303 18.2352 17.6235 16.5969Z" fill="white"/>
<path d="M39.5532 41.0398C37.9418 39.0958 38.4521 37.1387 38.3447 35.1948L38.3178 29.3498L38.5864 23.5048C38.8684 21.7841 38.2775 19.3279 39.5666 17.6598C41.4063 19.3148 40.4663 21.771 40.802 23.5048L41.0034 29.3498L40.8557 35.1948C40.6946 37.1387 41.2048 39.1221 39.5666 41.0398L39.5532 41.0398Z" fill="white"/>
<path d="M38.7017 40.3646C36.768 41.976 34.8344 41.4657 32.9008 41.5731L27.0999 41.6L21.299 41.3314C19.5937 41.0494 17.1632 41.6403 15.4982 40.3512C17.1364 38.5115 19.5668 39.4515 21.299 39.1158L27.0999 38.9144L32.9008 39.0621C34.821 39.2232 36.7949 38.713 38.7017 40.3512L38.7017 40.3646Z" fill="white"/>
<path d="M30.7454 17.3451C29.134 16.4857 29.6443 15.6264 29.5369 14.767L29.51 12.1888L29.7786 9.61064C30.0606 8.84524 29.4697 7.77101 30.7588 7.03247C32.5984 7.75758 31.6585 8.84524 31.9942 9.61064L32.1956 12.1888L32.0479 14.767C31.8868 15.6264 32.397 16.4992 30.7588 17.3451H30.7454Z" fill="white"/>
</svg>
