<svg width="48" height="48" viewBox="0 0 48 48" fill="none" xmlns="http://www.w3.org/2000/svg">
<mask id="mask0_166_12065" style="mask-type:alpha" maskUnits="userSpaceOnUse" x="-7" y="-7" width="62" height="62">
<rect x="-6.93188" y="22.4836" width="41.6" height="45.8888" transform="rotate(-45 -6.93188 22.4836)" fill="#D9D9D9"/>
</mask>
<g mask="url(#mask0_166_12065)">
<path fill-rule="evenodd" clip-rule="evenodd" d="M36.8143 32.9867C36.5416 32.85 36.2366 32.7514 35.9024 32.6918C35.9054 32.674 35.9161 32.642 35.9291 32.603C35.9664 32.4916 36.0228 32.3229 35.9724 32.2631C35.6815 31.9098 35.3599 31.5912 35.0347 31.2691C34.9638 31.1989 34.8928 31.1285 34.8218 31.0576C34.7502 30.986 34.6577 30.9294 34.5655 30.873C34.382 30.7608 34.1999 30.6494 34.1867 30.4225C34.1681 30.1925 33.9793 30.2034 33.785 30.2147C33.5908 30.2259 33.391 30.2374 33.3502 30.0086C33.2755 29.5829 33.0071 29.3204 32.7365 29.0557C32.4499 28.7754 32.1607 28.4926 32.0963 28.0108C30.6564 26.8218 29.2131 25.6348 27.7663 24.4501C27.7634 24.4477 27.7605 24.4453 27.7576 24.4429C29.4385 22.7708 31.1914 21.1982 32.9676 19.638C33.7785 18.922 34.6145 18.239 35.4505 17.5561C36.1402 16.9927 36.8299 16.4293 37.5056 15.8473C37.9579 15.4875 38.3343 15.0302 38.6306 14.4802C38.9473 13.8506 38.6717 13.258 37.702 12.0994C36.0867 10.1736 35.9507 10.0816 34.8089 10.2747C34.6479 10.2848 34.499 10.315 34.3635 10.365C32.3387 11.4084 30.5429 12.768 28.9892 14.4337C27.9371 15.5595 26.8445 16.6358 25.7524 17.7116C25.3653 18.0929 24.9783 18.4741 24.5932 18.8574C24.281 19.1665 23.9597 19.4642 23.6385 19.7617C23.44 19.9457 23.2415 20.1296 23.0451 20.3161C21.4747 18.712 19.9451 17.0672 18.4319 15.4073C17.7856 14.6959 17.1787 13.9462 16.5718 13.1965C16.0742 12.5817 15.5765 11.9669 15.057 11.3731C14.646 10.897 14.1497 10.5053 13.574 10.2028C13.0791 9.94461 12.5496 10.2561 11.763 11.0923C10.2108 12.7436 10.1271 12.9304 10.458 14.0559C10.5023 14.2028 10.5604 14.3385 10.6321 14.4624C11.6984 16.3726 13.0121 18.0606 14.5624 19.5126C14.9685 19.8977 15.3768 20.2806 15.785 20.6634C16.7716 21.5887 17.7581 22.5139 18.7139 23.4697C19.0466 23.7971 19.3673 24.1369 19.6851 24.4796C19.4724 24.7705 19.2564 25.0573 19.0335 25.3359L19.0058 25.3705C18.2919 26.2616 17.5811 27.1488 16.6325 27.7643C16.0358 28.1515 15.5552 28.6945 15.0742 29.2381C14.7805 29.57 14.4867 29.902 14.1661 30.1989C13.4921 30.824 12.8056 31.4333 12.1192 32.0424C11.3305 32.7424 10.5419 33.4424 9.77233 34.1662C9.59797 34.3304 9.51599 34.6124 9.42921 34.9109C9.38753 35.0543 9.34474 35.2014 9.29008 35.3412C10.6642 36.4615 11.6675 37.8888 12.7178 39.383C12.7981 39.4972 12.8786 39.6119 12.9597 39.7268C14.004 39.6463 14.5292 38.9213 15.0499 38.2026C15.2883 37.8736 15.5257 37.546 15.8115 37.282C15.9032 37.1973 15.8874 36.9739 15.8736 36.7782C15.8677 36.6952 15.8622 36.6172 15.8654 36.5569C15.9611 36.5704 16.0535 36.594 16.1364 36.6152C16.2792 36.6516 16.3938 36.6809 16.4486 36.6394C16.8167 36.3362 17.1521 35.992 17.4875 35.6479C17.5071 35.6277 17.5268 35.6075 17.5465 35.5873C17.748 35.3791 17.9549 35.1771 18.1618 34.9751C18.711 34.439 19.2605 33.9027 19.7094 33.2483C19.8376 33.0651 20.0441 33.0182 20.2465 32.9722C20.4311 32.9303 20.6121 32.8891 20.7273 32.7462L20.7274 32.7461C21.8917 31.3112 23.056 29.8763 24.2421 28.4679C24.6569 28.7653 25.0623 29.0723 25.4391 29.4088C26.7419 30.5696 27.9696 31.8068 29.1974 33.044C29.5043 33.3533 29.8113 33.6626 30.1194 33.9707C30.6143 34.4731 31.0823 35.0025 31.5503 35.5319C31.8792 35.9039 32.208 36.2759 32.5462 36.6385C33.1455 37.2758 33.7563 37.9035 34.402 38.4942C34.6411 38.7131 34.9213 38.8901 35.1993 39.0657C35.3278 39.1468 35.4559 39.2277 35.5793 39.3124C35.7873 39.0659 35.9785 38.8322 36.1613 38.6088C36.5446 38.1403 36.8908 37.7171 37.2776 37.3169C37.6697 36.9112 38.0993 36.5371 38.5577 36.1379C38.7671 35.9555 38.9825 35.768 39.203 35.5698C39.1189 35.4353 39.0426 35.3 38.9679 35.1676C38.7983 34.8668 38.6375 34.5817 38.4146 34.3588C37.9277 33.8549 37.3837 33.4081 36.8143 32.9867ZM31.4894 34.4837C31.4982 34.4155 31.5082 34.3392 31.5111 34.2594C31.7951 34.2995 31.9262 34.4974 32.0518 34.6871C32.2419 34.9739 32.4196 35.2422 33.0954 34.9182C32.8092 35.5297 33.0209 35.7398 33.2372 35.9545C33.3661 36.0824 33.4967 36.212 33.5244 36.4291C33.3527 36.2574 33.183 36.0835 33.0134 35.9096C32.6742 35.562 32.3353 35.2146 31.9798 34.8845C31.9257 34.8346 31.8321 34.8266 31.7397 34.8187C31.6473 34.8108 31.556 34.803 31.5064 34.7535C31.4593 34.7147 31.4724 34.614 31.4894 34.4837ZM29.5691 31.075L29.6135 31.0306L31.1215 32.5386L31.0771 32.583L29.5691 31.075ZM12.9319 32.8443C12.8516 32.9135 12.7678 32.9859 12.5895 32.8737L13.7737 31.9772C13.7706 32.1273 13.6967 32.2059 13.628 32.2789C13.5054 32.4094 13.3994 32.5223 13.7422 32.9929C13.6926 33.0643 13.6338 33.1247 13.5663 33.1737C13.1629 32.645 13.0513 32.7412 12.9319 32.8443ZM15.6995 30.1814L15.7704 30.275L15.3549 30.5896L15.284 30.496L15.6995 30.1814ZM16.0027 31.0043L15.911 30.8832L16.2687 30.6124L16.3125 30.6702L16.0027 31.0043ZM17.628 29.631L17.6384 29.6448L17.3329 29.876L17.3225 29.8623L17.628 29.631ZM11.5459 34.2052L11.6105 34.2905L11.3722 34.4189C11.3641 34.3991 11.3459 34.3565 11.3459 34.3565L11.5459 34.2052Z" fill="white"/>
</g>
</svg>
