<svg width="48" height="48" viewBox="0 0 48 48" fill="none" xmlns="http://www.w3.org/2000/svg">
<path d="M11.8828 39.062C13.9104 37.131 15.938 37.7425 17.9817 37.6137L24.0805 37.5815L30.1794 37.9034C31.9817 38.2413 34.5242 37.5333 36.2782 39.0781C34.5564 41.2827 31.9978 40.1563 30.1794 40.5586L24.0805 40.7999L17.9817 40.6229C15.9541 40.4298 13.8943 41.0413 11.8828 39.0781V39.062Z" fill="#222222"/>
<path d="M35.9399 39.3839C34.0089 38.708 34.6204 38.0322 34.4917 37.3563L34.4595 35.3287L34.7813 33.3011C35.1193 32.7057 34.4112 31.8529 35.956 31.2736C38.1606 31.8529 37.0342 32.7057 37.4365 33.3011L37.6779 35.3287L37.5009 37.3563C37.3077 38.0322 37.9192 38.7241 35.956 39.3839H35.9399Z" fill="#222222"/>
<path d="M12.1241 31.2736C14.0551 31.9494 13.4275 32.5931 13.5402 33.2529V35.2161L13.1862 37.1632C12.8482 37.7425 13.5402 38.5632 11.9793 39.0942C9.79075 38.5149 10.9172 37.7103 10.531 37.1149L10.3218 35.1517L10.531 33.2046C10.7402 32.5609 10.1287 31.8851 12.108 31.2736H12.1241Z" fill="#222222"/>
<path d="M24.1289 35.2804C23.3565 33.285 24.4347 33.0275 24.9818 32.2551L26.8646 30.1953L29.0048 28.3769C29.8094 28.0068 30.0829 26.6712 31.7726 27.1539C32.8347 29.2298 31.2255 29.3103 30.9519 30.1953L29.214 32.3838L27.1864 34.2988C26.414 34.8298 26.2209 35.9562 24.1611 35.2804H24.1289Z" fill="#222222"/>
<path d="M16.2273 27.1379C18.2871 26.5103 18.4802 27.5885 19.2526 28.1678L21.3124 30.1471L23.1308 32.4C23.5009 33.2368 24.8687 33.623 24.3055 35.2965C22.1492 36.2138 22.1492 34.6046 21.2641 34.2828L19.0756 32.4483L17.1446 30.2919C16.6135 29.4713 15.4549 29.1816 16.2434 27.1379H16.2273Z" fill="#222222"/>
<path d="M24.2414 7.19995C26.1724 9.51719 25.5609 11.8505 25.6896 14.1678L25.7218 21.1356L25.4 28.1034C25.062 30.1632 25.7701 33.0758 24.2253 35.0712C22.0207 33.0919 23.1471 30.1793 22.7448 28.1034L22.5034 21.1356L22.6804 14.1678C22.8735 11.8505 22.262 9.5011 24.2253 7.19995H24.2414Z" fill="#222222"/>
</svg>
