<svg width="48" height="48" viewBox="0 0 48 48" fill="none" xmlns="http://www.w3.org/2000/svg">
<path d="M12.1762 11.5339C12.3914 13.3483 12.6783 14.3713 12.9293 15.3943C13.1804 16.3787 13.539 17.2859 14.346 17.865C15.0992 18.4633 16.0855 18.7722 16.9821 18.6757C17.8429 18.5985 18.9367 18.0387 19.654 17.3631C20.4251 16.7262 20.8735 15.9155 20.9093 15.0469C20.9093 14.603 20.8555 14.3134 20.6045 13.8888C20.3713 13.4834 19.9051 12.9816 19.4568 12.4798C18.7215 11.4761 17.8249 10.9935 16.731 10.9356C15.6192 10.8584 14.5612 11.0128 13.1625 11.2251C13.0549 9.37214 14.9019 7.94379 16.749 8.0017C17.6815 8.0017 18.6319 8.27192 19.4568 8.73517C20.2637 9.19842 20.8734 9.75818 21.4294 10.1249L21.7163 10.3951C21.8956 10.5689 22.1467 10.8005 22.4694 11.1286C22.7922 11.476 23.1867 11.9393 23.5454 12.5956C23.904 13.2711 24.1192 14.1011 24.173 14.8925C24.2806 16.4753 23.7068 18.0001 23.115 18.9073C22.5232 19.8338 22.0032 20.2777 22.0032 20.2777C20.6224 21.4552 19.134 22.2079 17.3049 22.3817C15.4758 22.5168 13.7363 21.8991 12.3555 20.741C11.0285 19.5636 9.91668 17.8071 9.80908 15.9155C9.62976 14.0818 10.5085 12.0937 12.1941 11.5533L12.1762 11.5339Z" fill="#222222"/>
<path d="M21.0233 24.1144C19.3066 25.177 17.3295 26.2203 16.4199 26.9426C15.5488 27.6468 14.8034 28.4166 14.5874 29.4572C14.328 30.4557 14.4627 31.5388 14.9623 32.345C15.4264 33.1262 16.4777 33.9007 17.4755 34.2626C18.4588 34.6939 19.4706 34.7364 20.3549 34.3596C20.7986 34.1496 21.0638 33.9615 21.3754 33.5222C21.6757 33.109 21.9677 32.4286 22.2677 31.7654C22.9403 30.5921 23.0195 29.512 22.5856 28.4454C22.1629 27.3526 20.6365 26.1402 19.7954 24.9118C21.5991 23.9331 24.7535 25.2926 25.5261 27.0747C25.9453 27.9606 26.1025 28.9914 26.0104 29.9942C25.9102 30.9799 25.6248 31.8239 25.5082 32.5255L25.3671 32.9259C25.2741 33.1785 25.1555 33.5265 24.9727 33.9884C24.7705 34.4594 24.4849 35.0533 23.9902 35.7045C23.4762 36.3647 22.7434 36.9618 21.9766 37.3872C20.443 38.2381 18.6609 38.4142 17.4881 38.2811C16.296 38.1571 15.6185 37.873 15.6185 37.873C13.8209 37.1181 12.3993 36.0602 11.4033 34.4046C10.4459 32.7308 10.2812 30.7861 10.8179 28.9265C11.3981 27.1088 12.6538 25.2217 14.4961 24.2248C16.2482 23.1871 19.4312 22.2891 20.7292 23.6349L21.0233 24.1144Z" fill="#222222"/>
<path d="M38.962 30.1674C36.5641 31.4125 35.6904 30.0685 34.3626 29.4783L26.852 25.1784L23.3042 22.6735C22.8537 22.1919 22.1041 21.8897 21.4426 21.338C20.7815 20.8052 20.2255 19.9465 20.5377 18.8735C21.935 18.5495 22.5068 18.6096 23.1061 18.973C23.6859 19.318 24.214 19.8544 24.9019 19.9873L28.7761 21.9319L36.1596 26.4444C37.2875 27.3633 38.9249 27.4697 38.9821 30.2049L38.962 30.1674Z" fill="#222222"/>
<path d="M39.1145 14.584C38.9938 17.2833 37.393 17.3679 36.218 18.2227L28.7388 22.5771L24.7957 24.3971C24.1533 24.5465 23.5168 25.0446 22.7082 25.3416C21.9164 25.6477 20.8946 25.6999 20.1215 24.893C20.5396 23.5209 20.8775 23.0557 21.4919 22.7184C22.0805 22.3888 22.8091 22.1997 23.2682 21.6704L26.8894 19.2876L34.4891 15.1495C35.8488 14.6322 36.7596 13.2673 39.1569 14.5854L39.1145 14.584Z" fill="#222222"/>
</svg>
