<svg width="48" height="48" viewBox="0 0 48 48" fill="none" xmlns="http://www.w3.org/2000/svg">
<path d="M25.0994 11.6383C25.812 9.60655 27.0705 9.90979 28.1622 9.5459L31.5282 8.74229L34.9549 8.27225C35.4856 8.31774 36.0921 8.07514 36.7744 8.02965C37.4416 7.98417 38.2452 8.16612 38.6546 8.98489C38.0177 9.94012 37.6538 10.213 37.108 10.3192C36.5925 10.4405 35.9708 10.4102 35.5159 10.6982L32.1954 11.6838L28.799 12.2903C27.6315 12.3661 26.6308 13.1849 25.1145 11.6383H25.0994Z" fill="white"/>
<path d="M19.6409 27.8014C19.9138 24.9509 21.8849 23.8289 23.3557 22.1913L28.0105 17.5365L32.908 13.1242C34.5152 11.9719 36.0011 9.56104 38.3665 9.27295C38.5029 12.0628 35.7889 13.2455 34.6668 14.8982L30.1333 19.6895L25.3268 24.2079C23.6438 25.618 22.4611 27.6043 19.6257 27.8014H19.6409Z" fill="white"/>
<path d="M38.8822 9.22754C40.4288 10.7135 39.6251 11.699 39.519 12.8362L38.8519 16.1568L37.8511 19.4167C37.3356 20.3264 37.6995 21.8578 36.062 22.5098C34.2425 21.1452 35.5616 19.9625 35.41 18.9012L35.8952 15.5351L36.7594 12.2449C37.184 11.1835 36.8504 9.94017 38.8973 9.22754H38.8822Z" fill="white"/>
<path d="M21.3543 11.8961C20.384 13.7156 19.4287 13.1394 18.4583 13.2607L15.5623 13.291L12.6663 12.9878C11.8172 12.6694 10.6042 13.3365 9.77026 11.8809C10.589 9.80367 11.802 10.865 12.6663 10.486L15.5623 10.2585L18.4583 10.4253C19.4136 10.6073 20.3991 10.0311 21.3543 11.8809V11.8961Z" fill="white"/>
<path d="M9.81576 11.1379C11.6353 13.382 11.0591 15.6412 11.1804 17.8852L11.2107 24.6325L10.9075 31.3798C10.589 33.366 11.2562 36.2014 9.8006 38.127C7.72335 36.2166 8.78472 33.3812 8.40566 31.3798L8.17822 24.6325L8.34501 17.8852C8.52696 15.6412 7.95079 13.3517 9.8006 11.1379H9.81576Z" fill="white"/>
<path d="M10.0886 38.3393C12.272 36.5198 14.4554 37.096 16.6388 36.9747L23.1889 36.9443L29.7391 37.2476C31.6647 37.566 34.4091 36.8988 36.2893 38.3544C34.4395 40.4317 31.6951 39.3703 29.7391 39.7494L23.1889 39.9768L16.6388 39.81C14.4706 39.6281 12.2417 40.2043 10.0886 38.3544V38.3393Z" fill="white"/>
<path d="M36.1679 38.2635C34.3484 37.2931 34.9246 36.3227 34.8033 35.3523L34.7729 32.4411L35.0762 29.53C35.3946 28.6657 34.7275 27.4527 36.1831 26.6188C38.2603 27.4375 37.1989 28.6657 37.578 29.53L37.8054 32.4411L37.6386 35.3523C37.4567 36.3227 38.0329 37.3083 36.1831 38.2635H36.1679Z" fill="white"/>
</svg>
