<svg width="48" height="48" viewBox="0 0 48 48" fill="none" xmlns="http://www.w3.org/2000/svg">
<path d="M12.6791 14.1531C10.6056 16.8297 9.79511 20.0719 10.0025 23.0878C10.2098 26.1037 11.4727 28.9877 13.3954 31.3062C14.3567 32.456 15.4877 33.4739 16.7318 34.341C17.3538 34.7745 18.0135 35.1704 18.6921 35.5096L19.6346 35.962C19.6346 35.962 19.6911 35.9809 19.6723 35.962V34.8876L19.7477 29.8359V29.5343L15.4688 29.6097L15.6196 22.4469L19.3141 22.1265H19.333V22.0699C19.333 21.8249 19.2765 21.5987 19.2953 21.3348C19.2953 20.3169 19.4273 19.3179 19.7665 18.3565C20.3886 16.4527 21.8588 14.7186 23.6684 13.7761C24.5732 13.3049 25.5345 12.9844 26.5335 12.8525C27.0425 12.7959 27.5326 12.7582 28.0415 12.7771C28.23 12.7771 28.6824 12.8336 29.0782 12.8902C29.4741 12.9467 29.8322 13.0598 30.2092 13.1541L31.2648 13.5311L31.8114 13.7195C31.9434 13.7195 31.9245 13.8326 31.9245 13.9269V15.3029L31.8303 16.4904L31.4344 20.9201L29.4175 20.5431C29.0594 20.4677 28.8332 20.5054 28.6447 20.5242C28.5693 20.5242 28.5127 20.5619 28.4373 20.5808C28.1734 20.675 27.9096 20.8258 27.7399 21.0143C27.5703 21.184 27.4383 21.429 27.3441 21.6929C27.3064 21.806 27.3441 21.7306 27.3441 21.7495C27.3441 21.7495 27.3252 21.7495 27.3441 21.7683L31.5475 21.8626L31.4344 29.8548H27.6645C27.4195 29.8548 27.4949 29.8548 27.476 29.8548H27.3818V29.9679L27.3441 30.5711L27.2687 33.0215L27.1933 35.472L27.1556 36.6406C27.1556 36.7726 27.1556 36.7537 27.1744 36.8291C27.2121 36.9045 27.3064 36.9422 27.4006 36.9234C27.6645 36.9045 28.2677 36.6218 28.8332 36.2636C29.983 35.6039 31.0763 34.8122 32.0564 33.9074C34.0168 32.0979 35.6002 29.8359 36.5804 27.3478C37.1081 26.0849 37.5605 24.6523 37.6171 23.314C37.6736 21.9945 37.2401 20.5996 36.4861 19.2048C34.9593 16.3585 32.7162 13.7007 29.9265 11.9477C27.1556 10.1947 23.8003 9.3653 20.7279 9.77999C17.6365 10.1947 14.8468 11.8157 13.0372 14.0777C13.8478 11.288 16.5998 8.57361 20.2189 7.63113C23.838 6.6321 28.0038 7.42379 31.359 9.4407C34.7331 11.4765 37.2778 14.5678 38.9931 17.8099C39.8602 19.4498 40.5576 21.3725 40.5199 23.3705C40.4822 25.3309 39.9733 26.9519 39.4643 28.4976C39.4643 28.4976 39.2947 28.9689 38.8988 29.8359C38.5219 30.6842 37.881 31.8905 36.9008 33.2666C35.9018 34.6426 34.5634 36.1882 32.7727 37.6019C31.868 38.3182 30.8689 38.978 29.7568 39.5812C29.1348 39.8828 28.5127 40.2597 27.2687 40.3163C26.1377 40.3351 24.969 39.8262 24.3281 38.846C24.0454 38.4313 23.838 37.8659 23.7815 37.2438C23.7249 36.4898 23.7627 36.3013 23.7438 35.8678L23.7815 33.3608L23.8757 26.3299L27.7965 26.2922H27.8342V25.5571H27.8153C27.9095 25.5571 27.5891 25.5571 27.0236 25.5382C26.4016 25.5005 25.7796 25.5759 25.3837 25.4628L24.3658 25.2366C23.8004 24.2376 23.8003 23.9172 23.7815 23.936C23.4422 22.9558 23.4611 21.6929 23.7438 20.6939C23.9889 19.8645 24.4412 19.0728 25.0633 18.4319C25.6853 17.7911 26.4581 17.3575 27.2687 17.0748C27.476 16.9994 27.6834 16.9617 27.8907 16.9051C27.985 16.8863 28.0415 16.8863 28.0226 16.8863V16.5847C28.0226 16.5847 28.0792 16.5281 28.0226 16.5281C28.0226 16.5281 28.0603 16.5281 27.853 16.5281C27.5703 16.5093 27.2687 16.5281 26.9859 16.5658C26.4016 16.6412 25.8361 16.8297 25.3272 17.0936C24.2904 17.6214 23.5364 18.5073 23.1406 19.6195C22.9333 20.1661 22.8579 20.7693 22.839 21.3536C22.839 21.5044 22.839 21.6552 22.8579 21.8249C22.9333 22.1453 22.9898 22.56 23.1406 22.9558L24.0831 25.3874L19.8796 25.7456L19.1633 25.8021H19.0691V26.066H19.4084L23.2726 26.0095L23.1972 29.949L23.0652 35.0007L22.9898 38.7895L22.9144 39.9016L22.8767 40.4482C22.8579 40.6179 22.9333 40.9195 22.6694 40.7498L20.5205 40.0713C19.8042 39.8451 19.088 39.5623 18.3528 39.2607C17.7308 38.9968 17.4669 38.846 17.0145 38.6198C16.204 38.2051 15.4123 37.715 14.6771 37.1873C13.1692 36.1317 11.812 34.8499 10.6999 33.3796C8.45681 30.4391 7.19387 26.7069 7.53316 23.0501C7.85361 19.4121 9.79513 16.0192 12.6414 14.2285L12.6791 14.1531Z" fill="white"/>
</svg>
