<svg width="48" height="48" viewBox="0 0 48 48" fill="none" xmlns="http://www.w3.org/2000/svg">
<path d="M36.5999 28.4138C34.3125 27.2112 34.5394 27.7209 32.2521 27.6407L25.39 27.6207L18.5279 27.8211C16.5106 28.0315 12.1695 27.4517 10.1999 28.4138C12.1378 29.7867 10.665 29.7494 12.7141 30L25.39 29.6249L32.2521 29.5147C34.5235 29.3944 34.3443 29.6364 36.5999 28.4138Z" fill="white"/>
<path d="M9.59985 20.0138C11.8872 18.8112 11.6603 19.3208 13.9476 19.2407L20.8097 19.2206L27.6718 19.4211C29.6891 19.6315 34.0302 19.0517 35.9999 20.0137C34.062 21.3866 35.5347 21.3494 33.4856 21.6L20.8097 21.2249L13.9476 21.1146C11.6762 20.9944 11.8554 21.2364 9.59985 20.0138Z" fill="white"/>
<path d="M22.522 38.2782C21.3803 38.689 20.3039 38.0168 19.4775 36.9152C18.6294 35.8136 18.0097 34.3199 17.4334 32.8261C16.3243 29.7827 15.7263 26.1231 15.8568 22.4448C16.0416 18.7665 17.1616 15.1816 18.8034 12.941C19.5645 12.0261 20.467 10.9058 21.4782 10.2336C22.4893 9.56142 23.5875 9.33736 24.4791 9.99087C23.805 11.4846 22.9895 12.1754 22.1523 12.8476C21.3151 13.5011 20.467 14.2106 19.9885 15.2376C19.9885 15.2376 19.0317 16.6939 18.5533 18.6358C18.0205 20.5216 18.0205 22.6875 18.0205 22.6875C17.8683 25.5069 18.2924 28.457 19.1513 30.9777C19.5428 32.2847 20.1516 33.3489 20.7497 34.4132C21.3477 35.4775 21.9131 36.5791 22.5328 38.2596L22.522 38.2782Z" fill="white"/>
<path d="M23.5562 9.72177C24.6978 9.311 25.7743 9.98318 26.6006 11.0848C27.4487 12.1864 28.0685 13.6801 28.6447 15.1739C29.7538 18.2173 30.3518 21.8769 30.2213 25.5552C30.0365 29.2335 28.9166 32.8184 27.2747 35.059C26.5136 35.9739 25.6112 37.0942 24.6 37.7664C23.5888 38.4386 22.4906 38.6626 21.599 38.0091C22.2731 36.5154 23.0886 35.8246 23.9258 35.1524C24.7631 34.4989 25.6112 33.7894 26.0896 32.7624C26.0896 32.7624 27.0464 31.3061 27.5248 29.3642C28.0576 27.4784 28.0576 25.3125 28.0576 25.3125C28.2098 22.4931 27.7858 19.543 26.9268 17.0223C26.5354 15.7153 25.9265 14.6511 25.3285 13.5868C24.7304 12.5225 24.1651 11.4209 23.5453 9.74045L23.5562 9.72177Z" fill="white"/>
<path d="M21.2806 38.3769C19.5205 38.3769 17.2721 37.5037 13.665 35.1868C10.128 32.9083 7.86925 29.3059 7.30893 25.5034C6.79238 21.6777 8.1319 17.7443 10.9072 14.7654C13.7001 11.7865 17.8762 9.92367 22.2362 9.63117C26.6049 9.36946 31.07 10.7627 34.1605 13.503C37.2422 16.2125 38.9144 20.0151 38.8794 23.7868C38.8269 25.4572 38.4592 27.3046 37.645 29.0827C36.8395 30.8685 35.5788 32.585 33.9504 33.986C33.1624 34.7018 32.1206 35.3099 31.14 35.7256L29.7042 36.326C28.1897 36.9831 26.5608 38.3769 24.8007 38.3769C24.7725 38.4289 25.6523 38.3769 24.8007 38.3769C24.8007 36.8623 24.8007 36.8623 25.6877 36.6185C27.0695 36.326 27.6236 35.8976 28.2421 35.5255C28.9077 35.1428 29.6072 34.8083 30.2995 34.4632C31.2013 34.0168 31.9455 33.5549 32.6459 32.916C34.0729 31.6613 35.2286 30.1372 35.964 28.5439C36.7082 26.9505 37.0234 25.2878 36.9446 23.8022C36.9446 23.8022 36.9446 23.4866 36.9008 22.9401C36.857 22.3936 36.7432 21.6161 36.4805 20.7078C35.9815 18.8912 34.7033 16.5666 32.6546 14.8501C30.6497 13.1027 27.9532 12.1328 25.887 11.8326C24.8539 11.6633 23.9697 11.6402 23.3656 11.6479C22.7527 11.6633 22.4025 11.6864 22.4025 11.6864C18.6729 11.9096 15.0308 13.5107 12.632 16.0355C10.2331 18.5679 9.03366 22.0087 9.4539 25.2955C9.83036 28.5901 11.9316 31.7152 14.917 33.7781C16.3878 34.8173 17.3316 35.7256 19.1488 36.326C21.2806 36.8623 23.0406 36.8623 25.6877 36.6185L24.8007 38.3769H21.2806Z" fill="white"/>
<path d="M24.8007 38.3769C24.8007 36.8623 24.8007 36.8623 25.6877 36.6185M24.8007 38.3769L25.6877 36.6185M24.8007 38.3769H21.2806C19.5205 38.3769 17.2721 37.5037 13.665 35.1868C10.128 32.9083 7.86925 29.3059 7.30893 25.5034C6.79238 21.6777 8.1319 17.7443 10.9072 14.7654C13.7001 11.7865 17.8762 9.92367 22.2362 9.63117C26.6049 9.36946 31.07 10.7627 34.1605 13.503C37.2422 16.2125 38.9144 20.0151 38.8794 23.7868C38.8269 25.4572 38.4592 27.3046 37.645 29.0827C36.8395 30.8685 35.5788 32.585 33.9504 33.986C33.1624 34.7018 32.1206 35.3099 31.14 35.7256L29.7042 36.326C28.1897 36.9831 26.5608 38.3769 24.8007 38.3769ZM24.8007 38.3769C24.7725 38.4289 25.6523 38.3769 24.8007 38.3769ZM25.6877 36.6185C23.0406 36.8623 21.2806 36.8623 19.1488 36.326C17.3316 35.7256 16.3879 34.8173 14.917 33.7781C11.9316 31.7152 9.83036 28.5901 9.4539 25.2955C9.03366 22.0087 10.2331 18.5679 12.632 16.0355C15.0308 13.5107 18.6729 11.9096 22.4025 11.6864C22.4025 11.6864 22.7527 11.6633 23.3656 11.6479C23.9697 11.6402 24.8539 11.6633 25.887 11.8326C27.9532 12.1328 30.6497 13.1027 32.6546 14.8501C34.7033 16.5666 35.9815 18.8912 36.4805 20.7078C36.7432 21.6161 36.857 22.3936 36.9008 22.9401C36.9446 23.4866 36.9446 23.8022 36.9446 23.8022C37.0234 25.2878 36.7082 26.9505 35.964 28.5439C35.2286 30.1372 34.0729 31.6613 32.6459 32.916C31.9455 33.5549 31.2013 34.0168 30.2995 34.4632C29.6072 34.8083 28.9077 35.1428 28.2421 35.5255C27.6236 35.8976 27.0695 36.326 25.6877 36.6185Z" stroke="white" stroke-width="0.48"/>
</svg>
