<svg width="48" height="48" viewBox="0 0 48 48" fill="none" xmlns="http://www.w3.org/2000/svg">
<g clip-path="url(#clip0_762_8252)">
<path d="M39.7 9.27C38.47 9.27 38.47 9.25 37.23 9.25C35.99 9.25 36 9.24 34.77 9.24C33.54 9.24 33.54 9 32.31 9C31.08 9 31.08 9.22 29.84 9.22C28.6 9.22 28.61 9.01 27.37 9.01C26.13 9.01 26.14 9.13 24.9 9.13C23.66 9.13 23.67 9.08 22.44 9.08C21.21 9.08 21.21 9.1 19.97 9.1C18.73 9.1 18.74 9.01 17.51 9.01C16.28 9.01 16.28 9.01 15.04 9.01C13.8 9.01 13.81 9.23 12.57 9.23C11.33 9.23 11.33 9.22 10.1 9.22C8.87 9.22 8.86 9.12 7.63 9.12C7.24 9.12 6.84 9.27 6.57 9.54C6.29 9.82 6.06 10.22 6.06 10.6C6.06 11.79 6.06 11.79 6.06 12.99C6.06 14.19 6.15 14.18 6.15 15.37C6.15 16.56 6.28 16.56 6.28 17.75C6.28 18.94 6.32 18.94 6.32 20.14C6.32 21.34 6.18 21.33 6.18 22.52C6.18 23.71 6.25 23.71 6.25 24.9C6.25 26.09 6.28 26.09 6.28 27.29C6.28 28.49 6.12 28.48 6.12 29.68C6.12 30.88 6 30.88 6 32.07C6 33.26 6.05 33.27 6.05 34.46C6.05 35.65 6.32 35.66 6.32 36.85C6.32 37.24 6.23 37.69 6.5 37.97C6.77 38.24 7.23 38.43 7.62 38.43C8.85 38.43 8.85 38.17 10.09 38.17C11.33 38.17 11.32 38.42 12.55 38.42C13.78 38.42 13.78 38.26 15.02 38.26C16.26 38.26 16.25 38.21 17.49 38.21C18.73 38.21 18.72 38.26 19.96 38.26C21.2 38.26 21.19 38.2 22.43 38.2C23.67 38.2 23.66 38.24 24.89 38.24C26.12 38.24 26.12 38.48 27.36 38.48C28.6 38.48 28.59 38.2 29.83 38.2C31.07 38.2 31.06 38.2 32.3 38.2C33.54 38.2 33.53 38.44 34.77 38.44C36.01 38.44 36.01 38.16 37.24 38.16C38.47 38.16 38.48 38.35 39.71 38.35C40.1 38.35 40.53 38.22 40.8 37.95C41.07 37.68 41.08 37.25 41.08 36.86C41.08 35.67 41.32 35.67 41.32 34.47C41.32 33.27 40.99 33.28 40.99 32.09C40.99 30.9 41.28 30.9 41.28 29.71C41.28 28.52 41.08 28.52 41.08 27.32C41.08 26.12 41.04 26.13 41.04 24.94C41.04 23.75 41.04 23.75 41.04 22.56C41.04 21.37 41.15 21.37 41.15 20.17C41.15 18.97 41.21 18.98 41.21 17.78C41.21 16.58 41.1 16.59 41.1 15.39C41.1 14.19 41.17 14.19 41.17 13C41.17 11.81 41.05 11.8 41.05 10.61C41.05 10.22 41.11 9.76 40.84 9.49C40.57 9.22 40.1 9.28 39.72 9.28L39.7 9.27ZM38.32 35.49C37.18 36.4 36.59 36.14 35.28 35.49C34.63 35.16 35.9 34.39 35.28 34.02C34.24 33.39 34.11 33.8 32.9 33.8C31.69 33.8 31.68 34.02 30.47 34.02C29.26 34.02 29.01 33.2 27.97 33.83C27.34 34.2 28.65 35.01 28.03 35.39C27.02 36.01 26.85 35.34 25.67 35.34C24.49 35.34 24.49 35.36 23.31 35.36C22.13 35.36 22.13 35.27 20.94 35.27C19.75 35.27 19.76 35.27 18.57 35.27C17.38 35.27 17.39 35.49 16.2 35.49C15.01 35.49 15.01 35.48 13.83 35.48C12.65 35.48 12.64 35.38 11.46 35.38C10.28 35.38 9.96 36.21 9.12 35.38C8.28 34.55 9.19 34.25 9.19 33.08C9.19 31.91 9.19 31.91 9.19 30.75C9.19 29.59 9.1 29.58 9.1 28.42C9.1 27.26 8.97 27.26 8.97 26.09C8.97 24.92 8.93 24.92 8.93 23.76C8.93 22.6 9.07 22.59 9.07 21.43C9.07 20.27 9 20.26 9 19.1C9 17.94 8.97 17.93 8.97 16.77C8.97 15.61 9.13 15.6 9.13 14.43C9.13 13.26 8.36 13.02 9.21 12.21C10.06 11.4 10.31 12.21 11.52 12.21C12.73 12.21 12.73 11.94 13.95 11.94C15.17 11.94 15.16 12.22 16.38 12.22C17.6 12.22 17.59 12.22 18.81 12.22C20.03 12.22 20.03 11.96 21.24 11.96C22.45 11.96 22.45 12.21 23.67 12.21C24.89 12.21 24.88 12.05 26.1 12.05C27.32 12.05 27.32 12 28.53 12C29.74 12 29.75 12.05 30.96 12.05C32.17 12.05 32.18 11.99 33.39 11.99C34.6 11.99 34.61 12.03 35.83 12.03C37.05 12.03 37.27 11.38 38.15 12.22C39.03 13.06 38.38 13.26 38.38 14.43C38.38 15.6 38.38 15.6 38.38 16.76C38.38 17.92 38.14 17.93 38.14 19.09C38.14 20.25 38.42 20.25 38.42 21.42C38.42 22.59 38.23 22.59 38.23 23.75C38.23 24.91 38.18 24.92 38.18 26.08C38.18 27.24 38.35 27.25 38.35 28.41C38.35 29.57 38.11 29.58 38.11 30.74C38.11 31.9 38.16 31.9 38.43 33.04C38.74 34.32 39.25 34.78 38.34 35.51L38.32 35.49ZM21.05 20.39C21.05 19.73 21.36 19.02 21.83 18.55C22.3 18.08 23.01 17.8 23.67 17.8C24.33 17.8 24.88 18.27 25.33 18.73C25.78 19.19 26.24 19.7 26.24 20.39C26.24 21.08 25.79 21.61 25.34 22.07C24.89 22.53 24.36 22.88 23.67 22.88C22.98 22.88 22.4 22.57 21.95 22.11C21.5 21.65 21.06 21.08 21.06 20.39H21.05ZM14.37 22.69C14.37 21.65 15.34 20.71 16.37 20.71C16.87 20.71 17.41 20.95 17.77 21.3C18.12 21.65 18.11 22.2 18.11 22.7C18.11 23.74 17.41 24.64 16.37 24.64C15.33 24.64 14.37 23.73 14.37 22.7V22.69ZM28.95 22.69C28.95 22.19 29.2 21.64 29.55 21.29C29.9 20.94 30.45 20.72 30.95 20.72C31.45 20.72 31.82 21.11 32.18 21.47C32.53 21.82 32.91 22.2 32.91 22.7C32.91 23.74 31.99 24.43 30.95 24.43C29.91 24.43 28.95 23.73 28.95 22.7V22.69ZM35.45 28.3C35.45 28.93 35.95 29.4 35.37 29.65C34.03 30.23 33.87 29.65 32.41 29.65C30.95 29.65 30.95 29.41 29.49 29.41C28.03 29.41 28.03 29.63 26.57 29.63C25.11 29.63 25.11 29.42 23.65 29.42C22.19 29.42 22.19 29.54 20.73 29.54C19.27 29.54 19.27 29.49 17.81 29.49C16.35 29.49 16.35 29.51 14.89 29.51C13.43 29.51 13.37 30.01 12.03 29.43C11.45 29.18 12.11 28.92 12.11 28.3C12.11 27.53 12.66 26.75 13.67 26.3C14.45 25.95 15.43 25.74 16.35 25.74C17.15 25.74 17.97 26 18.69 26.28C19.27 25.75 20.1 25.32 21.03 25.02C21.86 24.75 22.75 24.66 23.65 24.66C24.55 24.66 25.42 24.81 26.25 25.08C27.18 25.38 28.03 25.73 28.61 26.26C29.32 25.98 30.14 25.69 30.95 25.69C31.87 25.69 32.89 25.87 33.67 26.23C34.68 26.69 35.45 27.54 35.45 28.31V28.3Z" fill="white"/>
</g>
<defs>
<clipPath id="clip0_762_8252">
<rect width="35.32" height="29.48" fill="white" transform="translate(6 9)"/>
</clipPath>
</defs>
</svg>
