<svg width="48" height="48" viewBox="0 0 48 48" fill="none" xmlns="http://www.w3.org/2000/svg">
<path d="M9.94186 15.6456C9.79084 15.7816 9.56862 16.1274 9.39098 16.1202C8.15298 16.0711 6.80522 16.826 5.64575 15.8325C5.98301 13.8816 6.3452 12.0353 6.15201 10.1366C6.5757 9.95115 6.96949 9.63609 7.32388 9.64674C9.29875 9.70716 11.2617 9.87399 13.2361 9.94828C14.3876 9.99246 15.5811 9.7322 16.7015 9.97078C17.8219 10.2094 18.9667 10.0783 20.1165 9.95143C21.6678 9.77899 23.2388 9.40358 24.7859 9.27238C26.0792 9.16536 27.3468 9.29531 28.6287 9.30174C30.7055 9.30653 32.7794 9.35275 34.8652 9.28209C37.1417 9.20294 39.3729 9.51144 41.5425 10.2053C41.6736 10.2658 41.8002 10.3497 41.9213 10.4564C42.8651 11.1273 42.8963 11.2884 42.6767 13.7924C42.5431 15.2973 42.319 15.9113 41.6498 16.1325C41.0514 16.3118 40.4619 16.3691 39.8877 16.3037C37.9205 16.1572 35.9689 15.8978 33.9984 15.7752C31.6285 15.6218 29.2663 15.4939 26.8843 15.4888C25.1343 15.4908 23.36 15.6987 21.5938 15.8484C19.7562 16.0056 17.9152 16.1973 16.0743 16.389C15.6916 16.4302 15.4205 15.95 14.9995 16.0242C13.9254 16.2243 12.8749 16.1313 11.8161 16.1488C11.3075 16.1552 10.7984 16.165 10.2959 16.1164C10.1883 16.1015 10.0999 15.8557 9.94186 15.6456ZM10.2298 10.7248C10.3462 11.2359 10.8566 10.5256 10.7084 11.6276C10.7908 11.6408 10.8751 11.6396 10.9607 11.6242C11.1016 10.7269 11.3994 11.2177 11.7011 10.9283L10.2298 10.7248ZM14.3166 11.1365L14.3327 11.0202L13.8165 10.9488L13.8004 11.0651L14.3166 11.1365ZM13.986 11.666L13.9652 11.8165L14.4205 11.7993L14.4304 11.7274L13.986 11.666ZM16.0832 12.0118L16.0855 11.9947L15.706 11.9422L15.7036 11.9593L16.0832 12.0118ZM8.53574 11.0344L8.5504 10.9284L8.30197 10.894C8.30197 10.894 8.28478 10.937 8.27642 10.9567L8.53574 11.0344Z" fill="white"/>
<mask id="mask0_166_12050" style="mask-type:alpha" maskUnits="userSpaceOnUse" x="3" y="8" width="42" height="32">
<rect x="3.19995" y="8.80005" width="41.6" height="30.4" fill="#D9D9D9"/>
</mask>
<g mask="url(#mask0_166_12050)">
<path d="M4.80005 21.7248C5.34654 20.9302 5.92735 20.7872 6.5325 20.8009C10.5382 20.8889 14.5352 20.9219 18.5366 21.0759C22.7025 21.2299 26.867 21.5241 31.0329 21.6973C34.2159 21.8293 37.4019 21.8403 40.5864 21.9723C41.1766 22.0358 41.7621 22.2108 42.3345 22.4947C42.8496 22.7175 43.1657 23.7431 43.1085 24.7412C43.0876 25.1064 43.0833 25.4745 43.0956 25.8411C43.1201 26.1884 43.1549 26.5327 43.2001 26.8722C42.8961 27.0095 42.5872 27.1015 42.2759 27.1472C39.9426 27.161 37.605 27.2847 35.2746 27.0977C32.8268 26.8997 30.3805 26.9355 27.9342 26.8557C22.3377 26.6724 16.7417 26.4708 11.1462 26.2508C9.76564 26.1931 8.38798 25.9538 7.01032 25.7641C6.65404 25.7093 6.30139 25.5877 5.9574 25.4012C5.19776 24.9997 4.83582 24.0263 4.81293 22.503C4.81722 22.2582 4.8072 22.0328 4.80005 21.7248ZM41.7094 22.8494V23.0364H42.1214C42.1214 22.9622 42.1214 22.8879 42.1214 22.8109L41.7094 22.8494ZM41.7566 25.9538C41.944 24.9612 41.944 24.9612 41.6307 24.9997C41.665 25.3187 41.7079 25.6376 41.7494 25.9538H41.7566ZM31.711 26.3636L31.6809 26.4983H32.3962V26.3636H31.711ZM31.472 24.579L31.4506 24.4883H31.0715V24.579H31.472ZM42.3832 26.8035L42.4075 26.6523H41.871V26.8035H42.3832Z" fill="white"/>
<path d="M38.7469 31.8187C39.0254 31.6245 39.3108 31.4786 39.6002 31.3824C40.3008 31.2778 41.0014 31.209 41.702 31.221C42.156 31.221 42.61 31.4033 43.1158 31.5198C43.0654 32.4642 42.9757 33.2949 42.9897 34.1167C43.0037 34.9385 43.1158 35.7334 43.1999 36.7286C42.7347 36.8152 42.2625 36.9617 41.7889 36.9826C40.9146 37.0214 40.0388 37.0095 39.1645 36.9826C37.9637 36.9407 36.7628 36.8212 35.562 36.8122C33.3832 36.8122 31.2043 36.7704 29.0269 36.8959C27.5472 36.9796 26.0731 37.4159 24.5935 37.5115C23.0872 37.6071 21.5781 37.4398 20.0718 37.4517C18.1606 37.4517 16.2494 37.5384 14.3382 37.5892C12.2152 37.6588 10.0927 37.3941 7.98797 36.7973C7.84968 36.7604 7.71257 36.7055 7.57742 36.6329C6.54755 36.0711 6.47469 35.8799 6.40463 33.6147C6.3696 32.4671 6.52373 31.8725 7.05618 31.7051C7.67723 31.512 8.30513 31.438 8.93237 31.484C10.6797 31.6005 12.4241 31.8665 14.1714 31.9502C17.0144 32.0816 19.8589 32.1773 22.7033 32.1653C24.1913 32.1653 25.6794 31.8904 27.1661 31.744C29.0269 31.5587 30.8867 31.3774 32.7456 31.2001C33.4967 31.7738 34.3164 31.215 35.045 31.726C35.4261 31.992 35.5774 31.1284 35.9291 31.4272C36.1841 31.6543 36.5246 31.4272 36.8273 31.4272C37.3878 31.4272 37.9384 31.4123 38.4933 31.466C38.5984 31.475 38.7063 31.7619 38.7469 31.8187ZM36.7502 36.0323C36.9086 36.2026 37.0038 36.3939 37.0963 36.3849C37.2364 36.3849 37.3766 36.1488 37.5237 36.1428C38.2509 36.1159 38.9795 36.1428 39.7081 36.1428C39.2443 35.7842 38.7035 36.3909 38.3364 35.3778C37.923 36.5522 37.3261 35.599 36.7502 36.0323ZM33.1253 35.0909V35.1537H35.258V35.0909H33.1253Z" fill="white"/>
</g>
</svg>
