<svg width="1513" height="6" viewBox="0 0 1513 6" fill="none" xmlns="http://www.w3.org/2000/svg">
<path d="M1512.55 1.66527C1512.78 1.40649 1512.06 1.14771 1511 1.14771C1378.09 1.07377 1115.76 2.82054 976.531 1.12923C979.978 1.08302 983.008 1.1662 984.296 1.05529C954.147 0.907415 919.907 1.00908 889.72 1.22165C926.687 0.297434 950.246 1.20316 982.554 0.898173C977.781 0.861205 952.972 0.84272 968.842 0.814994C956.798 0.546972 931.421 0.787267 926.649 0.704088C912.408 0.426824 960.737 0.768783 959.752 0.565456C951.003 0.334402 916.725 0.500761 913.847 0.315918C913.885 0.546972 912.824 0.500761 913.279 0.565456C740.527 0.768783 555.845 0.528487 382.602 0.833478C382.942 0.833478 383.208 0.833478 383.321 0.851962C382.753 0.879689 380.481 0.851962 382.45 0.833478C271.285 1.38801 173.073 0.00168496 87.6631 1.68376C104.404 0.371371 22.0244 1.18468 15.3962 1.26786C5.62421 1.22165 12.5176 1.54512 15.0174 1.36028C15.5477 2.13662 2.21539 1.39725 4.67732 2.26601C-31.8728 8.25492 202.692 3.25492 228.675 4.66897C222.577 4.19762 257.574 4.90926 260.452 4.65048C258.975 4.62276 256.362 4.55806 253.445 4.53958C245.946 4.52109 265.376 4.11444 261.816 4.65048C263.331 4.8076 268.444 4.34549 267.838 4.65048C270.944 4.73366 291.321 3.91111 278.102 4.64124C290.033 4.3917 294.275 5.12183 283.746 4.23459C389.003 5.03865 495.358 3.99429 598.531 4.25307C801.621 4.04974 995.734 4.13292 1191.78 4.50261C1187.95 4.20686 1195.98 4.11444 1193.94 4.50261C1249.31 4.51185 1278.51 4.57655 1332 4.68745C1323.36 4.52109 1325.44 4.15141 1334.42 4.41019C1370.14 5.01093 1469.79 5.14956 1508.95 4.66897C1508.19 4.49337 1510.73 4.54882 1510.69 4.64124C1511 3.96657 1511.53 3.96657 1510.58 4.0405C1510.66 4.0405 1508.8 4.27156 1509.33 3.90187C1509.59 3.71703 1511.07 3.81869 1509.48 3.63385C1510.47 3.63385 1513.15 3.38431 1510.39 3.45825C1505.35 2.9222 1514.18 3.43976 1512.66 3.07932C1511.98 2.89448 1512.13 2.16435 1512.55 1.66527ZM919.945 0.694846C923.467 0.722572 920.134 0.787267 918.278 0.694846C917.142 0.657877 917.521 0.657877 919.945 0.694846ZM30.6222 1.32331C30.6222 1.32331 31.1525 1.30483 31.0388 1.33255C30.9631 1.3418 30.6222 1.3418 30.6222 1.32331ZM32.4024 1.03681C32.5917 1.03681 32.6675 1.03681 32.7811 1.04605H31.9479C31.9479 1.04605 32.213 1.03681 32.4024 1.03681ZM32.8948 1.20316C32.8948 1.20316 32.7811 1.19392 32.8948 1.18468V1.20316ZM65.2406 1.59133C54.4082 1.36952 72.2855 1.33255 75.2398 1.61906C74.8611 1.61906 66.2254 1.59133 65.2406 1.59133ZM111.941 1.15695C118.835 1.15695 109.82 1.20316 108.608 1.1662C109.101 1.15695 110.578 1.15695 111.941 1.15695ZM148.946 2.7466C148.378 2.7466 148.567 2.73736 148.946 2.73736V2.7466ZM161.634 1.30483C140.916 1.72072 108.533 1.48967 103.912 1.32331C118.153 1.21241 149.704 1.26786 167.316 1.24013C165.574 1.24013 163.642 1.26786 161.634 1.30483ZM170.497 1.82239C169.626 1.8039 171.065 1.75769 171.028 1.82239C171.028 1.82239 170.8 1.82239 170.497 1.82239ZM168.414 1.24013C169.853 1.22165 171.141 1.23089 172.24 1.24013C171.065 1.24937 169.778 1.24937 168.414 1.24013ZM176.444 1.2771C176.444 1.2771 175.042 1.25862 172.921 1.24013C176.141 1.25862 177.769 1.23089 179.55 1.26786C179.322 1.2771 178.186 1.2771 176.444 1.2771ZM178.679 1.05529C178.679 1.05529 180.648 1.03681 180.837 1.05529C180.421 1.07377 178.906 1.07377 178.679 1.05529ZM188.867 1.47119C188.867 1.47119 188.526 1.47119 188.375 1.46194C188.981 1.46194 189.132 1.46194 188.867 1.47119ZM244.014 1.07377C242.992 1.05529 244.847 1.02756 244.772 1.05529C244.658 1.06453 244.317 1.07377 244.014 1.07377ZM248.105 3.84642C246.969 3.84642 247.347 3.81869 248.105 3.82793V3.84642ZM311.395 4.38246C284.806 4.51185 320.561 4.04974 321.356 3.90187C321.356 3.9296 316.849 4.38246 311.395 4.38246ZM325.182 0.907415H323.061C321.432 0.888931 326.545 0.898173 325.182 0.907415ZM367.376 0.944384C368.322 0.9259 368.891 0.9259 369.837 0.944384C371.277 0.953626 365.898 0.953626 367.376 0.944384ZM353.93 4.32701C348.4 4.35474 337.567 4.38246 330.788 4.48413C328.742 3.8649 355.028 4.30852 353.93 4.32701ZM373.171 4.32701C372.489 4.35474 364.838 4.35474 364.383 4.33625C363.399 4.38246 374.761 3.72627 373.171 4.32701ZM383.018 4.18838C382.488 4.18838 376.958 4.30852 376.352 4.30852C376.92 4.24383 385.518 4.07747 383.018 4.18838ZM396.805 0.851962C397.07 0.84272 397.752 0.84272 398.017 0.851962C397.676 0.861205 397.146 0.861205 396.805 0.851962ZM448.051 0.796509C451.308 0.796509 447.634 0.805752 447.066 0.805752C447.293 0.796509 447.634 0.796509 448.051 0.796509ZM442.294 2.82054C441.309 2.80206 445.589 2.35843 445.4 2.58024C445.097 2.60797 442.748 2.84827 442.294 2.82054ZM450.854 3.43976C450.058 3.39355 446.763 3.02387 445.475 3.08856C446.915 2.96841 452.369 3.36583 450.854 3.43976ZM445.665 2.47858C446.271 2.4601 450.475 2.43237 449.983 2.4601C451.081 2.47858 445.93 2.49706 445.665 2.47858ZM453.656 2.56176C452.444 2.56176 450.854 2.25677 450.854 2.23828C451.232 2.23828 457.974 2.11814 453.656 2.56176ZM452.823 1.57285C448.581 1.59133 445.551 1.35104 445.021 1.33255C443.127 1.22165 466.193 1.37876 452.823 1.57285ZM462.027 3.21795L460.323 2.82978C458.656 2.46934 464.11 3.07008 462.027 3.21795ZM506.645 2.50631C508.387 2.50631 510.091 2.96841 508.804 2.97766C504.41 2.75584 499.562 2.13662 506.645 2.50631ZM474.715 1.693C477.821 1.85011 492.441 0.944384 481.647 1.90557C482.291 1.83163 467.671 1.66527 474.715 1.693ZM482.518 2.26601C483.957 2.06268 486.798 2.59873 486.23 2.87599C485.396 2.87599 482.518 2.32146 482.518 2.26601ZM497.062 2.17359C492.214 1.85011 501.797 1.70224 501.948 1.60982C501.948 1.63754 499.032 2.20132 497.062 2.17359ZM508.652 3.67082C505.092 3.67082 502.743 3.65233 502.743 3.65233C501.304 2.76509 521.416 4.06823 508.652 3.67082ZM518.879 3.48597C512.478 3.06084 522.287 3.18098 522.704 3.19947C522.704 3.21795 520.621 3.48597 518.879 3.48597ZM554.671 2.4601C559.746 3.20871 552.853 2.67266 552.096 2.45085C552.399 2.43237 553.611 2.44161 554.671 2.4601ZM532.817 3.06083C529.787 3.52294 531.794 2.83902 532.324 2.77433C534.256 2.62645 535.885 2.89448 532.817 3.06083ZM537.854 2.41388C537.627 2.29374 529.597 1.84087 534.748 1.98875C536.377 1.93329 536.832 2.00723 534.9 1.98875C536.756 2.00723 538.536 2.3954 537.854 2.41388ZM543.687 1.90557C541.301 1.90557 544.255 1.43422 546.49 1.55437C546.263 1.56361 544.445 1.90557 543.687 1.90557ZM558.913 3.79096C560.125 3.80945 540.884 3.85566 550.05 3.78172C554.785 4.26231 564.329 2.18283 558.913 3.79096ZM575.957 3.59688C571.412 3.61536 580.275 3.21795 580.464 3.19947C581.071 3.23644 577.397 3.62461 575.957 3.59688ZM586.335 1.72072C585.199 1.57285 590.994 1.93329 591.676 1.74845C590.994 1.82239 587.282 2.19207 586.335 1.72072ZM605.273 2.89448C600.274 2.89448 601.599 2.80205 605.917 2.70963C611.03 3.14401 609.629 3.07932 605.273 2.89448ZM629.324 2.20132C629.324 2.20132 621.37 2.23828 621.067 2.22904C621.029 2.31222 633.225 1.24937 629.324 2.20132ZM722.536 0.879689C723.824 0.851962 724.506 0.861205 724.582 0.879689C726.362 1.37876 719.961 0.84272 722.536 0.879689ZM650.118 1.26786C647.239 1.88708 642.732 1.26786 639.323 1.26786C639.323 1.24013 649.133 1.23089 650.118 1.26786ZM638.036 2.21056C636.028 2.73736 634.437 2.70039 636.786 1.94254C638.452 1.50815 641.444 1.57285 638.036 2.21056ZM648.489 4.07747C646.823 4.07747 641.255 4.07747 640.687 4.01278C642.05 3.99429 656.557 3.39355 648.489 4.07747ZM661.746 4.07747C657.201 4.00353 657.504 3.62461 660.307 3.69854C664.208 3.58764 668.791 3.754 661.746 4.07747ZM676.972 2.55252C675.305 2.54328 676.442 2.0442 678.563 2.0442C682.464 2.18283 681.517 2.51555 676.972 2.55252ZM688.07 1.44346C680.949 1.30483 687.577 1.01832 690.115 1.15695C694.849 0.944384 695.266 1.17544 688.07 1.44346ZM701.478 3.96657C693.865 3.98505 701.326 3.68006 703.977 3.59688C705.189 3.62461 703.22 3.96657 701.478 3.96657ZM708.295 2.83902C708.219 2.90372 707.765 3.14401 705.265 2.82978C700.834 2.0442 709.962 2.70963 708.295 2.83902ZM714.431 2.88523C711.628 2.88523 706.629 2.61721 712.159 2.61721C712.727 1.94254 717.991 2.77433 714.431 2.88523ZM718.143 1.33255C716.59 1.23089 710.909 1.04605 715.87 0.741057C716.855 0.741057 722.915 1.4527 718.143 1.33255ZM721.779 3.69854C722.158 3.68006 724.051 3.02387 726.968 3.34734L721.779 3.69854ZM749.883 0.851962C752.269 0.851962 759.806 0.824236 761.548 0.870447C762.798 1.1015 743.974 1.89632 749.883 0.851962ZM765.336 0.851962C765.866 0.824236 767.836 0.833478 768.328 0.888931C754.352 2.09041 764.048 0.907415 765.336 0.851962ZM789.387 3.66157C788.554 3.66157 784.577 3.3381 784.577 3.31962C784.577 3.31037 787.91 3.18098 788.44 3.18098C792.72 3.22719 790.713 3.71703 789.387 3.66157ZM839.307 2.45085C836.542 2.59873 829.838 2.59873 829.838 2.45085C828.664 2.43237 841.618 2.28449 839.307 2.45085ZM848.814 3.64309C827.225 3.72627 859.533 3.21795 858.056 3.47673C858.056 3.58764 858.889 3.58764 848.814 3.64309ZM865.101 1.88708C864.116 1.88708 863.283 1.84087 863.283 1.79466C863.662 1.55437 869.002 1.85011 865.101 1.88708ZM878.206 1.72997C877.827 1.85011 876.691 1.87784 874.077 1.94254C860.328 2.09965 878.812 1.35104 878.206 1.72997ZM885.023 1.81315C891.917 1.78542 886.501 2.12738 882.713 1.82239C882.902 1.81315 883.66 1.81315 885.023 1.81315ZM885.251 2.27525C887.637 2.27525 889.531 2.33071 889.531 2.38616C888.356 2.45085 875.782 2.26601 885.251 2.27525ZM912.635 3.91111C905.855 4.30852 893.735 4.01278 886.463 3.69854C891.538 3.85566 913.165 3.65233 912.635 3.91111ZM1031.03 2.49706C1029.75 2.56176 1025.92 2.56176 1024.63 2.49706C1026.34 2.37692 1029.14 2.38616 1031.03 2.49706ZM1017.93 1.693C1024.14 1.55437 1027.59 1.55437 1027.59 1.693C1028.8 1.82239 1008.27 1.95178 1017.93 1.693ZM986.493 1.38801C989.56 1.38801 989.144 2.09041 985.811 1.60982C985.015 1.48043 984.447 1.36028 986.493 1.38801ZM976.531 1.38801C979.637 1.41573 982.061 1.46194 983.879 1.60982C981.872 1.74845 959.828 1.37876 976.531 1.38801ZM967.1 2.64494C950.435 2.45085 971.759 2.32146 972.971 2.64494C972.971 2.73736 970.812 2.73736 967.1 2.64494ZM983.614 2.33995C980.66 2.35843 971.835 2.14586 979.864 2.12738C982.743 2.10889 991.606 2.31222 983.614 2.33995ZM991.076 1.90557C987.743 1.90557 985.47 1.90557 984.675 1.85936C988.992 1.67451 1007.97 1.92405 991.076 1.90557ZM1002.89 3.76324C998.992 3.76324 995.507 3.70779 995.507 3.66157C997.098 3.37507 1018.35 3.72627 1002.89 3.76324ZM1028.99 3.8649C1028.69 3.98505 1005.39 4.16065 1019.33 3.80021C1025.54 3.58764 1032.44 3.65233 1028.99 3.8649ZM1041.37 2.87599C1039.1 2.93144 1039.22 3.53218 1036.41 2.8113C1036.26 2.8113 1026.19 3.05159 1026.03 3.05159C1028.35 2.50631 1039.63 2.69115 1041.37 2.87599ZM1052.66 1.87784C1060.46 1.90557 1052.06 1.95178 1049.78 1.89632C1049.78 1.89632 1051 1.87784 1052.66 1.87784ZM1051.15 3.15326C1050.35 3.15326 1049.37 3.10705 1049.1 3.05159C1047.4 2.60797 1054.97 3.29189 1051.15 3.15326ZM1057.32 3.07932C1054.9 3.07932 1053.23 2.97766 1052.62 2.87599C1053.61 2.46934 1068.42 2.99614 1057.32 3.07932ZM1087.36 3.59688C1077.28 3.53218 1082.2 2.61721 1090.84 3.28265C1093.95 3.43976 1093.11 3.59688 1087.36 3.59688ZM1143.15 2.17359C1145.8 2.08117 1147.01 2.08117 1148.03 2.17359C1149.4 2.30298 1139.06 2.27525 1143.15 2.17359ZM1137.65 1.81315C1146.59 1.84087 1136.94 1.93329 1135.19 1.89632C1133.34 1.81315 1134.44 1.81315 1137.65 1.81315ZM1107.66 3.76324C1109.1 3.5137 1113.11 3.52294 1114.44 3.76324C1112.58 3.92035 1109.51 3.92035 1107.66 3.76324ZM1128.79 2.80205C1115.38 2.56176 1138.79 2.64494 1141.9 2.80205C1154.74 3.37507 1130.87 2.97766 1128.79 2.80205ZM1141.4 4.04974C1140.68 3.89263 1155.27 3.90187 1154.51 4.04974C1153.71 4.2808 1142.73 4.16989 1141.4 4.04974ZM1166.44 2.24753C1155.38 2.37692 1162.58 1.49891 1169.85 2.14586C1171.82 2.24753 1171.02 2.24753 1166.44 2.24753ZM1181.4 4.29004C1180.72 4.30852 1170.11 4.40095 1169.7 4.30852C1170.99 4.01278 1181.51 4.29928 1182.23 4.29004C1181.74 4.30852 1181.48 4.29004 1181.4 4.29004ZM1193.52 2.94993C1192.92 2.94993 1192.46 2.83902 1192.46 2.72812C1192.57 2.09041 1196.48 3.03311 1193.52 2.94993ZM1217.53 3.77248C1213.29 3.91111 1210.98 3.91111 1210.98 3.77248C1210 3.64309 1223.82 3.5137 1217.53 3.77248ZM1221.74 3.19947C1207.57 3.11629 1225.98 2.8113 1227.8 3.12553C1227.8 3.12553 1225.19 3.19947 1221.74 3.19947ZM1225.56 2.69115C1211.17 2.71888 1231.02 2.30298 1232.08 2.60797C1232.08 2.69115 1229.35 2.69115 1225.56 2.69115ZM1233.52 3.94808C1232.19 3.5137 1239.46 3.88339 1239.28 3.94808C1240.41 4.16989 1234.88 4.16989 1233.52 3.94808ZM1252.23 4.41943C1252.65 4.632 1235.07 4.38246 1243.67 4.23459C1248.86 4.14217 1253.86 4.23459 1252.23 4.41943ZM1254.58 2.95917C1248.74 2.94069 1248.67 2.64494 1254.58 2.70963C1260.14 2.64494 1260.07 2.94069 1254.58 2.95917ZM1346.01 2.32146C1349.49 2.32146 1352.18 2.46934 1352.18 2.61721C1350.25 3.17174 1333.13 2.34919 1346.01 2.32146ZM1277 2.86675C1276.24 2.86675 1276.7 2.79281 1278.36 2.71888C1287.34 2.36767 1279.42 3.04235 1277 2.86675ZM1285.26 4.37322C1280.26 4.37322 1280.26 4.0405 1285.26 4.0405C1290.1 4.0405 1290.1 4.37322 1285.26 4.37322ZM1289.08 3.12553C1287.57 3.12553 1286.32 3.07932 1286.32 3.03311C1285.45 2.87599 1294.76 3.0978 1289.08 3.12553ZM1290.37 2.80205C1288.93 2.80205 1287.04 2.78357 1286.32 2.71888C1287.23 2.61721 1301.01 2.76509 1290.37 2.80205ZM1322.37 3.77248C1263.63 4.00353 1337.45 3.2734 1344.91 3.65233C1344.91 3.65233 1334.46 3.77248 1322.37 3.77248ZM1341.24 4.58579C1325.56 4.41943 1355.14 4.49337 1354.53 4.58579C1355.78 4.66897 1350.44 4.66897 1341.24 4.58579ZM1371.61 3.42128C1370.44 3.90187 1360.17 4.53958 1366.2 3.9296C1367.67 3.78172 1376.65 2.571 1371.61 3.42128ZM1376.12 4.36398C1378.89 4.09596 1386.16 4.11444 1388.88 4.36398C1385.4 4.53958 1379.61 4.53958 1376.12 4.36398ZM1411.91 3.98505C1401.19 3.73551 1421.8 3.19947 1417.9 3.80945C1417.9 4.15141 1416.99 4.15141 1411.91 3.98505ZM1467.4 3.80021C1464.33 3.80021 1461.42 3.80021 1460.92 3.69854C1462.17 3.15326 1480.7 3.80945 1467.4 3.80021ZM1499.56 4.03126C1481.11 3.92035 1519.78 0.71333 1500.88 3.92035C1499.48 4.19762 1500.88 4.36398 1499.56 4.03126ZM1506.64 3.99429C1506.64 4.04974 1501.34 4.31777 1500.92 4.29928C1502.36 4.20686 1508.65 2.91296 1506.64 3.99429ZM1509.48 3.48597C1509.48 3.48597 1509.63 3.46749 1509.71 3.46749C1509.94 3.53218 1509.18 3.55991 1509.48 3.48597Z" fill="white"/>
</svg>
