<svg width="48" height="48" viewBox="0 0 48 48" fill="none" xmlns="http://www.w3.org/2000/svg">
<path d="M38.6761 19.7853C36.3956 20.2708 35.5276 18.8878 34.2475 18.0639L30.6134 15.3126L27.1853 12.3111C26.3025 11.2518 24.3899 10.6044 24.228 8.69175C26.4791 7.88254 27.3619 9.85407 28.6713 10.3985L32.4231 13.0026L35.9395 15.9011C37.0283 16.9604 38.6026 17.4607 38.6909 19.8L38.6761 19.7853Z" fill="white"/>
<path d="M9.27954 19.4026C9.70622 17.1221 11.2658 16.8425 12.4722 15.9303C13.7376 15.1211 14.9735 14.2825 16.1946 13.4144C17.4747 12.6346 18.74 11.8254 19.9906 10.9868C21.2412 10.413 22.2711 8.72099 24.1838 8.9564C24.4927 11.3252 22.3299 11.7813 21.4766 12.8995L19.6963 14.3855L17.8866 15.8273C16.5919 16.666 15.2824 17.4752 13.9583 18.255C12.5752 18.9171 11.5012 20.2265 9.29426 19.4173L9.27954 19.4026Z" fill="white"/>
<path d="M20.6378 38.1471C19.6815 39.9126 18.7546 39.3388 17.8277 39.4418H15.0175L12.2073 39.1328C11.3834 38.8238 10.2064 39.4565 9.41187 38.0293C10.2211 36.0284 11.3834 37.0583 12.222 36.7052L15.0322 36.5139L17.8424 36.7052C18.7693 36.8965 19.7256 36.3374 20.6378 38.1471Z" fill="white"/>
<path d="M9.23543 37.9556C7.46987 36.4255 8.02896 34.8953 7.91126 33.3799L7.88184 28.8042L8.17609 24.2284C8.48506 22.8748 7.8377 20.9622 9.25014 19.6527C11.2658 20.9475 10.2359 22.8748 10.6037 24.2284L10.8244 28.8042L10.6626 33.3799C10.486 34.8953 11.0451 36.4549 9.25014 37.9556H9.23543Z" fill="white"/>
<path d="M38.7645 19.7557C40.5301 21.3006 39.971 22.8455 40.0887 24.3903L40.1181 29.0249L39.8239 33.6595C39.5149 35.0278 40.1623 36.9552 38.7498 38.2941C36.7341 36.9846 37.7641 35.0425 37.3962 33.6595L37.1755 29.0249L37.3374 24.3903C37.5139 22.8455 36.9548 21.2859 38.7498 19.7557H38.7645Z" fill="white"/>
<path d="M20.3732 37.8235C19.4904 36.1609 19.1814 34.4836 19.0932 32.8211C19.049 31.9824 19.049 31.1585 19.0637 30.3199V25.6264L29.201 25.494V28.9663L29.0244 33.6156L28.9508 35.9402V36.514L28.9214 36.7789V36.823L28.8773 37.0437H28.995C28.8478 37.1467 30.0249 37.1614 30.8047 37.1614H33.4383C35.2186 37.2202 36.9694 37.4115 38.4113 38.1177C36.9988 39.1329 35.248 39.383 33.4677 39.4272C32.5849 39.4566 31.6874 39.4272 30.8341 39.4125C29.8925 39.4125 29.4658 39.4125 27.7591 39.5008H26.4202C26.4202 38.7504 26.2584 28.9516 26.2584 28.9516V28.4513H26.2731C26.2731 28.4513 26.2731 28.4513 26.2878 28.4219C26.2584 28.4219 26.3761 28.4219 25.9494 28.4219H22.33L21.9622 28.3925H21.8151V28.4513C21.8151 28.4513 21.7856 28.4955 21.7709 28.5249V30.364C21.7562 31.2026 21.7562 32.0413 21.6974 32.8799C21.5944 34.5572 21.2854 36.2198 20.3879 37.8676L20.3732 37.8235Z" fill="white"/>
</svg>
