<svg width="48" height="48" viewBox="0 0 48 48" fill="none" xmlns="http://www.w3.org/2000/svg">
<path d="M30.6295 38.6928C26.4947 40.3286 22.1327 41.101 17.589 40.6921C16.4531 40.5785 15.3398 40.4195 14.2039 40.1696C13.0452 39.8969 11.773 39.5334 10.5008 38.6474C9.20581 37.8295 8.13804 36.1256 7.91085 34.7398C7.59279 33.3313 7.63822 32.1726 7.57007 31.1275L7.34289 24.7436C7.29745 22.5626 7.16113 20.6088 7.16113 18.2234C7.20657 17.0193 7.34289 15.6789 7.86542 14.3385C8.38795 12.9981 9.22853 11.8394 10.1827 10.908C12.1138 9.04506 14.6128 8.00001 16.9756 7.54564C19.3837 7.11398 21.6556 7.18213 23.8139 7.25028L30.2205 7.45476C31.311 7.5002 32.5378 7.54564 33.8328 7.88642C35.1277 8.20448 36.4681 8.90875 37.445 9.86293C39.4443 11.7259 40.3757 14.2931 40.6938 16.6331C40.8983 18.7459 40.8755 20.9042 40.6938 23.1079C40.5575 25.3116 40.4439 27.6289 40.2621 29.9462C40.1258 31.1048 39.9214 32.3544 39.3988 33.6039C38.8763 34.8761 37.9903 35.9666 37.0134 36.7163C35.0369 38.2385 32.924 38.7156 31.0384 38.9882C32.3561 37.5342 34.0145 36.2392 35.1505 34.7852C36.3091 33.354 36.6044 31.8773 36.7862 29.6281L37.2179 23.0397C37.4223 20.8815 37.3769 18.8368 36.9907 17.2238C36.9907 17.2238 36.9452 16.883 36.7862 16.2923C36.6272 15.7243 36.4 14.9519 35.9002 14.134C35.4231 13.3389 34.6961 12.5437 33.8101 12.1348C32.9468 11.7031 31.6518 11.5895 30.1069 11.5895C26.949 11.5895 23.6548 11.5441 21.4057 11.5895C19.1338 11.6577 17.8162 11.9758 17.8162 11.9758C16.0214 12.2938 14.4311 12.9981 13.2497 14.0886C12.0684 15.2018 11.5686 16.4059 11.5231 18.3143C11.5231 22.3127 11.6821 26.7656 11.773 30.9685C11.773 32.059 11.773 33.0586 11.932 33.7629C12.1138 34.4899 12.3183 34.808 12.8635 35.1942C13.954 35.9666 16.1577 36.3301 18.1115 36.6709C22.11 37.3297 26.3356 37.5342 30.6295 38.6474V38.6928Z" fill="#222222"/>
<path d="M18.3839 20.2454C18.6565 22.381 19.02 23.5851 19.3381 24.7892C19.6561 25.9478 20.1105 27.0156 21.1328 27.6971C22.087 28.4014 23.3365 28.7649 24.4725 28.6513C25.563 28.5605 26.9488 27.9016 27.8575 27.1065C28.8344 26.3567 29.4024 25.4026 29.4479 24.3802C29.4479 23.8577 29.3797 23.5169 29.0616 23.0171C28.7663 22.54 28.1756 21.9493 27.6076 21.3587C26.6762 20.1773 25.5403 19.6093 24.1544 19.5412C22.7459 19.4503 21.4055 19.632 19.6334 19.8819C19.4971 17.701 21.8371 16.0198 24.1771 16.0879C25.3585 16.0879 26.5626 16.406 27.6076 16.9512C28.63 17.4965 29.4024 18.1553 30.1067 18.587L30.4702 18.905C30.6974 19.1095 31.0154 19.3821 31.4244 19.7683C31.8333 20.1773 32.3331 20.7225 32.7875 21.495C33.2418 22.2901 33.5145 23.267 33.5826 24.1985C33.719 26.0614 32.992 27.8562 32.2422 28.9239C31.4925 30.0144 30.8337 30.537 30.8337 30.537C29.0844 31.9228 27.1987 32.8088 24.8814 33.0133C22.5641 33.1723 20.3604 32.4453 18.6111 31.0822C16.9299 29.6964 15.5213 27.629 15.385 25.4026C15.1578 23.2443 16.2711 20.9043 18.4066 20.2682L18.3839 20.2454Z" fill="#222222"/>
<path d="M32.3332 17.4966C31.4926 18.8143 29.9251 18.5871 29.1981 17.7466C28.8119 17.3376 28.5392 16.7697 28.4256 16.1563C28.312 15.611 28.3575 15.043 28.4256 14.4978C28.6301 13.4073 29.289 12.3622 30.2659 11.7261C31.22 11.0673 32.515 10.8628 33.6964 11.1809C36.1727 11.9079 37.1723 15.0658 36.5362 16.8378L36.4907 16.9287C36.0818 17.6557 35.4003 18.519 34.4006 18.8143C33.3101 19.1097 33.1284 18.7462 32.2424 17.9965C31.947 16.4062 33.0375 15.7473 32.9694 15.6564C33.0148 15.5883 33.3101 15.6337 33.1284 15.4065H33.1057C33.1057 15.4065 33.0148 15.2248 32.9239 15.2021C32.8331 15.1793 32.8103 15.2475 32.8103 15.2475C32.833 15.1794 32.674 15.0885 32.5604 15.2021C32.4923 15.2021 32.4923 15.2702 32.4923 15.3157C32.3105 15.3611 32.5604 15.2929 32.4923 15.3157C32.4923 15.3157 32.4696 15.3384 32.4468 15.3838C32.4014 15.5201 31.947 16.0199 32.3332 17.4966Z" fill="#222222"/>
</svg>
