<svg width="48" height="48" viewBox="0 0 48 48" fill="none" xmlns="http://www.w3.org/2000/svg">
<path d="M14.938 17.7771C13.6934 18.446 11.9509 17.637 11.3597 16.1902C11.033 15.459 11.033 14.5878 11.282 13.8566C11.5153 13.1098 11.9665 12.472 12.5421 11.9586C13.1333 11.4607 13.9267 11.134 14.7357 11.1185C15.5292 11.1029 16.307 11.3207 16.9449 11.7408C17.5827 12.1452 18.1428 12.752 18.454 13.5143C18.7651 14.2766 18.7962 15.1012 18.594 15.8479C18.3917 16.5947 17.9717 17.2637 17.3805 17.7771C16.7893 18.306 15.9959 18.6016 15.2336 18.6483C13.7245 18.7261 12.1998 17.9171 11.5776 16.4702C11.1108 15.2567 11.1886 13.5143 12.3865 12.3786C13.5534 11.274 15.4202 11.3829 16.1203 12.3319C14.938 12.5653 14.1134 12.9387 13.4911 13.5143C12.8999 14.0588 12.6821 15.179 13.1333 15.7546C13.1333 15.7546 13.2422 16.0346 13.5689 16.2991C13.8801 16.5791 14.5024 16.8125 15.078 16.7503C15.6536 16.688 16.0737 16.3458 16.2915 15.9724C16.5248 15.6146 16.5559 15.319 16.5559 15.319C16.7737 14.5722 16.5093 13.8721 15.8403 13.421C15.1558 12.9698 14.3468 12.9542 13.74 13.4521C13.0711 13.9188 12.8066 14.8522 13.04 15.5523C13.2889 16.2991 13.7712 17.1236 14.9069 17.7926L14.938 17.7771Z" fill="#222222"/>
<path d="M12.6512 20.0952C13.7713 19.644 14.8448 19.3951 16.0116 19.2551C17.0073 19.1462 17.9874 20.0174 17.9874 21.0753L18.0341 22.6933C18.0496 23.7512 18.0341 24.8246 18.0963 25.8825L18.1896 30.6431L18.2363 33.0234L18.2674 34.2058V34.5792C18.2674 34.7814 18.2207 34.9681 18.1741 35.1548C18.0807 35.5282 17.8629 35.8705 17.5673 36.1038C17.4584 36.1816 17.334 36.2594 17.2095 36.3216C17.0228 36.3994 16.8361 36.4461 16.6339 36.4772C16.4472 36.5083 16.1983 36.5083 16.1205 36.5083H14.3003C13.8646 36.4616 13.6002 36.5394 12.8379 36.3994C12.4645 36.3061 12.1067 36.1038 11.8577 35.8082C11.6088 35.5282 11.4377 35.1081 11.391 34.8592C11.2665 34.2836 11.2821 33.8947 11.2665 33.4902L11.2199 32.2611L11.1421 29.803C11.2199 26.9093 10.9398 22.7555 12.2156 20.0641C13.3513 22.9111 12.4645 26.8782 12.8534 29.7564L12.9623 31.2499L13.0712 32.7901C13.1179 33.3035 13.1334 34.0658 13.2268 34.3925C13.289 34.5792 13.2735 34.4703 13.289 34.517H13.3357C13.3357 34.517 13.5068 34.517 13.6313 34.517L15.187 34.4703L16.1983 34.4392V30.6431L16.1516 25.8825C16.1827 24.8246 16.1516 23.7667 16.136 22.6933V21.1064C16.1672 21.0131 16.136 20.873 15.9649 20.8108C14.8914 20.7019 13.7402 20.4685 12.6356 20.0485L12.6512 20.0952Z" fill="#222222"/>
<path d="M19.8695 20.0018C20.9119 19.7528 21.8764 19.5195 22.981 19.3483C23.3699 19.3172 23.7744 19.4261 24.1012 19.6751C24.2723 19.7995 24.4123 19.9395 24.5212 20.1262C24.5679 20.204 24.6457 20.3285 24.6612 20.3751L24.7079 20.4529C24.7701 20.5774 24.8012 20.6863 24.8479 20.6863L25.0657 20.3751C25.5169 20.0329 26.1236 19.6595 26.7148 19.4106C27.9127 18.8816 29.3129 18.6483 30.6664 18.9127C32.0043 19.1617 33.2956 19.8306 34.2291 20.9041C35.1936 22.0087 35.5515 23.4555 35.6292 24.7001C35.7226 26.5826 35.6448 28.2317 35.6759 29.9897V36.1815L29.1418 36.446L29.2351 30.1141C29.2818 28.4184 29.4063 26.7693 28.7373 25.7891C28.0061 24.7001 26.9171 24.6223 26.1859 25.7114C25.4858 26.6915 25.6258 28.4184 25.6102 30.0986V35.9015H25.4858L25.2368 35.9637L24.739 36.0415L23.8367 36.166C23.4322 36.2126 23.0121 36.2438 22.5921 36.2593C22.172 36.2749 21.7364 36.2904 21.3008 36.2749L20.3829 36.2438L19.8384 36.2126H19.5584L19.4184 36.1815C19.4184 36.1815 19.4184 36.0882 19.4184 36.0571C19.2783 34.3458 19.2472 33.7701 19.185 32.8211L19.0761 30.1452C18.9827 26.5515 19.1539 22.9888 19.7606 20.1262C20.3518 23.0044 20.4918 26.5048 20.6474 30.0519L20.8808 34.6725C20.8808 34.6725 20.9585 34.688 20.9897 34.7036H21.2852C21.6897 34.7036 22.0787 34.7036 22.4676 34.6725C22.8566 34.6413 23.2299 34.6102 23.6033 34.548C23.8678 34.5169 23.7589 34.5169 23.8211 34.5013C23.8522 34.5013 23.8833 34.5013 23.8833 34.4547L23.8367 32.0121L23.7744 28.7917C23.7744 27.6249 23.6967 26.1158 24.5834 24.6846C25.019 24.0156 25.6725 23.4088 26.5437 23.1288C27.4149 22.8488 28.4106 23.051 29.0795 23.4711C30.4797 24.2956 31.0242 25.7891 31.1642 26.8315C31.3354 27.9205 31.2731 28.7295 31.2887 29.274V30.1452L31.1798 34.3302C31.1798 34.3302 31.1798 34.3302 31.242 34.3302L32.3622 34.2991L33.4823 34.268H33.6534L33.7001 29.9897C33.7001 28.2783 33.7623 26.4581 33.7001 24.8557C33.6534 23.7978 33.4045 22.8488 32.7978 22.1642C32.191 21.4642 31.2887 20.9819 30.3241 20.7952C29.3751 20.6085 28.3639 20.7485 27.3993 21.1063C26.9015 21.293 26.4814 21.5108 25.9836 21.822C25.1746 22.3821 24.3345 23.2533 23.65 23.8756C23.5878 22.9732 23.5878 21.9931 23.5566 21.153L23.5255 20.8574C23.5255 20.8574 23.5255 20.7796 23.4944 20.7485C23.4633 20.6863 23.4322 20.6241 23.3855 20.5618C23.2922 20.4529 23.1521 20.3596 22.981 20.3285C21.9853 20.2662 20.9119 20.1729 19.8851 20.0484L19.8695 20.0018Z" fill="#222222"/>
</svg>
