<svg width="688" height="531" viewBox="0 0 688 531" fill="none" xmlns="http://www.w3.org/2000/svg">

<path  d="M-534.788 856.471C-428.764 806.382 -319.225 753.637 -240.587 663.917C-207.584 626.268 -180.464 582.912 -164.997 535.109C-150.769 491.102 -141.267 428.596 -184.648 397.233C-200.693 385.627 -222.565 380.05 -241.614 387.123C-263.571 395.279 -273.548 417.542 -280.93 438.072C-298.894 487.999 -309.627 545.573 -292.52 597.229C-277.588 642.325 -240.904 674.622 -195.988 688.52C-144.67 704.39 -90.6616 695.725 -42.0608 674.889C61.6828 630.402 151.744 543.495 214.559 451.152C275.628 361.369 321.928 236.131 440.53 210.165C495.063 198.227 550.088 219.412 576.808 269.606C602.106 317.16 591.649 374.248 551.701 410.324C515.917 442.645 437.681 461.561 420.819 399.983C405.955 345.754 445.243 302.482 490.729 280.25C516.462 267.668 544.053 259.584 571.05 250.265C599.068 240.609 626.539 229.511 653.393 216.984C709.744 190.688 763.278 158.714 814.769 123.942C840.31 106.697 865.412 88.7909 890.174 70.4545C912.968 53.5966 937.443 37.34 957.658 17.3478C987.819 -12.4728 995.321 -52.7331 967.837 -87.1051C944.791 -115.919 903.085 -132.035 867.989 -116.521C832.893 -101.008 814.89 -60.3 816.444 -23.0688C818.1 16.913 841.147 50.0717 876.863 67.6012C914.984 86.2979 959.382 84.7461 1000.64 81.8394C1050.45 78.3316 1100.05 71.8093 1149.51 82.2319C1203.05 93.5128 1252.45 119.183 1296.62 150.92C1395.48 221.972 1465.56 323.686 1553 406.98C1592.35 444.468 1635.74 480.479 1690.58 490.883C1741.59 500.558 1794.8 488.339 1840.28 464.551C1938.33 413.263 1992.14 310.832 2035.75 213.971C2084.85 104.912 2129.63 -7.92414 2147.1 -126.899C2161.74 -226.494 2161.21 -356.242 2074.07 -424.882C2040.23 -451.542 1995.19 -465.701 1952.17 -460.482C1932.1 -458.043 1912.63 -450.812 1896.24 -438.939C1890.55 -434.817 1883.79 -431.098 1883.27 -423.785C1882.68 -415.366 1888.84 -404.333 1893.46 -397.776C1916.57 -365.023 1965.75 -359.246 2002.56 -359.073C2068.69 -358.773 2135.02 -362.003 2201.13 -363.523C2230.66 -364.192 2261.83 -367.863 2291.21 -364.567C2311.49 -362.291 2353.26 -350.998 2343.49 -322.859C2340.7 -314.846 2353.18 -310.676 2355.95 -318.651C2367.74 -352.607 2330.12 -370.602 2302.7 -376.019C2278.73 -380.752 2253.53 -377.812 2229.27 -377.264L2144.46 -375.321C2092.55 -374.133 2039.33 -369.423 1987.49 -372.721C1952.08 -374.971 1902.91 -384.702 1896.18 -426.429L1894.14 -420.213C1926.18 -449.224 1971.02 -454.21 2011.52 -442.37C2055.3 -429.577 2089.37 -399.587 2110.61 -359.582C2159.07 -268.27 2143.04 -151.365 2119.81 -55.1285C2095.55 45.3594 2055.29 142.048 2011.52 235.472C1969.55 325.037 1914.61 416.435 1821.15 459.321C1776.55 479.78 1724.7 488.143 1676.95 474.22C1626.06 459.372 1585.49 420.991 1548.77 384.535C1475.43 311.711 1413.1 227.781 1332.73 162.11C1263.98 105.934 1180.65 62.9022 1090.01 63.1315C1050.07 63.2275 1010.44 69.3944 970.546 70.3213C931.42 71.2334 889.278 67.0629 858.745 39.9533C828.213 12.8437 821.878 -29.6964 836.766 -65.2026C853.102 -104.19 895.094 -120.624 932.623 -99.767C972.094 -77.8257 985.31 -32.2871 953.731 2.63598C937.525 20.55 916.535 34.4431 897.319 48.8648C875.389 65.3122 853.261 81.4963 830.78 97.181C740.017 160.54 644.872 211.498 539.943 247.02C499.628 260.659 456.31 276.561 428.431 310.507C407.016 336.576 398.651 375.602 409.529 407.8C421.613 443.593 455.825 457.821 491.711 452.999C530.156 447.828 565.028 423.242 585.212 390.506C626.76 323.129 593.913 229.834 519.849 201.97C434.748 169.96 348.209 229.677 298.559 294.647C268.92 333.426 246.182 376.773 220.428 418.077C193.333 461.554 161.851 502.071 125.768 538.495C89.6856 574.919 50.1586 607.135 6.99922 634.056C-39.0473 662.77 -92.064 686.143 -147.432 683.698C-192.652 681.699 -239.496 662.53 -265.249 623.795C-294.483 579.806 -291.283 522.926 -278.342 473.981C-272.367 451.399 -265.4 419.045 -245.701 404.363C-226.001 389.681 -197.152 399.685 -182.282 417.13C-147.865 457.53 -172.32 526.319 -192.224 568.223C-235.384 659.125 -316.011 724.865 -401.538 774.216C-446.637 800.232 -493.69 822.59 -540.736 844.805C-548.383 848.42 -542.411 860.117 -534.764 856.502L-534.788 856.471Z" fill="#DEB7D5"/>

<defs>
<clipPath id="clip0_1809_4399">
<rect width="821" height="577" fill="white" transform="translate(0.210083 165.811) rotate(-11.6468)"/>
</clipPath>
</defs>
</svg>
