<svg width="48" height="48" viewBox="0 0 48 48" fill="none" xmlns="http://www.w3.org/2000/svg">
<path d="M35.84 18.79C35.34 18.79 34.88 18.71 34.45 18.52C34.03 18.34 33.65 18.09 33.33 17.76C33.01 17.43 32.76 17.06 32.58 16.64C32.4 16.21 32.28 15.74 32.28 15.25C32.28 14.76 32.39 14.3 32.58 13.87C32.76 13.44 33 13.05 33.33 12.74C33.65 12.42 34.05 12.18 34.47 12C34.9 11.81 35.36 11.7 35.86 11.71C36.35 11.7 36.8 11.82 37.23 12.01C37.66 12.19 38.04 12.44 38.37 12.76C38.68 13.07 38.92 13.45 39.12 13.88C39.3 14.31 39.4 14.76 39.4 15.25C39.4 15.74 39.29 16.2 39.11 16.63C38.93 17.05 38.68 17.42 38.36 17.74C38.04 18.06 37.68 18.34 37.25 18.52C36.82 18.7 36.36 18.79 35.87 18.79H35.84ZM35.84 13.74C35.42 13.74 35.05 13.89 34.73 14.18C34.46 14.47 34.33 14.82 34.33 15.24C34.33 15.66 34.46 16.02 34.72 16.32C35.04 16.59 35.42 16.7 35.84 16.7C36.26 16.7 36.61 16.59 36.9 16.32C37.2 16.05 37.33 15.69 37.33 15.24C37.33 14.82 37.21 14.46 36.91 14.17C36.62 13.88 36.26 13.73 35.84 13.73V13.74ZM40.38 21.32C40.38 22.58 40.38 22.58 40.38 23.84C40.38 25.1 40.38 25.1 40.38 26.36C40.38 27.62 40.38 27.62 40.38 28.88C40.38 29.56 40.27 30.22 40.02 30.83C39.74 31.44 39.36 31.97 38.92 32.43C38.46 32.89 37.92 33.27 37.31 33.53C36.67 33.8 36.01 33.91 35.34 33.91C34.93 33.91 34.52 33.87 34.11 33.75C33.69 33.67 33.3 33.52 32.95 33.32C32.69 34.17 32.32 34.96 31.81 35.66C31.3 36.36 30.7 36.95 30.02 37.44C29.34 37.94 28.6 38.32 27.78 38.58C26.96 38.87 26.11 39 25.23 39C24.19 39 23.23 38.83 22.31 38.47C21.43 38.11 20.6 37.63 19.87 36.97C19.16 36.36 18.57 35.62 18.11 34.77C17.64 33.91 17.33 32.96 17.19 31.95C15.97 31.5 15.89 31.95 14.59 31.95C13.29 31.95 13.29 31.95 11.98 31.95C10.67 31.95 10.68 31.99 9.37 31.99C9.01 31.99 8.68 31.85 8.39 31.58C8.13 31.32 8.01 30.99 8.01 30.62C8.01 29.5 8.05 29.5 8.05 28.37C8.05 27.24 8.02 27.25 8.02 26.12C8.02 24.99 8.04 25 8.04 23.87C8.04 22.74 8.03 22.75 8.03 21.62C8.03 20.49 8.06 20.49 8.06 19.37C8.06 18.25 8 18.24 8 17.11C8 16.74 8.16 16.43 8.42 16.16C8.7 15.9 9.01 15.74 9.37 15.74C10.53 15.74 10.53 15.79 11.69 15.79C12.85 15.79 12.85 15.74 14.01 15.74C15.17 15.74 15.17 15.78 16.33 15.78C17.49 15.78 17.49 15.78 18.65 15.78C19.81 15.78 19.88 16.13 20.98 15.78C20.67 15.13 20.48 14.43 20.48 13.73C20.48 13.07 20.65 12.46 20.89 11.88C21.13 11.34 21.46 10.86 21.9 10.4C22.33 9.98 22.82 9.63 23.4 9.38C23.94 9.13 24.54 9 25.21 9C25.88 9 26.48 9.14 27.05 9.39C27.62 9.64 28.13 9.96 28.56 10.38C28.99 10.83 29.35 11.32 29.59 11.86C29.84 12.44 29.94 13.07 29.94 13.73C29.94 14.39 29.82 14.99 29.57 15.58C29.33 16.15 29.02 16.67 28.59 17.09C28.16 17.52 27.62 17.81 27.05 18.06C26.48 18.31 25.88 18.43 25.22 18.43C25.06 18.43 24.89 18.44 24.72 18.42C24.56 18.4 24.4 18.38 24.22 18.35C24.13 19.07 23.59 19.44 24.22 19.81C25.27 20.44 25.44 19.79 26.66 19.79C27.88 19.79 27.88 19.82 29.1 19.82C30.32 19.82 30.32 19.82 31.54 19.82C32.76 19.82 32.76 19.8 33.98 19.8C35.2 19.8 35.2 19.8 36.43 19.8C37.66 19.8 37.65 19.78 38.88 19.78C39.3 19.78 39.68 19.94 39.98 20.23C40.27 20.52 40.4 20.9 40.4 21.32H40.38ZM25.22 11.07C24.84 11.07 24.5 11.14 24.2 11.26C23.84 11.4 23.55 11.6 23.3 11.84C23.06 12.09 22.87 12.37 22.73 12.69C22.59 13.02 22.55 13.38 22.55 13.74C22.55 14.1 22.6 14.47 22.74 14.79C22.88 15.11 23.08 15.38 23.32 15.63C23.57 15.87 23.85 16.08 24.21 16.23C24.51 16.37 24.85 16.43 25.23 16.43C25.61 16.43 25.95 16.38 26.27 16.24C26.59 16.09 26.88 15.88 27.12 15.65C27.37 15.4 27.58 15.12 27.72 14.8C27.87 14.48 27.94 14.12 27.94 13.74C27.94 13.36 27.88 13.01 27.73 12.68C27.59 12.36 27.38 12.07 27.14 11.82C26.89 11.57 26.59 11.4 26.26 11.26C25.94 11.14 25.59 11.07 25.23 11.07H25.22ZM17.37 21.08C18.89 21.08 19.24 22.04 20.41 21.08C21.38 20.27 21.22 19.53 20.41 18.57C19.71 17.75 19.34 18.57 18.27 18.57C17.2 18.57 17.19 18.6 16.12 18.6C15.05 18.6 15.04 18.58 13.97 18.58C12.9 18.58 12.53 17.77 11.84 18.59C11.02 19.55 10.85 20.29 11.82 21.1C12.99 22.07 13.73 20.08 14.87 21.09C15.88 21.98 14.85 22.45 14.85 23.79C14.85 25.13 14.86 25.14 14.86 26.49C14.86 27.84 13.93 28.21 14.86 29.2C15.72 30.12 16.13 29.2 17.4 29.2M31.32 30.95C31.32 29.81 31.32 29.81 31.32 28.68C31.32 27.55 31.32 27.54 31.32 26.41C31.32 25.28 31.32 25.27 31.32 24.13C31.32 22.99 32.12 22.66 31.3 21.87C30.48 21.08 30.14 21.86 28.96 21.86C27.78 21.86 27.78 21.88 26.6 21.88C25.42 21.88 25.1 21.05 24.23 21.85C23.43 22.59 24.24 22.95 24.24 24.04C24.24 25.13 24.21 25.14 24.21 26.23C24.21 27.32 24.22 27.33 24.22 28.42C24.22 29.51 24.21 29.52 24.21 30.61C24.21 30.98 24.09 31.28 23.83 31.54C23.55 31.81 23.24 31.92 22.88 31.92C21.97 31.92 21.97 31.92 21.06 31.92C20.15 31.92 20.08 31.59 19.24 31.95C19.38 32.67 19.63 33.34 20 33.97C20.37 34.58 20.8 35.12 21.32 35.58C21.84 36.02 22.43 36.38 23.1 36.64C23.76 36.87 24.47 36.99 25.24 36.99C26.07 36.99 26.84 36.8 27.58 36.51C28.31 36.19 28.95 35.75 29.51 35.2C30.06 34.65 30.5 34.02 30.81 33.29C31.13 32.56 31.31 31.78 31.31 30.93L31.32 30.95ZM38.39 28.89C38.39 27.72 38.39 27.72 38.39 26.55C38.39 25.38 38.39 25.38 38.39 24.2C38.39 23.02 39.26 22.65 38.39 21.85C37.47 20.99 37.13 21.88 35.87 21.88C34.61 21.88 34.28 21.01 33.35 21.86C32.5 22.64 33.37 23.01 33.37 24.16C33.37 25.31 33.34 25.31 33.34 26.47C33.34 27.63 33.36 27.63 33.36 28.78C33.36 29.93 33.21 29.94 33.33 31.09C33.6 31.36 33.92 31.57 34.26 31.71C34.58 31.84 34.95 31.92 35.36 31.92C35.77 31.92 36.18 31.83 36.55 31.67C36.92 31.51 37.25 31.3 37.52 31.04C37.8 30.77 38.02 30.43 38.17 30.06C38.33 29.69 38.4 29.3 38.4 28.9L38.39 28.89Z" fill="white"/>
</svg>
