<svg width="48" height="48" viewBox="0 0 48 48" fill="none" xmlns="http://www.w3.org/2000/svg">
<path d="M20.9481 8.44307C20.7674 8.63298 20.6061 8.84214 20.4718 9.0657C20.3614 9.24871 20.2665 9.44286 20.1944 9.6435C20.0965 9.91613 20.0329 10.1983 20.0125 10.4868C20.0064 10.5878 20.0024 10.6885 20.0008 10.7896C19.9975 11.1307 20.0189 11.4757 20.0963 11.8093C20.1338 11.979 20.1876 12.1461 20.2533 12.3074C20.3946 12.6604 20.5866 12.983 20.7943 13.3016C20.941 13.5128 21.0786 13.7541 21.27 13.9297C21.5133 14.1476 21.7939 14.3226 22.091 14.4622C22.222 14.5219 22.3329 14.5613 22.3896 14.5708C22.4729 14.5857 22.6029 14.6181 22.6755 14.6385C22.8443 14.6917 23.1805 14.7421 23.3072 14.7391C23.4064 14.7391 23.5038 14.738 23.6021 14.7237C23.6677 14.7141 23.7704 14.6957 23.8349 14.7018C23.9445 14.7198 24.0748 14.7225 24.1786 14.7575C24.217 14.7709 24.2521 14.7646 24.2911 14.7705C24.3189 14.7746 24.3163 14.842 24.3234 14.8323C24.351 14.7929 24.3637 14.7894 24.3711 14.8193C24.3786 14.8589 24.3988 14.7738 24.3966 14.8074C24.3966 14.8689 24.5023 14.8602 24.5011 14.9264C24.5011 14.9575 24.5133 14.9047 24.5112 14.9538C24.5065 15.009 24.5162 14.9197 24.5393 14.9413C24.5536 14.9553 24.5578 14.9483 24.5658 14.896C24.5721 14.8522 24.587 14.8072 24.5764 14.8781C24.5568 15.0038 24.6124 14.8231 24.6008 14.9149C24.595 14.9742 24.6249 14.8637 24.7095 14.9394C24.7207 14.9483 24.7313 14.9443 24.7339 14.9289C24.7398 14.894 24.7795 14.9015 24.7896 14.9394C24.7955 14.9593 24.8018 14.9508 24.8114 14.91C24.8175 14.8841 24.8636 14.8343 24.8952 14.8696C24.901 14.8761 24.9498 14.8487 25.0262 14.7934C25.1015 14.7406 25.2038 14.6594 25.3142 14.5623C25.5472 14.3516 25.7577 14.1581 25.8032 14.1309C25.9282 14.0658 26.0395 13.9804 26.1633 13.9143C26.2976 13.8346 26.4099 13.7288 26.534 13.6363C26.6104 13.5765 26.6942 13.4993 26.8061 13.3673C26.9631 13.1885 27.1061 13.0175 27.2416 12.8214C27.3827 12.6167 27.467 12.4588 27.5322 12.3059C27.5964 12.1515 27.6441 12.001 27.686 11.7779C27.7428 11.4631 27.729 11.3759 27.6871 11.3729C27.6452 11.3694 27.6447 11.3679 27.6855 11.3669C27.7258 11.3659 27.7476 11.3087 27.7534 11.1044C27.7608 10.7159 27.7221 10.4773 27.7078 10.3354C27.7007 10.2718 27.7534 10.1411 27.7152 10.1207C27.677 10.1003 27.6452 10.027 27.5884 9.85769C27.5439 9.72668 27.4797 9.58124 27.4203 9.47215C27.4125 9.45725 27.2951 9.27768 27.2967 9.2759C27.3036 9.26843 27.2835 9.22709 27.2272 9.14739C27.171 9.06769 27.0787 8.95064 26.9334 8.8022C26.6814 8.54826 26.4209 8.30006 26.1442 8.07148C25.9227 7.88573 25.6933 7.71612 25.433 7.58633C24.9152 7.3327 24.4005 7.23713 23.8323 7.21873C23.5256 7.21992 23.2222 7.25397 22.9237 7.32183C22.7105 7.37136 22.5029 7.43865 22.3011 7.52157C22.0557 7.6234 21.8214 7.74791 21.6015 7.89465C21.3591 8.05753 21.1454 8.23685 20.9502 8.44257L20.9481 8.44307Z" fill="white"/>
<path d="M20.9481 21.3662C20.7674 21.5561 20.6061 21.7652 20.4718 21.9888C20.3614 22.1718 20.2665 22.366 20.1944 22.5666C20.0965 22.8392 20.0329 23.1214 20.0125 23.4099C20.0064 23.5108 20.0024 23.6116 20.0008 23.7127C19.9975 24.0538 20.0189 24.3988 20.0963 24.7324C20.1338 24.9021 20.1876 25.0692 20.2533 25.2305C20.3946 25.5835 20.5866 25.9061 20.7943 26.2247C20.941 26.4359 21.0786 26.6772 21.27 26.8528C21.5133 27.0707 21.7939 27.2457 22.091 27.3853C22.222 27.445 22.3329 27.4844 22.3896 27.4939C22.4729 27.5088 22.6029 27.5412 22.6755 27.5616C22.8443 27.6147 23.1805 27.6652 23.3072 27.6622C23.4064 27.6622 23.5038 27.6611 23.6021 27.6468C23.6677 27.6372 23.7704 27.6188 23.8349 27.6249C23.9445 27.6429 24.0748 27.6456 24.1786 27.6806C24.217 27.6939 24.2521 27.6877 24.2911 27.6936C24.3189 27.6977 24.3163 27.7651 24.3234 27.7554C24.351 27.716 24.3637 27.7125 24.3711 27.7424C24.3786 27.782 24.3988 27.6969 24.3966 27.7305C24.3966 27.792 24.5023 27.7833 24.5011 27.8495C24.5011 27.8806 24.5133 27.8278 24.5112 27.8769C24.5065 27.9321 24.5162 27.8428 24.5393 27.8644C24.5536 27.8784 24.5578 27.8714 24.5658 27.8191C24.5721 27.7753 24.587 27.7303 24.5764 27.8012C24.5568 27.9269 24.6124 27.7462 24.6008 27.838C24.595 27.8973 24.6249 27.7868 24.7095 27.8624C24.7207 27.8714 24.7313 27.8674 24.7339 27.852C24.7398 27.8171 24.7795 27.8246 24.7896 27.8624C24.7955 27.8824 24.8018 27.8739 24.8114 27.8331C24.8175 27.8072 24.8636 27.7574 24.8952 27.7927C24.901 27.7992 24.9498 27.7718 25.0262 27.7165C25.1015 27.6637 25.2038 27.5825 25.3142 27.4854C25.5472 27.2747 25.7577 27.0812 25.8032 27.054C25.9282 26.9889 26.0395 26.9035 26.1633 26.8373C26.2976 26.7577 26.4099 26.6519 26.534 26.5594C26.6104 26.4996 26.6942 26.4224 26.8061 26.2904C26.9631 26.1115 27.1061 25.9405 27.2416 25.7445C27.3827 25.5398 27.467 25.3819 27.5322 25.229C27.5964 25.0746 27.6441 24.9241 27.686 24.701C27.7428 24.3862 27.729 24.299 27.6871 24.296C27.6452 24.2925 27.6447 24.291 27.6855 24.29C27.7258 24.289 27.7476 24.2318 27.7534 24.0275C27.7608 23.639 27.7221 23.4004 27.7078 23.2585C27.7007 23.1948 27.7534 23.0642 27.7152 23.0438C27.677 23.0234 27.6452 22.9501 27.5884 22.7808C27.5439 22.6498 27.4797 22.5043 27.4203 22.3952C27.4125 22.3803 27.2951 22.2008 27.2967 22.199C27.3036 22.1915 27.2835 22.1502 27.2272 22.0705C27.171 21.9908 27.0787 21.8737 26.9334 21.7253C26.6814 21.4714 26.4209 21.2232 26.1442 20.9946C25.9227 20.8088 25.6933 20.6392 25.433 20.5094C24.9152 20.2558 24.4005 20.1602 23.8323 20.1418C23.5256 20.143 23.2222 20.1771 22.9237 20.2449C22.7105 20.2945 22.5029 20.3617 22.3011 20.4447C22.0557 20.5465 21.8214 20.671 21.6015 20.8178C21.3591 20.9806 21.1454 21.1599 20.9502 21.3657L20.9481 21.3662Z" fill="white"/>
<path d="M20.9481 34.2893C20.7674 34.4792 20.6061 34.6883 20.4718 34.9119C20.3614 35.0949 20.2665 35.289 20.1944 35.4897C20.0965 35.7623 20.0329 36.0445 20.0125 36.333C20.0064 36.4339 20.0024 36.5347 20.0008 36.6358C19.9975 36.9769 20.0189 37.3219 20.0963 37.6555C20.1338 37.8251 20.1876 37.9923 20.2533 38.1536C20.3946 38.5066 20.5866 38.8292 20.7943 39.1478C20.941 39.359 21.0786 39.6003 21.27 39.7759C21.5133 39.9938 21.7939 40.1688 22.091 40.3084C22.222 40.3681 22.3329 40.4075 22.3896 40.4169C22.4729 40.4319 22.6029 40.4643 22.6755 40.4847C22.8443 40.5378 23.1805 40.5883 23.3072 40.5853C23.4064 40.5853 23.5038 40.5842 23.6021 40.5699C23.6677 40.5603 23.7704 40.5419 23.8349 40.5479C23.9445 40.566 24.0748 40.5687 24.1786 40.6037C24.217 40.617 24.2521 40.6108 24.2911 40.6167C24.3189 40.6208 24.3163 40.6882 24.3234 40.6785C24.351 40.6391 24.3637 40.6356 24.3711 40.6655C24.3786 40.7051 24.3988 40.62 24.3966 40.6535C24.3966 40.715 24.5023 40.7064 24.5011 40.7726C24.5011 40.8037 24.5133 40.7509 24.5112 40.8C24.5065 40.8552 24.5162 40.7659 24.5393 40.7875C24.5536 40.8015 24.5578 40.7945 24.5658 40.7422C24.5721 40.6984 24.587 40.6534 24.5764 40.7243C24.5568 40.85 24.6124 40.6693 24.6008 40.7611C24.595 40.8204 24.6249 40.7099 24.7095 40.7855C24.7207 40.7945 24.7313 40.7905 24.7339 40.7751C24.7398 40.7402 24.7795 40.7477 24.7896 40.7855C24.7955 40.8055 24.8018 40.797 24.8114 40.7562C24.8175 40.7303 24.8636 40.6805 24.8952 40.7158C24.901 40.7223 24.9498 40.6949 25.0262 40.6396C25.1015 40.5868 25.2038 40.5056 25.3142 40.4085C25.5472 40.1978 25.7577 40.0043 25.8032 39.9771C25.9282 39.912 26.0395 39.8266 26.1633 39.7604C26.2976 39.6808 26.4099 39.575 26.534 39.4825C26.6104 39.4227 26.6942 39.3455 26.8061 39.2135C26.9631 39.0346 27.1061 38.8636 27.2416 38.6676C27.3827 38.4629 27.467 38.305 27.5322 38.1521C27.5964 37.9977 27.6441 37.8472 27.686 37.6241C27.7428 37.3093 27.729 37.2221 27.6871 37.2191C27.6452 37.2156 27.6447 37.2141 27.6855 37.2131C27.7258 37.2121 27.7476 37.1549 27.7534 36.9506C27.7608 36.5621 27.7221 36.3235 27.7078 36.1816C27.7007 36.1179 27.7534 35.9873 27.7152 35.9669C27.677 35.9465 27.6452 35.8732 27.5884 35.7039C27.5439 35.5729 27.4797 35.4274 27.4203 35.3183C27.4125 35.3034 27.2951 35.1239 27.2967 35.1221C27.3036 35.1146 27.2835 35.0733 27.2272 34.9936C27.171 34.9139 27.0787 34.7968 26.9334 34.6484C26.6814 34.3945 26.4209 34.1463 26.1442 33.9177C25.9227 33.7319 25.6933 33.5623 25.433 33.4325C24.9152 33.1789 24.4005 33.0833 23.8323 33.0649C23.5256 33.0661 23.2222 33.1002 22.9237 33.168C22.7105 33.2176 22.5029 33.2848 22.3011 33.3678C22.0557 33.4696 21.8214 33.5941 21.6015 33.7408C21.3591 33.9037 21.1454 34.083 20.9502 34.2888L20.9481 34.2893Z" fill="white"/>
</svg>
