<svg width="35" height="35" viewBox="0 0 35 35" fill="none" xmlns="http://www.w3.org/2000/svg">
<path fill-rule="evenodd" clip-rule="evenodd" d="M24.6857 10.677C25.0766 11.5962 25.2778 12.5814 25.2778 13.5763H22.1667C22.1667 12.9793 22.046 12.3882 21.8114 11.8367C21.5769 11.2852 21.2332 10.7841 20.7998 10.3619C20.3665 9.93983 19.852 9.60499 19.2859 9.37655C18.7197 9.1481 18.1128 9.03052 17.5 9.03052C16.8872 9.03052 16.2803 9.1481 15.7141 9.37655C15.148 9.60499 14.6335 9.93983 14.2002 10.3619C13.7668 10.7841 13.4231 11.2852 13.1886 11.8367C12.954 12.3882 12.8333 12.9793 12.8333 13.5763H9.72222C9.72222 12.5814 9.9234 11.5962 10.3143 10.677C10.7051 9.75778 11.278 8.92257 12.0003 8.21905C12.7225 7.51552 13.5799 6.95746 14.5236 6.57671C15.4672 6.19597 16.4786 6 17.5 6C18.5214 6 19.5328 6.19597 20.4764 6.57671C21.4201 6.95746 22.2775 7.51552 22.9997 8.21905C23.722 8.92257 24.2949 9.75777 24.6857 10.677ZM7.5 15.5768C7.5 14.4723 8.39543 13.5768 9.5 13.5768H25.5C26.6046 13.5768 27.5 14.4723 27.5 15.5768V27C27.5 28.1046 26.6046 29 25.5 29H9.5C8.39543 29 7.5 28.1046 7.5 27V15.5768ZM15.2778 19.0455C15.2778 17.8182 16.2727 16.8233 17.5 16.8233C18.7273 16.8233 19.7222 17.8182 19.7222 19.0455V23.2597C19.7222 24.487 18.7273 25.4819 17.5 25.4819C16.2727 25.4819 15.2778 24.487 15.2778 23.2597V19.0455Z" fill="#808080"/>
</svg>
