<svg width="48" height="48" viewBox="0 0 48 48" fill="none" xmlns="http://www.w3.org/2000/svg">
<path d="M9.32373 30.1602C10.9947 28.7677 9.48938 29.3337 11.1603 29.2409L14.7583 29.2656L17.5897 29.2416C19.0633 29.4853 16.1508 29.046 17.5897 30.16C16.174 31.7497 19.0865 31.1686 17.5897 31.4587L14.7583 31.5863L12.2594 31.4586C10.6001 31.3193 10.9715 31.5758 9.32373 30.1602Z" fill="#222222"/>
<path d="M6.4925 16.6529C8.3045 17.8561 7.69164 17.8659 8.25825 19.4406L9.71347 24.2376L10.924 29.1075C11.1118 30.5894 11.5802 29.695 10.924 31.3922C8.99599 30.4901 9.11123 30.592 8.40534 29.2405L7.48957 24.901L6.17891 20.0609C5.838 18.431 5.60694 18.6366 6.4925 16.6529Z" fill="#222222"/>
<path d="M15.7534 24.6728C17.4244 23.2804 17.2586 23.8704 18.9295 23.7776L23.9423 23.7544L28.9551 23.9865C30.4288 24.2302 33.6 23.5588 35.0389 24.6728C33.6232 26.2625 34.699 26.2194 33.2021 26.5095L23.9423 26.0752L18.9295 25.9475C17.2702 25.8083 17.4011 26.0885 15.7534 24.6728Z" fill="#222222"/>
<path d="M21.6001 29.6137C22.2239 28.4112 22.162 28.9208 22.7859 28.8406L24.6573 28.8206L26.5288 29.021C27.079 29.2315 28.2629 28.6517 28.8001 29.6137C28.2716 30.9866 28.6732 30.9494 28.1144 31.1999L24.6573 30.8248L22.7859 30.7146C22.1664 30.5944 22.2153 30.8363 21.6001 29.6137Z" fill="#222222"/>
<path d="M21.6001 33.2137C22.2239 32.0112 22.162 32.5208 22.7859 32.4406L24.6573 32.4206L26.5288 32.621C27.079 32.8314 28.2629 32.2517 28.8001 33.2137C28.2716 34.5866 28.6732 34.5494 28.1144 34.7999L24.6573 34.4248L22.7859 34.3146C22.1664 34.1943 22.2153 34.4363 21.6001 33.2137Z" fill="#222222"/>
<path d="M7.06396 17.3259C8.7349 15.9334 8.56913 16.5235 10.2401 16.4307L23.9238 16.4078L28.9366 16.6398C30.4103 16.8835 42.7808 16.2122 44.2196 17.3261C42.804 18.9158 43.8798 18.8727 42.3829 19.1628L23.9238 18.7285L10.2401 18.6006C8.58073 18.4613 8.71169 18.7415 7.06396 17.3259Z" fill="#222222"/>
<path d="M32.7096 24.1425C34.6029 27.7242 33.9718 31.29 34.0823 34.8559C34.0507 35.7395 34.1454 37.0491 33.1829 38.3587C32.7096 38.974 32.0311 39.4 31.4157 39.6209C30.8004 39.8418 30.2166 39.9365 29.6959 39.968C28.6072 40.0311 27.8025 39.9838 26.8874 39.9996H24.2051L21.5228 39.8891C20.6235 39.826 19.8188 39.9049 18.5723 39.6682C17.9885 39.542 17.2469 39.2422 16.6947 38.6427C16.1424 38.0431 15.9058 37.3015 15.8269 36.7335C15.6849 35.5344 15.7953 34.7612 15.7795 33.8461C15.9216 32.2683 15.7953 30.3591 15.8269 28.4499C15.8742 27.4875 15.8269 26.6197 16.1267 25.4994C16.3791 24.3792 17.6414 23.4167 18.5723 23.8269C18.1621 24.1109 18.0201 24.4896 17.9569 24.8367C17.8938 25.1839 17.9254 25.4521 17.9569 25.7992C18.0516 26.4303 18.2094 27.4559 18.2252 28.4026C18.3041 30.296 18.1463 32.2209 18.3672 33.8145C18.4461 33.5936 18.1621 37.4277 19.1561 36.8755C19.5505 36.9544 20.1817 36.9228 20.8286 36.9071L22.5484 36.8755L24.2209 36.8439L26.9032 36.9071C27.771 36.9071 28.7492 36.9702 29.4592 36.9386C30.2166 36.9071 30.6899 36.7177 30.832 36.5126C31.0213 36.339 31.1633 35.6921 31.1475 34.8401C31.3526 31.29 30.7688 27.661 32.7096 24.1425Z" fill="#222222"/>
<path d="M17.1426 17.9412C15.247 15.5154 15.8788 13.1003 15.7682 10.6853C15.7998 10.0868 15.7051 9.19989 16.6687 8.31294C17.1426 7.89619 17.8218 7.60766 18.4379 7.45805C19.054 7.30845 19.6385 7.24433 20.1597 7.22296C21.2497 7.18021 22.0554 7.21227 22.9716 7.20159L25.657 7.20159L28.3425 7.27639C29.2429 7.31914 30.0485 7.2657 31.2965 7.426C31.8809 7.51148 32.6234 7.71452 33.1763 8.1206C33.7292 8.52667 33.9661 9.02892 34.0451 9.41362C34.1873 10.2258 34.0767 10.7494 34.0925 11.3692C33.9503 12.4378 34.0767 13.7308 34.0451 15.0238C33.9977 15.6757 34.0451 16.2634 33.745 17.0221C33.4922 17.7809 32.2285 18.4327 31.2965 18.1549C31.7072 17.9625 31.8493 17.7061 31.9125 17.471C31.9757 17.2359 31.9441 17.0542 31.9125 16.8191C31.8178 16.3917 31.6598 15.6971 31.644 15.0559C31.565 13.7736 31.723 12.4699 31.5018 11.3906C31.4228 11.5402 31.7072 8.94343 30.712 9.31744C30.3171 9.26401 29.6852 9.28538 29.0375 9.29607L27.3157 9.31744L25.6412 9.33881L22.9558 9.29607C22.087 9.29607 21.1076 9.25333 20.3967 9.2747C19.6385 9.29607 19.1646 9.4243 19.0224 9.56322C18.8328 9.68077 18.6906 10.1189 18.7064 10.696C18.5011 13.1003 19.0856 15.5581 17.1426 17.9412Z" fill="#222222"/>
<path d="M40.9878 30.1602C39.3169 28.7677 40.8221 29.3337 39.1512 29.2409L35.5532 29.2656L32.7219 29.2416C31.2482 29.4853 34.1607 29.046 32.7219 30.16C34.1375 31.7497 31.225 31.1686 32.7219 31.4587L35.5532 31.5863L38.0521 31.4586C39.7114 31.3193 39.3401 31.5758 40.9878 30.1602Z" fill="#222222"/>
<path d="M43.8185 16.6529C42.0065 17.8561 42.6194 17.8659 42.0528 19.4406L40.5976 24.2376L39.387 29.1075C39.1992 30.5894 38.7308 29.695 39.387 31.3922C41.315 30.4901 41.1998 30.592 41.9057 29.2405L42.8215 24.901L44.1321 20.0609C44.473 18.431 44.7041 18.6366 43.8185 16.6529Z" fill="#222222"/>
</svg>
