<svg width="48" height="48" viewBox="0 0 48 48" fill="none" xmlns="http://www.w3.org/2000/svg">
<g clip-path="url(#clip0_1574_8035)">
<path d="M24.9346 30.5864C25.2372 31.0136 25.3707 31.5032 25.3173 32.0016C25.2817 32.5267 24.9435 33.0964 24.4984 33.3812C24.1691 33.577 23.822 33.6749 23.4571 33.6749C23.3236 33.6749 23.199 33.666 23.0654 33.6393C22.5136 33.5592 21.9974 33.2121 21.7749 32.7581C21.6236 32.3843 21.499 31.8681 21.6503 31.3519C21.7215 31.0403 21.9618 30.7288 22.2733 30.5686C22.2911 30.5686 22.3089 30.5508 22.3178 30.5419C22.3178 30.5241 22.3267 30.5063 22.3356 30.4885C22.5759 29.9367 23.1544 29.6608 23.7686 29.7943C24.2047 29.8833 24.6141 30.1592 24.9346 30.5775V30.5864ZM26.955 14.8325C25.7356 14.2184 24.3827 14.0581 22.923 14.3697C21.401 14.7346 20.2173 15.4733 19.4963 16.4969C18.5796 17.7519 18.4105 19.1937 19.0424 20.3152C19.0424 20.3597 19.0602 20.4042 19.078 20.4487C19.1403 20.5822 19.2738 20.6801 19.4162 20.7068C19.5942 20.7424 19.7544 20.6623 19.8524 20.5199C19.888 20.4754 19.9058 20.422 19.9236 20.3686L20.0482 20.1995C20.689 19.3451 21.1162 18.7843 21.6147 18.2592C22.033 17.832 22.7005 17.2979 23.5105 17.2C24.2225 17.0665 25.0236 17.1644 25.5665 17.467C26.1539 17.7875 26.5723 18.3927 26.6346 18.811C26.6464 18.8822 26.6464 18.9416 26.6346 18.989C26.6257 19.0513 26.6079 19.1314 26.599 19.2738C26.5812 19.4964 26.1984 19.9948 25.9136 20.3597C25.8246 20.4754 25.7445 20.6 25.6555 20.7157C25.3885 21.0985 25.1037 21.499 24.801 21.7393C24.6586 21.855 24.5696 21.9084 24.4895 21.9618C24.3649 22.0419 24.2314 22.122 23.9733 22.3623C23.7953 22.5492 23.5639 22.754 23.3058 22.9676C22.6827 23.4838 21.9173 24.1246 21.4901 25.1393C21.1963 25.8424 21.1429 26.6791 21.3565 27.4445C21.588 28.2901 22.2199 28.8953 22.9675 28.9843C22.9853 28.9843 23.0031 28.9843 23.0209 28.9843C23.1366 28.9843 23.2435 28.9398 23.3236 28.8597C23.4215 28.7707 23.466 28.6372 23.4571 28.5037C23.4215 28.0142 23.4393 27.667 23.5194 27.3466C23.6084 27.0262 23.7597 26.6702 23.9822 26.243C24.2759 25.6466 24.9168 25.0147 25.7445 24.5252C25.9581 24.365 26.1895 24.2136 26.4387 24.0534C27.0974 23.6173 27.845 23.1278 28.4681 22.4068C28.8775 21.9262 29.2246 21.3121 29.5094 20.5911C29.8031 19.8435 29.8921 18.989 29.7408 18.188C29.367 16.4168 28.0052 15.3843 26.9283 14.8236L26.955 14.8325ZM41.3827 23.9021C41.3827 25.2372 41.2937 26.332 41.1068 27.2576C40.9555 28.032 40.6084 28.7351 40.2702 29.4115C40.1099 29.732 39.9586 30.0435 39.8251 30.3639C39.4513 31.254 38.9262 32.0372 38.4099 32.7848L38.0361 33.3456C37.4665 34.1911 36.888 35.0634 36.1314 35.8199L35.8288 36.1314C35.1613 36.799 34.4759 37.4932 33.666 38.0451C32.8827 38.5702 32.0016 38.9262 31.1471 39.2733L30.6665 39.4691C29.8298 39.8163 28.9487 39.9765 28.0942 40.1367L27.4712 40.2524C27.1063 40.3236 26.7414 40.4393 26.3586 40.5639C25.6822 40.7775 24.9791 41 24.2225 41C23.2613 41 22.3356 40.8042 21.4455 40.6262L20.9204 40.5194C20.0215 40.3414 19.1937 39.9854 18.3927 39.6382L17.8052 39.389C16.933 39.0241 16.1764 38.5079 15.4466 38.0183L14.9927 37.7068C14.1115 37.1194 13.3105 36.4519 12.4916 35.633C12.3314 35.4728 12.1801 35.3215 12.0199 35.1702C11.4147 34.5738 10.7827 33.9686 10.2843 33.2121L10.1953 33.0786C9.62565 32.233 9.03822 31.3519 8.6288 30.3639C8.24607 29.4471 8.05916 28.477 7.87225 27.5246L7.80105 27.1686C7.72984 26.7948 7.59634 26.421 7.46283 26.0204C7.23141 25.344 7 24.6498 7 23.9021C7 23.0032 7.18691 22.1398 7.37382 21.2943C7.42723 21.054 7.48063 20.8136 7.52513 20.5822C7.68534 19.799 8.02356 19.0958 8.35288 18.4105C8.49529 18.1079 8.6466 17.8053 8.7712 17.5026C8.91361 17.1466 9.02932 16.7817 9.14503 16.4168C9.35864 15.7314 9.58115 15.0194 9.99948 14.3964C10.667 13.3995 11.3791 12.5184 12.1089 11.7885C12.6874 11.21 13.3906 10.7738 14.067 10.3555C14.3251 10.1953 14.5921 10.0351 14.8414 9.866C15.7314 9.26966 16.7283 8.85134 17.6895 8.45081L17.7963 8.40631C18.1257 8.2728 18.455 8.10369 18.7843 7.93458C19.4429 7.59636 20.1194 7.24924 20.8759 7.09793C21.6236 6.94662 22.389 7.00003 23.1277 7.04453C23.4927 7.07123 23.8576 7.08903 24.2136 7.08903C25.1304 7.08903 25.9848 7.27594 26.8126 7.45395C27.0262 7.49846 27.2398 7.54296 27.4534 7.58746C28.5482 7.80107 29.5895 8.01469 30.6131 8.43301C30.9424 8.56652 31.2895 8.68223 31.6277 8.79793C32.3309 9.02935 33.0518 9.27856 33.6838 9.70579L33.9686 9.9016C34.7963 10.4534 35.6508 11.0231 36.3628 11.7351C36.8969 12.2691 37.2529 12.9278 37.6 13.5597C37.7869 13.8979 37.9738 14.2362 38.1785 14.5566C38.8817 15.6068 39.389 16.5236 39.7717 17.4492C40.0832 18.1969 40.2079 18.989 40.3325 19.7545C40.377 20.0571 40.4304 20.3597 40.4927 20.6623C40.5639 21.0451 40.7152 21.4278 40.8665 21.8372C41.1157 22.4869 41.3649 23.1634 41.3649 23.9021H41.3827ZM37.2885 20.9204C37.0927 20.0482 36.6832 19.2204 36.3005 18.4283L35.989 17.7875C35.5974 16.9686 35.2325 16.2032 34.7073 15.5445L34.3958 15.144C33.8707 14.4765 33.3277 13.7911 32.6958 13.2838C32.2419 12.9189 31.6634 12.7142 31.0492 12.4917C30.6843 12.3581 30.3016 12.2246 29.9366 12.0466L29.5361 11.8508C28.7529 11.4681 28.0141 11.1032 27.1953 10.9163L26.688 10.8006C25.8869 10.6136 25.0592 10.4089 24.2314 10.4089H23.9021C23.7953 10.4089 23.6885 10.4089 23.5728 10.4089C22.7539 10.4089 21.9262 10.4267 21.1963 10.5958C20.1728 10.8273 19.1759 11.1744 18.3037 11.5927C17.5649 11.9487 16.8707 12.5095 16.2031 13.0524L15.8293 13.355C15.0461 13.978 14.3785 14.8236 13.7822 15.5623L13.6309 15.7581C13.0524 16.4791 12.456 17.2267 12.0644 18.0367C11.8241 18.5351 11.7618 19.1314 11.6995 19.7545C11.6639 20.1639 11.6194 20.5822 11.5215 20.9917C11.4681 21.2053 11.4147 21.4189 11.3613 21.6414C11.1743 22.4068 10.9874 23.1278 10.9874 23.9021C10.9874 24.2314 10.9696 24.5608 10.9518 24.8812C10.9162 25.6021 10.8806 26.2875 11.023 26.9105C11.1565 27.5068 11.4859 28.0498 11.833 28.6194C12.0288 28.9398 12.2246 29.2691 12.3848 29.5985C12.7942 30.4351 13.2927 31.2273 13.978 32.0728C14.156 32.2953 14.3251 32.5267 14.4942 32.7581C14.9393 33.3545 15.3576 33.9152 15.9005 34.3513C16.6838 34.9744 17.4848 35.6152 18.3838 36.0513C18.9356 36.3183 19.5675 36.4074 20.2351 36.5142C20.6 36.5676 20.956 36.621 21.312 36.7011C21.6414 36.7723 21.9618 36.8702 22.2911 36.9681C22.9586 37.1639 23.5817 37.3508 24.2403 37.3508C25.2194 37.3508 26.2251 37.2351 27.2309 37.0037C28.1209 36.799 29.0377 36.4608 30.0524 35.9712C30.3016 35.8555 30.5597 35.7398 30.8089 35.6241C31.4942 35.3215 32.1974 35.0011 32.7492 34.5649C33.1675 34.2267 33.4613 33.7194 33.7639 33.1765C33.9775 32.7937 34.2 32.4021 34.4759 32.055C35.1524 31.2095 35.6241 30.3105 35.989 29.5451C36.1403 29.2424 36.3005 28.9398 36.4696 28.6461C36.8079 28.0498 37.1283 27.489 37.2707 26.866L37.3508 26.5278C37.5466 25.6644 37.7602 24.7744 37.7602 23.8932C37.7602 22.8875 37.5288 21.8906 37.3063 20.9115L37.2885 20.9204Z" fill="#ffffff"/>
</g>
<defs>
<clipPath id="clip0_1574_8035">
<rect width="34.3827" height="34" fill="white" transform="translate(7 7)"/>
</clipPath>
</defs>
</svg>
