<svg width="48" height="48" viewBox="0 0 48 48" fill="none" xmlns="http://www.w3.org/2000/svg">
<path d="M20.7098 15.2536C19.5003 16.4757 18.8577 15.7827 18.0388 15.6567L15.6828 14.989L13.4024 14.0567C12.7851 13.6031 11.6386 13.8425 11.311 12.4818C12.4575 11.033 13.2009 12.1543 13.982 12.0661L16.3884 12.5826L18.6939 13.4016C19.4247 13.7795 20.357 13.5527 20.6972 15.2536H20.7098Z" fill="white"/>
<path d="M18.0891 34.303C16.7663 34.5802 15.519 34.1266 14.5615 33.3833C13.5788 32.6399 12.8606 31.632 12.1929 30.6241C10.9078 28.5705 10.2149 26.1012 10.3661 23.6192C10.5803 21.1372 11.8779 18.7183 13.7804 17.2064C14.6623 16.5891 15.708 15.8331 16.8797 15.3796C18.0514 14.926 19.3238 14.7748 20.3569 15.2158C19.5758 16.2237 18.6309 16.6898 17.6608 17.1434C16.6907 17.5844 15.708 18.0631 15.1536 18.7561C15.1536 18.7561 14.0449 19.7388 13.4906 21.049C12.8732 22.3215 12.8732 23.783 12.8732 23.783C12.6969 25.6854 13.1882 27.676 14.1835 29.3769C14.6371 30.2588 15.3426 30.9769 16.0355 31.695C16.7285 32.4132 17.3836 33.1565 18.1017 34.2904L18.0891 34.303Z" fill="white"/>
<path d="M20.823 14.5228C21.8435 15.9087 21.0624 16.4378 20.7978 17.219L19.7773 19.449L18.4923 21.553C17.9505 22.0947 18.0135 23.2538 16.615 23.3672C15.3551 22.0065 16.5898 21.4522 16.615 20.6584L17.4969 18.3655L18.6686 16.2111C19.16 15.5433 19.0718 14.5858 20.8104 14.5228H20.823Z" fill="white"/>
<path d="M29.7498 13.8733C30.4625 14.9946 31.1115 15.7127 31.7987 16.4183C32.4732 17.1112 33.1859 17.8041 33.6695 18.6735C34.7003 20.3365 35.2348 22.3145 35.0948 24.2043C35.0693 26.1068 34.2803 27.9336 32.8423 29.2817C32.2696 29.962 31.3024 30.4911 30.3225 30.9573C29.3298 31.4235 28.3372 31.8518 27.51 32.6203C28.579 33.3133 29.8898 33.1999 31.0861 32.7337C32.2823 32.2676 33.3131 31.4487 34.2294 30.8439L34.4712 30.6297C34.6239 30.5037 34.8403 30.3022 35.0821 30.0502C35.5784 29.5588 36.1511 28.8029 36.5837 27.9588C37.0419 27.1273 37.3219 26.2201 37.4618 25.5272C37.6146 24.8343 37.64 24.3681 37.64 24.3681C37.7673 21.8862 37.0164 19.4546 35.7056 17.4262C35.0057 16.4561 34.2803 15.4608 33.2877 14.73C32.3205 13.9993 31.0733 13.5583 29.7625 13.8607L29.7498 13.8733Z" fill="white"/>
<path d="M27.2936 33.4392C29.0371 33.351 28.948 32.4061 29.3934 31.7132L30.4752 29.5084L31.3024 27.1902C31.3787 26.4217 32.3332 25.7413 31.5314 24.5822C29.6607 24.4689 30.017 25.7791 29.4189 26.2957L28.1845 28.4249L27.2554 30.6927C27.0518 31.499 26.2374 32.0407 27.2936 33.4266V33.4392Z" fill="white"/>
<path d="M27.2427 32.9604C27.599 34.6487 28.528 34.4093 29.2916 34.7369L31.6587 35.455L34.1021 35.896C34.8784 35.8456 35.7056 36.6771 36.7364 35.707C36.5582 33.8549 35.3111 34.4093 34.6875 33.9053L32.3713 33.036L29.9534 32.4817C29.1262 32.4061 28.4517 31.7005 27.23 32.9478L27.2427 32.9604Z" fill="white"/>
</svg>
