<svg width="48" height="48" viewBox="0 0 48 48" fill="none" xmlns="http://www.w3.org/2000/svg">
<path d="M22.7957 8.4441C23.1945 7.51885 23.7209 7.32742 24.0878 7.37528C24.4707 7.42314 24.7259 7.71028 25.029 7.8379C25.5873 8.18886 26.0181 8.57172 26.4169 8.92268L27.3102 10.1989C27.406 10.7413 28.3472 10.6615 27.6293 12.0813C25.8266 13.3894 26.1297 12.1451 25.5235 12.1291L24.2633 11.2677C23.9442 10.9008 23.673 10.5658 23.4018 10.3265C23.3061 10.1351 23.0988 10.151 23.019 9.9915C22.9073 9.83198 22.9392 9.46507 22.8116 8.47601L22.7957 8.4441Z" fill="white"/>
<path d="M15.4734 8.7314C16.0955 6.80114 16.7655 7.39138 17.4196 7.26376L19.3977 7.19995L21.3759 7.4871C21.9661 7.80615 22.7797 7.08828 23.3699 8.61973C22.8595 10.8052 21.998 9.70451 21.4237 10.1193L19.4615 10.3905L17.4834 10.2469C16.8294 10.0555 16.1753 10.6936 15.4894 8.74735L15.4734 8.7314Z" fill="white"/>
<path d="M15.9521 8.65149C16.7816 10.4541 16.0319 10.2946 15.7288 10.7253L14.66 11.7463C14.2292 12.0175 13.7985 12.2887 13.3837 12.5599C12.8414 12.6556 12.9371 13.5808 11.5014 12.8789C10.1773 11.0922 11.4535 11.3475 11.5014 10.7413L12.4745 9.44912C12.9052 9.11411 13.3359 8.81102 13.7666 8.49196C14.2931 8.30053 14.3249 7.45505 15.9521 8.65149Z" fill="white"/>
<path d="M8.08765 12.4005C8.34289 10.4703 8.66194 11.0765 8.96504 10.9489L9.87433 10.901L10.7836 11.2041C11.0548 11.5232 11.4217 10.8212 11.7089 12.3527C11.5015 14.5382 11.1027 13.4375 10.8315 13.8363L9.93815 14.0915L9.02884 13.932C8.72574 13.7406 8.4386 14.3627 8.08765 12.4165V12.4005Z" fill="white"/>
<path d="M40.2319 12.4802C39.163 14.3945 38.1102 13.7723 37.0573 13.884H33.8987L30.7401 13.533C29.8148 13.198 28.4908 13.884 27.5974 12.3366C28.5067 10.167 29.8308 11.2837 30.772 10.9009L33.9306 10.6935L37.0892 10.9009C38.1421 11.1082 39.2109 10.5021 40.2319 12.4642V12.4802Z" fill="white"/>
<path d="M39.6574 12.6396C41.6834 13.852 41.141 15.2718 41.3165 16.6278C41.3803 17.9997 41.4122 19.3716 41.4122 20.7436C41.3005 22.1155 41.1569 23.4714 40.9974 24.8434C40.6146 26.0239 41.2048 27.7946 39.5776 28.8315C37.5038 27.5234 38.7162 25.9441 38.3652 24.7317L38.3174 22.7376L38.2217 20.7436C38.2855 19.4195 38.3174 18.0795 38.3333 16.7554C38.4769 15.4154 37.791 14.1232 39.6415 12.6556L39.6574 12.6396Z" fill="white"/>
<path d="M39.3703 29.1986C36.7063 31.065 34.106 30.3791 31.4738 30.4429L23.6251 30.2834C21.0089 30.1079 18.3927 29.9484 15.7924 29.8207C13.4793 29.4698 10.225 30.1238 7.95972 28.5605C10.1612 26.4069 13.4793 27.5555 15.8243 27.1886L19.7646 27.1248H23.689L31.5376 27.4598C34.1379 27.715 36.8179 27.1726 39.3544 29.1826L39.3703 29.1986Z" fill="white"/>
<path d="M8.31077 12.3685C10.2251 13.7085 9.61887 15.0486 9.74649 16.3726L9.77841 20.3767L9.44339 24.3808C9.10839 25.5613 9.81032 27.2363 8.26292 28.3849C6.09337 27.2523 7.21004 25.5613 6.81123 24.3808L6.58789 20.3767L6.77931 16.3726C6.9867 15.0486 6.36455 13.6766 8.32672 12.3685H8.31077Z" fill="white"/>
<path d="M24.2314 16.6278C26.1138 18.6538 25.4757 20.6319 25.5715 22.626L25.5077 28.5922L25.0929 34.5585C24.7419 36.3133 25.396 38.8179 23.8326 40.5088C21.679 38.7859 22.8276 36.2973 22.4607 34.5107L22.3171 28.5444L22.5883 22.5781C22.8117 20.6 22.2374 18.574 24.2155 16.6278H24.2314Z" fill="white"/>
<path d="M32.0322 32.6602C32.7181 34.6862 31.6174 34.9255 31.0431 35.6912L29.0491 37.7172L26.8157 39.5039C25.9862 39.8708 25.6511 41.1948 23.9761 40.6844C23.003 38.5786 24.6302 38.5148 24.9492 37.6374L26.7997 35.4679L28.9374 33.5855C29.751 33.059 29.9903 31.9423 32.0322 32.6602Z" fill="white"/>
<path d="M16.1435 32.5326C18.0897 31.6712 18.3928 32.7719 19.1426 33.3143C19.8285 33.9364 20.4826 34.5905 21.1367 35.2605C21.695 36.0103 22.2374 36.76 22.7638 37.5258C23.051 38.3553 24.3272 38.8179 23.6093 40.3813C21.4238 41.131 21.5993 39.5996 20.7857 39.2486L19.8286 38.3393L18.8395 37.462C18.2811 36.7919 17.6909 36.1219 17.1007 35.4838C16.5902 34.7341 15.5373 34.6064 16.1435 32.5486V32.5326Z" fill="white"/>
</svg>
