<svg width="48" height="48" viewBox="0 0 48 48" fill="none" xmlns="http://www.w3.org/2000/svg">
<path d="M23.7914 24.99C24.4455 28.7002 22.5691 29.3109 21.419 30.8065L17.629 34.9274L13.4874 38.6036C12.0192 39.4046 11.1465 41.9542 8.50357 41.2553C7.40707 37.4426 10.107 37.1031 10.8449 35.3909L14.4341 31.039L18.4289 27.1753C19.8957 26.0502 20.5743 23.9441 23.7874 24.9638L23.7914 24.99Z" fill="white"/>
<path d="M24.705 11.6302C25.0077 14.3155 25.4113 15.8295 25.7645 17.3435C26.1176 18.8004 26.6222 20.143 27.7574 21C28.8169 21.8856 30.2044 22.3427 31.4657 22.1999C32.6766 22.0856 34.2154 21.2572 35.2244 20.2573C36.3092 19.3146 36.9399 18.1148 36.9903 16.8293C36.9903 16.1723 36.9146 15.7438 36.5614 15.1153C36.2335 14.5154 35.5776 13.7727 34.9469 13.03C33.9127 11.5445 32.6513 10.8304 31.1125 10.7447C29.5485 10.6304 28.0601 10.8589 26.0924 11.1732C25.9411 8.43076 28.5394 6.31684 31.1377 6.40254C32.4495 6.40254 33.7865 6.80246 34.9469 7.48806C36.0821 8.17366 36.9398 9.0021 37.7219 9.54486L38.1255 9.94479C38.3778 10.2019 38.7309 10.5447 39.185 11.0303C39.6391 11.5445 40.1941 12.2301 40.6986 13.2014C41.2031 14.2012 41.5059 15.4296 41.5815 16.6008C41.7329 18.9433 40.9256 21.2 40.0932 22.5426C39.2607 23.9138 38.5291 24.5709 38.5291 24.5709C36.5867 26.3134 34.4929 27.4275 31.9198 27.6846C29.3467 27.8846 26.8997 26.9705 24.9572 25.2565C23.0905 23.5139 21.5264 20.9144 21.3751 18.1148C21.1228 15.401 22.3589 12.4586 24.7302 11.6588L24.705 11.6302Z" fill="white"/>
</svg>
