<svg width="48" height="48" viewBox="0 0 48 48" fill="none" xmlns="http://www.w3.org/2000/svg">
<path d="M9.5999 30.1389C8.99081 31.5734 8.39082 31.1072 7.79082 31.1909H5.99081L4.19081 30.9279C3.66354 30.6769 2.90899 31.1909 2.3999 30.0313C2.91808 28.4056 3.67263 29.2424 4.209 28.9555L6.009 28.8L7.80899 28.9555C8.40899 29.1109 9.01808 28.6566 9.5999 30.127V30.1389Z" fill="#222222"/>
<path d="M9.5999 25.3389C8.99081 26.7734 8.39082 26.3072 7.79082 26.3908H5.99081L4.19081 26.1279C3.66354 25.8768 2.90899 26.3908 2.3999 25.2313C2.91808 23.6055 3.67263 24.4423 4.209 24.1554L6.009 24L7.80899 24.1554C8.40899 24.3108 9.01808 23.8565 9.5999 25.3269V25.3389Z" fill="#222222"/>
<path d="M9.5999 20.5388C8.99081 21.9733 8.39082 21.5071 7.79082 21.5908H5.99081L4.19081 21.3278C3.66354 21.0768 2.90899 21.5908 2.3999 20.4312C2.91808 18.8055 3.67263 19.6423 4.209 19.3554L6.009 19.2L7.80899 19.3554C8.40899 19.5108 9.01808 19.0565 9.5999 20.5269V20.5388Z" fill="#222222"/>
<path d="M43.115 13.758C40.5169 15.6249 37.9188 15.0026 35.3207 15.1115H27.5419C24.9594 14.987 22.3768 14.8937 19.7943 14.8626C17.4918 14.5825 14.3336 15.4382 12 14.1314C14.038 11.8289 17.4296 12.7312 19.7321 12.2956L23.6526 12.1245L27.5575 12L35.3518 12.2178C37.9343 12.4201 40.5791 11.8444 43.1305 13.758H43.115Z" fill="#222222"/>
<path d="M28.8025 23.963C28.7265 21.2668 30.3024 21.0959 31.4037 20.2035L34.9353 17.8301L38.6947 15.8175C39.9668 15.4568 40.9731 13.7859 43.0048 14.6403C43.4225 17.4694 41.22 17.3365 40.4225 18.4377L37.0238 21.001L33.3593 23.1655C32.0492 23.7541 31.2518 25.1402 28.8025 23.982V23.963Z" fill="#222222"/>
<path d="M28.9179 24.1038C26.4876 25.281 25.6522 23.914 24.3421 23.2874L20.6396 21.0469L17.165 18.4457C16.7283 17.952 15.9878 17.6293 15.3422 17.0596C14.6966 16.509 14.165 15.6356 14.5068 14.5723C15.9118 14.2875 16.4814 14.3635 17.07 14.7432C17.6396 15.104 18.1523 15.6546 18.8358 15.8065L22.6522 17.8571L26.2218 20.3064C27.323 21.2558 28.9559 21.4077 28.9369 24.1418L28.9179 24.1038Z" fill="#222222"/>
<path d="M13.728 12.8C15.648 14.663 15.04 16.526 15.168 18.4L15.2 24L14.88 29.6C14.544 31.2523 15.248 33.5921 13.712 35.2C11.52 33.6143 12.64 31.2745 12.24 29.6L12 24L12.176 18.4C12.368 16.5371 11.76 14.6519 13.712 12.8H13.728Z" fill="#222222"/>
<path d="M12 35.0313C14.567 33.1644 17.1184 33.7556 19.6854 33.6311L27.3708 33.6L35.0562 33.9111C37.3276 34.2378 40.5324 33.5533 42.7416 35.0468C40.5635 37.1782 37.3431 36.0892 35.0562 36.4781L27.3708 36.7115L19.6854 36.5403C17.134 36.3537 14.5359 36.9448 12 35.0468V35.0313Z" fill="#222222"/>
<path d="M42.2718 35.2C40.3518 33.3334 40.9598 31.4667 40.8318 29.6L40.7998 24L41.1198 18.4C41.4558 16.7445 40.7518 14.4112 42.2878 12.8C44.4798 14.3889 43.3598 16.7334 43.7598 18.4L43.9998 24L43.8238 29.6C43.6318 31.4556 44.2398 33.3556 42.2878 35.2H42.2718Z" fill="#222222"/>
</svg>
