<svg width="48" height="48" viewBox="0 0 48 48" fill="none" xmlns="http://www.w3.org/2000/svg">
<path d="M28.9522 32.3132C29.1292 30.4056 30.1911 28.8519 31.9414 27.967C33.731 27.082 35.9533 27.0623 37.9985 28.0653C39.0212 28.5963 39.8471 29.5206 40.3388 30.4646C40.8304 31.4085 41.0861 32.3525 41.2237 33.2768C41.4794 35.1254 41.2434 37.0723 40.3781 38.8423C39.4735 40.5925 37.7625 42.0675 35.8549 42.5788C33.967 43.1688 31.6268 42.8541 30.0338 41.5168C28.7359 40.2975 27.6149 38.5473 27.3789 36.6003C27.1232 34.6927 27.6739 32.9228 28.8539 31.8412C29.8961 33.3948 30.0535 34.8107 30.3288 36.089C30.5451 37.3083 31.0958 38.5866 31.9807 38.9406C31.9807 38.9406 32.2757 39.1766 32.7674 39.3143C33.2394 39.4519 34.0063 39.4716 34.734 39.1766C36.2679 38.6456 36.8579 37.092 36.8579 37.092C37.9199 35.3024 37.5855 31.9198 36.2286 31.2709C35.5206 30.7399 34.321 30.8382 33.2787 31.1725C32.1577 31.4872 30.8598 32.0378 28.9522 32.3132Z" fill="white"/>
<path d="M19.0007 25.2131C21.223 23.8954 21.6556 25.1147 22.6193 25.6064L25.2348 27.396L27.5948 29.5592C28.1257 30.4246 29.699 30.4836 29.345 32.5682C27.0638 34.2398 26.7688 32.3518 25.7068 32.2142L22.9536 30.6212L20.4953 28.6153C19.7677 27.809 18.4697 27.809 19.0007 25.2327V25.2131Z" fill="white"/>
<path d="M17.33 19.176C15.6977 19.943 14.3998 20.0413 13.4361 20.2183C12.4922 20.3757 11.7842 20.5526 11.2139 21.2803C9.99458 22.6569 10.1912 24.5645 11.6269 25.7051C12.2758 26.3148 13.0625 26.6294 13.9474 26.5901C14.8324 26.5508 15.796 26.1181 16.4647 25.4102C17.1923 24.8988 17.4676 23.8172 17.4283 22.7356C17.389 21.6146 17.1923 20.592 17.035 19.1367C18.8246 18.9007 20.2405 20.6117 20.4175 22.4406C20.6732 24.3089 19.8276 26.1771 18.9623 27.4947C18.9623 27.4947 18.5689 28.0454 17.7823 28.6747C16.9957 29.2843 15.796 29.9333 14.4391 30.1496C13.0821 30.3856 11.5875 30.0906 10.6632 29.6383C9.69959 29.2057 9.18827 28.7534 9.18827 28.7534C7.79199 27.5734 6.82836 25.8428 6.69069 23.9155C6.5727 21.9883 7.30034 20.179 8.51963 18.8614C9.71925 17.5831 11.6465 16.6195 13.3771 16.7571C15.1077 16.8555 16.4254 17.6814 17.3693 19.1957L17.33 19.176Z" fill="white"/>
<path d="M18.3921 20.4546C17.9201 17.8784 19.277 17.8587 20.1227 17.1114L22.9152 15.2431L25.9831 13.8468C27.0254 13.7092 27.8317 12.2539 29.582 13.4535C30.054 16.2461 28.225 15.7151 27.6351 16.6394L25.0195 18.5667L22.1876 20.14C21.1453 20.5333 20.693 21.7722 18.4314 20.4546H18.3921Z" fill="white"/>
<path d="M34.9696 5.724C33.888 7.10062 33.3767 7.90692 32.7277 8.65423C32.1181 9.38187 31.5084 10.1882 31.3707 11.0928C31.1544 11.9581 31.3314 12.9217 31.6657 13.3347C31.9214 13.728 32.708 14.082 33.7307 14.141C34.773 14.2984 35.7366 14.2 36.3266 13.846C36.9362 13.4921 37.4475 12.6858 37.5852 11.7418C37.8605 10.9158 37.5065 9.89319 36.8969 8.94922C36.2872 7.98559 35.5399 7.08095 35.009 5.724C36.6216 5.05536 38.2735 5.82233 39.3158 7.19895C40.3974 8.5559 40.7318 10.4832 40.8104 12.0171C40.8104 12.0171 40.8104 12.6661 40.5351 13.6297C40.2598 14.5737 39.6108 15.852 38.4308 16.7566C37.2312 17.6809 35.8546 17.9562 34.9303 18.0349C33.9863 18.1136 33.3963 18.0546 33.3963 18.0546C32.59 17.9759 31.7444 17.7989 30.8988 17.4252C30.0531 17.0516 29.1878 16.4223 28.5782 15.5767C27.4179 13.8264 27.3786 11.9581 27.7522 10.3258C28.2242 8.71322 29.0108 7.15961 30.3088 6.13698C31.5674 5.11435 33.4553 4.70137 34.9303 5.74367L34.9696 5.724Z" fill="white"/>
</svg>
