<?xml version="1.0" encoding="UTF-8"?><svg id="Layer_1" xmlns="http://www.w3.org/2000/svg" xmlns:xlink="http://www.w3.org/1999/xlink" viewBox="0 0 48 48"><defs><style>.cls-1,.cls-2{fill:none;}.cls-3{fill:#222122;}.cls-2{clip-path:url(#clippath);}</style><clipPath id="clippath"><rect class="cls-1" x="7.62" y="9.28" width="32.76" height="29.43"/></clipPath></defs><g class="cls-2"><path class="cls-3" d="m10.73,24.58c-.02,1.22-.05,2.47-.07,3.69,0,.26,0,.51-.02.75,0,.6,0,1.19-.02,1.77-.02.41-.05.8-.07,1.21-.02.37-.02.75-.02,1.12-.02.43-.02.83-.03,1.26-.03.53-.09,1.04-.17,1.55-.07.41-.17.82-.32,1.22-.1.29-.24.56-.37.82-.56-.2-1.05-.49-1.53-.82-.03-.05-.05-.1-.07-.17-.03-.07-.07-.15-.09-.22-.14-.46-.22-.94-.27-1.43-.1-.83-.07-1.68-.07-2.52v-8.86c0-.48.02-.97.03-1.45.03-.46.05-.92.09-1.38.02-.36.02-.71.03-1.07.02-.32.03-.66.05-1l.05-.92c.02-.49.03-1,.07-1.5.02-.29.07-.58.1-.87.02-.19.02-.37.02-.58.02-.78.03-1.58.05-2.36.02-.41.02-.82.07-1.22.03-.24.07-.48.12-.7.02-.09.03-.15.05-.22.29-.27.61-.46.95-.63.2-.1.41-.19.61-.26.02.02.02.05.03.07.27.51.44,1.07.51,1.65.02.07.02.15.02.22.03.29.05.56.09.85.02.24.02.49.02.73,0,.73-.03,1.48-.03,2.21,0,.26.03.51.05.75.02.17.03.34.03.49v1.39c.02.85.03,1.72.05,2.57v1.02c.02.94.03,1.87.03,2.82h.02Z"/><path class="cls-3" d="m39.79,10.95c-.2.12-.36.26-.53.36-.49.31-1,.53-1.57.7-.03.02-.07.02-.1.03-.49.14-.99.22-1.5.29-.88.09-1.77.05-2.65.05h-9.32c-.51,0-1.02-.02-1.53-.03-.48-.02-.95-.05-1.43-.07-.37-.02-.77-.03-1.14-.05-.34-.02-.7-.03-1.05-.05l-.97-.05c-.53-.02-1.04-.03-1.57-.07-.14,0-.26-.02-.39-.05-.17,0-.36-.03-.53-.05-.2-.02-.41-.02-.61-.02-.83-.02-1.65-.03-2.48-.05-.44-.02-.87-.02-1.29-.07-.22-.03-.43-.05-.65-.09-.58-.12-1.16-.29-1.68-.54-.17-.1-.32-.19-.49-.29.02-.09.03-.15.05-.22.29-.27.61-.46.95-.63.2-.1.41-.19.61-.26.36-.14.73-.2,1.12-.26.37-.05.75-.07,1.12-.1.26-.02.51-.02.77-.02.78.02,1.57.03,2.33.03.27,0,.53-.03.8-.05.17-.02.34-.03.51-.03h1.46c.9-.02,1.8-.03,2.7-.05.36-.02.71-.02,1.07-.02.99-.02,1.97-.03,2.96-.02,1.31,0,2.6.03,3.9.05h.8c.61,0,1.24,0,1.85.02.43.02.85.05,1.28.07h1.17c.44.02.88.02,1.33.03,1,.05,1.97.17,2.91.49.1.03.2.07.29.12.51.2.99.48,1.43.78,0,0,.02.01.05.03,0,0,.02,0,.02.03v.03Z"/><path class="cls-3" d="m39.46,37.1c-.05.1-.1.2-.15.31h-.02s0,.02-.02.02c-.24.2-.51.37-.8.51-.05.03-.12.05-.17.09-.49.22-1.02.36-1.57.43-.37.03-.75.07-1.12.09-.26.02-.51.03-.78.03-.77,0-1.55-.03-2.33-.05-.26,0-.53.05-.78.07-.17.02-.34.02-.53.02-.48.02-.97,0-1.46.02-.9.02-1.79.03-2.69.05h-1.07c-1,0-1.99.02-2.98.02-1.29,0-2.59-.03-3.9-.05-.26-.02-.53-.02-.78-.02-.63,0-1.24-.02-1.87-.03-.43,0-.83-.05-1.26-.05-.39-.02-.78-.02-1.17-.03-.44,0-.88,0-1.34-.03-.99-.05-1.96-.15-2.89-.48-.03-.02-.09-.03-.12-.05-.56-.2-1.05-.49-1.53-.82-.03-.05-.05-.1-.07-.17.17-.1.31-.2.46-.31.51-.31,1.07-.54,1.67-.71.05-.02.12-.03.17-.03.43-.12.87-.2,1.33-.26.88-.1,1.75-.05,2.64-.05.49,0,.99-.02,1.48-.02h2.21c1.89,0,3.76,0,5.65.02.51,0,1,.02,1.51.03.48.02.97.05,1.45.07.37.02.75.03,1.12.05.36.02.71.03,1.05.05.32.02.65.03.97.03.53.03,1.05.05,1.58.09.31.02.6.07.9.09.2.02.41.02.61.03.83.02,1.67.02,2.5.05.43,0,.87.02,1.29.07.26.03.51.07.77.12.54.1,1.07.27,1.57.51.17.09.32.19.49.29l-.02.03Z"/><path class="cls-3" d="m17.04,37.97c-.34-.29-.58-.63-.78-.99-.27-.48-.44-.99-.51-1.53-.05-.32-.07-.66-.1-.99,0-.22-.03-.46-.02-.68,0-.68.03-1.38.03-2.06,0-.24-.05-.46-.07-.7,0-.15-.02-.31-.02-.46v-1.29c0-.8-.03-1.6-.05-2.4v-.95c0-.88-.03-1.75-.02-2.64,0-1.16.03-2.3.05-3.45v-.7c0-.54,0-1.11.03-1.65,0-.37.05-.75.07-1.12,0-.34,0-.7.02-1.04,0-.39,0-.8.03-1.19.05-.88.17-1.75.49-2.57.22-.56.54-1.05.9-1.51,0-.02.02-.03.05-.09.14.19.26.34.37.49.31.46.56.94.73,1.46.14.43.22.88.29,1.33.1.78.05,1.57.05,2.35v8.27c0,.44-.02.9-.03,1.34-.02.43-.05.85-.07,1.28-.02.34-.03.66-.05,1,0,.31-.03.63-.05.94,0,.29-.03.58-.05.87-.02.46-.03.94-.07,1.39-.02.27-.07.54-.09.8,0,.19-.02.36-.02.54-.02.73-.03,1.48-.05,2.21,0,.37-.02.77-.07,1.14-.1.71-.27,1.43-.63,2.08-.1.19-.22.36-.36.54l-.03-.03Z"/><path class="cls-3" d="m40.38,24.66c-.02,1.17-.05,2.36-.07,3.56,0,.24,0,.49-.02.73,0,.56,0,1.14-.02,1.7-.02.39-.07.77-.09,1.16,0,.36,0,.71-.02,1.07,0,.41,0,.82-.03,1.22-.05.92-.17,1.8-.53,2.65-.05.12-.09.22-.15.34-.05.1-.1.2-.15.31h-.02s0,.02-.02.02c-.24.2-.51.37-.8.51-.05.03-.12.05-.17.09-.03-.03-.05-.09-.09-.12-.34-.48-.6-.97-.78-1.51-.02-.03-.02-.07-.02-.1-.14-.43-.22-.85-.27-1.28-.12-.82-.07-1.62-.07-2.43v-8.54c0-.46.02-.92.03-1.39.03-.43.05-.87.09-1.31.02-.34.03-.7.05-1.04.02-.32.03-.65.05-.97.02-.29.03-.58.05-.88.02-.48.03-.95.07-1.45.03-.27.09-.54.1-.82.02-.19.02-.37.03-.56.02-.77.02-1.53.05-2.3.02-.39.02-.78.07-1.17,0-.05.02-.1.03-.15.1-.66.27-1.31.6-1.91.51.2.99.48,1.43.78,0,0,.02.01.05.03,0,0,.02,0,.02.03.15.36.26.73.31,1.12.05.34.09.7.1,1.04.02.24.03.46.03.7-.02.71-.05,1.43-.05,2.14,0,.24.05.48.07.71,0,.17.03.32.03.48,0,.46-.02.9,0,1.34.02.82.03,1.65.05,2.47.02.32.02.66.02.99,0,.9.03,1.8.03,2.72l-.02.02Z"/></g><rect class="cls-1" width="48" height="48"/></svg>