<svg width="35" height="36" viewBox="0 0 35 36" fill="none" xmlns="http://www.w3.org/2000/svg">
<path d="M4.27729 5.68478C3.46199 6.56656 2.7338 7.53774 2.12741 8.57573C1.62909 9.42549 1.20063 10.3269 0.8753 11.2585C0.433245 12.5244 0.146564 13.8346 0.0541289 15.174C0.0268677 15.6428 0.00850427 16.1106 0.0014591 16.5802C-0.0134719 18.164 0.0831458 19.7655 0.432394 21.3144C0.601979 22.1024 0.844693 22.8785 1.14104 23.6272C1.77899 25.2666 2.64561 26.7644 3.58301 28.2435C3.80326 28.5696 3.97324 28.8217 4.06422 28.9789C4.13726 29.1102 5.13065 30.435 5.1248 30.4406C5.07931 30.4846 5.31632 30.769 5.7305 31.1599C6.82849 32.1718 8.09512 32.9843 9.43654 33.6322C10.0279 33.9098 10.5282 34.0925 10.7844 34.1364C11.1603 34.2058 11.7468 34.3561 12.0748 34.4509C12.8366 34.6978 14.3543 34.9322 14.9262 34.9181C15.3741 34.9181 15.8134 34.9131 16.2573 34.8464C16.3908 34.8264 16.6166 34.7414 16.7169 34.8626C16.7457 34.8811 17.2604 34.74 17.3083 34.7447C17.8028 34.8285 18.3908 34.8411 18.8597 35.0037C18.9698 35.043 19.111 35.0661 19.1374 35.0523C19.1992 35.0181 19.3051 35.0542 19.3672 35.0638C19.4931 35.0828 19.4812 35.396 19.5132 35.3506C19.6377 35.1679 19.6952 35.1517 19.7287 35.2905C19.7623 35.4745 19.8534 35.0792 19.8436 35.235C19.8436 35.309 19.8963 35.3969 19.9681 35.4316C20.2123 35.5449 20.3177 35.649 20.3153 35.7877C20.3153 35.932 20.3706 35.6871 20.3607 35.9149C20.3395 36.1714 20.3834 35.7564 20.4876 35.8571C20.5523 35.9219 20.5714 35.8895 20.6073 35.6466C20.6289 35.4917 20.6552 35.3645 20.6672 35.3576C20.6768 35.3599 20.672 35.4477 20.6552 35.5634C20.5667 36.1471 20.8176 35.308 20.7653 35.7345C20.7462 35.9357 20.751 35.9519 20.7893 35.7993C20.8324 35.5934 21.0048 35.6166 21.2561 35.8479C21.3064 35.8895 21.3543 35.871 21.3663 35.7993C21.3926 35.6374 21.5722 35.6721 21.6176 35.8479C21.644 35.9404 21.6727 35.901 21.7158 35.7114C21.7397 35.6073 21.7541 35.5495 21.7685 35.5403C21.7709 35.5356 21.8518 35.6131 21.8666 35.6258C22.0661 35.8029 21.7965 35.5202 21.9289 35.6258C22.2308 35.8902 22.0183 35.437 22.0941 35.5241C22.1204 35.5541 22.3407 35.4269 22.6854 35.1702C23.0254 34.9251 23.4874 34.5481 23.9854 34.0971C24.4977 33.6207 24.9933 33.1627 25.3835 32.8066C25.7881 32.425 26.0874 32.159 26.1927 32.0942C26.757 31.7917 27.2595 31.3951 27.8183 31.0882C28.0649 30.9379 28.4049 30.7089 28.898 30.2857C29.0752 30.133 29.3409 29.9133 29.4918 29.7977C29.8365 29.5201 30.2148 29.1617 30.7199 28.5488C31.4285 27.7182 32.074 26.9242 32.6855 26.014C33.3223 25.0634 33.703 24.3303 33.9974 23.6203C34.2871 22.9033 34.5026 22.2049 34.6917 21.1687C34.9479 19.7071 34.8856 19.3023 34.6965 19.2885C34.5074 19.2723 34.505 19.2653 34.6893 19.2607C34.8713 19.2561 34.9694 18.9901 34.9958 18.0419C35.0293 16.2379 34.8545 15.1301 34.7899 14.471C34.7181 13.8072 34.7205 13.5852 34.8234 13.5436C34.9647 13.488 34.9647 13.4649 34.8234 13.4742C34.6869 13.4811 34.5074 13.0394 34.2512 12.253C34.0501 11.6448 33.7604 10.9694 33.4923 10.4629C33.2313 9.95183 32.9967 9.60723 32.9536 9.59335C32.9273 9.58641 32.9201 9.56791 32.9345 9.55172C32.9656 9.51703 32.8746 9.32507 32.6208 8.95503C32.3671 8.58498 31.9505 8.04148 31.2945 7.35228C30.157 6.1732 28.9812 5.02079 27.7321 3.95945C26.7324 3.09699 25.6968 2.30946 24.5217 1.70682C22.1847 0.529217 19.8613 0.0854421 17.2963 0C15.9119 0.00554953 14.5425 0.163656 13.1953 0.478742C12.2329 0.708703 11.2956 1.02112 10.3846 1.40616C9.27724 1.87895 8.21946 2.45707 7.2268 3.13842C6.13271 3.8947 5.16789 4.72729 4.28687 5.68246L4.27729 5.68478Z" fill="#222222"/>
</svg>
