<svg width="48" height="48" viewBox="0 0 48 48" fill="none" xmlns="http://www.w3.org/2000/svg">
<path d="M23.8017 31.5149C25.9649 30.3431 26.5238 31.623 27.4972 32.1819L30.1833 34.2189L32.5628 36.5444C33.1217 37.4458 34.654 37.572 34.4737 39.5369C32.2924 41.0512 31.8237 39.1584 30.7781 38.906L27.9659 37.0492L25.4782 34.8679C24.7391 34.0206 23.4772 33.9666 23.8197 31.5329L23.8017 31.5149Z" fill="white"/>
<path d="M23.7835 31.7492C23.9458 34.1648 22.756 34.1108 21.9628 34.8499C21.1155 35.4628 20.2683 36.1118 19.439 36.7968L16.6989 38.5634C15.7255 38.8879 15.1666 40.4022 13.3278 39.6631C12.4626 37.1754 14.3193 37.2655 14.788 36.292L17.2037 33.9846C18.123 33.3356 19.0605 32.7046 20.0339 32.1098C21.0615 31.6591 21.7285 30.3972 23.7835 31.7672V31.7492Z" fill="white"/>
<path d="M30.9943 27.7292C33.3739 28.1078 33.0314 29.3337 33.464 30.3071L34.4194 33.3357L34.9963 36.4904C34.9062 37.4999 36.0599 38.5455 34.6538 39.9155C32.0399 39.7713 32.8511 38.1309 32.148 37.3557L30.9763 34.3812L30.2372 31.2806C30.147 30.199 29.1736 29.3697 30.9763 27.7292H30.9943Z" fill="white"/>
<path d="M17.1494 27.7653C18.8981 29.4057 17.9246 30.1809 17.7624 31.2265L16.861 34.2009L15.5631 37.0492C14.9321 37.8063 15.2927 39.2845 13.3638 39.609C11.2907 38.0226 12.877 37.1574 12.7328 36.1478L13.4178 33.1013L14.5535 30.1989C15.0763 29.2795 14.7338 28.0717 17.1494 27.7653Z" fill="white"/>
<path d="M7.34294 19.9776C9.57829 19.0762 9.86673 20.248 10.7681 20.8068C11.5613 21.4558 12.3725 22.0867 13.2017 22.6996C13.9408 23.4207 14.698 24.1238 15.4731 24.8268C16.014 25.6741 17.5102 25.7282 17.3299 27.6751C15.2388 29.2435 14.7881 27.4408 13.7606 27.2605L12.3725 26.4312L11.0024 25.5659C10.1912 24.8629 9.39803 24.1238 8.60484 23.3847C7.93784 22.5374 6.63988 22.3211 7.34294 19.9776Z" fill="white"/>
<path d="M31.1748 27.6571C30.616 25.2956 31.8779 25.1694 32.617 24.3762L35.0687 22.3211L37.7727 20.5725C38.7462 20.266 39.269 18.8058 41.0717 19.563C41.937 22.0327 40.0982 21.9245 39.6475 22.8619L37.3401 25.0973L34.7442 26.9721C33.7888 27.4768 33.3922 28.7027 31.1748 27.6571Z" fill="white"/>
<path d="M28.2366 19.9056C29.3542 17.7423 30.4719 18.4273 31.5716 18.2831L34.9066 18.2471L38.2416 18.6076C39.2331 18.9862 40.6212 18.193 41.5766 19.9236C40.6392 22.3933 39.2331 21.1314 38.2416 21.5821L34.9066 21.8525L31.5716 21.6542C30.4539 21.4379 29.3362 22.1229 28.2366 19.9236V19.9056Z" fill="white"/>
<path d="M6.42358 19.9235C7.50521 17.7603 8.60485 18.4453 9.68648 18.3011L12.9494 18.265L16.2123 18.6256C17.1857 19.0041 18.5378 18.2109 19.4752 19.9415C18.5558 22.4112 17.1857 21.1493 16.2123 21.6L12.9494 21.8704L9.68648 21.6721C8.60485 21.4558 7.48718 22.1408 6.42358 19.9415V19.9235Z" fill="white"/>
<path d="M24.0539 8.0798C26.4515 8.29612 26.1631 9.50393 26.6498 10.4233L27.7675 13.3257L28.5066 16.3722C28.4706 17.3637 29.6784 18.3011 28.3624 19.7433C25.7485 19.7793 26.4696 18.1209 25.7304 17.3998L24.3965 14.5695L23.4951 11.577C23.3509 10.5315 22.3233 9.79236 24.0359 8.06177L24.0539 8.0798Z" fill="white"/>
<path d="M24.0359 7.89949C25.7484 9.61206 24.7389 10.4233 24.5406 11.4869L23.5311 14.5695L22.143 17.5259C21.476 18.3191 21.8005 19.8514 19.8536 20.1759C17.8165 18.5174 19.439 17.6341 19.3308 16.5705L20.124 13.4158L21.3498 10.4053C21.9087 9.44983 21.6022 8.18793 24.0359 7.88147V7.89949Z" fill="white"/>
</svg>
