<svg width="48" height="48" viewBox="0 0 48 48" fill="none" xmlns="http://www.w3.org/2000/svg">
<path fill-rule="evenodd" clip-rule="evenodd" d="M24.2255 8.09747C24.1664 8.03282 24.1032 7.96686 24.0359 7.89949V7.88147C22.187 8.11429 21.9196 8.89852 21.6528 9.68089C21.5684 9.92837 21.4841 10.1757 21.3498 10.4053L20.124 13.4158L19.3308 16.5705C19.3645 16.9021 19.2301 17.2161 19.0907 17.5416C18.8537 18.0952 18.6024 18.682 19.141 19.4443C18.5596 18.7584 17.8732 18.7541 17.2279 18.7501C16.8681 18.7479 16.5211 18.7457 16.2123 18.6256L12.9494 18.2651L9.68648 18.3011C9.44269 18.3336 9.198 18.324 8.9528 18.3144C8.11008 18.2812 7.26143 18.2479 6.42358 19.9236V19.9416C6.66124 20.433 6.90159 20.7804 7.14363 21.0261C7.09391 22.0224 7.58344 22.443 8.06742 22.8589C8.25862 23.0231 8.44896 23.1867 8.60484 23.3847C9.39803 24.1238 10.1912 24.8629 11.0024 25.566L12.3725 26.4313L13.7606 27.2605C14.077 27.316 14.3387 27.5254 14.6105 27.7428C14.896 27.9712 15.1925 28.2084 15.5752 28.2855C15.112 28.6227 14.9707 29.0648 14.8297 29.5061C14.7541 29.7427 14.6786 29.9791 14.5535 30.199L13.4179 33.1013L12.7328 36.1479C12.7778 36.4624 12.6547 36.7629 12.5267 37.0756C12.2487 37.7544 11.9473 38.4906 13.2903 39.5519C13.3022 39.5884 13.3146 39.6255 13.3277 39.6631C14.585 40.1685 15.2439 39.6204 15.846 39.1194C16.1245 38.8877 16.3909 38.6661 16.6988 38.5635L19.4389 36.7968C20.2682 36.1118 21.1154 35.4628 21.9627 34.8499C22.1523 34.6732 22.3646 34.5419 22.5756 34.4113C23.1244 34.0717 23.6649 33.7372 23.7772 32.6243C23.8697 33.5916 24.3652 33.9623 24.8626 34.3344L24.8627 34.3344C25.0783 34.4958 25.2943 34.6574 25.4781 34.868L27.9658 37.0492L30.778 38.906C31.0963 38.9829 31.3612 39.2117 31.6371 39.4502C32.1962 39.9334 32.801 40.456 33.9884 39.8341C34.1813 39.8738 34.4016 39.9016 34.6539 39.9156C35.6143 38.9798 35.3805 38.1955 35.1646 37.4706C35.0643 37.1341 34.9679 36.8105 34.9964 36.4904L34.4196 33.3357L33.4641 30.3071C33.368 30.0908 33.3101 29.862 33.2522 29.6329L33.2522 29.6328C33.0755 28.9342 32.8978 28.2319 31.6322 27.8678L31.6444 27.8555C32.9878 28.3506 33.5577 27.8815 34.1234 27.4158C34.32 27.254 34.5162 27.0925 34.7441 26.9721L37.34 25.0973L39.6474 22.8619C39.7875 22.5706 40.0617 22.3802 40.3471 22.1821C40.838 21.8413 41.3621 21.4774 41.2941 20.5368C41.392 20.3636 41.4864 20.1608 41.5765 19.9235C40.9242 18.742 40.0703 18.7369 39.2785 18.7321C38.9106 18.7298 38.5561 18.7277 38.2415 18.6076L34.9065 18.247L31.5715 18.2831C31.3237 18.3156 31.0749 18.306 30.8255 18.2963C30.1772 18.2713 29.5241 18.246 28.8698 18.9596C29.1049 18.34 28.9112 17.8151 28.7285 17.3198C28.6095 16.9974 28.4951 16.6875 28.5066 16.3722L27.7675 13.3257L26.6498 10.4233C26.5408 10.2173 26.4706 9.99674 26.4004 9.77613C26.1652 9.0365 25.9296 8.29597 24.2255 8.09747Z" fill="#222222"/>
</svg>
