<svg width="48" height="48" viewBox="0 0 48 48" fill="none" xmlns="http://www.w3.org/2000/svg">
<mask id="path-1-outside-1_166_12064" maskUnits="userSpaceOnUse" x="9" y="10.0027" width="32" height="31" fill="white">
<rect fill="white" x="9" y="10.0027" width="32" height="31"/>
<path fill-rule="evenodd" clip-rule="evenodd" d="M17.5271 37.9153C18.4633 38.9373 19.496 40.0648 22.4 40L22.4028 39.9972C23.8335 39.985 25.0131 39.0782 25.8229 38.0268C26.3113 37.4139 26.7036 36.7601 27.0737 36.1434C27.5187 35.4017 27.9315 34.7137 28.4406 34.2151L33.3532 26.949L37.5845 19.2064C37.8585 18.5721 38.1351 18.0165 38.3984 17.4877C39.2724 15.7325 40 14.2712 40 11.1973L39.4328 10.3973C38.0441 9.82636 36.9133 11.523 35.6763 13.3788C35.2669 13.993 34.8459 14.6247 34.4001 15.1973L30.4 23.1973L25.6 31.1973C24.4187 32.3114 23.6735 33.2571 23.0826 34.0069C22.3902 34.8855 21.9097 35.4952 21.1879 35.7915C21.0171 35.6833 20.8782 35.5534 20.7866 35.3921L18.0242 31.6909L14.753 28.2582C14.3121 28.0055 14.0263 27.6132 13.7301 27.2068C13.082 26.3175 12.3846 25.3605 9.90674 25.6501C9.16212 27.0513 9.92037 27.9697 10.6228 28.8204C10.9489 29.2154 11.2631 29.5959 11.4091 30.0033L13.9776 33.8004L17.0065 37.3674C17.1842 37.5409 17.354 37.7263 17.5271 37.9153Z"/>
</mask>
<path fill-rule="evenodd" clip-rule="evenodd" d="M17.5271 37.9153C18.4633 38.9373 19.496 40.0648 22.4 40L22.4028 39.9972C23.8335 39.985 25.0131 39.0782 25.8229 38.0268C26.3113 37.4139 26.7036 36.7601 27.0737 36.1434C27.5187 35.4017 27.9315 34.7137 28.4406 34.2151L33.3532 26.949L37.5845 19.2064C37.8585 18.5721 38.1351 18.0165 38.3984 17.4877C39.2724 15.7325 40 14.2712 40 11.1973L39.4328 10.3973C38.0441 9.82636 36.9133 11.523 35.6763 13.3788C35.2669 13.993 34.8459 14.6247 34.4001 15.1973L30.4 23.1973L25.6 31.1973C24.4187 32.3114 23.6735 33.2571 23.0826 34.0069C22.3902 34.8855 21.9097 35.4952 21.1879 35.7915C21.0171 35.6833 20.8782 35.5534 20.7866 35.3921L18.0242 31.6909L14.753 28.2582C14.3121 28.0055 14.0263 27.6132 13.7301 27.2068C13.082 26.3175 12.3846 25.3605 9.90674 25.6501C9.16212 27.0513 9.92037 27.9697 10.6228 28.8204C10.9489 29.2154 11.2631 29.5959 11.4091 30.0033L13.9776 33.8004L17.0065 37.3674C17.1842 37.5409 17.354 37.7263 17.5271 37.9153Z" fill="white"/>
<path d="M22.4 40L22.4044 40.2L22.4847 40.1982L22.5415 40.1413L22.4 40ZM17.5271 37.9153L17.3796 38.0504L17.3796 38.0504L17.5271 37.9153ZM22.4028 39.9972L22.401 39.7972L22.3191 39.7979L22.2612 39.8559L22.4028 39.9972ZM25.8229 38.0268L25.6665 37.9022L25.6645 37.9048L25.8229 38.0268ZM27.0737 36.1434L27.2451 36.2463L27.2451 36.2463L27.0737 36.1434ZM28.4406 34.2151L28.5806 34.358L28.595 34.3438L28.6063 34.3271L28.4406 34.2151ZM33.3532 26.949L33.5189 27.061L33.5242 27.0532L33.5287 27.0449L33.3532 26.949ZM37.5845 19.2064L37.76 19.3023L37.7644 19.2942L37.7681 19.2857L37.5845 19.2064ZM38.3984 17.4877L38.5775 17.5768L38.5775 17.5768L38.3984 17.4877ZM40 11.1973L40.2 11.1973L40.2 11.1336L40.1632 11.0817L40 11.1973ZM39.4328 10.3973L39.5959 10.2817L39.5624 10.2344L39.5088 10.2124L39.4328 10.3973ZM35.6763 13.3788L35.5099 13.2678L35.6763 13.3788ZM34.4001 15.1973L34.2422 15.0745L34.23 15.0901L34.2212 15.1079L34.4001 15.1973ZM30.4 23.1973L30.5715 23.3002L30.5755 23.2937L30.5789 23.2868L30.4 23.1973ZM25.6 31.1973L25.7373 31.3429L25.7573 31.3239L25.7715 31.3002L25.6 31.1973ZM23.0826 34.0069L23.2397 34.1307L23.0826 34.0069ZM21.1879 35.7915L21.0809 35.9605L21.1682 36.0158L21.2639 35.9765L21.1879 35.7915ZM20.7866 35.3921L20.9605 35.2934L20.9543 35.2825L20.9469 35.2725L20.7866 35.3921ZM18.0242 31.6909L18.1845 31.5713L18.1773 31.5617L18.169 31.5529L18.0242 31.6909ZM14.753 28.2582L14.8978 28.1202L14.8777 28.0991L14.8524 28.0847L14.753 28.2582ZM13.7301 27.2068L13.8917 27.089L13.7301 27.2068ZM9.90674 25.6501L9.88353 25.4514L9.77935 25.4636L9.73013 25.5562L9.90674 25.6501ZM10.6228 28.8204L10.4685 28.9477L10.6228 28.8204ZM11.4091 30.0033L11.2208 30.0708L11.2293 30.0945L11.2434 30.1154L11.4091 30.0033ZM13.9776 33.8004L13.8119 33.9125L13.8181 33.9215L13.8251 33.9299L13.9776 33.8004ZM17.0065 37.3674L16.854 37.4968L16.8601 37.504L16.8668 37.5105L17.0065 37.3674ZM22.3955 39.8001C20.9713 39.8318 20.023 39.5713 19.3212 39.1895C18.616 38.8059 18.144 38.2926 17.6746 37.7802L17.3796 38.0504C17.8464 38.56 18.3589 39.1214 19.1301 39.5409C19.9046 39.9622 20.9247 40.233 22.4044 40.2L22.3955 39.8001ZM22.2612 39.8559L22.2584 39.8587L22.5415 40.1413L22.5443 40.1385L22.2612 39.8559ZM25.6645 37.9048C24.8727 38.9326 23.7444 39.7858 22.401 39.7972L22.4045 40.1972C23.9226 40.1843 25.1534 39.2237 25.9814 38.1489L25.6645 37.9048ZM26.9022 36.0405C26.5312 36.6588 26.1454 37.3013 25.6665 37.9022L25.9793 38.1514C26.4773 37.5266 26.876 36.8615 27.2451 36.2463L26.9022 36.0405ZM28.3006 34.0722C27.7696 34.5924 27.3435 35.305 26.9022 36.0405L27.2451 36.2463C27.6939 35.4985 28.0935 34.835 28.5806 34.358L28.3006 34.0722ZM33.1875 26.837L28.2749 34.1031L28.6063 34.3271L33.5189 27.061L33.1875 26.837ZM37.409 19.1105L33.1777 26.8531L33.5287 27.0449L37.76 19.3023L37.409 19.1105ZM38.2194 17.3985C37.9562 17.927 37.6773 18.4871 37.4009 19.1271L37.7681 19.2857C38.0397 18.657 38.314 18.106 38.5775 17.5768L38.2194 17.3985ZM39.8 11.1973C39.8 14.2257 39.0879 15.6542 38.2194 17.3985L38.5775 17.5768C39.4568 15.8108 40.2 14.3166 40.2 11.1973L39.8 11.1973ZM39.2696 10.513L39.8369 11.313L40.1632 11.0817L39.5959 10.2817L39.2696 10.513ZM35.8428 13.4897C36.4655 12.5553 37.0445 11.6887 37.636 11.1225C38.2246 10.5591 38.7716 10.3417 39.3567 10.5823L39.5088 10.2124C38.7053 9.88196 37.9926 10.2274 37.3594 10.8335C36.7291 11.4369 36.1241 12.3464 35.5099 13.2678L35.8428 13.4897ZM34.5579 15.3202C35.009 14.7407 35.4341 14.1027 35.8428 13.4897L35.5099 13.2678C35.0997 13.8833 34.6828 14.5086 34.2422 15.0745L34.5579 15.3202ZM30.5789 23.2868L34.5789 15.2868L34.2212 15.1079L30.2212 23.1079L30.5789 23.2868ZM25.7715 31.3002L30.5715 23.3002L30.2286 23.0944L25.4286 31.0944L25.7715 31.3002ZM23.2397 34.1307C23.8295 33.3822 24.5672 32.4463 25.7373 31.3429L25.4628 31.0518C24.2702 32.1765 23.5174 33.1319 22.9255 33.8831L23.2397 34.1307ZM21.2639 35.9765C22.044 35.6562 22.5569 34.9971 23.2397 34.1307L22.9255 33.8831C22.2235 34.7739 21.7755 35.3341 21.1119 35.6065L21.2639 35.9765ZM20.6126 35.4909C20.7248 35.6884 20.8909 35.8401 21.0809 35.9605L21.2949 35.6226C21.1433 35.5265 21.0315 35.4185 20.9605 35.2934L20.6126 35.4909ZM17.8639 31.8105L20.6263 35.5118L20.9469 35.2725L18.1845 31.5713L17.8639 31.8105ZM14.6082 28.3962L17.8794 31.8289L18.169 31.5529L14.8978 28.1202L14.6082 28.3962ZM13.5684 27.3246C13.8605 27.7254 14.1697 28.1544 14.6535 28.4317L14.8524 28.0847C14.4545 27.8566 14.192 27.501 13.8917 27.089L13.5684 27.3246ZM9.92995 25.8487C11.1417 25.7071 11.8899 25.8734 12.4074 26.1612C12.929 26.4512 13.2422 26.8769 13.5684 27.3246L13.8917 27.089C13.5699 26.6474 13.2104 26.15 12.6018 25.8116C11.9891 25.4709 11.1497 25.3035 9.88353 25.4514L9.92995 25.8487ZM10.777 28.693C10.4211 28.262 10.0807 27.8464 9.91026 27.3738C9.74563 26.9173 9.73683 26.396 10.0834 25.7439L9.73013 25.5562C9.33202 26.3054 9.33004 26.944 9.53398 27.5095C9.73215 28.0591 10.122 28.528 10.4685 28.9477L10.777 28.693ZM11.5974 29.9359C11.4372 29.4889 11.0968 29.0803 10.777 28.693L10.4685 28.9477C10.8011 29.3505 11.089 29.7028 11.2208 30.0708L11.5974 29.9359ZM14.1433 33.6884L11.5747 29.8913L11.2434 30.1154L13.8119 33.9125L14.1433 33.6884ZM17.159 37.2379L14.13 33.671L13.8251 33.9299L16.854 37.4968L17.159 37.2379ZM17.6746 37.7802C17.5022 37.592 17.3286 37.4024 17.1462 37.2243L16.8668 37.5105C17.0398 37.6795 17.2058 37.8607 17.3796 38.0504L17.6746 37.7802Z" fill="white" mask="url(#path-1-outside-1_166_12064)"/>
</svg>
