<svg width="48" height="48" viewBox="0 0 48 48" fill="none" xmlns="http://www.w3.org/2000/svg">
<path d="M3.49004 36.7853C8.65258 38.2546 13.7158 38.2745 18.3224 36.825C22.8694 35.4152 26.9002 32.1589 29.0843 27.8501C30.0374 26.0631 30.653 24.1371 30.9706 22.1316C31.0501 21.5756 31.1494 20.9005 31.4075 20.146C31.6656 19.3716 32.2017 18.5774 32.7577 18.0214C33.9292 16.8896 35.1801 16.3734 36.2126 15.9167L36.4509 19.5901L29.6006 17.664L34.7433 12.1639L37.0069 15.2813C35.4382 15.9763 33.5122 16.9889 30.9508 16.6514C29.6403 16.4528 28.6674 15.8571 28.032 15.5792C27.4363 15.3012 26.8803 15.1622 26.2648 15.1225C24.577 14.9835 22.9092 15.7579 21.9362 17.1676C21.4001 17.9023 21.3008 18.4583 20.8044 19.9872C20.5463 20.702 20.03 21.6749 19.1166 22.2706C18.243 22.8663 17.2899 23.0648 16.4163 23.045C14.5895 23.0053 13.279 22.1912 12.2664 21.5955C11.214 20.9601 10.1815 20.3049 9.20856 19.5702C8.71216 19.2128 8.23561 18.8355 7.73921 18.4583L7.02439 17.8824L6.80598 17.7037L6.76629 17.664L6.32945 17.1875C6.32945 17.1875 6.28972 17.5647 6.25001 17.803V17.9222C6.25001 17.9222 6.21029 17.9222 6.21029 18.0214V18.2994L6.15073 19.4709L6.07132 21.8933C6.05146 23.5215 5.93232 25.3483 6.19045 26.8375C6.40886 28.3267 7.12369 29.3989 8.37461 30.3321C8.67245 30.5505 9.00998 30.769 9.34753 30.9477C9.44681 31.0072 9.94323 31.2455 10.2411 31.3845C10.5985 31.5433 10.9757 31.6823 11.353 31.8015C12.9018 32.3177 14.5498 32.7943 15.9596 33.2509C15.761 33.4495 15.7213 33.5488 15.5227 33.7275L14.5299 34.343C13.8945 34.7203 13.279 35.0777 12.6635 35.4152C11.4523 36.0705 9.94321 36.6265 8.69228 36.8647C6.68683 37.2221 4.80053 37.103 3.15249 36.6264C4.84025 36.269 6.54784 35.7528 8.13632 35.038C8.65257 34.76 8.85116 34.5614 9.02986 34.3629C9.10928 34.2636 9.16883 34.1842 9.2284 34.1047L9.28797 33.9856C9.28797 33.9856 9.10928 33.9459 9.02986 33.926C8.73202 33.8665 8.49375 33.8268 8.31505 33.787L8.17604 33.7473C8.17604 33.7473 8.21575 33.7871 7.89806 33.6084C7.44137 33.3701 6.9847 33.0921 6.54787 32.7942C5.69406 32.1787 4.87995 31.4043 4.26442 30.4314C3.62903 29.4585 3.29148 28.3267 3.15249 27.3339C2.85465 25.2887 3.01351 23.6407 3.01351 21.9331V19.4511L2.97379 16.4131L3.07308 9.50324L6.13088 12.5213C6.84569 13.2362 7.63993 13.951 8.51359 14.7055C9.0497 15.1622 9.18869 15.2615 9.44682 15.46L10.2212 16.0557C11.2934 16.8499 12.5245 17.664 13.8747 18.4384C15.2646 19.2922 16.3765 19.6298 16.8928 19.3319C17.0914 19.2128 17.1112 19.2327 17.3296 18.637C17.5083 18.1009 17.7069 17.0684 18.1437 16.1748C18.9777 14.4077 20.308 13.1369 21.6384 12.3625C22.9886 11.5683 24.2594 11.3101 25.133 11.2307C26.0067 11.1513 26.5031 11.191 26.5031 11.191C27.5951 11.2506 28.7269 11.5683 29.68 12.0051C30.5934 12.4419 31.1295 12.7398 31.5465 12.7795C32.4599 12.9582 33.8696 12.4816 35.3588 11.7668L45.0286 7.19995L37.543 14.8048L36.6892 15.6586L37.4437 15.8969L42.3282 17.4456L37.682 19.3716C36.6892 19.7886 35.8354 20.2056 35.3787 20.6623C35.1404 20.9006 35.0213 21.0792 34.9021 21.3771C34.783 21.6749 34.7036 22.1316 34.6242 22.6876C34.2469 25.0703 33.4527 27.4332 32.301 29.5577C29.541 34.5614 24.8749 38.7312 19.1961 40.1807C13.6364 41.6897 7.40166 40.3991 3.43047 36.7654L3.49004 36.7853Z" fill="white"/>
</svg>
