<svg width="30" height="30" viewBox="0 0 30 30" fill="none" xmlns="http://www.w3.org/2000/svg">
<g clip-path="url(#clip0_1395_9325)">
<path d="M7.91223 21.9113C9.09937 20.7036 10.2865 21.0853 11.4795 21.0039L15.0467 20.9852L18.614 21.1854C19.6666 21.3982 21.152 20.9539 22.1812 21.9175C21.1754 23.2941 19.6783 22.5933 18.614 22.8436L15.0467 22.9938L11.4795 22.8811C10.2923 22.7623 9.08767 23.1439 7.91223 21.9175V21.905V21.9113Z" fill="#222222"/>
<path d="M21.9824 22.1177C20.8538 21.6922 21.2105 21.273 21.1345 20.8475L21.1169 19.5772L21.3041 18.307C21.5029 17.9315 21.0877 17.3997 21.9883 17.0367C23.2748 17.3997 22.6199 17.9315 22.8538 18.307L22.9941 19.5772L22.8889 20.8475C22.7778 21.273 23.1345 21.7047 21.9883 22.1177H21.9766H21.9824Z" fill="#222222"/>
<path d="M8.05263 17.043C9.18129 17.4685 8.81287 17.869 8.88304 18.282V19.5084L8.67836 20.7286C8.47953 21.0915 8.88304 21.6046 7.97076 21.9363C6.69006 21.5733 7.35088 21.0728 7.12281 20.6973L7 19.4709L7.12281 18.2507C7.24561 17.8502 6.88889 17.4247 8.04678 17.043H8.05848H8.05263Z" fill="#222222"/>
<path d="M14.9883 7.18773C15.4386 8.4392 14.807 8.59563 14.4912 9.08371L13.3918 10.3727L12.1404 11.5116C11.6725 11.7431 11.5088 12.5816 10.5205 12.2749C9.90059 10.9734 10.8421 10.9234 11 10.3727L12.0175 9.00236L13.2047 7.80095C13.655 7.46931 13.7719 6.76224 14.9766 7.18773H14.9942H14.9883Z" fill="#222222"/>
<path d="M19.6082 12.2812C18.4035 12.6754 18.2924 11.9996 17.8363 11.6367L16.6316 10.3977L15.5673 8.98981C15.3509 8.46419 14.5497 8.22642 14.8831 7.17518C16.1462 6.59951 16.1462 7.60694 16.6608 7.80717L17.9415 8.95227L19.0702 10.3038C19.3801 10.817 20.0585 10.9984 19.5965 12.2749H19.6082V12.2812Z" fill="#222222"/>
<path d="M14.9181 19.4896C13.7895 18.4759 14.1462 17.456 14.0702 16.4486L14.0526 13.4075L14.2397 10.3664C14.4386 9.46539 14.0234 8.19515 14.924 7.32538C16.2105 8.18889 15.5555 9.45913 15.7895 10.3664L15.9298 13.4075L15.8245 16.4486C15.7134 17.4623 16.0702 18.4885 14.924 19.4896H14.9123H14.9181Z" fill="#222222"/>
</g>
<defs>
<clipPath id="clip0_1395_9325">
<rect width="16" height="16" fill="white" transform="translate(7 7)"/>
</clipPath>
</defs>
</svg>
