<svg width="48" height="48" viewBox="0 0 48 48" fill="none" xmlns="http://www.w3.org/2000/svg">
<path d="M24.1689 30.375C26.7023 30.7283 25.9 31.0842 26.0689 31.4375L26.1111 32.5L25.6889 33.5625C25.2456 33.8766 26.1745 34.3207 24.1478 34.625C21.2556 34.3232 22.7334 33.879 22.2056 33.5625L21.8889 32.5L22.1211 31.4375C22.3745 31.0842 21.5722 30.7259 24.1478 30.375H24.1689Z" fill="white"/>
<path d="M24.1689 15.5C26.7023 16.56 25.9 17.6275 26.0689 18.6875L26.1111 21.875L25.6889 25.0625C25.2456 26.0048 26.1745 27.3372 24.1478 28.25C21.2556 27.3445 22.7334 26.0121 22.2056 25.0625L21.8889 21.875L22.1211 18.6875C22.3745 17.6275 21.5722 16.5527 24.1478 15.5H24.1689Z" fill="white"/>
<path fill-rule="evenodd" clip-rule="evenodd" d="M34.3791 40.6909C37.131 40.9859 39.9495 41.2881 43 40.4814C42.6908 39.7421 42.407 39.024 42.1302 38.3236C41.5299 36.8046 40.9626 35.3691 40.2404 33.9816C36.3448 26.3161 32.3645 18.6792 28.2994 11.0707C27.4063 9.39861 26.2851 7.68224 23.6609 7C22.3955 8.44212 21.2301 9.94824 20.1705 11.5109C16.4386 17.786 12.803 24.0895 9.2093 30.4159C8.19564 32.1971 7.27904 34.0196 6.31345 35.9396C5.88922 36.7831 5.45553 37.6455 5 38.5314C9.87029 39.6885 14.8892 40.2147 19.887 40.0922C23.098 40.1006 26.2254 40.2224 29.4939 40.3497C30.0041 40.3695 30.5178 40.3895 31.0357 40.4093C32.1466 40.4516 33.2573 40.5706 34.3791 40.6909ZM30.2675 36.9009C32.6569 37.107 35.6536 37.3655 37.7222 36.75C37.3733 35.8116 36.5538 34.6136 35.7831 33.487C35.1794 32.6045 34.6056 31.7657 34.3113 31.1297C31.838 25.6544 29.3108 20.1994 26.7298 14.7648C26.1627 13.5704 25.6662 12.7998 24 12.3125C23.6631 12.7444 23.2995 13.1043 22.9413 13.459C22.4452 13.9501 21.9593 14.4311 21.5686 15.0792C19.1991 19.5615 16.8908 24.0639 14.6091 28.5828C14.1919 29.4074 13.4643 30.5097 12.704 31.6616C11.7757 33.0678 10.7987 34.548 10.2778 35.6875C13.37 36.514 17.6601 36.8375 20.8334 36.75C21.6586 36.7525 22.5132 36.7404 23.3799 36.7282C24.9887 36.7055 26.6394 36.6822 28.2222 36.75C28.8097 36.7752 29.5079 36.8354 30.2675 36.9009Z" fill="white"/>
</svg>
