<svg xml:space="preserve" style="enable-background:new 0 0 556.8 474.8;" viewBox="0 0 556.8 474.8" y="0px" x="0px" xmlns:xlink="http://www.w3.org/1999/xlink" xmlns="http://www.w3.org/2000/svg" id="Layer_1" version="1.1">
<style type="text/css">
	.st0{fill:none;stroke:#000000;stroke-width:2;stroke-linecap:round;stroke-linejoin:round;stroke-miterlimit:10;}
</style>
<g>
	<g>
		<path d="M557.3,337.5c-0.3,0.5-0.6,1-0.9,1.4c-0.7,0.7-1,1.6-1,2.6c0,0.6-0.3,1.2-0.4,1.9c-0.2,0.6-0.5,1.2-1,1.6
			c-0.3,0.3-0.7,0.5-0.8,0.9c-0.6,1.8-2.2,2.5-3.6,3.4c-0.9,0.6-1.9,1.2-2.8,1.8c-1,0.7-1.9,1.5-3.2,1.5c-0.2,0-0.3,0.1-0.4,0.2
			c-1.1,1.2-2.7,0.9-4,1.3c-0.3,0.1-0.7,0.2-0.9,0.1c-1.6-0.4-3.2,0.1-4.8,0.3c-0.5,0.1-0.9,0-1.4,0c-0.4,0-0.8-0.1-1.2-0.1
			c-3.8,0.3-7.6,0.3-11.5,0.3c-1.6,0-3.2,0.2-4.8,0.3c-3.1,0.1-6.2,0.4-9.3,0.6c-1.3,0.1-2.5,0.1-3.7,0.5c-0.9,0.3-1.9,0.2-2.9,0.2
			c-3,0-6.1,0-9.1,0.3c-2.4,0.2-4.8,0.1-7.2,0.3c-1.7,0.1-3.3,0.3-5,0.6c-0.7,0.1-1.4,0.1-2.1,0c-3.4-0.4-6.7-0.1-10,0.7
			c-0.1,0-0.2,0.2-0.4,0.3c1.8,1.7,2.7,3.9,3.6,6.1c0.1,0.3,0.2,0.6,0.3,0.9c2.2,3.9,3.7,8.1,5.6,12.2c0.3,0.6,0.6,1.2,0.8,1.7
			c0.3,0.6,0.7,1.1,0.9,1.7c1,3,2.7,5.8,3.9,8.7c1,2.3,2.1,4.5,3.3,6.6c1.2,2.1,2.2,4.2,3.2,6.4c0.1,0.3,0.2,0.7,0.5,0.8
			c1.9,1,2,2.9,2.6,4.6c0.3,0.8,0.6,1.5,1,2.2c0.4,0.7,0.9,1.3,1.2,2.1c0.6,1.9,1.3,3.8,2.2,5.5c0.4,0.8,0.8,1.6,1.1,2.4
			c1.1,2.8,2.9,5.1,4,7.9c1.2,3,2.7,5.7,3.6,8.8c0.2,0.7,0.6,1.3,0.9,1.9c0.1,0.2,0.3,0.4,0.5,0.5c1,0.1,1.3,0.9,1.5,1.7
			c0.5,1.6,1.6,3,1.9,4.7c0.1,0.4,0.4,0.7,0.6,1c0.6,0.8,1,1.8,1.3,2.8c0.5,1.5,1.2,3,2.2,4.2c0.3,0.4,0.5,0.8,0.7,1.2
			c1.1,2.5,2.2,5,3.3,7.4c0.9,1.9,1.9,3.7,2.9,5.5c0.3,0.6,0.8,1.2,0.9,2c0,0.6-0.7,0.5-0.9,0.9c-0.2,0.5-0.1,0.9-0.1,1.4
			c0,0.8-0.3,1.2-1,1.4c-0.7,0.2-1.2,0-1.6-0.6c-0.6-1-1.1-2.1-1.7-3.2c-0.8-1.7-1.6-3.5-2.4-5.2c-0.3-0.7-0.4-1.4-1-1.9
			c-0.2-0.2-0.3-0.4-0.4-0.6c-0.6-1.9-1.8-3.6-2.5-5.4c-0.8-2.1-2-4-3-6c-0.2-0.4-0.5-0.7-0.6-1c-0.5-2.4-2.2-4.3-2.9-6.5
			c-1.6-4.7-4.4-8.7-6.3-13.1c-0.9-2.1-2-4-2.4-6.2c0-0.2-0.1-0.3-0.1-0.5c-1.5-2.4-2-5.4-3.5-7.8c-0.4-0.6-0.6-1.3-1.1-1.9
			c-0.6-0.6-0.7-1.4-0.9-2.2c-0.4-1.2-0.8-2.2-1.5-3.3c-1.3-2-2.2-4.2-3-6.5c-0.7-2-1.5-4-2.5-5.9c-1.3-2.5-2.7-5-3.6-7.8
			c-0.6-1.9-1.4-3.7-2.6-5.3c-0.5-0.6-0.6-1.5-0.9-2.2c-0.5-1.4-1-2.7-1.9-3.9c-0.5-0.7-0.7-1.6-1.1-2.4c-0.8-1.7-1.7-3.4-2.6-5.1
			c-0.6-1.1-0.8-2.5-1.4-3.5c-0.7-1.1-1.3-2.2-1.7-3.4c-0.4-1.1-1-2.1-1.3-3.3c-0.2-1.1-1-1.8-2.2-1.9c-0.7-0.1-1.4-0.4-2.1-0.2
			c-1.4,0.4-2.9,0.3-4.3,0.3c-1.3,0-2.6,0.1-3.8,0.2c-3.9,0.2-7.8,0.5-11.7,0.7c-2.5,0.2-5,1-7.6,0c-1.4,0-2.9,0.1-4.3,0
			c-2.2-0.1-4.4-0.4-6.7,0c-0.5,0.1-1.1,0.1-1.7,0c-3.2-0.5-6.4,0.2-9.5-0.3c-0.4-0.1-0.8,0-1.2,0.1c-1.3,0.3-2.7,0.2-4.1,0.2
			c-2,0-4-0.2-6-0.2c-1.9,0-3.8,0.1-5.7,0.2c-0.4,0-0.8,0.1-1.2,0.1c-3.7-0.3-7.3,0.1-11-0.1c-3-0.1-6.1,0-9.1,0c-1.4,0-2.9,0-4.3,0
			c-1.1-0.1-2.2-0.1-3.2-0.8c-0.8-0.6-1.8-0.6-2.8-0.5c-2.8,0.2-5.6,0.1-8.4,0.1c-2.6,0-5.3-0.1-7.9,0.3c-1.7,0.2-3.5,0.2-5.2-0.3
			c-0.8-0.3-1.7-0.4-2.6-0.5c-0.8-0.1-1.6-0.2-2.3-0.6c-1.1-0.5-2-1.3-3.2-1.5c-0.6-0.1-1.2-0.7-1.4-1.5c-0.1-0.6-0.3-1.2-0.4-1.9
			c-0.1-0.7-0.6-1.1-1.3-1.2c-2.5-0.5-5.1-0.3-7.6-0.2c-2.9,0.1-5.7,0.2-8.6,0.2c-4.6,0.1-9.3-0.1-13.9,0.2c-1.9,0.1-3.8,0-5.7,0.2
			c-0.7,0.1-1.4-0.1-2.1-0.2c-1.5-0.3-3,0-4.5-0.1c-0.2,0-0.3,0-0.5,0.1c-1.8,1-3.7,0.8-5.6,0.8c-1.2,0-2.4,0-3.6,0
			c-3.2,0.1-6.4,0.2-9.6,0c-1.4-0.1-2.7,0.1-4.1,0.1c-3.8,0-7.7-0.1-11.5-0.1c-0.5,0-1,0.1-1.4,0.1c-2.2,0.1-4.3,0.3-6.5,0.1
			c-1.1-0.1-2.2-0.1-3.3,0.1c-0.5,0.1-1,0-1.4,0.1c-2.1,0-4.2,0.1-6.2,0.1c-0.6,0-1.2,0.1-1.7,0c-1.5-0.5-3-0.4-4.5-0.2
			c-3.4,0.3-6.7,0.2-10.1,0.2c-3.6,0-7.2,0-10.8,0.1c-2,0-4,0.4-6,0.2c-2.7-0.2-5.4,0.6-8.1-0.1c-0.4-0.1-0.8,0-1.2,0.1
			c-0.3,0-0.7,0.2-1,0.1c-3.5-0.6-7,0.3-10.5,0c-1.7-0.2-3.5,0-5.3-0.1c-0.4,0-0.8,0-1.2,0c-3.9,0.5-7.8,0.2-11.7,0.2
			c-2.1,0-4.2,0.1-6.2,0.1c-0.8,0-1.6,0-2.4,0c-1,0-1.9-0.1-2.9-0.1c-2,0.1-4,0.1-6,0.1c-0.8,0-1.6,0.1-2.4,0.2
			c-0.6,0.1-1.3,0.2-1.9,0.1c-1.3-0.4-2.5-0.2-3.8-0.1c-2.2,0.1-4.5,0.2-6.7,0.3c-2.6,0.1-5.1,0.1-7.7-0.1c-0.3,0-0.6,0-1,0
			c-4.5,0.3-8.9,0.2-13.4,0c-1.1-0.1-2.2,0-3.3,0.3c-1.2,0.3-2.3,0.4-3.5,0c-0.8-0.3-1.6-0.2-2.4-0.2c-2.7,0.1-5.4,0.3-8.1,0.1
			c-0.5-0.1-1.1,0.1-1.7,0.1c-0.4,0-0.8,0.2-1.2,0.2c-2.2-0.4-4.3,0.2-6.4,0.1c-2.8-0.1-5.6,0-8.4,0c-0.9,0-1.8,0-2.6-0.2
			c-0.9-0.1-1.8-0.1-2.6,0c-1.5,0.2-3,0.2-4.5-0.1c-1-0.2-2.1-0.2-3.1-0.1c-1.3,0.1-2.7,0.4-4,0.3c-0.6,0-1.1,0.2-1.5,0.7
			c-0.5,0.7-1.3,1.2-1.7,2c-0.8,1.5-1.7,2.9-2.6,4.3c-1.3,2.1-2.7,4.2-4,6.3c-1.1,1.7-2.1,3.4-3.1,5.1c-0.2,0.3-0.4,0.7-0.6,1
			c-1.4,2-2.8,4.1-4.2,6.1c-0.4,0.7-0.9,1.3-1.5,1.9c-0.8,0.8-1.5,1.7-1.9,2.7c-0.5,1.3-1.4,2.3-2.3,3.3c-0.7,0.9-1.3,1.8-1.9,2.8
			c-1,1.9-2.5,3.5-3.3,5.6c-2.1,1.9-3.2,4.5-4.8,6.8c-1.9,2.7-3.7,5.4-5.3,8.2c-1.7,2.9-3.5,5.7-5.4,8.5c-0.6,0.9-1.2,1.7-1.6,2.6
			c-0.8,1.7-2.1,3.2-3.2,4.8c-0.4,0.7-1.1,0.9-1.9,0.8c-1-0.1-1.5-1-1.2-1.9c0.1-0.4,0.3-0.8,0.5-1.1c0.5-0.6,0.9-1.3,1.2-2.1
			c0.5-1,1-2,1.9-2.7c1.2-1,1.6-2.5,2.4-3.8c0.2-0.3,0.2-0.6,0.4-0.9c1.7-2.3,3.3-4.7,5.1-7c0.5-0.7,1-1.4,1.5-2.1
			c1-1.7,2.1-3.4,3.1-5.1c0.8-1.3,1.6-2.5,2.6-3.7c0.7-0.8,1.4-1.7,1.7-2.8c0.1-0.4,0.3-0.8,0.6-1c0.9-0.8,1.3-1.9,1.6-2.9
			c0.4-1.1,0.9-2,1.7-2.8c0.6-0.6,1-1.3,1.2-2c0.2-0.9,0.7-1.6,1.3-2.2c1.3-1.4,2.3-3,3.1-4.8c0.9-1.9,2.3-3.5,3.4-5.2
			c0.3-0.5,0.7-0.9,0.9-1.4c0.8-2,2.2-3.5,3.5-5.1c1.7-1.9,3.1-4,4.2-6.4c0.8-1.8,2.2-3.3,3.3-5c0.6-0.8,1.1-1.5,1.4-2.5
			c0.3-1.2,1.1-2.1,1.9-3c1.1-1.4,2.2-2.7,3-4.3c0.1-0.3,0.3-0.6,0.5-0.8c1.7-1.9,2.9-4.2,4.3-6.2c0.2-0.3,0.4-0.7,0.7-1
			c2.4-2.4,3.2-5.9,5.6-8.3c1-2.8,3-4.8,4.7-7.2c0.3-0.4,0.6-0.8,0.7-1.2c0.3-0.9,0.8-1.5,1.3-2.3c0.4-0.5,0.8-1,1-1.6
			c0.5-1.4,1.5-2.4,2.3-3.6c1.1-1.7,2.8-3.1,3.4-5.1c0.2-0.6,0.7-1.1,1-1.6c0.5-0.8,1.2-1.5,1.3-2.5c0-0.3,0.4-0.7,0.6-1
			c0.9-1.2,2-2.3,2.6-3.7c0.1-0.4,0.4-0.7,0.7-1c1.4-1.6,2.3-3.4,3.4-5.2c0.3-0.4,0.5-0.8,0.8-1.2c1.9-2.3,3.1-5,5.1-7.2
			c0.2-0.2,0.3-0.4,0.4-0.6c1.1-2.5,2.6-4.7,4.3-6.9c0.9-1.1,1.3-2.6,2.1-3.8c0.8-1.2,1.8-2.2,2.6-3.4c1.2-2,2.4-3.9,3.6-5.9
			c0.3-0.5,0.8-1,1.2-1.5c0.5-0.5,1-1,1.3-1.7c0.2-0.5,0.6-0.9,0.9-1.4c1.1-1.7,2.6-3.2,3.3-5.2c1.5-1.6,2.2-3.7,3.4-5.4
			c1.2-1.7,2.2-3.5,3.2-5.3c0.3-0.6,0.6-1.1,1.1-1.6c0.9-0.9,1.4-1.9,1.9-3c0.2-0.5,0.6-1,0.9-1.4c0.6-0.7,1.1-1.3,1.4-2.2
			c0.1-0.3,0.3-0.6,0.5-0.8c1.1-1.2,2-2.5,2.6-4c0.3-0.8,0.9-1.6,1.8-1.9c0.8-0.3,1.1-0.8,1.5-1.5c0.6-1.2,1.2-2.4,2.3-3.4
			c0.3-0.3,0.5-0.7,0.6-1c0.5-1,1.1-1.9,1.9-2.7c0.5-0.6,1-1.3,1.4-1.9c0.9-1.4,1.8-2.8,2.8-4.2c0.5-0.7,0.9-1.3,1.1-2.1
			c0.1-0.6,0.4-1.2,0.8-1.7c1.4-1.6,2.3-3.6,3.6-5.3c1-1.3,2.2-2.6,2.7-4.2c0.2-0.7,0.8-1.2,1.2-1.8c1.5-2.2,2.8-4.6,4.4-6.8
			c1.3-1.8,2.3-3.8,3.7-5.7c-2.6-1.5-4.6-3.6-7-5.2c-2.5-1.8-5.1-3.6-7.6-5.4c-0.3-0.2-0.8-0.3-1.1-0.5c-0.7-0.4-1.4-0.8-1.9-1.4
			c-0.8-1-1.9-1.6-3-2.3c-2-1.2-3.9-2.4-5.7-3.9c-1-0.9-2.2-1.6-3.4-2.2c-1.2-0.6-1.9-1.5-1.8-3c0.1-1.6-0.2-3.2,0.1-4.8
			c0.1-0.8,0.4-1.5,0.9-2.2c0.8-1,1.5-2,2.4-3c0.8-0.8,1-1.7,1.2-2.6c-0.6-0.5-1.1-0.3-1.5-0.2c-0.9,0.3-1.8,0.6-2.7,1
			c-0.1,0.1-0.4,0.1-0.4,0.2c-0.6,1.2-1.8,1.4-2.8,2c-1,0.6-2,1.3-3.1,1.8c-0.4,0.2-0.9,0.4-1.2,0.8c-0.4,0.4-0.8,0.5-1.3,0.4
			c-1.1-0.3-2,0.1-2.9,0.8c-2,1.5-4.1,3-6.2,4.5c-0.6,0.4-1.2,0.9-1.8,1.1c-1.5,0.5-2.7,1.4-3.9,2.2c-1.5,0.9-3.1,1.6-4.8,2.1
			c-0.8,0.2-1.7,0.5-2.3,0.8c-0.2,0.5,0,0.8,0.3,1c0.3,0.2,0.6,0.5,1,0.7c1.1,0.8,2.5,1.2,3.5,2c1,0.8,2.1,1.5,3.2,2
			c1.3,0.7,2.5,1.4,3.7,2.1c0.5,0.3,1,0.6,1.5,0.7c2.3,0.6,4,2.2,6,3.4c0.7,0.4,1.3,1,2,1.3c3.4,1.9,6.7,4.1,10,6.1
			c1.3,0.8,2.4,1.8,3.3,3c0.8,1.2,1.8,2.2,2.5,3.5c0.9,1.6,1.2,3.4,1.8,5.2c0.1,0.4,0,0.8,0,1.2c-0.2,0.9-0.4,1.7-0.5,2.6
			c-0.2,2.1-1,3.9-2.4,5.3c0.1,0.9,1,0.8,1.3,1.4c0.3,0.6,0.7,1.1,1,1.6c0.3,0.4,0.4,0.9,0.3,1.4c-0.2,0.9-0.3,1.9-0.7,2.8
			c-1.9,3.8-4.6,6.7-8.9,7.8c-1.3,0.3-2.7,0.6-3.9-0.2c-0.4-0.3-0.9-0.2-1.4-0.1c-3.6,0.7-7.3,0.8-11,0.7c-2.2,0-4.3,0.2-6.5,0.1
			c-5.5,0-11-0.1-16.5-0.2c-4.4-0.1-8.8-0.4-13.2-0.5c-2.8-0.1-5.6,0-8.4,0c-0.8,0-1.6-0.1-2.4-0.2c-0.5,0-1-0.2-1.4-0.1
			c-2.2,0.3-4.5-0.2-6.7-0.2c-0.4,0-0.8,0-1.2,0c-3.1-0.6-6.2-0.7-9.3-1.2c-3-0.5-6-1.1-9-1.4c-2.1-0.2-4.1-0.4-6.2-0.9
			c-2.7-0.6-5.1-1.7-7.6-2.9c-0.5-0.2-0.7-0.6-0.8-1.1c-0.2-1.3-0.2-2.4,1.1-3.1c0.4-0.2,0.7-0.6,1-0.8c0-0.9-0.5-1.5-0.7-2.1
			c-0.9-2.2-1.3-4.4-1.4-6.8c-0.2-3.6,0.6-7.1,1.3-10.7c0.5-2.5,1.2-4.8,2.3-7c0.2-0.4,0.4-0.9,0.7-1.2c0.6-0.8,1.4-1.2,2.5-1
			c1.6,0.4,3.3,0.7,4.7,1.5c0.6-0.2,0.7-0.7,0.7-1.2c0.3-3.4,2.1-6.2,3.6-9.1c0.5-0.9,1.2-1.1,2.2-0.6c1.5,0.7,3.1,1.2,4.7,1.7
			c1.7,0.6,3.4,1.2,5.2,1.8c1.4,0.4,2.5,1.3,3.7,2.1c0.4,0.3,0.6,0.7,0.8,1.2c1.2,2.4,1.7,2.7,4.6,2.1c0.4-1.7,0.4-3.3-0.3-5.1
			c-0.8-1.9-1.7-3.7-3.2-5.2c-0.7-0.7-1.1-1.7-1.6-2.7c-1-2.2-2-4.3-2.9-6.5c-0.2-0.4-0.2-0.9-0.4-1.4c-0.4-1.6-0.5-3.3-1.2-4.9
			c-0.2-0.6-0.2-1.3-0.3-1.9c-0.1-2.1-0.1-4.1-0.4-6.2c-0.3-2.2-0.1-4.5-0.1-6.7c0-2.5,0-4.9,0.3-7.4c0.2-1.9,0.7-3.8,1.3-5.6
			c0.5-1.5,0.9-3.1,1.7-4.5c0.4-0.6,0.7-1.3,1.1-1.8c0.2-0.3,0.5-0.6,0.6-1c0.9-2.6,2.6-4.7,4.4-6.7c0.5-0.5,0.7-1,0.8-1.7
			c0.2,0,0.5-0.1,0.7-0.1c1.2,0.1,1.4,0.3,1.4,1.4c0,0.5-0.2,0.9-0.5,1.3c-1.1,1.1-2.1,2.4-2.9,3.8c-1,1.8-2.1,3.5-3,5.4
			c-1.1,2.5-2,5-2.8,7.6c-0.2,0.7-0.4,1.4-0.4,2.1c-0.3,3.7-0.7,7.5-0.1,11.2c0.1,0.4,0.1,0.8,0.1,1.2c0,3.1,0.6,6.2,1.2,9.2
			c0.1,0.5,0.2,0.9,0.3,1.4c0.4,2.8,1.2,5.4,2.4,8c0.2,0.4,0.4,0.9,0.9,1.1c0.7,0.3,1.1,0.9,1.5,1.5c0.8,1.1,1.7,2.1,2.6,3.2
			c0.4-0.1,0.8-0.1,1.2-0.2c2.7-0.5,5.3-1.4,7.9-1.9c2.7-0.5,5.2-1.4,7.8-2.1c0.4-0.1,0.9-0.3,1-0.9c-0.3-0.4-0.7-0.6-1.1-0.9
			c-1.6-1-3.2-2.2-4.3-3.8c-1.2-1.9-2.6-3.6-4-5.4c-1.3-1.8-2.5-3.7-3.6-5.7c-1.1-1.9-1.2-4.3-2.5-6.2c0-0.1,0-0.2-0.1-0.2
			c-0.2-2.9-1.5-5.5-1.9-8.4c-0.2-2-0.8-3.9-0.9-5.9c-0.1-3.3-0.1-6.7,0.6-10c0.4-1.7,0.8-3.2,2-4.6c0.4-0.5,0.7-1.1,1-1.6
			c0.6-0.9,1.2-1.9,2.2-2.5c0.5-0.3,0.9-0.9,1.1-1.6c-0.2-0.4-0.4-0.8-0.7-1.2c0.6-1.1,1.2-2.1,1.7-3.1c-0.4-1.2-1.5-1.6-2.3-2.1
			c-2.2-1.4-3.8-3.3-5-5.6c-0.6-1.2-1.2-2.5-2.4-3.2C54.1,91,53,90.5,52,90c-0.5-0.2-1,0.1-1.1,0.6c0,0.1-0.1,0.2-0.1,0.2
			c0.2,2.3-0.5,4.6-0.7,6.9c-0.3,3.1-0.1,6.2-0.7,9.3c0,0.2,0,0.3,0,0.5c0,0.7,0.6,1.2,1.3,1c1-0.2,2-0.5,3-0.8
			c0.8-0.2,1.5-0.5,2.3-0.6c0.9-0.2,1.3,0.1,1.4,1.1c0,0.3-0.1,0.6-0.1,0.9c-0.7,0.3-1.2,0.5-1.8,0.7c-1.4,0.2-2.6,0.7-3.9,1.2
			c-1.2,0.4-2.3,0.6-3.5,0.4c-1-0.1-1.4-0.6-1.4-1.6c0.1-1.6,0.1-3.2,0.4-4.8c0.6-3.6,0.9-7.1,1-10.7c0.1-2.1,0.3-4.3,0.4-6.4
			c0-0.6,0.1-1.2,0-1.7c-0.5-1.5-0.2-3-0.6-4.5c-0.1-0.3-0.1-0.7,0.1-0.9c0.5-0.6,0.5-1.3,0.3-2c-0.3-1.5-0.3-3-0.5-4.5
			c-0.3-2.1,0.2-4.1,1.1-6c0.9-1.7,2-3.3,2.7-5.1c0.1-0.3,0.3-0.6,0.5-0.8c2-1.9,3.9-4,6.6-5c1.6-0.6,3.3-1.2,5.1-0.8
			c0.9,0.2,1.7,0,2.3-0.4c1.9-1.6,4-1.2,6.2-1c1,0.1,2,0.3,3.1,0.5c1.9,0.4,3.3,1.7,4.7,2.8c2.2,1.8,4.1,3.8,5.7,6.1
			c0.8,1.2,1.4,2.7,1.8,4.1c0.4,1.3,0.9,2.5,1.8,3.6c0.7,0.8,1.1,1.7,1.5,2.7c0.4,1,1,2,1.4,3c1,2.4,1.9,4.9,2.9,7.4
			c0.5,1.3,1.1,2.5,1.4,3.8c0.7,2.6,1.9,5.1,2,7.9c0,0.6,0.2,1.3,0.3,1.9c0.2,1.3-0.3,2.1-1.5,2.6c-0.3,0.1-0.6,0.1-0.9,0.2
			c-1.4,0.5-2.9,0.6-4.4,1.2c-1.1,0.5-2.5,0.4-3.8,0.5c-0.4,0.1-0.8,0.1-1.2,0.2c-0.7,0.2-1,0.7-0.8,1.4c0.2,0.7,0.3,1.4,0.7,2
			c0.6,1,0.8,2.1,0.9,3.2c0.1,1.6,0.5,3.1,1.5,4.5c0.5,0.7,0.8,1.5,1.1,2.4c1,2.8,2,5.5,2.4,8.5c0.3,2.5,0.7,5,0.9,7.6
			c0.1,1.6-0.1,3.2-0.3,4.8c-0.5,3.3,0.5,2.8,2.4,2.2c1.5-0.5,3.1-0.6,4.7-0.9c1-0.2,2-0.4,3-0.6c1.6-0.3,3.3-0.3,5-0.4
			c2.6,0,5.1-0.4,7.7,0c0.2,0,0.5,0,0.7-0.1c1.3-0.5,2.7-1,4-1.5c0.4-0.1,0.7-0.4,1-0.6c0.5-0.4,1-0.7,1.6-1c0.7-0.3,1.4-0.6,2-1.2
			c0.3-0.3,0.8-0.6,1.2-0.8c2.5-1.4,5-2.8,7.5-4.2c1.1-0.6,2-1.3,2.9-2.2c-0.2-1.4-1.3-2.4-1.2-3.8c0.1-1.3,0.2-2.5,0.3-3.8
			c-1.1-0.3-1.9,0-2.5,0.6c-0.6,0.6-1.3,0.9-2.1,1.1c-2.5,0.8-5.1,1.5-7.6,2.3c-2.7,0.8-5.5,1.6-8.3,2.3c-2.5,0.6-4.8,1.7-7.4,2.2
			c-0.3,0.1-0.6,0.2-0.8,0.4c-0.6,0.5-1.3,0.5-2,0.3c-0.5-0.2-0.5-0.6-0.7-1c-0.8-1.4-1.7-2.7-2.8-3.9c-1.2-1.3-2.3-2.9-3.5-4.3
			c-2-2.5-4.1-4.9-6.7-6.8c-0.8-0.6-1.5-1.4-2.4-1.9c-0.7-0.4-1.1-1.1-1-2c0.1-0.5,0.5-0.9,0.9-0.9c0.8-0.1,1.5,0.2,1.9,0.8
			c1,1.3,2.4,2.3,3.6,3.5c3.3,3.3,6.7,6.4,9.4,10.2c0.7,1,1.5,2.1,2.2,3.1c0.3,0.4,0.7,0.5,1.1,0.3c1.6-0.9,3.4-1,5-1.6
			c1.6-0.5,3.2-1,4.8-1.6c1.5-0.6,3.1-0.8,4.6-1.2c0.8-0.2,1.5-0.5,2.2-0.8c3.1-1.1,6-2.6,9.3-3c0.4,0,0.8-0.1,1.1-0.3
			c0.6-0.4,1.3-0.5,2-0.7c1.8-0.4,3.5-1,5.2-1.6c1.6-0.5,3.1-1.2,4.8-1.2c0.6,0,1-0.3,1.5-0.6c1.3-1,2.6-1.9,4-2.6
			c1.5-0.7,3.2-1,4.8-1.3c2.2-0.4,4.3-0.2,6.1,1.1c0.2,0.1,0.4,0.2,0.7,0.3c0.8-0.1,1.4-0.4,1.8-1.1c0.5-0.8,1.1-1.6,1.6-2.3
			c0.8-1,1.6-2,2.4-3c0.6-0.7,1.1-0.7,1.9-0.2c0.5,0.3,1,0.8,1.6,1.1c3,1.9,6,4,9.1,5.7c3.8,2.1,7.1,4.9,10.8,7.1
			c0.2,0.1,0.4,0.3,0.6,0.4c1.5,0.5,2.8,1.6,4,2.5c0.7,0.5,1.2,0.5,1.6-0.2c1.3-1.9,2.5-3.9,3.8-5.8c0.3-0.4,0.4-0.9,0.6-1.3
			c0.2-0.4,0.3-0.8,0.5-1.1c2-2.1,2.7-5,4.8-7.1c0.7-1.6,2.2-2.7,2.7-4.5c1.6-2.2,3-4.5,4.1-7c0.2-0.5,0.7-0.9,1-1.3
			c0.6-0.7,1.1-1.5,1.6-2.4c0.7-1.3,1.4-2.7,2.3-3.8c1.5-1.8,2.6-3.8,3.8-5.8c0.5-0.9,1-1.8,1.7-2.6c0.4-0.4,0.8-0.9,0.9-1.4
			c0.5-1.4,1.5-2.5,2.4-3.6c0.9-1.1,1.6-2.4,2.4-3.6c0.9-1.5,1.9-3,3-4.3c1.1-1.4,1.8-3,2.8-4.4c0.1-0.2,0.2-0.4,0.3-0.6
			c0.6-1.3,2-1.9,2.5-3.2c0.5-1.2,1.1-2.3,1.9-3.3c1-1.3,2-2.5,2.5-4.1c0.1-0.3,0.2-0.6,0.5-0.8c1.8-2,3.4-4.2,4.6-6.6
			c1.5-1.4,2-3.4,3.6-4.8c0.1-0.1,0.2-0.2,0.3-0.4c1.4-3,3.5-5.5,5.1-8.3c0.3-0.5,0.5-1,0.8-1.5c0.7-1.3,1.4-2.7,2.5-3.8
			c0.4-0.5,0.7-1,1.1-1.5c1-1.5,1.9-3.2,3.1-4.6c0.7-0.8,1.5-1.7,1.8-2.8c1.9-2.3,3.4-5,5-7.6c0.7-1.2,1.7-2.1,2.4-3.3
			c0.9-1.6,2.4-2,4.1-2.1c1-0.1,1.9,0.1,2.9,0c2.3,0,4.6-0.1,6.9-0.2c0.5,0,0.9-0.2,1.4-0.3c0.5-0.1,1.1-0.2,1.6,0.1
			c0.5,0.4,0.5,1,0.6,1.5c0.3,1.2,0.8,2.2,1.5,3.3c0.9,1.4,1.6,2.9,2,4.6c0.1,0.5,0.2,1.1,0.5,1.6c1.8,2.9,3,6.1,4.6,9.2
			c0.7,1.4,1.6,2.8,1.9,4.4c0.1,0.5,0.4,0.8,0.7,1.3c0.7,1.4,1.6,2.8,2.1,4.3c0.2,0.5,0.4,1,0.9,1.4c0.3,0.3,0.6,0.8,0.7,1.2
			c0.7,1.9,2.1,3.6,2.5,5.7c0,0.2,0.1,0.3,0.2,0.4c1.7,1.7,2.1,4.1,3.5,6c0.2,0.3,0.5,0.7,0.5,1.1c0.4,2.5,1.8,4.6,2.5,7
			c0.4,1.5,1.2,2.7,2.1,4c1.1,1.5,1.9,3.1,2.7,4.8c0.9,1.8,1.8,3.5,2.4,5.4c0.5,1.6,1.5,3,2,4.6c0.1,0.2,0.2,0.4,0.4,0.6
			c1.9,2.2,2.9,4.9,3.8,7.6c0.1,0.2,0,0.5,0.2,0.7c1.2,1.7,1.7,3.8,2.8,5.6c0.8,1.4,1.5,2.8,2.3,4.2c0.5,1,0.9,2,1.6,2.9
			c0.4,0.4,0.6,1,0.8,1.5c1.4,3.5,3.1,6.8,4.7,10.2c0.9,1.7,1.3,3.6,2.2,5.3c1.3,2.6,2.4,5.4,4.3,7.7c0.2,0.2,0.3,0.5,0.4,0.8
			c0.6,1.5,1.2,2.9,2.1,4.3c1.2,1.7,1.6,3.8,2.6,5.7c0.1,0.2,0.1,0.5,0.2,0.7c1.3,1.9,2,4,2.5,6.2c0,0.2,0.1,0.3,0.2,0.4
			c1.8,2.2,2,5.2,4.1,7.2c0.2,0.2,0.3,0.5,0.4,0.8c0.6,1.6,1.5,3,2.3,4.5c0.5,0.8,0.9,1.6,1,2.6c0.2,1.2,0.9,2.2,1.5,3.3
			c1.2,2.3,2.4,4.7,3.5,7c0.4,0.7,0.8,1.4,1.2,2.1c0.3,0.5,0.6,1,0.7,1.5c0.2,1.1,0.7,2.1,1.4,3c0.1,0.2,0.3,0.4,0.4,0.6
			c1.2,3.3,3.3,6.2,4.3,9.6c0.4,1.4,1.4,2.5,2,3.8c1.3,2.6,2.3,5.3,3.5,7.8c0.2,0.4,0.2,0.8,0.5,1.1c2.3,3.5,3.6,7.5,5.6,11.1
			c0.6,2.8,2.5,5,3.4,7.6c0.4,1.2,1.5,2.1,1.9,3.4c1.6,0.2,3.2,0.3,4.8-0.1c1.5-0.4,3-0.4,4.5-0.5c2.2-0.1,4.5,0.1,6.7-0.4
			c0.1,0,0.2,0,0.2,0c5.2,0.2,10.3-0.8,15.5-1c2.1-0.1,4.1-0.5,6.2-0.2c1.3,0.2,2.1-0.4,2.5-1.7c0-0.1,0.1-0.3,0.2-0.6
			c-0.5-0.6-1.5-0.3-1.9-1.1c-0.4-0.7-1-1.2-1.4-1.9c-1-1.7-2.4-3.1-3.9-4.5c-0.3,0-0.6,0-0.8,0.1c-3.8,1.8-7.7,1.7-11.8,1.3
			c-0.2,0-0.5-0.1-0.7-0.2c-1.7-1-3.6-1.8-5-3.2c-1.4-1.4-2.9-2.8-3.9-4.5c-0.1-0.2-0.3-0.4-0.4-0.6c-2.3,0.2-3.9-1-5.3-2.5
			c-1-1-1.4-2.2-1.3-3.7c0.2-1.8,0.7-3.4,1.7-4.9c0.9-1.4,1.7-2.9,2.2-4.5c0.3-0.9,0.4-1.7,0.1-2.6c-0.3-1.1-0.5-2.2-0.9-3.2
			c-1.6-4.6-1.7-9.2-0.7-13.9c0.1-0.7,0.6-1.3,0.8-2c0.2-0.6,0-1.1-0.5-1.5c-0.1-0.1-0.3-0.2-0.4-0.3c-2.1-1.2-3.3-3.1-4.3-5.3
			c-1.4-3.1-1.4-6.2-0.6-9.3c0.1-0.3,0.3-0.6,0.4-0.8c1.3-2,3.1-3.7,4.7-5.4c2.7-1.4,4.8-3.6,7.8-4.6c2.6-0.8,5.1-1.8,7.8-2.3
			c1.9-0.4,3.9-0.6,5.9-0.9c2.2-0.3,4.4-0.5,6.7-0.7c2.2-0.2,4.3-0.2,6.5-0.3c1.8,0,3.7,0,5.5,0.1c2.5,0.1,4.9,0.3,7.4,0.5
			c0.8,0.1,1.1,0.4,1.3,1.2c0.2,0.7-0.1,1.2-0.8,1.5c-0.6,0.2-1.3,0.3-1.8,0.6c-1.7,1.3-3.6,2.3-5.4,3.6c-0.2,0.1-0.4,0.3-0.5,0.5
			c-0.4,1.1-0.7,2.1-1,3.2c-0.2,0.7,0.1,1.3,0.7,1.6c0.4,0.2,0.9,0.5,1.3,0.6c1.4,0.3,2.6,1,3.7,2.1c0.9,0.9,1.9,1.6,2.7,2.6
			c1.6,2,2.7,4.1,3.1,6.6c0.2,0.9,0.5,1.9,0.6,2.8c0.2,0.9,0.3,1.9,0.3,2.9c-0.1,2.2-0.1,4.5-0.6,6.7c-0.1,0.6-0.3,1.2-0.7,1.8
			c-0.6,1-1.2,1.9-1.7,2.9c-0.3,0.6-0.8,1-1.3,1.4c-1.1,0.9-2.2,1.8-3.3,2.7c-0.5,0.4-0.7,0.9-0.7,1.5c0,0.4,0,0.8,0.1,1.2
			c0.3,1.2,0.7,2.3,0.1,3.5c-0.3,0.6,0.1,1.2,0.4,1.8c1,1.9,2,3.8,3.4,5.5c0.2,0.3,0.5,0.6,0.7,1c0.2,0.4,0.1,0.8-0.2,1.1
			c-0.4,0.3-0.8,0.6-1.3,0.4c-0.7-0.3-1.1-0.9-1.5-1.5c-2.1-2.9-4-5.9-4.8-9.5c-0.2-1-0.1-2.3-1.1-2.8c-0.9-0.4-1.8,0.6-2.7,0.6
			c-0.1,0-0.1,0.1-0.2,0.2c-0.1,0.7,0.5,1,0.8,1.3c2.3,2.4,2,5.2,1.2,8.1c-0.1,0.4-0.5,0.8-0.8,1.2c-0.7,0.8-1.4,1.5-2.1,2.3
			c-0.2,0.2-0.3,0.4-0.5,0.5c-1.7,0.5-3.2,1.5-5,1.5c-1.5,0-3-0.3-4.4-1c-1.1-0.5-1.8-1.6-2.4-2.6c-1.4-2.4-1.4-2.4-0.8-5.4
			c0.1-0.7,0.3-1.4-0.1-2.1c-0.6-1.3-0.6-1.3,0.8-2.2c0.2,0.2,0.5,0.3,0.7,0.6c1.4,1.5,3.2,1.3,4.9,0.9c0.7-0.2,0.8-0.9,0.5-1.5
			c-0.4-0.4-0.9-0.2-1.4-0.3c-0.4-0.1-0.7-0.3-0.8-0.7c-0.1-0.5-0.1-1,0.4-1.3c0.7-0.5,1.5-0.8,2.5-0.9c0.8,0,1.3-0.5,1.8-1.1
			c1-1.5,1.9-2.9,1.6-4.8c-0.6-3.6-2.6-4.7-5.5-4c-1.6,0.4-3.1,1.1-4.1,2.7c-0.5,0.8-0.9,1.5-0.8,2.4c0,0.5,0,1,0,1.5
			c-0.8,1.2-2,1.7-3.2,1.9c-2.6,0.4-4.5,1.9-6.6,3.2c-0.7,0.4-1.4,0.8-2.2,1c-2.6,0.7-3.8,1.4-6,3.2c-0.1,0.3,0,0.6,0.2,0.9
			c1.3,2,2.6,4,3.9,6c0.4,0.6,0.5,1.2,0.6,1.8c0.1,0.9-0.5,1.3-1.4,1.1c-0.4-0.1-0.7-0.3-1-0.7c-0.8-1.1-1.7-2.1-2.3-3.4
			c-0.5-1.1-1.1-2.1-2.1-2.9c-0.3,0.3-0.6,0.5-0.7,0.8c-0.3,0.7-0.7,1.4-1.2,2.1c-0.6,0.8-0.8,1.7-1.1,2.6c-0.4,1.7,0.5,2.9,1.3,4.2
			c0.1,0.2,0.4,0.3,0.6,0.3c0.4,0.1,0.8,0.1,1.2,0.1c1.7-0.3,2.7,0.6,3.4,2c0.5,0.9,1.1,1.8,1.7,2.6c0.3,0.4,0.7,0.9,1.2,1.1
			c0.9,0.5,1.8,1,2.4,1.9c0.1,0.2,0.4,0.4,0.6,0.4c1.8,0.6,3.6,1.4,5.6,1c1-0.2,1.9-0.3,2.8-0.3c0.8-0.1,1.6-0.2,2.4-0.4
			c1-0.3,1.9-0.8,2.6-1.6c0.9-1.1,1.8-2,2.7-3c0.2-0.2,0.5-0.3,0.9-0.3c0.6,0.1,1,0.6,0.8,1.2c-0.3,1-0.7,1.9-1.2,3.1
			c0.5,1.8,1.7,3.3,3,4.7c0.9,0.9,1.5,2.3,3.1,2.4c0.5-0.1,0.6-0.5,0.8-0.9c0.8-1.4,1.6-2.8,2.4-4.1c0.4-0.6,0.7-1.3,1.2-1.8
			c2.3-2.3,4.1-5.1,6.3-7.5c1.4-1.5,2.7-2.9,4-4.4c0.5-0.6,1.1-0.9,1.9-0.8c2.2,0.2,4.4,0.5,6.5,1.4c2.1,0.9,4.4,1.4,6.4,2.7
			c1.6,0.2,2.8,1.4,4.3,2c0.2,0.1,0.5,0.2,0.6,0.4c1.7,1.6,3.8,2.6,5.7,4c0.5,0.4,1.1,0.7,1.6,1c1.6,1.1,3.2,2.1,4.7,3.3
			c1.8,1.6,4.1,2.5,5.8,4.2c2.5,2.4,5.2,4.5,7.3,7.2c0.3,0.4,0.8,0.8,1.2,1.2c1.6,1.6,3,3.3,4.2,5.2c0.9,1.3,1.9,2.5,3,3.7
			c1.3,1.4,2.3,3,3.4,4.6c1.9,2.7,3.1,5.7,4.7,8.6c0.7,1.3,1.6,2.5,2.2,4c1,2.3,2.1,4.4,3,6.8c1.2,3.4,2.3,6.8,3.2,10.3
			c0,0.1,0,0.2,0.1,0.2c1.4,2.9,1.5,6.2,1.9,9.3c0.1,0.6,0.1,1.3,0.2,1.9c0.4,1.9,0.2,3.8-0.2,5.7c-0.1,0.2,0,0.5-0.1,0.7
			c-1.3,2.1-0.9,4.5-1.2,6.7c-0.2,1.2-0.4,2.4-0.9,3.5c-0.3,0.7-0.6,1.5-0.7,2.3c-0.6,3-2.4,5.4-3.7,8c-0.2,0.3-0.5,0.6-0.8,0.9
			c-1.3,0.9-2.1,2.2-3.1,3.3c0,0,0,0.1,0.1,0.4c1,0.1,2-0.1,3-0.5c3.3-1.4,6.9-1.9,10.3-3c1.8-0.6,3.7-1,5.5-1.4
			c0.5-0.1,0.9-0.3,1.3-0.5c2.7-1.3,5.5-1.5,8.3-1.2c0.8,1,0.8,2.1,1,3.1c0.2,0.9,0.3,1.7,1,2.4c0.5,0.5,0.7,1.2,0.9,1.9
			c0.2,0.9,0.4,1.9,0.6,2.8c0.9,0.5,1.7,0.2,2.5-0.2c0.7-0.4,0.7-0.3,1.8-0.3c1.5,2.3,2.4,4.8,3.4,7.3c0.1,0.3,0.2,0.6,0.3,0.9
			c0.2,2.4,1.1,4.7,1.9,6.9c1,3.1,1.6,6.2,2,9.3c0.2,1.7,0.1,3.4,0.1,5c0,0.6-0.1,1.3,0.4,1.8C557.3,335.9,557.3,336.7,557.3,337.5z
			 M72.5,105.7c0,0.1,0.1,0.2,0.1,0.2c1.1,1.2,2.6,1.4,4,1.8c0.2,0.1,0.4-0.2,0.4-0.5c0-0.2-0.1-0.5-0.3-0.6
			C75.4,105.8,74,105.4,72.5,105.7c-0.3-0.1-0.5-0.5-0.8-0.5c-1.7-0.1-3.2-0.8-4.8-1.5c-0.1-0.1-0.3,0-0.6,0.1
			c-0.2,0.8-0.9,1.5-0.7,2.7C67.9,106.2,70.2,105.9,72.5,105.7z M338.9,348.5c0.2,0,0.5,0.1,0.7,0.1c3.8-0.3,7.5-1.3,11.3-1.8
			c2.4-1.1,5.2-1,7.7-1.9c0.4-0.1,0.8-0.1,1.2-0.1c0.2,0,0.5,0.1,0.6,0.3c0.9,0.9,0.5,2.3-0.7,2.6c-1.1,0.3-2.2,0.3-3.3,0.6
			c-1.8,0.5-3.7,1-5.6,1.1c-1.1,0.1-1.8,0.4-2.7,1c2.7,0.1,5.3-0.4,7.9-0.7c2-0.2,4-0.1,6-0.2c0.4,0,0.7,0.3,0.8,0.8
			c0.1,0.4,0,0.8-0.4,1c-0.3,0.1-0.6,0.3-0.9,0.3c-2.6,0.6-5.3,1.1-8,1.1c-0.6,0-1.1,0-1.7,0.1c-1.7,0.4-3.5,0.5-5.2,0.5
			c-1.7,0-3.3,0.3-5,0.7c-0.3,0.1-0.6,0.1-0.6,0.5c0.4,0.3,0.9,0.2,1.4,0.2c4.4,0,8.8,0,13.2-0.1c1.6,0,3.2-0.5,4.7,0
			c0.2,0.1,0.5,0,0.7,0c1.4-0.4,2.8-0.3,4.3-0.2c0.8,0,1.6,0.1,2.4-0.2c0.8-0.3,1.6-0.3,2.3-0.4c2.1-0.3,4.1-0.5,5.6-2.2
			c0.2-0.2,0.5-0.4,0.8-0.5c1.9-1,3.4-2.6,4.8-4.2c1.7-1.9,3.4-3.8,5.1-5.7c0.3-0.4,0.6-0.7,0.9-1.1c1.1-1.9,2.5-3.5,4-5
			c1-1.1,1.7-2.3,2.4-3.6c0.3-0.6,0.1-1.2-0.6-1.2c-1.4-0.1-2.8-0.4-4.2-0.8c-0.9-0.2-1.9-0.3-2.8,0c-0.9,1.2-1.9,2.4-2.7,3.6
			c-1.7,2.6-4.1,4.4-6.7,6.1c-1.1,0.7-2.3,1.3-3.8,1.3c-1,0-2.1,0.2-3.1,0.5c-0.7,0.2-1.4,0.3-2.1,0.3c-1.4,0-2.7,0-4.1,0
			c-0.8,0-1.6,0.1-2.4-0.1c-3-0.6-6-0.5-9.1-0.5c-1.2,0-2.3,0.5-3.4,1.1c-0.2,0.1-0.3,0.4-0.2,0.6c0,0.2,0.3,0.4,0.5,0.4
			c0.5,0,0.9-0.1,1.4-0.2c0.6-0.2,1.3-0.3,1.9-0.2c0.4,0,0.7,0.3,0.9,0.7c0.2,0.5,0,1.1-0.4,1.3c-1.7,0.6-3.4,1.4-5.2,1.7
			c-2.4,0.4-4.7,0.9-7,1.6C339.9,347.9,339.3,347.9,338.9,348.5c-2-0.1-3.9,0.5-5.8,0.8c-0.8,0.1-1.5,0.6-1.9,1.3
			c-0.2,0.3-0.4,0.7-0.2,1.1c0.2,0.5,0.6,0.7,1.2,0.5c0.1-0.1,0.3-0.3,0.4-0.5c0.4-1.1,1.3-1.5,2.4-1.8c0.5-0.1,1.1-0.2,1.6-0.4
			C337.3,349.3,338.2,349.2,338.9,348.5z M343.2,265L343.2,265c0.1,1.3,0.2,2.6,1,3.7c0.3,0.5,0.4,1,0.5,1.6c0.4,1.9,1,3.7,2.2,5.3
			c1.8-0.3,3.5-0.5,5.3-0.2c2,0.4,4,0.3,6,0.1c3-0.3,6.1-0.3,9.1-0.3c2.9,0,5.8,0.2,8.6-0.1c1.7-0.2,3.3,0.1,4.9,0.3
			c0.4,1.5,0.3,1.7-0.7,2.1c-1.1,0.4-2.2,0.5-3.3,0.3c-0.8-0.2-1.6-0.2-2.4-0.1c-2.9,0.2-5.9,0.5-8.8,0.6c-3.4,0.1-6.7,0-10.1,0
			c-0.6,0-1.3,0-1.9,0.1c-1.1,0.1-2.2,0.2-3.3,0.3c-0.8,0.1-1.6,0-2.3,0.6c0,0.4,0,0.7,0.1,1c0.7,1,0.9,2.2,1.3,3.3
			c1,2.5,2,5,2.7,7.7c0.3,1.1,0.5,1.3,1.7,1.3c1.3,0,2.7,0.1,4.1-0.1c1.3-0.2,2.7,0.1,4,0.2c0.4,0,0.8,0,1.2-0.1
			c0.7-0.2,1.4-0.2,2.1,0c0.5,0.1,1,0.1,1.4,0.1c3.1,0,6.2,0.1,9.3,0.1c1.8,0,3.7,0.2,5.5,0c1.8-0.2,3.5,0,5.2,0.1
			c0.5,0,0.9,0.2,1.4,0.3c0.5,0.1,0.7,0.6,0.6,1.1c-0.1,0.5-0.4,0.7-0.8,0.8c-1.7,0.1-3.3,0.5-5,0.4c-3.7-0.1-7.4-0.1-11-0.1
			c-4.5,0-9,0.2-13.4,0c-2.2-0.1-4.3,0.1-6.4,0.1c-0.4,0-0.8,0.1-1,0.6c0.2,1.3,0.5,2.7,1.3,4c0.3,0.5,0.6,1.1,0.8,1.7
			c0.3,0.9,0,1.5-1,1.8c-3,0.7-5.6,2.3-8.6,2.9c-0.4,0.1-0.7,0.4-1.1,0.5c-1.8,0.7-3.3,1.8-5.2,2.4c-2.8,0.8-5.5,2.1-8.3,2.9
			c-0.6,0.2-1.2,0.5-1.7,0.9c-0.6,0.5-1,1-0.9,1.8c0.1,1.1,0.3,2.2,0.5,3.3c0.3,2,0.6,3.9,0.8,5.9c0.3,2.4-0.1,4.8,0.9,7.1
			c0,0.1,0,0.2,0,0.2c-0.2,1.7,0.4,3.3,0.7,4.9c0.2,1.1,0.3,2.2,0.4,3.3c0,0.6,0.1,1.1,0.2,1.7c0.3,0.9,0.3,1.9,0.3,2.8
			c0,0.9,0.1,1.8,0.3,2.6c0.1,0.5,0.6,0.8,1.1,0.5c0.8-0.4,1.5-0.8,2.4-1c3.2-0.7,6.4-1.5,9.5-2.2c0.8-1.2,1.3-2.5,2.4-3.3
			c1.9-1.4,4-2.6,6.5-2.6c1,0,1.9-0.1,2.9,0c1.8,0.1,3.5,0.2,5.2,0.4c3.4,0.3,6.9,0.1,10.3-0.1c0.5,0,1.1-0.2,1.6-0.4
			c1.1-0.4,2.1-0.8,3.1-1.1c0.8-0.2,1.5-0.6,2.1-1.1c1.5-1.3,3-2.6,4.3-4.1c0.7-0.9,1.2-1.9,1.6-2.9c-0.1-0.1-0.1-0.2-0.1-0.3
			c-0.2-0.2-0.4-0.3-0.6-0.4c-1.1-0.8-1.2-1.4-0.7-2.4c0.1-0.2,0.3-0.4,0.4-0.6c1.1-1.8,2.2-3.7,2.6-5.9c0.1-0.4,0.3-0.7,0.5-1.1
			c1.1-1.9,2.3-3.8,3.4-5.7c1.5-2.7,3.1-5.4,4.5-8.1c1.1-2.1,2.2-4.3,3.5-6.3c1.6-2.4,2.5-5.1,4.2-7.4c1-3,3.4-5.2,4.4-8.2
			c0-0.1,0.2-0.3,0.3-0.4c0.8-1.4,1.8-2.7,2.5-4.1c0.8-1.7,1.7-3.3,2.5-4.9c1.6-2.9,3.1-5.9,4.7-8.9c0.1-0.1,0-0.3,0-0.5
			c-1-1.1-1-1.1-1.6-2.8c-0.2-0.4-0.3-0.9-0.6-1.3c-0.9-1-1.3-2.2-1.8-3.3c-0.8-1.9-1.5-3.9-2.8-5.5c-0.7-0.4-1.5-0.2-2.3-0.1
			c-1.2,0.2-2.5,0.6-3.8,0.1c-0.3-0.1-0.6,0-0.9,0.1c-1,0.4-2.1,0.3-3.1,0.3c-4,0-8-0.1-12,0c-2.2,0-4.5,0-6.7,0
			c-3.7,0-7.3,0.1-11,0.1c-1.7,0-3.5,0.6-5.2-0.2c-0.1,0-0.2,0-0.2,0c-2.5,0.2-5.1,0.5-7.6,0.3c-1.9-0.1-3.8,0.1-5.7,0.2
			c-0.4,0-0.8,0-1.2,0c-1.3-0.1-2.5-0.4-3.8-0.3c-2.4,0.1-4.8,0.4-7.1,0.6c-0.9,0.1-1.3,0.8-0.9,1.6c1,2,1.6,4.2,2.2,6.3
			c0.1,0.4,0.3,0.8,0.5,1.1c0.5,0.7,0.5,1.8,1.4,2.1c1.1,0.3,0.7,1.6,1.5,2.1C342.9,264.9,343,265,343.2,265z M313.5,347.3
			c3.9,0.2,7.7-0.5,11.5-0.6c0.4,0,0.8-0.1,1.2-0.2c0.7-0.2,1.1-0.7,1.2-1.4c0-0.4,0.1-0.8,0-1.2c-0.5-3.8-0.3-7.7-1.2-11.4
			c-0.1-0.4-0.1-0.8-0.1-1.2c-0.1-2.5-0.6-4.9-0.4-7.4c0-0.2,0-0.5-0.1-0.7c-0.4-1.2-0.5-2.5-0.4-3.8c0-0.7-0.2-1.4-0.5-2.1
			c-0.4-0.6-0.9-0.9-1.6-0.9c-0.4,0-0.8,0.1-1.2,0.2c-1.6,0.3-3.1,0.9-4.5,1.7c-2.2,1.2-4.5,2.1-6.9,2.7c-2.5,0.6-4.9,1.6-7.2,2.6
			c-2.4,1-5,1.8-7.4,2.7c-0.1,0.1-0.3,0.1-0.5,0.1c-10.4,2.1-20.3,5.6-29.9,10.2c-0.8,0.4-1.6,0.7-2.4,1c-1.8,0.8-3.7,1.5-5.4,2.6
			c-2.2,1.5-4.8,2.2-7.4,2.8c-1.4,0.3-2.5-0.1-3.6-0.9c-1.6-1.3-2.8-2.9-3.5-4.8c-0.5-1.3-1-2.7-1.5-4c-0.8-2.3-1.3-4.6-2.4-6.8
			c-1.5-3.1-2.6-6.3-4-9.5c-0.5-1.2-1-2.3-1.6-3.5c-0.7-1.3-1.3-2.7-1.7-4.2c-0.9-2.9-2-5.7-3.6-8.3c-0.3-0.4-0.4-0.9-0.6-1.3
			c-0.8-3-2.2-5.8-3.8-8.5c-1.5-2.5-2.6-5.1-3.4-7.9c-0.4-1.2-0.8-2.4-1.4-3.6c-1.2-2.3-2.8-4.5-3.5-7.1c-0.2-0.8-0.9-1.1-1.7-1
			c-1.7,0.2-3.4,0.2-5,0.6c-1.6,0.4-3.2,0.4-4.7,0.2c-2.6-0.3-5.1-0.3-7.7,0c-4.4,0.4-8.7,0.7-13.1,0.7c-5.1,0-10.2-0.2-15.3,0.3
			c-0.3,0-0.6,0-1,0c-2.9-0.4-5.9-0.3-8.9-0.5c-3.5-0.2-7,0.1-10.5,0.4c-3.1,0.3-6.2,0.8-9.3,0.7c-2.6-0.1-5.3,0-7.9,0.4
			c-1.9,0.3-3.8,0.2-5.7-0.1c-1.6-0.2-3.2,0-4.8-0.2c-0.7-0.1-1.2,0.3-1.6,0.9c-0.4,0.8-0.9,1.5-1.2,2.3c-1.5,4.3-3.7,8.3-5.8,12.4
			c-0.8,1.5-1.6,2.9-2.6,4.3c-0.5,0.6-1.1,1.2-1.5,1.8c-3.6,4.6-6.7,9.5-9.4,14.7c-0.3,0.6-0.6,1.2-0.9,1.7
			c-2.8,3.8-5.3,7.8-8.3,11.5c-1.5,1.9-2.9,3.8-4.3,5.7c-2.1,2.8-4,5.8-5.5,9c-0.3,0.6-0.6,1.3-1.1,1.8c-2.1,2.1-2.4,5-3.6,7.5
			c-0.3,0.7,0.2,1.5,1,1.7c0.2,0,0.3,0.1,0.5,0.1c1.8,0.1,3.7,0.3,5.5,0.1c2.1-0.2,4.3-0.4,6.5-0.4c6.9,0,13.7-0.3,20.6-0.7
			c0.4,0,0.8-0.1,1.2-0.1c3.5-0.3,7-0.6,10.5-0.8c3.9-0.2,7.8-0.3,11.7-0.4c1.3,0,2.6,0,3.8-0.2c2.2-0.2,4.3-0.2,6.5-0.3
			c4.2-0.1,8.5,0.3,12.7,0.1c4.5-0.2,9,0,13.4-0.4c0.7-0.1,1.4,0,2.2,0.1c5.3,0.2,10.5,0.8,15.8,0.7c5.8-0.2,11.7-0.4,17.5-0.6
			c0.2,0,0.3,0,0.5,0c2.9-0.3,5.8-0.2,8.6-0.2c0.6,0,1.1,0,1.7,0.1c0.9,0.3,1.9,0.3,2.9,0.3c6.7,0.2,13.4-0.1,20.2-0.1
			c5.4,0,10.7-0.2,16.1,0.1c0.8,0,1.6,0,2.4,0.2c2,0.5,4,0.3,5.9,0.1c1.1-0.1,2.2-0.2,3.3-0.2c8.3,0.1,16.6,0.1,24.9-0.4
			c2.5-0.1,5-0.1,7.4,0.1C302.6,346.8,308,347,313.5,347.3z M204.2,242.4c1.8-0.8,3.4-1.6,5.2-1.9c1.5-0.2,3-0.7,4.3-1.4
			c0.6-0.3,1.2-0.5,1.8-0.6c2.4-0.5,4.6-1.6,6.9-2.5c1.8-0.7,3.5-1.5,5.4-1.9c2.5-0.5,4.9-1.4,7.2-2.5c0.6-0.3,1-0.7,1.2-1.4
			c0.1-0.5,0.2-0.9,0.3-1.4c0.3-2,0.6-3.9,1-5.9c0.3-1.6,0.8-3.3,1.1-4.9c0.3-1.5,0.5-3,0.9-4.5c0.3-1.1,0.5-2.3,0.6-3.5
			c0.2-1.6,0.6-3.1,0.9-4.7c0-0.2,0.1-0.5,0.3-0.7c0.9-1,0.9-2.2,1.1-3.4c0.4-2.5,0.7-5.1,1.2-7.6c0.3-1.6,0.8-3.1,0.8-4.7
			c0-0.3,0-0.7,0.2-0.9c0.7-1,0.7-2.1,0.8-3.2c0.1-1,0.2-2.1,0.7-3c0.1-0.3,0.2-0.6,0.2-0.9c0-1.7,0.6-3.3,0.9-5
			c0.2-1.3,0.3-2.8,0.9-4c0.9-2,1.5-4,1.9-6.2c0.3-1.9,0.7-3.8,1.2-5.6c0.3-1.2,0.5-2.3,0.7-3.5c0.5-2.7,1-5.5,1.6-8.2
			c0.4-1.8,0.8-3.6,1.1-5.4c0.2-1.1,0.3-2.2,0.6-3.3c0.7-2.3,1.2-4.6,1.6-7c0.5-3.1,1.1-6.3,1.6-9.4c0-0.2-0.1-0.4-0.2-0.8
			c-1.2,0.3-2.4,0.3-3.6,0.3c-1.8,0-3.5,0-5.3,0c-1.3,0-2.7,0.3-4-0.2c-0.3-0.1-0.8,0-1.2,0c-1.8,0.3-3.7,0.3-5.5-0.1
			c-0.3-0.1-0.6-0.1-1-0.1c-2.1,0.1-4.1,0.1-6.2,0.2c-3.9,0.1-7.8,0.2-11.7,0.2c-2.1,0-4.2-0.1-6.2,0.1c-2.4,0.3-4.8,0.4-7.2,0
			c-1.2-0.2-2.4-0.1-3.6,0.5c1.2,1.2,2.6,1.7,3.8,2.6c0.4,0.3,0.9,0.4,0.9,1.2c-1.4,1.8-2.5,3.9-3.5,6.1c-0.1,0.3-0.3,0.5-0.5,0.8
			c-0.7,1-1.3,2-2,3c-1.7,2.5-3.6,4.9-4.7,7.7c0,0.1-0.1,0.1-0.1,0.2c-1.4,1.7-2.6,3.6-3.7,5.5c-0.6,1-1.2,2.1-2.1,2.9
			c-0.3,0.3-0.5,0.8-0.8,1.2c-0.7,1.2-1.3,2.4-2,3.6c-0.9,1.6-2.2,3.1-2.5,5.1c-0.1,0.5-0.3,0.9-0.6,1.3c-1.4,1.8-2.5,3.9-3.9,5.7
			c-1.7,2.2-3,4.7-4.4,7.1c-1.4,2.3-3,4.3-4.3,6.6c-1.3,2.2-2.9,4.1-3.8,6.6c0,0.1-0.1,0.1-0.1,0.2c-0.3,0.5-0.9,0.8-1.4,0.5
			c-1.5-0.8-3.2-1.2-4.3-2.6c-0.7-0.8-1.6-1.3-2.9-1.6c-0.1,0.2-0.3,0.5-0.5,0.7c-0.7,1.1-1.5,2.3-2.2,3.4c-0.3,0.5-0.7,1-0.8,1.5
			c-0.3,1.4-1.1,2.5-1.9,3.6c-0.6,0.8-1.2,1.7-1.8,2.5c-1.3,1.8-2.5,3.7-3.7,5.6c-0.6,1-1,2.2-1.8,3.1c-1.6,2.1-2.9,4.5-4.8,6.5
			c-0.2,0.2-0.3,0.5-0.5,0.8c-0.6,0.9-1.1,1.8-1.7,2.6c-0.5,0.8-1,1.6-1.3,2.5c-0.3,0.9-0.7,1.8-1.3,2.6c-2,2.7-4.1,5.3-5.4,8.4
			c-0.1,0.3-0.3,0.5-0.5,0.8c-1.5,2.4-3.2,4.7-4.7,7.2c-0.9,1.4-1.9,2.7-2.7,4.2c-0.2,0.3-0.3,0.6-0.6,0.8c-1.2,1.2-2,2.7-2.8,4.1
			c-0.8,1.3-1.4,2.7-2.6,3.7c-0.6,0.5-1.2,2.2-1.4,3.5c0.8-0.1,1.6-0.2,2.4-0.2c0.8,0,1.6,0,2.4,0c4-0.1,8-0.1,12-0.2
			c2-0.1,3.9,0,5.9-0.3c2-0.3,4.1-0.3,6.2,0.1c0.4,0.1,0.8,0.1,1.2,0c2.3-0.5,4.6-0.2,6.9-0.2c1,0,1.9,0.2,2.9-0.1
			c1.1-0.3,2.2-0.3,3.3-0.3c3.6,0,7.2,0,10.8,0c1,0,2,0.1,2.9-0.1c2-0.5,4-0.3,5.9-0.2c1,0,1.9,0,2.9,0c3.2-0.2,6.4,0,9.6-0.3
			c1.7-0.2,3.5-0.1,5.3-0.2c0.7,0,1.4-0.1,2.2-0.1c2.1,0.2,4.2-0.1,6.2-0.1c1,0,1.4-0.7,1-1.6c-0.1-0.3-0.2-0.6-0.5-0.8
			c-0.6-0.5-0.7-1.2-0.8-1.9c-0.1-0.4-0.2-0.8-0.4-1.1C204,246.1,204,244.4,204.2,242.4z M314.4,208.2c-0.4,0-0.6-0.1-0.7,0
			c-2.4,1.1-5.2,0.9-7.4,2.6c-0.2,0.1-0.4,0.2-0.7,0.2c-1.2,0-2.1,0.7-3.1,1.2c-1.2,0.7-2.4,1.2-3.8,1.3c-0.6,0.1-1.3,0.2-1.8,0.5
			c-2.4,1.5-5,2-7.6,2.7c-1.1,0.3-2.2,0.5-2.8,1.6c-0.1,0.2-0.5,0.4-0.8,0.5c-2.2,1-4.3,2-6.7,2.5c-1.4,0.3-2.8,0.7-4.2,1.1
			c-0.5,0.2-1.1,0.4-1.6,0.5c-2,0.3-3.7,1.4-5.7,1.6c-0.4,0.1-0.8,0.3-1.1,0.5c-1.3,0.9-2.8,1.1-4.3,1.5c-1.5,0.4-2.8,1.5-4.5,1.7
			c-1.1,0.1-2,0.5-3,0.9c-1.5,0.7-3.1,1.4-4.6,2c-0.4,0.2-0.9,0.4-1.4,0.4c-1.8,0.2-3.6,0.8-5.2,1.7c-0.7,0.4-1.5,0.6-2.3,0.7
			c-0.6,0-1,0.2-1.6,0.5c-1.9,1.1-4,2-6.2,2.4c-1.4,0.2-2.6,0.7-3.9,1.2c-2.4,1-4.8,2-7.4,2.8c-2,0.6-2.2,1.1-1.4,3.2
			c0.7,1.7,1.3,3.4,2,5.1c1.1,2.9,2.2,5.8,3.5,8.6c1,2.1,1.7,4.3,2.7,6.4c1.2,2.5,2.2,5.1,3.2,7.7c0.5,1.2,0.8,2.4,1.3,3.6
			c0.9,2.1,2.2,4.1,2.7,6.4c0,0.2,0.2,0.4,0.3,0.6c0.8,1.1,1.2,2.4,1.6,3.7c0.2,0.8,0.4,1.8,0.9,2.4c1,1.2,1.5,2.7,2.3,3.9
			c2.1,3.2,3.4,6.9,4.8,10.4c1.6,4,3.3,8,4.9,12c0.3,0.7,0.8,1.4,0.9,2.2c0.2,1.1,0.8,1.9,1.3,2.8c1.2,1.9,2.4,3.9,3.6,5.9
			c0.3,0.5,0.4,1,0.6,1.6c0.7,1.8,1.3,3.6,2,5.4c1.3-0.1,2.4-0.4,3.5-0.8c3.1-1.1,6.1-2.3,9.2-3.4c2.8-1,5.7-2.1,8.6-3.1
			c4.2-1.4,8.6-2.6,12.7-4.3c0.5-0.2,1.1-0.4,1.6-0.5c1.3-0.1,2.5-0.7,3.6-1.2c1.2-0.6,2.5-1,3.8-1.3c1-0.2,2-0.6,2.9-1.1
			c1.3-0.7,2.6-1.2,4-1.5c2.3-0.5,4.3-1.5,6.5-2.3c2.2-0.8,4.5-1.2,6.6-2.1c0.8-0.4,1.7-0.4,2.5-0.7c1.8-0.6,3.6-1.2,5.4-1.9
			c1.7-0.6,3.5-1.2,5.2-2c0.9-0.4,1.8-0.7,2.7-1c1.6-0.6,3.4-1,5-1.6c2.3-1,4.8-1.8,6.8-3.4c0.4-0.9,0-1.8-0.4-2.5
			c-1.2-2.4-1.7-5.2-3-7.5c-0.2-0.3-0.3-0.8-0.3-1.1c-0.1-1-0.5-1.8-0.8-2.8c-0.7-2.1-1.9-4-2.3-6.3c-0.1-0.3-0.2-0.6-0.4-0.9
			c-1.5-2.5-2.1-5.3-3.3-8c-0.1-0.3-0.2-0.6-0.3-0.9c-0.3-1.8-1.2-3.5-1.8-5.2c-0.4-1-0.8-2.1-1.1-3.2c-0.2-0.7-0.4-1.4-0.6-2.1
			c-1-2.8-2.4-5.6-2.9-8.6c0-0.2-0.2-0.4-0.3-0.6c-0.6-0.9-1.1-2-1.4-3c-0.2-0.6-0.5-1-1.1-1.1c-0.6-0.2-0.9-0.6-1.2-1.1
			c-0.3-0.7-0.6-1.3-0.8-2c-0.4-1.4-1.1-2.6-2-3.6c-0.7,0-1,0.4-1.4,0.6c-0.4,0.3-0.8,0.5-1.2,0.8c-1.1,0.6-2.1,0.3-3-0.5
			c-2.4-2.2-2.6-5.7-0.4-8.1c0.9-1,1.8-2,2.9-2.6c0-1-0.7-1.6-0.9-2.3c-0.4-1.4-0.9-2.7-1.6-4c-0.2-0.4-0.3-0.9-0.5-1.4
			c-0.9-2.7-1.8-5.3-3.1-7.8c-0.6-1.1-1-2.2-1.3-3.3C315.6,210.3,315.1,209.3,314.4,208.2z M273.8,218.2c-0.2-0.3-0.3-0.4-0.4-0.5
			c-2-0.8-3.5-2.4-5.5-3.3c-0.2-0.1-0.4-0.3-0.6-0.5c-1.6-1.8-3.3-3.7-5.3-5.2c-0.3-0.2-0.5-0.4-0.6-0.7c-1.7-2.6-3-5.2-3.1-8.4
			c0-1.4-0.2-2.7-0.3-4.1c0-0.9,0-1.7,0.5-2.6c0.5-1,1-2,1.3-3.1c0.7-2.5,2.6-4.1,4.1-6.1c0.1-0.1,0.2-0.2,0.4-0.3
			c2.2-1.4,4-3.3,6.4-4.6c2.9-1.6,5.6-3.4,8.7-4.5c0.9-0.3,1.9-0.4,2.7-0.8c2.5-1.1,5.2-1.4,7.9-2.1c2.2-0.6,4.4-1.3,6.8-1
			c0.2,0,0.3,0,0.5-0.1c1.3-0.4,2.7-0.4,4-0.4c0.7,0,1.5,0,2.1-0.1c2-0.4,4-0.2,6-0.2c0.4,0,0.9,0,1.1,0.3c0.8,0.7,1.8,0.5,2.8,0.6
			c1,0,1.9-0.1,2.9,0c2.9,0.2,5.7,0.4,8.5,1.2c1.2,0.3,2.5,0.6,3.7,0.8c2.9,0.5,5.7,1.7,8.6,2.3c0.6,0.1,1.2,0.5,1.7,0.8
			c0.4,0.2,0.7,0.4,1.1,0.5c3.6,1.2,6.6,3.5,9.6,5.7c2.1,1.6,3.2,4.2,5.2,5.9c0.7,0.6,0.5,1.5,1,2.1c1.6,2.4,2,5.2,2.1,8
			c0,1,0,1.9-0.7,2.7c-0.4,0.5-0.5,1.2-0.7,1.8c-0.2,0.7-0.4,1.4-0.7,2c-0.6,1.4-1.4,2.7-2.3,3.9c-1.1,1.4-2.1,2.8-3.6,3.8
			c-0.4,0.3-0.7,0.7-1,1c-0.4,0.4-0.8,0.8-1.3,1.1c-1.3,0.6-2.4,1.6-3.5,2.4c-0.2,0.2-0.5,0.3-0.4,0.8c1.2,0,2.5,0.2,3.8,0
			c1.6-0.3,3.2-0.3,4.8-0.3c1.9-0.1,3.9,0.1,5.7-0.2c3.1-0.5,6.2-0.7,9.3-0.9c0.5,0,1-0.1,1.4-0.1c0.5,0,1-0.1,1.4-0.1
			c4.1-0.2,8.3-0.5,12.4-0.7c1-0.1,2.1-0.2,3.1-0.4c0.4-0.1,0.8-0.1,1-0.7c-0.1-0.8-0.2-1.7-0.8-2.6c-0.4-0.7-0.8-1.4-1-2.2
			c-1.2-3.6-3.1-6.8-4.6-10.2c-0.8-1.8-2-3.4-2.7-5.3c-0.3-1-0.8-1.9-1.2-2.9c-0.4-0.9-0.9-1.9-1.3-2.8c-1.1-2.9-2.5-5.7-3.7-8.5
			c-1.5-3.3-2.9-6.6-4.1-9.9c-0.2-0.5-0.4-1.1-0.8-1.5c-0.8-0.9-1.3-2-1.6-3.2c-0.7-2.1-1.6-4-2.5-6c-0.8-1.7-1.5-3.5-2.3-5.2
			c-0.1-0.3-0.3-0.6-0.5-0.8c-0.6-0.5-0.8-1.2-1.1-1.8c-1-1.9-1.5-4-2.8-5.8c-0.2-0.3-0.3-0.6-0.4-0.9c-0.8-2.2-2.2-4.3-2.9-6.6
			c-0.1-0.4-0.5-0.8-0.7-1.2c-0.8-1.3-1.7-2.5-1.9-4.1c0-0.2-0.1-0.5-0.3-0.7c-1.8-2.6-2.9-5.5-4.1-8.3c-0.2-0.4-0.3-0.7-0.5-1.1
			c-0.3-0.7-0.7-1-1.5-1c-1.5,0-3-0.1-4.6-0.1c-1.6,0-3.2,0.1-4.8,0c-2-0.1-4,0.1-6,0.1c-1,0-2,0.4-3.1,0.4
			c-5.1,0-10.2-0.1-15.3,0.1c-2.7,0.1-5.4,0.1-8.1,0c-2-0.1-3.9,0.3-5.9,0.2c-3.1-0.1-6.2,0.2-9.3,0.3c-2,0-4-0.2-6-0.2
			c-3.6,0-7.2,0.2-10.8,0.1c-2.2,0-4.5,0.4-6.7,0.1c-0.6-0.1-1.3,0.1-1.7,0.6c-0.4,0.7-0.5,1.5-0.6,2.3c0,0.6-0.1,1.1-0.3,1.6
			c-1.2,3.7-1.6,7.7-2.5,11.4c-0.7,2.5-0.9,5.2-1.4,7.8c-0.3,1.4-0.7,2.8-0.9,4.2c-0.2,1.5-0.5,3-0.9,4.5c-0.4,1.6-0.9,3.2-1.1,4.9
			c-0.4,3.3-0.9,6.6-2,9.8c-0.2,0.5-0.3,1.1-0.4,1.6c-0.5,2.9-0.7,5.9-1.8,8.7c-0.1,0.3-0.1,0.6-0.1,0.9c0,1.2-0.4,2.4-0.6,3.5
			c-0.2,1-0.5,2-0.7,3c-0.3,3-1.2,5.9-1.7,8.9c-0.2,1.1-0.7,2.2-0.8,3.3c-0.1,1.9-0.5,3.8-1,5.7c-0.2,0.9-0.3,1.9-0.5,2.8
			c-0.7,3.8-1.5,7.7-2.2,11.5c-0.2,0.8-0.4,1.5-0.7,2.3c-0.2,0.5-0.3,1.1-0.4,1.6c-0.4,2-0.4,4.1-1.1,6.1c-0.1,0.3,0.3,0.7,0.6,0.6
			c0.4-0.1,0.8-0.2,1.1-0.4c0.6-0.4,1.2-0.7,2-0.8c2-0.4,4-0.9,5.9-1.9c0.3-0.2,0.7-0.3,1.1-0.4c2.7-0.6,5.2-1.6,7.6-2.7
			c0.6-0.3,1.2-0.5,1.8-0.6c1-0.2,2-0.5,3-0.9c1.2-0.6,2.6-0.9,3.9-1.1c0.5-0.1,1-0.1,1.4-0.3C269.3,220.2,271.7,219.8,273.8,218.2z
			 M456,246.7c0.3,0.4,0.6,0.6,0.8,1c1.2,1.7,3,2.9,3.8,4.9c0.1,0.1,0.2,0.2,0.3,0.3c1.2,1.3,2.5,2.4,3.6,3.8c1,1.3,2.5,2.3,3.3,3.8
			c0.7,1.4,1.8,2.4,2.9,3.5c1.2,1.2,2.1,2.5,2.6,4.2c0.6,2.2,2,3.8,4.5,4c0.5,0,1,0.1,1.4,0.2c4.1,0.3,8.3,0.6,12.4,0.9
			c3.4,0.2,6.8,0.5,10.3,0.7c1.6,0.1,3.2,0.2,4.8,0.5c1.8,0.3,3.5,0.2,5.3,0.3c0.3,0,0.7,0,0.9-0.2c1.2-1.1,2.6-0.6,3.9-0.6
			c0.6,0,1.1,0.2,1.7,0.2c1.1,0,1.6-0.3,1.6-1.3c0-1.8,0.2-3.6-0.3-5.2c-0.6-2.3-1-4.7-1.4-7c-0.3-2.1-1-4.2-1.6-6.3
			c-0.8-2.5-1.5-5-2.3-7.5c-0.1-0.2-0.1-0.5-0.3-0.7c-0.9-1.3-1.3-2.9-2-4.3c-1.1-2.2-1.5-4.7-2.9-6.8c-1.4-2.1-2.3-4.5-4-6.4
			c-0.9-1.1-1.7-2.3-2.4-3.5c-1.3-2.3-3-4.2-4.6-6.1c-0.6-0.7-1.4-1.3-1.9-2.1c-1-1.7-2.1-3.2-3.9-4.1c-1-1.3-2.4-2.3-3.7-3.4
			c-1.2-1-2.3-2.3-3.6-3.2c-2.7-1.9-5.2-4-8.1-5.4c-0.2-0.1-0.4-0.3-0.6-0.4c-1.8-1.5-3.5-3-5.6-4c-0.5-0.2-0.9-0.7-1.3-1
			c-1.7-1.3-3.5-2.5-5.5-3.3c-2.7-1.1-5.5-1.7-8.3-2.4c-1-0.3-1.8,0-2.6,0.8c-1.2,1.3-2.7,2.4-3.6,4.1c-0.2,0.4-0.4,0.7-0.7,1
			c-1.5,1.3-2.8,2.8-3.9,4.5c-0.2,0.3-0.5,0.4-0.7,0.7c-0.5,0.5-1,1.1-1.3,1.7c-0.6,0.9-1.2,1.7-1.8,2.6c-0.7,1-1.4,2.2-1.7,3.4
			c-0.4,1.4-0.9,2.8-1.6,4c-1.5,2.6-1.5,5.3-1.2,8.2c0,0.4,0.2,0.8,0.8,0.9c1.4-1.6,2.7-3.4,3.5-5.6c0.5-1.4,1-2.9,1.9-4.1
			c1-1.3,1.6-2.7,2.3-4.2c0.3-0.6,0.5-1.2,0.9-1.7c0.9-1.7,1.9-3.3,2.8-5c0.2-0.4,0.4-0.9,0.7-1.3c0.8-1.2,1.4-1.3,2.7-0.2
			c0,0.7-0.3,1.4-0.6,2c-1.3,2.5-2.7,4.9-3.7,7.5c-0.1,0.2-0.2,0.4-0.4,0.6c-1,1.1-1.5,2.4-2.2,3.7c-0.4,0.9-0.9,1.7-1.5,2.5
			c-1.1,1.4-1.9,3-2.5,4.6c-0.7,1.7-1.7,3.2-2.5,4.8c-1,1.9-2.3,3.6-3.1,5.6c-0.1,0.2-0.2,0.5-0.3,0.6c-1,0.9-1.3,2.2-1.5,3.5
			c-0.2,0.8-0.5,1.5-0.9,2.2c-1.4,2.1-3.1,4-3.9,6.5c0,0.1-0.1,0.1-0.1,0.2c-0.9,1.1-1.4,2.3-2,3.5c-0.5,1.2-1.2,2.4-1.9,3.6
			c-1,1.6-1.8,3.2-2.4,4.9c-0.5,1.3-1,2.5-1.7,3.7c-1.2,2.1-2.5,4.1-3.4,6.3c-1.1,2.7-2.9,4.9-3.7,7.7c0,0.1-0.1,0.1-0.1,0.2
			c-1.6,2-2.2,4.6-3.8,6.6c-0.1,0.2-0.2,0.4-0.3,0.7c-0.4,0.9-0.8,1.9-1.3,2.8c-1.6,2.7-3,5.5-4.6,8.1c-0.8,1.3-1.6,2.6-2.1,4
			c-0.5,1.6-1.7,2.7-2.3,4.1c0,0.1-0.1,0.2-0.1,0.2c-0.5,0.9-0.9,1.9-1.4,2.8c-2.1,3.2-3.9,6.6-5.5,10c-0.6,1.2-1.4,2.2-1.9,3.3
			c-1.2,2.5-2.6,4.9-4.1,7.3c-0.2,0.4-0.5,0.8-0.3,1.3c1.8,1.2,6.7,2.5,11.4,3c0.5-0.3,0.8-0.7,1.1-1.2c0.7-1.1,1.4-2.4,2.2-3.4
			c2.9-3.6,5.3-7.5,7.8-11.4c2.1-3.3,4.3-6.4,6.5-9.6c1-1.5,2.1-3,3.1-4.5c1.8-2.5,3.4-5.2,5.2-7.7c1.3-1.9,2.8-3.7,4-5.6
			c1.5-2.6,3.5-4.9,5-7.6c0.4-0.8,1-1.5,1.7-2c0.7-0.5,1.2-1.1,1.4-1.9c0.6-1.5,1.3-2.7,2.5-3.8c0.3-0.3,0.4-0.7,0.5-1
			c0.3-0.6,0.7-1.2,1-1.9c0.6-1.3,1.7-2.1,2.3-3.3c1.1-2.2,3.2-3.6,4-5.9c0.1-0.1,0.2-0.3,0.3-0.4c0.8-0.7,1.3-1.6,1.7-2.6
			c0.3-0.8,0.8-1.4,1.3-2c0.7-0.8,1.3-1.6,1.9-2.5c1.3-1.9,2.3-4,3.8-5.8c0.7-0.8,1.2-1.7,1.7-2.6c0.8-1.2,1.3-2.8,2.6-3.6
			c0.3-0.2,0.5-0.6,0.7-1c1-1.7,2.3-3.2,3.1-5.1c1.2-0.9,1.7-2.3,2.5-3.5c1.4-2.1,2.9-4.2,4.4-6.2c0.4-0.6,0.7-1.2,1.2-1.8
			c0.8-1.2,1.7-2.3,2.6-3.4c0.6-0.7,1.4-0.8,2.2-0.5c0.7,0.2,1,0.9,0.4,1.5c-0.2,0.2-0.5,0.5-0.7,0.6c-1,0.5-1.6,1.3-1.8,2.4
			c-0.1,0.5-0.3,1.1-0.4,1.6c-1,3.4-2,6.9-3,10.3c-0.1,0.2-0.2,0.4-0.3,0.6c-0.8,1.8-1.5,3.5-2.3,5.3c-0.1,0.2-0.2,0.5-0.2,0.7
			c-0.4,3.5-2.1,6.5-3.5,9.6c-0.5,1-1.7,1.2-2.3,0.3c-0.6-0.8-1.1-1.6-2-2c-0.9-0.5-1.4-1.5-2.2-2.3
			C456.8,245.2,456.2,245.7,456,246.7z M515.3,314c-1.7-0.1-3.2-0.2-4.6,0.7c-0.3,0.2-0.8,0.2-1.2,0.3c-4.1,0.7-8.2,1.3-12.2,2.5
			c-0.2,0.1-0.5,0.1-0.7,0.1c-1.9,0-3.6,0.4-5.4,1c-0.9,0.3-1.9,0.5-2.8,0.6c-2.3,0.2-4.5,1-6.7,1.8c-1.8,0.7-3.7,1.6-5.8,0.9
			c-0.3-0.1-0.6,0-0.9,0.1c-1.4,0.2-2.8,0.6-4.2,0.9c-2.3,0.6-4.6,1.3-7,1.5c-0.6,0.1-1.3,0.2-1.9,0.3c-2,0.4-3.9,0.9-5.9,0.8
			c-0.6,0-1.3,0.2-1.9,0.3c-0.7,0.1-1.4,0.2-2.1,0c-0.6-0.1-0.9-0.6-0.9-1.2c0-0.6,0.3-1.1,0.9-1.2c0.6-0.1,1.1,0,1.7-0.1
			c0.7,0,1.5,0.1,2.1-0.2c1.4-0.7,2.9-0.7,4.5-0.8c0.5,0,1,0,1.4-0.2c1.3-0.6,2.6-0.7,4-0.8c0.7,0,1.4-0.2,2.1-0.5
			c2.1-0.7,4.4-0.8,6.4-1.8c2.8-0.1,5.3-1.3,7.9-1.7c2.3-0.4,4.4-1.4,6.5-2.4c2.2-1.1,4.6-1.8,6.5-3.5c1.5-0.4,2.3-1.7,3.6-2.3
			c3.3-1.5,5.9-4,8.5-6.5c1.7-1.6,3.2-3.3,4.9-4.9c1.7-1.5,2.8-3.2,3.7-5.2c0.5-1,1-2,1.6-2.9c0.4-0.6,0.7-1.2,0.9-1.9
			c0.5-2.2,1.1-4.3,1.4-6.5c0.2-1.1,0.2-2.4,0.1-3.7c-1.2-0.2-2.3-0.4-3.4-0.5c-4.5-0.6-9.1-0.2-13.6-1c-3.1,0.1-6.2-0.4-9.3-0.6
			c-2.3-0.1-4.6-0.4-6.9-0.6c-0.5,0-1-0.1-1.4,0c-1,0.2-2.1,0-3.1-0.1c-1.8-0.2-3.6-0.3-5.5,0c-0.4,0.8-1,1.4-1.6,2.1
			c-2.4,2.7-5.4,4.7-8.1,7.1c-0.9,0.8-1.9,1.4-3,2c-1.2-0.3-1.9,0.6-2.6,1.3c-0.5,0.4-0.9,0.9-1.4,1.3c-1.5,1.3-3.2,2.4-4.5,3.8
			c-2.3,2.5-4.9,4.5-7.4,6.7c-1,0.8-2.1,1.5-2.9,2.4c-0.9,0.9-2,1.6-2.9,2.5c-1.7,1.7-3.5,3.3-5.4,4.8c-1.2,1-2.6,1.9-3.7,3
			c-1.8,1.9-4,3.4-5.9,5.3c-0.6,0.6-1.1,1.1-1.8,1.6c-2.1,1.4-3.8,3.2-5.5,4.9c-3,3.1-3,3.2-4.3,7.3c-0.7,2.1-1,4.2-1.1,6.3
			c-0.1,1.9,0.3,3.7,0.6,5.5c0.3,1.3,0.9,2.6,1.9,3.5c0.7,0.7,1.4,1.3,1.8,2.1c0.7,1.3,1.8,2.2,3.1,2.8c1.7,0.8,3.5,1.6,5.2,2.4
			c0.8,0.4,1.7,0.5,2.6,0.5c2.4-0.1,4.8-0.1,7.2-0.2c2.3-0.1,4.6-0.5,6.5-2c0.6-0.4,1.3-0.6,2-0.7c1.8-0.4,3.6-0.9,5.3-1.3
			c3.8-0.8,7.2-2.6,10.9-3.5c2.2-0.5,4.3-1.6,6.6-2.2c3-0.7,5.7-1.9,8.6-2.8c1.5-0.4,2.9-0.8,4.4-1.3c1.8-0.5,3.7-0.9,5.5-1.6
			c3.8-1.6,7.7-2.6,11.7-3.5c3.7-0.9,7.2-2.7,11-3.4c2.3-1.1,4.8-1.6,7.3-2.2c1.5-0.4,2.9-0.9,4.2-1.6c0.1-1-0.4-1.8-0.7-2.6
			c-0.8-2.1-1.6-4.2-2.4-6.3C517.5,317.1,516.6,315.5,515.3,314z M295,80.4c-1-0.3-2-0.2-2.9-0.2c-3.9,0-7.8,0-11.7,0
			c-2.4,0-4.8,0-7.2,0c-2.9,0-5.9,0.6-8.8,0.1c-0.3,0-0.6,0-1,0.1c-3.5,0.2-7,0-10.5,0.1c-0.2,0-0.5,0-0.7-0.1
			c-0.9-0.3-1.7-0.2-2.6,0c-0.8,0.2-1.6,0.2-2.4,0.2c-3.4-0.1-6.9-0.1-10.3-0.1c-0.4,0-0.8,0-1.2,0.1c-1.3,0.4-2.7,0.3-4,0
			c-0.4-0.1-0.8-0.1-1.2-0.1c-1.4-0.2-2.5,0.4-3.2,1.7c-0.3,0.5-0.6,1-0.7,1.5c-0.2,0.5-0.4,1-0.8,1.5c-1.1,1.5-2.3,3.1-3.2,4.7
			c-0.9,1.7-2.2,3.1-3.1,4.8c-0.7,1.2-1.4,2.3-2.1,3.5c-0.5,0.7-1,1.4-1.5,2.1c-0.7,1.1-1.2,2.3-2.3,3.1c-0.4,0.3-0.5,0.8-0.7,1.2
			c-1,1.8-1.9,3.7-3.2,5.3c-1.6,2-2.5,4.4-4.3,6.3c-0.8,0.8-1.3,2-2,2.9c-0.2,0.3-0.4,0.7-0.5,1.1c-0.1,0.4,0.1,0.8,0.5,0.9
			c0.4,0.1,0.8,0.1,1.2,0.1c3.9-0.3,7.8,0.1,11.7-0.4c0.2,0,0.5-0.1,0.7,0c2,0.5,4,0.2,6,0.1c1.1-0.1,2.2-0.1,3.3,0
			c2,0.2,4,0.3,6-0.1c0.6-0.1,1.3,0,1.9,0c2.7,0,5.4-0.2,8.1,0c2.7,0.2,5.4-1,8.1-0.2c0.2,0.1,0.5-0.1,0.7-0.1c0.5,0,1-0.1,1.4-0.1
			c2.2-0.2,4.5,0.4,6.7,0c0.2,0,0.5,0,0.7,0.1c0.9,0.3,1.7,0.3,2.6,0.2c2.5-0.1,4.9-0.2,7.4-0.3c1.4,0,2.9,0.1,4.3,0
			c5.3-0.2,10.5,0.1,15.8-0.5c0.3,0,0.6,0,1,0c2.9,0.3,5.7-0.1,8.6-0.2c0.1,0,0.3-0.2,0.4-0.3c0.2-0.4,0.1-0.8,0.1-1.2
			c-0.4-3.1-0.7-6.2-1.1-9.3c-0.6-4.1-1.4-8.2-1.4-12.4c0-0.4-0.1-0.8-0.2-1.2c-0.2-1.7-0.6-3.3-0.7-5c-0.1-1.9-0.3-3.8-0.5-5.7
			C296,83.2,295.8,81.8,295,80.4z M41.3,201.9c0.6,0.6,1.1,0.9,1.6,1c2,0.2,3.6,1.3,5.3,2.2c3.4,1.7,6.9,2.8,10.5,3.9
			c0.8,0.3,1.7,0.5,2.4,1.1c0.7,0.6,1.6,1,2.5,1.3c1.8,0.6,3.6,1.2,5.5,1.8c0.4,0.1,0.8,0.2,1.2,0.2c0.9,0,1.7,0.3,2.5,0.7
			c0.6,0.3,1.2,0.4,1.8,0.6c3.4,1.2,7.1,1.3,10.5,2.2c0.3,0.1,0.6,0.1,1,0.1c3-0.1,6.1,0.4,9.1,0.5c1.7,0.1,3.4,0.4,5,0.3
			c1.6-0.1,3.2-0.1,4.8-0.2c1.7-0.1,3.3-0.5,4.9-1.1c0.9-0.4,1.7-0.8,2.7-1.1c0.6-0.2,1.2-0.4,1.7-0.8c2.7-1.9,5.4-4,7.4-6.7
			c1.1-1.5,2.1-3,1.5-5.1c-0.1-0.4-0.1-0.8,0-1.2c0.1-1.2-0.3-2.2-0.8-3.2c-0.9-2.1-2.1-3.9-3-5.9c-0.5-1.1-1.2-2.1-2.4-2.6
			c-0.6-0.2-1-0.8-1.5-1.2c-0.6-0.6-1.2-1.1-1.9-1.4c-0.9-0.4-1.6-1-2.3-1.7c-0.3-0.3-0.7-0.6-1.1-0.9c-2.7-1.8-5.5-3.5-8.2-5.4
			c-1.4-1-3-1.7-4.4-2.8c-2.3-1.8-4.8-3.4-7.3-4.9c-0.6-0.3-1.1-0.6-1.5-1.2c-0.8-1-1.8-1.1-2.8-0.7c-1.7,0.6-3.5,1-5.3,1.4
			c-3.4,0.8-6.8,1.7-10.2,2.5c-3.4,0.7-6.6,2-9.8,3.1c-0.5,0.2-0.8,0.6-0.8,1.1c0,2.1-0.2,4.1,0.5,6.1c0.2,0.5,0.2,1.1,0.3,1.6
			c0.4,1.4,0.8,2.7,1.8,3.9c0.4,0.4,0.7,0.9,1,1.3c0.2,0.3,0.5,0.7,0.8,0.9c1.4,0.9,2.7,1.9,4.3,2.6c1.8,0.7,3.5,1.6,5.3,2.2
			c0.6,0.2,1.3,0.4,1.7,0.8c1.4,1.3,3.1,1.9,5,2.1c0.1,0,0.2,0,0.2,0.1c2.3,0.9,4.7,1.4,7.1,2c2.5,0.7,5,1.1,7.5,1.3
			c3.9,0.3,7.7,1.1,11.6,1.8c0.3,0.1,0.6,0.2,0.9,0.3c0.4,0.2,0.7,0.9,0.5,1.5c-0.2,0.7-0.6,1-1.2,0.9c-1.3-0.2-2.5-0.5-3.8-0.7
			c-1.5-0.2-3-0.4-4.5-0.8c-1.9-0.5-3.9-1-5.8-1.3c-2-0.3-4.1-0.6-6.1-1c-2.7-0.5-5.3-1.2-7.9-1.8c-0.2,0-0.3-0.1-0.5-0.1
			c-2.4-1.3-5.3-1.3-7.6-2.8c-0.1-0.1-0.3-0.1-0.5-0.1c-1.8-0.5-3.8-0.6-5.5-1.6c-0.2-0.1-0.6-0.1-0.9-0.1c-0.7,0-1.4-0.2-2.1-0.5
			c-0.4-0.2-0.7-0.4-1.1-0.4c-1.4,0-2.6-0.6-3.9-1c-1.3-0.5-2.6-0.7-4-0.8c-0.9-0.1-1.8-0.1-2.6-0.5c-1.7-0.9-3.5-1-5.3-1.4
			c-0.4-0.1-0.8-0.1-1.2,0.4C43.2,195.6,41.7,198.6,41.3,201.9z M292.5,35.2c-0.1,1.3,0.2,2.3,0.4,3.4c0.3,1.8,0.8,3.6,0.7,5.5
			c-0.1,2.3,0.4,4.5,0.7,6.7c0.1,0.8,0.1,1.6,0.7,2.3c0.6,0.8,0,1.7,0.4,2.5c0.8,1.7,1,3.5,1.1,5.3c0.1,1.3,0.4,2.7,0.5,4
			c0.1,1.4,0.1,2.9,0.7,4.2c0.2,0.6,0.2,1.3,0.2,1.9c0.1,0.6,0.1,1.3,0.2,1.9c0.6,3.4,1.1,6.8,1.2,10.2c0.1,1.8,0.3,3.7,0.7,5.5
			c0.3,1.6,0.5,3.2,0.5,4.8c0,0.5-0.1,1,0,1.4c0.4,1.9,0.5,4,1.1,5.9c0.3,0.8,0.4,1.7,0.5,2.6c0.4,3.4,0.6,6.8,1,10.2
			c0.2,1.7,0.6,3.5,1,5.2c0.1,0.5,0.5,0.9,1,0.9c0.7,0,1.4,0,2.2,0c0.6,0,1.3-0.1,1.9,0c1.6,0.3,3.2,0.1,4.8,0
			c0.6,0,1.3-0.2,1.9-0.2c4.8,0,9.6,0,14.4,0c3.4,0,6.9,0.1,10.3-0.4c0.5-0.1,1.1,0,1.7,0c0.3,0,0.6,0.1,0.8-0.5
			c-1.1-2.6-1.9-5.4-3.5-8c-1.2-1.9-2-4-2.7-6.1c-0.3-1-0.6-2-1.4-2.7c-0.4-0.3-0.6-1-0.7-1.5c-0.2-1.5-0.9-2.7-1.7-3.9
			c-0.7-1.1-1.1-2.3-1.5-3.5c-0.3-1-0.6-2-1.3-2.8c-0.2-0.3-0.4-0.7-0.5-1.1c-0.6-2-1.8-3.7-2.2-5.8c-0.1-0.3-0.2-0.6-0.4-0.9
			c-1.7-2.6-2.6-5.4-3.9-8.2c-0.2-0.5-0.4-1.1-0.8-1.5c-0.6-0.7-0.8-1.5-1-2.4c-0.1-0.7-0.2-1.4-0.8-2c-0.9-0.9-1.3-2-1.7-3.1
			c-1.5-4-3.3-7.8-5.1-11.6c-0.2-0.5-0.5-1-0.8-1.5c-0.7-1.3-1.7-2.6-2.1-4c-0.5-1.6-1.5-2.8-2.1-4.3c0-0.1-0.1-0.1-0.1-0.2
			c-0.6-1.5-0.9-3.1-1.9-4.4c-0.2-0.2-0.2-0.6-0.3-0.9c-0.4-1.2-1-2.3-1.8-3.4C300.8,34.6,296.7,34.5,292.5,35.2z M169.7,184.3
			c0.8-0.6,0.7-1.5,1.2-2c1-1.1,1.5-2.4,2.3-3.6c1.3-2.2,2.7-4.3,4.1-6.5c1.3-2,2.8-3.9,3.8-6.1c0.1-0.3,0.3-0.6,0.5-0.8
			c0.9-0.9,1.4-2.1,2.1-3.1c1-1.5,2.1-3,3-4.6c0.8-1.4,1.6-2.8,2.7-3.9c0.4-0.5,0.8-1,1-1.6c0.4-1.1,0.9-2.2,1.7-3.1
			c1-1.3,1.8-2.6,2.4-4.1c0.5-1.2,1.1-2.4,2.1-3.4c0.7-0.7,1-1.6,1.5-2.5c0.6-1.1,1.1-2.1,2-3c0.3-0.3,0.6-0.8,0.8-1.2
			c1.2-1.8,2.3-3.6,3.5-5.4c0.2-0.3,0.6-0.6,0.4-1.2c-0.4-0.4-0.9-0.8-1.4-1.1c-0.6-0.3-1.1-0.6-1.6-1c-1.7-1.3-3.6-2.4-5.5-3.3
			c-2.2-1.1-4.1-2.8-6.2-4c-0.7-0.4-1.4-1-2.2-1.4c-1.4-0.7-2.9-1.3-4.2-2.2c-2.6-1.6-4.9-3.8-7.8-5.1c-0.3-0.1-0.6-0.3-0.8-0.6
			c-1.2-1.3-2.9-1.7-4.4-2.4c-1.6,1.4-3.2,2.7-4,4.9c0.5,0.6,0.9,1.4,1.6,1.8c1.1,0.7,1.6,1.7,1.9,2.9c0.3,1.1,0.7,2.3,1.1,3.4
			c0.4,1,0.5,2.1,0.2,3.1c-0.2,0.9-0.2,1.7,0,2.6c0.4,1.3-0.1,2.5-0.9,3.6c-1.2,0.3-1.6,1.4-2.2,2.3c-1.8,0.7-3.4,0.3-4.9-0.7
			c-0.3-0.2-0.5-0.4-0.8-0.5c-1.7-1.3-3.6-2.4-5.2-3.8c-0.6-0.6-1.4-0.9-2.1-1.3c-1,0.3-1.4,1-1.9,1.6c-2,2.4-4,4.8-6.3,6.9
			c-0.3,0.3-0.7,0.7-0.5,1.4c2.3,2.2,4.1,4.9,6.1,7.6c0.9,1.2,0.9,2.5,1,3.9c0,0.4-0.1,0.8-0.4,1.1c-1.4,1.4-2.5,3-3.4,4.8
			c-0.3,0.6-0.7,1.2-1.4,1.6c-0.6,0.3-1,0.8-1.5,1.2c-1.1,0.9-2.1,1-3.3,0.3c-1-0.6-2.1-1.2-2.9-2c-1.3-1.2-2.9-1.9-4.3-3
			c-0.2-0.2-0.6-0.3-0.9-0.4c-0.6-0.2-1.1-0.1-1.5,0.4c-1.1,1.5-2.2,3.1-3.3,4.7c-0.3,0.4-0.2,1,0.2,1.3c1.1,0.8,2.1,1.7,3.3,2.4
			c1.9,1,3.4,2.6,5.2,3.8c0.7,0.5,1.4,1.1,2.1,1.6c2,1.2,4,2.4,5.7,3.9c1.3,1.1,2.7,2.3,4.2,3.2c3.1,1.7,5.8,3.9,8.6,6
			c0.6,0.4,1.3,0.7,1.7,1.3c0.8,1.1,1.9,1.7,3,2.3c1,0.6,2,1.3,2.9,2C168.2,183.5,168.8,184.1,169.7,184.3z M78.8,112.3
			c-0.4,0-0.8,0-1.2,0c-1,0-1.7-0.3-1.9-1.4c-0.1-0.5-0.2-1-0.7-1.2c-0.9-0.4-1.7-1-2.6-1.1c-2.6-0.4-5.1-0.2-7.5,1
			c-0.6,0.3-1.1,0.6-1.5,1.2c-1.1,1.7-2.3,3.4-2.9,5.5c-0.6,2.4-1.1,4.8-1,7.3c0.1,3.5,0.3,7,1.1,10.4c0.1,0.5,0.2,1.1,0.3,1.6
			c0.1,1.3,0.4,2.5,0.9,3.7c0.4,0.9,0.6,1.8,0.8,2.7c0.2,1.2,0.6,2.3,1.4,3.3c1,1.3,1.7,2.6,2.5,4.1c0.2,0.4,0.5,0.8,0.8,1.2
			c0.9,1.3,2.1,2.5,2.9,3.8c1.5,2.5,4,3.9,5.7,6c0.3,0.3,0.8,0.5,1.2,0.7c3.1,1.8,6.7,2,10.1,2.5c0.2,0,0.5,0,0.7,0
			c2.8-0.2,5.5-0.7,8.2-1.5c1.2-0.4,2.4-0.8,3.5-1.5c2-1.1,4.1-2,6-3.4c3-1.1,5.5-3.2,8.1-5c0.9-0.6,1.4-1.5,1.1-2.7
			c-0.5-1.8-0.5-3.6-0.4-5.5c0-0.6,0.1-1.3,0.1-1.9c0-0.6-0.4-1-1-1.1c-0.2,0-0.5-0.1-0.7-0.1c-3,0-6.1-0.1-9.1,0.4
			c-3.7,0.7-7.5,0.8-10.9,2.6c-1.2,0.6-2.2,1.2-3.1,2.2c-0.4,0.4-0.8,0.8-1.3,1.1c-0.4,0.3-1.3,0.1-1.6-0.2
			c-0.3-0.3-0.4-1.2-0.1-1.6c0.1-0.2,0.4-0.3,0.5-0.5c0.2-0.3,0.5-0.7,0.6-1c0.6-3.2,1.1-6.5,0.7-9.7c-0.1-0.9-0.3-1.7-0.6-2.6
			c-0.6-1.7-0.9-3.4-1.2-5.1c-0.1-0.7-0.3-1.4-0.7-2c-1.3-2.4-2.1-5.2-3.8-7.5C81.6,115.1,80.1,113.7,78.8,112.3z M343.2,231.4
			c0.7,0.1,1,0.2,1.4,0.2c3.3,0.1,6.5,0.3,9.8,0.4c0.2,0,0.3,0,0.5,0c1.9,0,3.9-0.1,5.7,0.2c1.9,0.3,3.8,0.3,5.7,0.3
			c4.2,0.1,8.3,0.3,12.5,0.5c4.2,0.2,8.5,0.4,12.7,0.5c2.2,0,4.3,0.4,6.4,0.4c3.9,0.1,7.8-0.2,11.7,0.5c0.3,0.1,0.6,0,1,0
			c4.1-0.2,8.3,0.4,12.4,0.2c2.4,0.6,4.9,0.2,7.4,0.4c1.1,0.1,1.9-0.4,2.4-1.3c0.7-1.3,1.4-2.7,2.1-4c0.4-0.8,0.3-0.9,0.3-2.4
			c0-0.8,0.1-1.6-0.2-2.4c-0.4-1-0.6-2-1-3c-0.7-1.9-0.7-3.7-0.3-5.7c0.1-0.5,0.1-0.9,0.1-1.4c0-0.3-0.3-0.6-0.6-0.6
			c-0.4-0.1-0.8,0-1.2,0c-1.4,0.1-2.7,0.3-4.1,0.4c-4.7,0.5-9.4,0.3-14.1,0.8c-4.2,0.4-8.5,0.5-12.7,0.8c-1.5,0.1-3,0.3-4.5,0.3
			c-2.2,0.1-4.5,0-6.7,0.5c-1.6,0.3-3.1,0.5-4.8,0.4c-0.9,0-1.7,0-2.4,0.7c-0.3,0.3-1.1,0.3-1.6,0.3c-2.6,0.2-5.1,0.3-7.7,0.5
			c-1.4,0.1-2.9,0.4-4.3,0.4c-2.4,0-4.8,0-7.2,0.4c-0.5,0.1-1.1,0-1.7,0c-1.3,0-2.6,0-3.8,0.2c-1.2,0.2-2.4,0.4-3.6,0.4
			c-2.1,0-4.1,0.5-6.2,0.4c-1.1,0-2.2,0.5-3.3,0.4c-0.4,0-0.8,0-1.3,0.6C342.7,224.8,342.7,228.1,343.2,231.4z M208.1,256.4
			c-2.2,0-4.4-0.2-6.5,0.1c-2.3,0.3-4.6,0.2-6.9,0.3c-3.1,0.2-6.2-0.3-9.3,0.4c-2-0.3-4,0-6,0c-3.4,0.1-6.9,0.1-10.3,0.2
			c-0.9,0-1.7-0.3-2.6-0.2c-2.2,0.2-4.5,0.3-6.7,0.4c-0.4,0-0.8,0.1-1.2,0c-1.7-0.5-3.3-0.3-5-0.1c-1.6,0.2-3.2,0.3-4.8,0.2
			c-0.8,0-1.6-0.1-2.4,0c-3,0.1-5.9,0.2-8.9,0.1c-1.4,0-2.7,0-4.1,0.2c-2.5,0.3-5.1,0.3-7.6,0.1c-0.4,0-0.8-0.1-1.2,0
			c-2,0.3-4,0.3-6,0.3c-0.5,0-1,0-1.3,0.4c-0.3,0.6,0,1.3,0.1,1.9c0.4,1.7,0.6,3.5,0.7,5.2c0,1.4,0.3,2.9,0.8,4.2
			c0.4,1.3,0.5,1.5,1.8,1.4c4.1,0,8.2,0,12.2-0.2c2-0.1,4-0.3,6,0c0.7,0.1,1.4,0.1,2.2,0c3.7-0.4,7.3-0.4,11-0.4
			c0.8,0,1.6,0.1,2.4,0c3.3-0.5,6.5-0.1,9.8-0.4c3,0.5,5.9,0.1,8.8-0.1c2.2-0.1,4.5,0,6.7-0.3c0.6-0.1,1.2-0.2,1.7,0
			c1.6,0.5,3.2,0.2,4.7,0.1c1.1-0.1,2.2-0.1,3.4-0.1c1.8,0,3.7,0.1,5.5-0.2c1.4-0.2,2.9-0.4,4.3-0.2c2.3,0.3,4.5-0.1,6.7,0
			c1.1,0,2.2,0,3.3-0.2c1.4-0.3,2.7-0.4,4-0.1c0.1,0,0.3-0.1,0.5-0.3c-0.3-0.9-0.6-1.7-0.9-2.6c-0.4-1.5-1-2.8-1.9-4.1
			c-0.5-0.8-1.1-1.6-1.2-2.6C209.8,258.4,209,257.4,208.1,256.4z M444.3,129.8c-2-0.7-3.9-0.9-5.8-1c-0.1,0-0.2,0-0.2,0
			c-1.7,0.3-3.3,0.2-5,0.2c-1.1,0-2.2,0-3.3,0.2c-1.1,0.2-2.2,0.3-3.3,0.3c-3.8,0.1-7.4,1-11.1,1.7c-0.3,0.1-0.6,0.1-0.9,0.3
			c-2.1,0.9-4.4,1.5-6.4,2.5c-0.4,0.2-0.9,0.4-1.2,0.7c-1.3,0.9-2.6,1.8-3.9,2.8c-1.9,1.3-2.9,3.3-3.9,5.3c-0.2,0.5-0.3,1.1-0.3,1.6
			c-0.1,4.5,1.9,7.8,5.6,10.1c0.5,0.3,1,0.4,1.6,0.4c2.4-0.1,4.7-0.6,7-1.5c1-0.4,2-1,2.7-2c1-1.3,2.5-2,3.7-3
			c0.2-0.2,0.6-0.2,0.9-0.3c0.7-0.2,1.2,0.2,1.5,0.8c0.3,0.7,0.2,1.5-0.3,1.7c-1.6,0.7-2.7,2.2-4.3,3c-0.6,0.3-1,0.8-1.3,1.4
			c-1.5,2.8-2.2,5.6-1,8.7c0.1,0.4,0.3,0.8,0.4,1.1c0.3,1.5,1.5,2.4,2.5,3.5c0.6,0.6,1.4,0.9,2.2,0.6c1.8-0.7,3.5-1.3,4.3-3.5
			c0.8-2.2,2.5-3.9,4.9-4.6c1.1-0.3,2.2-0.6,3.3-0.7c1.4-0.1,2.8,0.2,3.9,0.9c1,0.6,2,1.4,2.3,2.6c0.3,1.2,0.7,2.5,0.7,3.8
			c0,1.1-0.2,2.2-0.4,3.3c-0.1,0.6,0.3,1.1,1,1.1c0.4,0,0.8-0.1,1.2-0.1c1.1,0,1.9-0.9,2.9-1.1c2.7-0.7,4.3-2.8,6-4.8
			c0.2-0.2,0.2-0.4,0.3-0.6c1.8-4.4,1.9-8.9,0.8-13.4c-0.7-2.8-2.2-5-4.3-7.1c-1.2-1.2-2.8-1.6-4-2.5c-0.6-0.4-1.2-0.1-1.9-0.2
			c-0.7-0.1-1.2-0.4-1.5-1.1c-0.5-1.1-0.5-2.2-0.5-3.3c-0.1-2.8,1.1-4.9,3.4-6.4C442.9,130.8,443.6,130.2,444.3,129.8z M113,258.9
			c-0.2,0.1-0.5,0.2-0.6,0.3c-0.9,2.7-2.9,4.8-4.2,7.2c-0.3,0.6-0.8,1-1.1,1.5c-1.5,2.2-3.4,4-4.1,6.6c-0.1,0.4-0.4,0.7-0.7,1
			c-1.1,1-1.7,2.3-2.4,3.5c-0.4,0.8-1.1,1.4-1.6,2.1c-1.3,1.6-2.5,3.2-3.5,5c-1.4,2.6-3,5-4.7,7.5c-1.6,2.4-3.4,4.8-5.1,7.2
			c-0.5,0.6-0.8,1.4-1.1,2.1c-0.5,0.8-0.8,1.8-1.4,2.5c-0.7,0.7-1.1,1.5-1.6,2.4c-0.4,0.6-0.7,1.3-1.1,1.8c-0.8,1-1.4,2.1-2,3.2
			c-0.9,1.5-1.5,3.2-2.7,4.5c-2.2,2.5-4,5.2-5.5,8.1c-0.5,1.1-1.2,2.1-2,3c-0.9,1-1.7,2.1-2.2,3.4c-0.3,0.6-0.5,1.2-1,1.6
			c-1.5,1.6-2.6,3.4-3.5,5.4c-0.2,0.4-0.4,0.9-0.7,1.2c-0.8,0.7-1.2,1.7-1.7,2.6c-0.9,1.4-1.7,2.9-2.9,4.1c-0.4,0.4-0.7,0.9-0.5,1.6
			c0.6,0.5,1.3,0.3,2,0.4c2.4,0.2,4.8-0.1,7.2,0.2c0.9,0.1,1.9,0.2,2.9,0.2c1.4,0,2.5-0.4,3-1.9c0.1-0.4,0.4-0.7,0.6-1
			c1.3-2.2,2.9-4.2,3.8-6.6c0.2-0.5,0.4-1.1,0.8-1.4c1.3-1.3,2.2-2.9,3.1-4.5c0.6-1,1.2-2.1,1.9-3c1.8-2.5,3.7-4.9,5.1-7.8
			c0.4-0.9,1-1.6,1.6-2.4c0.2-0.3,0.5-0.6,0.7-1c1.5-3.1,3.4-5.9,5.4-8.7c0.2-0.3,0.5-0.6,0.6-1c0.3-1.3,1.1-2.3,2-3.2
			c0.4-0.5,0.9-0.9,1.1-1.6c0.6-2,1.8-3.7,2.8-5.5c0.5-0.9,1.1-1.8,1.9-2.5c0.8-0.6,1.2-1.4,1.6-2.4c0.4-0.9,0.7-1.9,1.3-2.6
			c1.4-1.6,2-3.7,3.5-5.1c0.2-0.2,0.3-0.4,0.3-0.6c0.1-1,0.7-1.7,1.3-2.5c0.8-1.1,1.6-2.2,2.2-3.4c1.1-2,2.3-4,3.5-6
			c0.4-0.7,0.6-1.3,0.5-2c-0.3-1.9-0.6-3.8-0.9-5.7c-0.4-2.4-1.2-4.6-1.1-7.1C113.4,259.4,113.3,259.1,113,258.9z M454.1,249.2
			c-1,0.5-1,1.6-1.7,2.1c-0.9,0.7-1.3,1.6-1.7,2.5c-0.2,0.4-0.5,0.8-0.8,1.2c-1.6,2.5-3.6,4.9-5.1,7.5c-0.8,1.4-1.8,2.8-2.8,4.1
			c-1.8,2.5-3.6,5-5.4,7.6c-1.9,2.8-3.9,5.7-5.6,8.6c-1.9,3.2-2,2.1-0.5,5.6c0.4,0.8,0.7,1.6,1.2,2.3c1.3,1.9,2.5,3.9,3.4,6
			c0.3,0.7,0.7,1.5,1.7,1.6c1.7-1.2,3.5-2.5,5.2-3.7c1.2-0.8,2.5-1.5,3.5-2.5c1.4-1.4,3-2.4,4.6-3.4c0.5-0.3,1.1-0.7,1.6-1
			c2.5-1.7,4.8-3.6,7.4-5.2c2-1.2,3.8-2.6,5.6-4c2.9-2.1,5.7-4.4,8.7-6.3c0.2-0.1,0.3-0.4,0.4-0.6c-1-1.2-1.7-2.6-2.9-3.5
			c-1.4-1.2-2.6-2.6-3.7-4c-0.3-0.3-0.5-0.6-0.8-0.9c-2.6-2.4-4.6-5.3-6.8-8c-1.5-1.8-2.9-3.6-4.4-5.4
			C455,249.7,454.7,249.4,454.1,249.2z M311.8,190.6c0.5-1.4,1.4-2.3,2.7-2.7c0.7-0.2,1.4-0.2,2.1-0.3c0.8,0,1.4-0.3,1.9-0.9
			c0.2-0.3,0.3-0.6,0-0.9c-0.1-0.2-0.3-0.3-0.5-0.4c-0.1-0.1-0.3,0-0.5,0c-1.8,0.2-3.6,0.5-5.4,0.7c-1.4,0.2-2.7,0.1-3.7-1.1
			c-0.2-0.3-0.6-0.5-0.9-0.7c-0.2-1.4,0.1-2.6,0.4-3.9c0.1-0.5,0.4-1,0.9-1.4c1.2-0.8,2.3-1.7,3.9-1.5c1.3,0.2,2.3-0.4,3.1-1.5
			c0.1-0.2,0.4-0.3,0.4-0.6c0.4-0.9,1.2-1.2,2-1.6c0.1,0,0.1-0.3,0.1-0.5c-0.2-0.1-0.4-0.3-0.6-0.3c-2.2-0.1-4.4-0.6-6.7-0.5
			c-1.9,0.1-3.8,0.1-5.8,0.1c-1.9,0-3.8-0.1-5.7,0.4c-0.3,0.1-0.6,0.1-1,0.1c-1.4-0.1-2.7,0.2-4,0.5c-0.5,0.1-1.1,0.2-1.6,0.3
			c-1.5,0.2-3,0.4-4.5,0.7c-0.5,0.1-1.2,0.3-1.5,0.7c-1,1.2-2.5,1.3-3.9,1.6c-1.3,0.3-2.4,0.8-3.6,1.3c-0.2,0.1-0.3,0.4-0.4,0.6
			c0.3,0.1,0.5,0.3,0.7,0.3c1.2,0.1,2.4,0.1,3.6-0.3c1.2-0.4,2.5-0.5,3.7,0.1c2,1,4,1.9,5.8,3.3c0.9,0.7,1.4,1.4,1.6,2.5
			c-1.9,3-1.6,2.4-4.2,3.7c-0.7,0.4-1.5,0.6-2.2,1c-1.2,0.7-2.5,1-3.9,1c-0.6,0-1.3,0-1.9,0c-0.7,0.1-1.1,0.5-1.3,1.2
			c-0.1,0.7,0,1.3,0.6,1.7c0.8,0.5,1.6,1,2.5,1.5c0.4,0.2,0.9,0.3,1.3,0.6c1,0.7,1.7,1.7,1.6,3c-0.1,1.2-1,2-2.3,2.4
			c-0.9,0.2-1.7,0.2-2.6,0.2c-0.9,0.1-1.3,0.5-1.2,1.4c0.1,0.5,0.3,0.9,0.3,1.4c0.2,1.5-0.3,2.4-1.7,3c-0.1,0.1-0.3,0.1-0.5,0.1
			c-0.8,0.3-1,0.7-0.8,1.5c0.1,0.3,0.2,0.6,0.2,0.9c0.5,2.6,0.2,4.9-2.1,6.6c-0.1,0.1-0.2,0.2-0.3,0.3c-0.1,0.2-0.2,0.5,0,0.6
			c0.1,0.1,0.3,0.2,0.4,0.2c0.1,0,0.3,0,0.5,0c3.1-1.4,6.4-2,9.6-2.7c0.8-0.2,1.6-0.4,2.3-0.7c2-1.1,4.2-1.8,6.5-2.3
			c1.2-0.3,2.3-0.5,3.3-1.3c0.5-0.4,1.2-0.6,1.8-0.7c2.9-0.5,5.4-2.3,8.4-2.6c0.3,0,0.6-0.2,0.9-0.4c0.9-0.7,2-1,3.1-1.2
			c0.4-0.1,0.8-0.1,1.2-0.3c1-0.3,1.3-1.1,0.9-2.1c-0.6-1.3-1.6-2.1-3.1-2.4c-0.6-0.1-1.3-0.1-1.8-0.1c-1-0.8-1.5-2-2.6-2.6
			c-0.5-0.3-0.9-1-1-1.6c-0.2-1-0.2-2.1,0.2-3.1c0.5-1.2,1.4-2.1,2.8-2.3C310.1,190.8,310.8,190.8,311.8,190.6z M290.4,49.7
			c0.3-1.6,0-3.2-0.4-4.7c-0.1-0.5-0.3-0.9-0.4-1.4c-0.2-2.2-0.4-4.5-0.6-6.7c-0.1-1-0.1-2.1-0.6-3c-0.2-0.5-0.2-1.1-0.3-1.6
			c0-0.7,0.1-1.5-0.1-2.2c-0.5-3-0.9-6-1.3-9c-0.2-1.8-0.2-3.7-1-5.4c-0.1-0.3-0.1-0.6-0.1-0.9c-0.1-1.3-0.1-2.6-0.2-3.8
			c-0.3-2.3-0.5-4.6-1-6.7c-0.7-0.5-1.4-0.4-2-0.4c-1.1,0.1-2.2,0.4-3.3,0.4c-0.9,0-1.5,0.4-2,1.1c-0.4,0.5-0.6,1.1-0.9,1.7
			c-0.3,0.6-0.6,1.3-1,1.9c-1.1,1.6-2.2,3.1-3,4.9c-0.3,0.6-0.7,1.3-1.2,1.8c-2.2,2.5-3.4,5.6-5.5,8.1c-0.2,0.2-0.4,0.5-0.5,0.8
			c-0.8,1.6-1.8,3-2.8,4.4c-1.7,2.4-3.5,4.7-4.8,7.4c-0.5,1-1.3,1.8-1.7,2.8c-1,2.1-2.4,4-3.7,5.8c-1.3,1.8-2.5,3.7-3.7,5.6
			c-0.2,0.3-0.3,0.5,0,1c0.8,0.1,1.6,0.3,2.5,0.3c0.7,0,1.4-0.2,2.1-0.3c0.5-0.1,0.9-0.2,1.4-0.2c4.6-0.2,9.3-0.5,13.9-0.2
			c0.4,0,0.8,0,1.2-0.2c1-0.5,2-0.3,3.1-0.3c0.8,0,1.6,0.2,2.4,0.1c2.2-0.2,4.5-0.2,6.7-0.2c1.8,0,3.7,0.2,5.5-0.4
			c0.5-0.2,1.1-0.1,1.7-0.1C289.3,50.1,289.7,50.2,290.4,49.7z M331.6,237.6c0.2,0.5,0.3,0.9,0.4,1.2c0.4,3.1,2.3,5.8,3.2,8.7
			c0.2,0.7,0.7,1.3,1.6,1.3c2.1,0,4.1,0.2,6.2,0.4c0.7,0.1,1.4-0.1,2.1-0.1c0.8-0.1,1.6-0.2,2.4-0.2c4.5-0.1,9.1-0.1,13.6-0.1
			c1.4,0,2.9,0.2,4.3-0.4c0.2-0.1,0.5,0,0.7,0c3.7-0.1,7.5,0.1,11.2-0.1c2.1-0.1,4.3,0,6.5-0.1c2.6-0.1,5.1,0,7.7-0.1
			c2.5-0.1,5.1,0.3,7.6-0.2c2,0.6,4.1,0.2,6.1,0.2c0.5,0,1,0.1,1.4,0.1c0.8,0,1.1-0.5,0.9-1.3c-0.1-0.3-0.2-0.6-0.4-0.9
			c-1.3-2-2-4.3-3.1-6.5c-0.4-0.9-0.6-1.9-1.2-2.6c-0.7-0.7-1.9-0.2-2.7-0.5c-1.2-0.4-2.5-0.4-3.8-0.4c-0.7,0-1.5,0.1-2.2-0.1
			c-1.8-0.3-3.7-0.4-5.5-0.3c-2.1,0.1-4.1-0.5-6.2-0.2c-2.9-0.5-5.9-0.2-8.8-0.3c-0.7,0-1.5,0.1-2.1-0.1c-1.5-0.4-3-0.3-4.5-0.4
			c-1.5,0-3.1,0.1-4.5-0.1c-1.8-0.3-3.7-0.3-5.5-0.3c-2.1,0-4.2,0.1-6.2-0.2c-2-0.2-4-0.4-6-0.3c-1.1,0-2.1-0.1-3-0.6
			c-0.9-0.5-1.7-0.4-2.5,0c-1.2,0.6-2.5,1.1-3.6,1.8C334.3,235.9,332.7,236.3,331.6,237.6z M209,246.4c0,1.5,0.4,2.6,0.9,3.7
			c0.3,0.6,0.6,1.3,0.8,2c0.1,0.5,0.3,0.9,0.6,1.3c1.1,1.4,1.6,3.1,2.2,4.8c0.1,0.4,0.2,0.8,0.4,1.1c1,1.7,1.5,3.7,2.1,5.6
			c0.2,0.8,0.5,1.5,0.8,2.3c1.8,4.2,3.9,8.2,5.3,12.5c0.2,0.6,0.5,1.2,0.8,1.7c0.6,1.1,1.2,2.3,1.3,3.6c0.1,0.6,0.3,1,0.6,1.5
			c0.3,0.5,0.5,1,0.7,1.5c0.6,1.7,1,3.5,2.2,5c0.2,0.2,0.2,0.6,0.3,0.9c0.2,0.6,0.4,1.2,0.8,1.7c0.5,0.7,0.8,1.4,1,2.2
			c0.6,2.2,2,4,2.8,6.1c0.1,0.3,0.3,0.6,0.6,0.7c0.9,0.6,1.4,1.6,1.8,2.5c0.6,1.1,1.1,2.3,1.4,3.5c0.7,2.4,1.9,4.6,2.7,6.9
			c0.4,1.2,1.1,2.3,1.5,3.5c0.8,2.2,1.9,4.4,2.6,6.7c0.7,2.1,1.7,3.9,2.5,5.9c0.7,1.9,1.6,3.8,2.4,5.7c0.3,0.7,0.8,0.9,1.3,0.6
			c1.5-0.9,3.3-1.1,5-1.7c0.5-0.2,1.1-0.1,1.6-0.7c-0.2-0.9-0.7-1.8-1.1-2.8c-0.5-1-1.1-2-1.4-3.1c-0.5-2-1.3-3.9-2.1-5.8
			c-1-2.2-1.8-4.4-2.8-6.6c-0.5-1.2-0.7-2.4-1.6-3.5c-0.8-2.7-1.8-5.3-2.9-7.8c-1.2-2.5-1.5-5.4-3.3-7.6c0-0.1-0.1-0.1-0.1-0.2
			c-1.1-2.9-2.3-5.8-3.4-8.7c-0.7-1.9-1.4-3.9-2.2-5.8c-1.6-3.7-3.3-7.4-5-11.2c-0.4-0.8-0.6-1.6-0.9-2.5c-0.4-1.5-1-2.9-1.8-4.1
			c-0.5-0.7-0.8-1.5-1.1-2.4c-1.1-2.6-2.1-5.2-3.2-7.7c-0.7-1.6-1.5-3.2-1.9-4.9c-0.2-0.6-0.4-1.2-0.7-1.8c-1-2-2.3-3.9-2.7-6.1
			c0-0.1-0.1-0.1-0.1-0.2c-0.4-0.8-1-1.1-2-0.9C213.2,244.3,211.2,245.6,209,246.4z M291,52.9c-1,0.1-2,0.4-2.9,0.2
			c-1.5-0.3-3-0.3-4.5,0.1c-0.5,0.1-1,0.1-1.4,0.1c-2.2,0-4.5-0.1-6.7,0c-3.3,0.1-6.5,0.2-9.8,0.4c-1.2,0.1-2.4,0.5-3.5,0.5
			c-1.8,0.1-3.5,0-5.3,0c-3.1,0-6.2,0.1-9.4,0.1c-1.2,0-2,0.4-2.5,1.4c-0.9,1.9-2.3,3.4-3.3,5.3c-0.5,1-1.3,1.8-1.8,2.8
			c-0.1,0.3-0.3,0.6-0.6,0.8c-1.2,0.8-1.7,2.1-2.3,3.2c-0.6,1-1,2-1.7,2.9c-0.9,1.1-1.6,2.4-2.4,3.6c-0.4,0.7-0.9,1.3-1.4,2
			c-0.3,0.5-0.6,0.9-0.4,1.5c0.3,0.3,0.7,0.4,1.1,0.3c4.4,0,8.8-0.1,13.2-0.1c3.9,0,7.8,0.2,11.7,0c2.2-0.1,4.5,0,6.7,0
			c2.3,0,4.6,0,7,0c2.2,0,4.4-0.3,6.7,0c3.5-0.5,7-0.3,10.5-0.1c1.8,0.1,3.7-0.1,5.5-0.2c0.4,0,0.8-0.1,1.1-0.5c-0.1-1-0.1-2-0.2-3
			c-0.2-1.9-0.3-3.8-0.6-5.7c-0.7-3.9-1.2-7.7-1.4-11.6C292.4,55.3,292.1,54.1,291,52.9z M334.2,182.7c-1.1-0.8-1.4-1.8-1.7-2.9
			c-0.7-1.9-1.9-3.3-3.9-3.9c-1.4-0.4-2.8-0.8-4.2-0.8c-0.7,0-1.4-0.1-2,0.6c-0.3,0.4-0.9,0.3-1.3,0.4c-1.2,0.2-2.4,0.4-3,1.7
			c-0.7,1.8-2.2,2.1-3.9,2.3c-0.6,0.1-1.3,0.1-1.9,0.1c-0.9,0.1-1.5,0.6-1.9,1.3c-0.7,1.1,0,2.3,1.3,2.4c0.4,0,0.8-0.1,1.2-0.2
			c0.9-0.2,1.7-0.4,2.6-0.6c1.5-0.4,3-0.3,4.4,0.4c1.4,0.6,2.1,1.7,2,3c-0.1,1.6-1,2.6-2.6,3c-0.9,0.2-1.9,0.5-2.8,0.7
			c-0.9,0.2-1.6,0.6-1.9,1.6c-0.4,1.1-1.4,1.7-2.6,1.9c-0.6,0.1-1.3,0.1-1.9,0.2c-0.8,0.1-1.1,0.6-0.9,1.4c0.2,1.3,1.7,2.9,3.2,3.1
			c1.6,0.2,3,0.8,4.2,2c0.8,0.8,1.2,1.6,1.4,2.7c0.1,0.8,0.1,1.6,0.2,2.4c0.1,0.6,0,1.3,0.6,1.9c1.8-0.1,3.1,1,4.4,2.2
			c0.8,0.8,1.6,1.5,2.4,2.4c0.8,1,1.5,1,2.4,0.3c1-0.8,1.9-1.7,2.9-2.5c2.8-2.3,2.4-2,1.7-5.3c-0.4-1.6-0.8-3.2-1.2-4.9
			c-0.1-0.4-0.2-0.8-0.1-1.2c0.2-1,0.5-2,0.8-3c0.7-2.2,3.4-3.4,5.6-3.3c1.1,0.1,1.9,0.7,2.3,1.8c0.3,1,0.7,2,0.6,3
			c-0.1,0.7,0,1.4-0.1,2.2c-0.1,1.1,0.4,2,1.1,2.8c1,1,1.9,1.3,2.5-0.3c0.2-0.4,0.3-0.7,0.5-1.1c0.2-0.4,0.5-0.7,0.9-0.7
			c1.6-0.2,3.2-1.1,4.9-0.3c0.7,0.3,1.6,0.2,2.4,0.2c0.7,0,1.1-0.3,1.2-0.9c0.3-1.6,0.5-3.1-0.1-4.7c-0.6-1.5-0.7-3.3-2-4.6
			c-0.1-0.1-0.1-0.3-0.1-0.5c-0.4-1.4-1.2-2.4-2.4-3.2c-0.3-0.2-0.7-0.5-0.9-0.8c-0.8-1.1-2-1.6-2.9-2.5c-0.5-0.4-1.1-0.3-1.4,0.3
			c-0.6,1.2-1.4,2.3-2.5,3.1c-2.2,0-3.2-1.9-4.5-3.2C336.2,182.9,335.2,182.8,334.2,182.7z M414,349.3c-1.1-2.2-2.5-4.3-3.6-6.6
			c-0.9-1.9-1.5-3.8-1.5-6c0-1,0-1.9-0.3-2.8c-0.5-1.2-0.3-2.3,0.1-3.5c0.1-0.3,0.3-0.6,0.3-0.9c0.1-3.3,1.1-6.4,2.8-9.3
			c0-0.1,0.1-0.1,0.1-0.2c0.7-1.6,1.4-3.2,2.2-4.8c0.2-0.4,0.4-0.7,0.7-1c0.8-0.7,1.7-1.5,2.6-2.1c1.5-1,2.9-2.3,4.6-3
			c0.2-0.1,0.4-0.2,0.6-0.4c1.2-1.5,2.8-2.3,4.3-3.4c2-1.3,3.9-2.7,5.9-4c0.1-0.1,0.2-0.3,0.2-0.4c-0.2-1.4-0.7-2.6-1.6-3.7
			c-0.4-2.1-1.7-3.9-2.3-6c-0.2-0.6-0.5-1.2-0.7-1.8c-0.2-0.4-0.4-0.7-1-0.7c-0.1,0.1-0.4,0.2-0.5,0.4c-1.2,1.7-2.3,3.4-3.5,5.1
			c-1.3,2-2.5,4.1-3.9,6c-1.2,1.6-2.3,3.3-3.4,4.9c-1.2,1.7-2.4,3.4-3.5,5.2c-0.9,1.6-1.8,3.2-2.9,4.6c-0.5,0.6-1,1.2-1.4,1.9
			c-1.5,2.1-3,4.1-4.3,6.3c-1.5,2.4-3.3,4.7-4.9,7.1c-0.4,0.6-0.8,1.2-1.6,1.3c-0.6,0.1-1.1,0.4-1.3,1c-0.6,1.6-1.9,2.7-2.8,4.2
			c-0.6,1-1.1,1.9-1.8,2.8c-1.4,1.7-3.2,3.1-4.2,5.1c-0.1,0.1-0.2,0.2-0.3,0.4c-1.3,1.3-2.2,2.9-3.7,4c-0.2,0.1-0.3,0.4-0.4,0.6
			c-0.3,0.4,0,1,0.5,1c0.9,0.2,1.7,0,2.6-0.2c1-0.2,2.1-0.4,3.1-0.2c1.7,0.3,3.5,0.2,5.2,0c1.9-0.2,3.8-0.2,5.7-0.3
			c0.2,0,0.3-0.1,0.5,0c1.4,0.6,2.8,0.1,4.3,0.2c2.8,0.1,5.6-0.4,8.4-0.3C413.5,349.7,413.8,349.7,414,349.3z M66.3,65.6
			c-0.6,1.7-1.1,3.5-1.7,5.2c-1.1,3.5-3.3,6.1-6.4,8c-0.4,0.2-0.9,0.4-1.3,0.7c-1.2,0.7-1.5,1.5-1.3,2.8c0,0.2,0.1,0.5,0.2,0.7
			c0.8,2.1,1.3,4.3,1.8,6.5c0.1,0.4,0.2,0.8,0.4,1.1c1.1,1.9,2.2,3.9,3.3,5.8c0.2,0.3,0.5,0.6,0.8,0.9c1,0.8,2,1.6,3,2.4
			c0.4,0.4,0.9,0.6,1.5,0.5c1.1-0.2,2.3,0.1,3.3,0.6c1.7,0.8,3.5,1.2,5.1,1.9c1.9,0.8,3.4,0.1,4.9-0.9c0.6-0.5,1.2-1,1.8-1.6
			c0.3-0.3,0.6-0.6,0.8-0.9c0.6-1.2,1.3-2.4,1.6-3.7c0.6-2.2,1.4-4.4,1.5-6.8c0-1.4,0.5-2.8,0-4.2c-0.1-0.4-0.1-0.8,0-1.2
			c0.1-1.9-0.6-3.6-1.1-5.4c-0.1-0.4-0.3-0.7-0.6-1c-1.1-1-2-2.1-3.3-2.7c-1.9-0.9-3.5-2.2-5.5-2.7c-0.4-0.1-0.7-0.3-1-0.6
			c-2.4-1.7-4.9-3.3-7-5.3C66.7,65.6,66.5,65.6,66.3,65.6z M278.8,199.3c1.1-1,2.3-1.5,3.8-1.3c0.4,0,0.8-0.1,1.2-0.1
			c0.1,0,0.2-0.2,0.3-0.3c0-0.1,0-0.4-0.1-0.4c-1.2-0.5-2.1-1.4-3.3-1.9c-1.1-0.4-2.2-1.1-2.5-2.3c-0.4-1.6-0.2-3,1.2-4.1
			c0.7-0.5,1.2-1.3,2.2-1.4c1-0.1,2.1-0.3,3.1-0.4c2.4-0.1,4.3-1.4,6.4-2.5c0.1-0.1,0.1-0.3,0.2-0.5c-0.9-1.2-2.2-2-3.4-2.9
			c-0.7-0.5-1.5-0.6-2.3-0.4c-1.2,0.2-2.4,0.4-3.5,0.6c-1.6,0.3-3.2,0.1-4.5-1c-0.4-0.3-0.8-0.5-1.1-0.8c-0.9,0.1-1.6,0.2-2.3,0.7
			c-1.3,0.9-2.6,1.8-4,2.7c-2.4,1.6-4,4-5.9,6.2c-2,2.4-2.7,5.2-3.2,8.1c-0.1,0.5-0.2,1-0.1,1.4c0.2,2.2,0.8,4.5,2.1,6.3
			c1.3,1.9,2.7,4,4.5,5.6c1.1,1,2.3,2,3.5,2.9c0.5,0.4,1,0.7,1.6,1c0.3,0.1,0.6,0.2,0.9,0.2c1.5-0.2,3-1.9,2.8-3.4
			c-0.2-1.2-0.1-2.4-0.3-3.6c-0.2-1.5,0.6-2.6,1.7-3.4c0.4-0.3,0.9-0.3,1.2-1C278.7,202.1,278.4,200.8,278.8,199.3z M514.4,346.6
			c0.8-1.2,1.5-2.2,2-3.4c0.1-0.3,0.3-0.6,0.5-0.8c1.6-1.6,3.5-2.8,5.9-2.9c1.1,0,2.2-0.3,3.3-0.9c0.1-1.2,0.4-2.5,0.4-3.7
			c0.1-1.8,0.2-3.5-0.1-5.3c-0.1-0.4-0.2-0.8-0.7-1c-0.2,0.1-0.5,0.1-0.8,0.3c-1.6,1-3.4,1.8-5.3,2c-0.4,0-0.8,0.2-1.1,0.4
			c-2.3,1-4.8,1.6-7.2,2.3c-1.1,0.4-2.4,0.3-3.1,1.5c-0.1,0.2-0.6,0.2-0.9,0.3c-2.5,1.1-5.3,1.3-7.6,2.8c-0.3,0.2-0.7,0.3-1.1,0.3
			c-1.4,0.1-2.6,0.5-3.9,1.2c-0.6,0.3-1.3,0.6-2,0.7c-1.7,0.3-3.3,1.2-5.1,1.3c-0.4,0-0.8,0.2-1.1,0.4c-0.7,0.4-1.5,0.6-2.2,0.9
			c-2.2,0.6-4.3,1.2-6.5,1.8c-0.8,0.2-1.5,0.4-1.8,1.3c-0.1,0.4-0.5,0.6-0.9,0.7c-0.7,0.3-1.4,0.4-2.1,0.5c-0.8,0.1-1.5,0.3-2.1,1.1
			c0.7,0.5,1.5,0.5,2.1,0.4c1.7-0.3,3.5-0.2,5.3-0.3c1.4,0,2.7,0,4-0.4c0.5-0.1,1-0.2,1.4-0.2c3.8,0.3,7.6-0.5,11.4-0.7
			c2-0.1,4-0.3,6-0.2c2.1,0.1,4.1-0.4,6.2-0.4C509.5,346.8,511.9,346.7,514.4,346.6z M536.4,310.3c-0.1,0.7,0.1,1.1,0.5,1.3
			c0.7,0.4,1.1,0.9,1.3,1.6c0.1,0.5,0.2,1,0.5,1.3c0.8,0.9,0.9,2.1,1.4,3c0.4,0.8,0.3,1.7,0.1,2.6c-0.2,1.1-2.4,4.4-3.3,5.2
			c-0.2,0.2-0.4,0.3-0.6,0.4c-0.2,0.2-0.5,0.4-0.6,0.6c0.3,3.2,0.6,6.3,1,9.4c0,0.5,0.1,1,0.2,1.4c0.2,0.9,0.5,1.4,1.4,1.4
			c2-0.1,3.6,1.2,5.4,1.8c0.4,0.1,0.5,0.6,0.4,1c-0.1,0.4-0.2,0.8-0.7,1.1c-1.5-0.3-3.2-0.4-4.8-1c-0.5-0.2-1.1-0.2-1.6-0.1
			c-0.8,0.2-1.6,0.3-2.4,0.5c-1.2,0.2-2.1,0.8-2.7,1.8c-0.3,0.4-0.6,0.7-1,1c-0.5,0.4-0.9,0.9-1.4,1.3c-0.2,0.2-0.3,0.6,0.2,0.9
			c1.8-0.9,3.9-0.9,6-1c0.3,0,0.6,0,1-0.1c2.1-0.4,4.2-0.9,6.3-1.2c1.3-0.2,2.2-0.9,3-1.7c0.3-0.3,0.5-0.8,0.9-1.1
			c0.9-0.8,1.5-1.8,1.8-3c0.2-1.2,0.6-2.4,0.2-3.7c-0.4-1.3-0.4-2.8-0.5-4.3c-0.1-2-0.4-4-0.9-5.9c-0.4-1.6-0.9-3.3-1-4.9
			c-0.2-1.4-0.2-2.9-1.2-4c-0.2-0.2-0.2-0.6-0.3-0.9c-0.3-1.8-1.1-3.3-1.9-4.9c-0.4-0.8-0.7-0.9-1.5-0.8
			C539.7,309.5,538.1,310.1,536.4,310.3z M406.7,237.1c0,0.3-0.1,0.5,0,0.6c1,2.2,1.8,4.4,2.9,6.5c0.9,1.8,1.5,3.7,2.8,5.3
			c0.2,0.2,0.3,0.6,0.4,0.9c1.2,2.9,2.4,5.7,3.6,8.6c0.2,0.4,0.4,0.7,0.6,1c0.2,0.3,0.8,0.3,1-0.1c1.6-2.8,3.2-5.7,5-8.4
			c2.2-3.3,4.3-6.7,5.9-10.3c1.4-3.2,2.4-3.7-2.3-3.6c-1.4,0-2.7,0.2-4.1-0.2c-1-0.3-2-0.3-3.1-0.3c-2.1-0.1-4.1-0.2-6.2-0.3
			c-1.6-0.1-3.2-0.1-4.8-0.1C407.9,236.7,407.3,236.6,406.7,237.1z M321,212c0.1,0.9-0.1,1.7,0.8,2.3c2,1.4,4.3,2.4,6.5,3.4
			c0.9,0.4,1.8,0.6,2.7,0.8c0.4,0.1,0.8,0.1,1.2,0c1-0.3,2-0.5,3-0.9c2.5-1.1,5-2.1,7.3-3.5c2.6-1.6,5.1-3.3,6.9-5.8
			c0.2-0.3,0.4-0.5,0.6-0.7c1.4-1,2-2.6,3-4c0.3-0.4,0.5-0.9,0.1-1.5c-2-0.7-4.2-1-6.4-0.3c-0.2,0.4-0.4,0.8-0.5,1.1
			c-0.8,1.6-2.2,2.2-3.8,2.4c-0.6,0.1-1.1-0.1-1.5-0.5c-2.3-1.9-3.6-4.2-3.4-7.2c0-0.7,0.1-1.4,0-2.2c-0.1-1-1.1-1.5-1.9-0.9
			c-1.2,0.9-2.2,2-1.8,3.6c0.3,1.5,0.5,3,1.2,4.4c0.8,1.6,0.6,3.1,0.5,4.7c0,0.3-0.1,0.7-0.3,0.9c-0.7,1-1.4,2.2-2.3,3
			c-1.9,1.5-3.9,3-6.1,4.1c-1.9-0.3-3.4-1-4.4-2.7c-0.1-0.3-0.5-0.4-0.7-0.6C321.4,212,321.3,212,321,212z M412.3,337.5
			c0.4-2.5,0.8-4.7,1.2-6.8c0.1-0.6,0.2-1.3,0.6-1.8c1.1-1.8,2.2-3.7,3.3-5.5c0.2-0.3,0.4-0.5,0.6-0.7c1.2-0.7,2-1.8,3.1-2.5
			c1.2-0.9,2.2-1.8,3.3-2.7c0.7-0.6,1.4-1.3,2.2-1.8c0.7-0.4,1.4-1.1,1.9-1.7c0.5-0.6,1-1,1.6-1.4c0.5-0.3,0.9-0.7,1.3-1
			c1.4-1,2.2-2.7,3.9-3.5c0.1-0.1,0.2-0.2,0.3-0.3c0.8-1.1,2-1.8,3.1-2.6c0.7-0.4,1.4-0.8,1.9-1.5c1.2-1.6,3-2.5,4.3-4
			c1.2-1.4,3-2.3,4.3-3.8c0.7-0.8,1.6-1.6,2.5-2.2c2.5-1.5,4.4-3.7,6.7-5.4c0.5-0.4,1-0.9,1.1-1.7c-0.7-0.1-1.2,0.2-1.6,0.6
			c-0.4,0.3-0.7,0.7-1.1,1c-1.9,1-3.3,2.5-5.1,3.6c-2.1,1.3-3.9,3-6,4.3c-1,0.6-2,1.3-2.9,2.1c-1.2,1.2-2.7,2-4.2,2.8
			c-1.6,0.8-3,1.8-4.1,3.2c-0.7,0.8-1.5,1.4-2.5,1.9c-0.5,0.2-1,0.6-1.4,0.9c-2.4,1.6-4.5,3.5-7.1,4.8c-0.3,0.2-0.7,0.5-0.9,0.8
			c-0.6,0.8-1.4,1.2-2.2,1.7c-2.3,1.4-4.2,3.1-5.2,5.7c-0.2,0.6-0.6,1.1-0.9,1.7c-0.4,0.6-0.7,1.2-0.8,2c-0.2,1.3-0.6,2.6-1.3,3.8
			c-0.5,0.9-0.8,1.9-0.9,3c-0.1,1.7-0.1,3.5-0.1,5.2C411.2,336.1,411.3,336.8,412.3,337.5z M290.2,3.9c-2.3-0.1-2.5,0-2.2,1.8
			c0.6,4.3,0.7,8.6,1.7,12.8c0.1,0.5,0.1,1,0.1,1.4c0,0.7,0,1.5,0.1,2.1c0.4,2,0.6,4.1,0.6,6.2c0,1.2,0.3,2.4,1,3.5
			c3.6,0.3,7.2,0.1,10.7-0.1c0.1,0,0.2-0.2,0.4-0.4c-1-1.9-1.4-4-2.8-5.7c-0.3-0.4-0.4-0.8-0.6-1.3c-0.8-1.9-1.7-3.8-2.5-5.7
			c-0.8-2-2.2-3.7-2.7-5.8c-0.1-0.2-0.2-0.4-0.4-0.6c-0.8-1-1.3-2.2-1.7-3.4C291.4,7.2,290.9,5.6,290.2,3.9z M124.6,146.4
			c0.7,0.3,1.3,0.2,2,0c0.7-0.2,1.4-0.5,2.1-0.6c1.9-0.4,3.7-0.3,5.5,0.7c2,1.2,3.9,2.4,5.8,3.8c0.8,0.6,1.7,1.1,2.6,1.7
			c0.2,0.1,0.3,0.1,0.6-0.4c-2-2.5-4.9-4.4-6.9-7.1c0.7-1.3,1-1.5,1.9-1c0.4,0.2,0.9,0.4,1.2,0.7c1.1,1.6,2.9,2.5,4,4.1
			c0.9,1.1,2,2,3.1,2.8c0.4-0.2,0.5-0.4,0.4-0.6c-0.6-1.2-1.1-2.5-2.1-3.4c-1.7-1.5-2.9-3.4-4.8-4.7c-0.2-0.2-0.3-0.5-0.5-0.7
			c0.1-0.3,0.1-0.4,0.2-0.6c0.7-1.1,1.2-1.2,2-0.4c1.4,1.3,2.8,2.6,3.9,4.2c0.4,0.6,0.9,1.1,1.4,1.6c0.3,0.2,0.6,0.6,1.1,0.3
			c-0.3-1.5-1.2-2.5-2.3-3.5c-1.4-1.1-2.4-2.5-3.6-3.9c-0.5-0.6-0.4-1.1,0.2-1.7c0.4-0.4,1.1-0.3,1.3-1c-0.1-0.2-0.1-0.3-0.2-0.4
			c-0.6-0.6-1.2-0.7-2-0.4c-1.2,0.5-2.2,0.2-2.9-0.8c-0.1-0.1-0.3-0.1-0.3-0.1c-1.4-0.1-2.2,0.9-3.3,1.2c-1.8,0.4-3.5,0.9-5.3,1.4
			c-1.3,0.4-2.6,0.8-3.8,1.3c-1.4,0.5-2.1,1.7-2.2,3.1C123.5,143.7,123.8,145.1,124.6,146.4z M96.7,171.4c0.6,1,1.4,1.5,2.2,2
			c1.9,1.1,3.7,2.3,5.3,3.6c2.5,1.9,5.2,3.4,7.5,5.5c1.4,1.2,3,2.1,4.6,3c2.2,1.3,4.2,2.9,5.3,5.3c0.2,0.4,0.6,0.8,0.8,1.2
			c1.1,1.8,2.3,3.5,2.7,5.5c0.6,3,1.2,6.1,0.1,9.2c0,0.1,0,0.2,0,0.2c-0.1,0.5,0.5,0.9,1,0.7c1.8-0.8,3-2.3,3.9-4.1
			c0.4-0.8,0.6-1.8,1-2.7c0.4-0.9,0.5-1.8,0.5-2.8c0.1-2.9-0.9-5.5-2.8-7.7c-1.9-2.3-4.4-3.8-7.1-5.1c-1.3-0.6-2.8-1-3.8-2
			c-1.3-1.2-2.8-1.8-4.1-2.8c-0.9-0.7-1.8-1.3-2.8-1.8c-4.5-2.2-8.9-4.5-13.2-7.1C97.6,171.3,97.3,171.1,96.7,171.4z M520,313
			c-0.3,0.8,0,1.3,0.2,1.8c0.4,1.2,0.8,2.4,1.3,3.6c0.5,1.5,1,3,1.6,4.5c0.3,0.7,0.7,1.3,1,1.9c0.4,0.6,1.1,0.9,1.8,0.9
			c0.6,0,1.1-0.1,1.6-0.3c2.5-1.2,5.1-2.2,7.9-2.7c1-0.2,1.5-0.9,1.6-1.8c0.3-2.2,0.1-4.3-1.5-6c-0.3-0.3-0.5-0.6-0.8-0.9
			c-1-1.5-2.4-2.1-4.1-1.9c-3.3,0.3-6.5,0.6-9.7,0.9C520.7,312.8,520.4,312.9,520,313z M324.1,219c-0.1,0.4-0.2,0.6-0.1,0.7
			c0.8,2.5,1.7,5,2.6,7.4c0.1,0.3,0.4,0.5,0.8,0.4c0.6-0.2,1.2-0.5,1.8-0.7c0.7-0.3,1.5,0.2,1.5,1c0,0.3,0,0.6-0.3,0.9
			c-0.8,0.7-1.6,1.3-2.6,1.7c-1.7,0.7-3.1,1.9-4.4,3.2c-0.7,0.7-1,1.6-0.9,2.6c0.1,0.9,0.2,1.7,1.2,2.3c1.4-1,3-1.8,4.3-3
			c1.5-1.3,3.2-2.3,5.1-3c1.1-0.4,2.3-0.8,3.3-1.4c0.8-0.5,1.5-0.8,2.4-1.1c1-0.3,1.2-0.5,1.2-1.5c0-1.4,0-2.7,0-4.1
			c0-1.2-0.4-1.6-1.5-1.8c-1.1-0.2-2.2-0.2-3.3-0.4c-2.3-0.5-4.5-1.2-6.6-2.2C327.2,219.6,325.8,219.2,324.1,219z M51.6,78.6
			c2-0.1,3.9-0.6,5.3-1.9c1.4-1.3,3.1-2.5,3.8-4.5c0.2-0.5,0.5-1,0.9-1.4c0.5-0.5,0.8-1.2,1-1.9c0.2-0.8,0.5-1.7,0.8-2.5
			c0.1-0.5,0.4-1.1,0.3-1.6c-0.3-1.4-0.2-2.9-0.1-4.3c0-0.6-0.5-1.1-1.1-1c-1.3,0.2-2.7,0.3-3.9,1c-2.4,1.4-3.9,3.7-5.7,5.7
			c0,0.1-0.1,0.1-0.1,0.2c-1.2,2.4-2,4.8-2.3,7.5C50.3,75.6,50.5,77.2,51.6,78.6z M554.6,336.9c0.2-1.4,0.2-2.9-0.4-4.3
			c-0.1-0.4-0.1-0.8-0.1-1.2c-0.2-1.8-0.3-3.7-0.7-5.5c-0.6-2.6-1-5.2-1.5-7.7c-0.6-3-1.9-5.7-3-8.6c-0.2-0.6-0.5-1.2-0.8-1.7
			c-0.2-0.4-0.6-0.5-1-0.4c-0.4,0.1-0.7,0.4-0.8,0.8c0,0.2,0,0.3,0,0.5c-0.1,1.3,0.3,2.5,0.9,3.7c0.5,0.8,1,1.7,1.2,2.6
			c0.6,2.7,1.4,5.4,1.8,8.2c0.4,2.4,0.5,4.7,1.1,7.1c0.4,1.4,0.4,3,0.6,4.5c0,0.2,0,0.5,0,0.7c-0.2,3.2-1.4,6-3.5,8.4
			c-0.6,0.7-1.3,1.1-2,1.7c-1.5,1.2-3.1,1.9-5,2c-0.5,0-1.1,0.2-1.6,0.4c-2.1,0.6-4.2,0.9-6.4,0.9c-1.3,0-2.6,0.1-3.8,0.2
			c-0.3,0-0.6,0.1-0.9,0.2c-0.1,0-0.3,0.1-0.4,0.2c-0.3,0.2-0.4,0.5-0.3,0.8c0.1,0.2,0.4,0.4,0.5,0.4c3.3-0.2,6.7-0.2,10-0.2
			c0.9,0,1.8-0.2,2.6-0.3c4.7-0.9,7.4-1.2,10.2-4.6c0.2-0.2,0.5-0.4,0.7-0.6c0.2-0.2,0.5-0.4,0.6-0.7
			C553.5,341.9,554.9,339.7,554.6,336.9z M85.4,71.2c0.1-1-0.5-1.5-0.6-2.1c-0.5-2-1.8-3.6-2.7-5.3c-0.6-1.2-1.8-1.8-2.7-2.7
			c-1.4-1.5-3.2-2.2-4.9-3.2c-1.3-0.8-2.7-0.8-4.2-0.6c-0.7,0.1-1.4,0.2-2.1,0.4c-0.5,0.1-0.9,0.2-1.2,0.7c-0.2,1.2,0.1,2.3,0.4,3.5
			c0.2,0.9,0.7,1.7,1.4,2.2c1.8,1.2,3.3,3,5.2,4.1c1.7,1,3.5,1.9,5.2,2.9c1,0.6,2.2,1,3.3,1.4c0.6,0.3,1.2,0.2,1.8-0.3
			C84.7,71.8,85.1,71.5,85.4,71.2z M406.7,176.7c0.8-0.3,1.4-0.4,1.8-0.7c1.1-0.6,2.2-1.2,3.2-2c1.2-0.9,2.5-1.8,4-2.1
			c0.4-0.1,0.7-0.3,0.8-0.8c-0.1-0.2-0.2-0.4-0.3-0.6c-0.6-0.8-1.2-1.7-1.9-2.4c-2.5-2.8-3.1-6-2.1-9.5c0.2-0.6,0.3-1.2-0.3-1.9
			c-1.3,0.2-2.7,0.4-4.1,0.7c-0.8,0.1-1.3,0.5-1.7,1.2c-0.7,1.1-1.1,2.3-1.5,3.5c-0.7,2.1-0.8,4.2-0.1,6.3c0.2,0.5,0.3,1.1,0.4,1.6
			C405.6,172.1,406.1,174.3,406.7,176.7z M166,128.5c-0.4-1.3-0.7-1.9-1.4-2.4c-2.6-1.9-5-4-7.7-5.7c-0.6-0.4-1.2-0.8-1.7-1.3
			c-0.6-0.4-0.7-1.1-0.3-1.7c0.3-0.5,1-0.7,1.7-0.3c0.2,0.1,0.4,0.3,0.6,0.4c2.2,1.6,4.4,3.2,6.6,4.8c0.8,0.6,1.6,1.3,2.2,2.2
			c0.5,0.6,1,1.2,1.6,1.8c0.2,0.2,0.5,0.5,0.8,0.3c0.4-0.2,0.4-0.7,0.2-1.1c-0.3-0.7-0.6-1.5-1.1-2.1c-1.7-2-3.5-3.9-5.7-5.5
			c-1.3-0.9-2.6-1.8-4-2.6c-0.6-0.4-0.7-0.9-0.5-1.4c0.2-0.6,0.8-0.9,1.5-0.8c0.7,0.1,1.1,0.6,1.7,0.8c0.1,0,0.3-0.1,0.5-0.1
			c0.4-0.5,0.7-1,0.5-1.6c-0.5-0.5-1-0.6-1.6-0.7c-3.9-0.4-7.5,0.1-10.5,3c-1.6,1.5-2,3.2-1,5.1c0.7,1.4,1.2,2.8,1.1,4.3
			c0,0.5-0.1,1.1,0.3,1.6c0.5,0.1,0.8-0.1,1-0.5c0.4-0.9,1.1-1.5,1.7-2.3c0.7-0.9,2.6-1.4,3.2-0.8c1.2,1.1,2.6,1.8,3.9,2.8
			C161.5,126.2,163.5,127.3,166,128.5z M90.3,80.8c-0.6,0.2-0.7,0.7-1,0.9c-1.5,1-1.6,2.6-1.7,4.2c0,0.6,0.1,1.1,0.2,1.7
			c0,0.5,0.1,1,0,1.4c-0.8,2.4-0.6,5.1-1.8,7.4c-0.1,1.3-0.8,2.4-1.6,3.4c-0.3,0.4-0.6,0.7-0.8,1.2c-0.2,0.3-0.4,0.7,0,1.1
			c0.3,0,0.6-0.1,0.9-0.1c3.6-0.5,6.9-1.8,10.4-2.5c0.1,0,0.2,0,0.2-0.1c0.7-0.3,1-0.7,0.9-1.5c-0.3-1-0.6-2-0.9-3
			c-0.4-1.5-0.6-3-1.2-4.4c-1-2.5-1.8-5.1-2.5-7.7C91.2,82.2,91,81.4,90.3,80.8z M35.8,213.5c-0.8-0.4-1.5-0.7-2.1-1.1
			c-2.3-1.4-2.9-3.5-2-5.9c0.4-1,1.1-1.6,1.8-2.2c0-0.6-0.4-0.8-0.6-1.2c-0.4-0.7-0.1-1.3,0.7-1.4c0.4,0,0.8,0,1.2,0.1
			c0.4,0,0.6-0.1,0.5-0.6c-0.6-0.2-1.3-0.5-1.9-0.8c-0.5-0.2-0.7-0.7-0.6-1.2c0.2-0.6,0.5-1.2,0.7-1.7c-0.3-0.9-1-1.6-1.1-2.6
			c-0.1-1-0.1-2-0.2-3.2c-1.7,0.7-3.3,0.7-4.9,1c-0.2,0.5-0.4,1-0.4,1.4c-0.4,2.9-1,5.8-0.7,8.8c0.3,3,0.8,5.8,2.9,8.1
			c1,1.2,2.2,2,3.7,2.6C33.7,214,34.6,214,35.8,213.5z M129.5,159.3c-0.6,0.2-0.7,0.6-0.7,1c0,0.3,0.1,0.7,0.2,0.9
			c0.5,0.5,0.9,1.1,1.5,1.5c1.4,0.9,2.8,1.8,4.2,2.7c1.1,0.7,2.2,1.3,3.2,2.1c1.4,1.2,2.8,2.3,4.5,3.1c0.9,0.4,1.6,1.2,2.5,1.8
			c1.4,1,2.8,2.1,4.2,3.1c1.5,1,2.6,2.4,4.2,3.1c3.1,1.4,5.6,3.6,8.4,5.4c0.3,0.2,0.6,0.6,0.9,0.8c1.1,1,2.3,1.9,3.7,2.6
			c0.4,0.2,0.8,0.2,1.1-0.2c0.2-0.4,0.3-0.8-0.1-1.1c-0.5-0.4-0.9-0.9-1.5-1.2c-1.5-0.8-2.8-1.8-4-3c-0.3-0.3-0.6-0.6-0.9-0.7
			c-2.2-1-3.9-2.8-5.9-4c-0.7-0.5-1.5-0.9-2.2-1.4c-1.8-1.4-3.7-2.8-5.7-3.9c-1-0.5-2-1-2.7-1.9c-0.2-0.3-0.6-0.5-1-0.6
			c-1-0.3-1.8-1-2.6-1.6c-1.3-1-2.4-2.3-4.1-2.8c-0.3-0.1-0.6-0.3-0.8-0.5c-0.8-1.1-2.1-1.7-3.1-2.6
			C131.9,160.6,130.6,160.2,129.5,159.3z M514.6,309.8c1.3,0.4,2.5,0.5,3.8,0.2c0.7-0.2,1.4-0.3,2.1-0.2c1.6,0.2,3.1-0.5,4.7-0.6
			c0.7,0,1.2-0.5,1.3-1.2c0.3-1.1,0.2-2.3-0.5-3.2c-0.6-0.8-1.3-1.6-2.2-2.2c-0.8-0.7-1.8-0.8-2.9-0.6c-2.2,0.4-4.3,1.1-6.3,2
			c-0.9,0.4-1.1,0.7-0.9,1.7C513.9,307,514.2,308.3,514.6,309.8z M436.1,176.3c-0.1,0.2-0.3,0.4-0.3,0.7c-0.1,1.2-0.8,2.1-1.6,2.9
			c-0.9,0.8-1.9,1.1-3.1,1.2c-0.6,0-1.1,0-1.7,0.1c-0.8,0.2-1.4,0.9-1.4,1.7c0,1,0.2,1.9,1,2.6c1.3,1.2,2.8,2.2,4.7,1.6
			c0.5-0.1,1-0.1,1.4-0.2c2.3-0.5,4.6-3.3,4.3-5.6c-0.2-2-1.1-3.6-2.7-4.9C436.6,176.3,436.3,176.3,436.1,176.3z M529.2,308.1
			c0.2,0,0.3,0.1,0.5,0c1.4-0.6,2.8-1.1,4.3-0.8c0.4,0.1,0.9-0.1,1.4-0.2c0.7-0.2,1-0.8,0.8-1.5c-0.2-0.7-0.8-1.2-0.8-2
			c-0.1-1.5-0.8-2.9-1.2-4.4c-0.3-1.1-0.8-1.3-2-1.1c-2.1,0.5-4.2,1-6.3,1.5c-0.4,0.1-0.8,0.2-0.7,0.7
			C527.5,303,528,302,529.2,308.1z M25.4,209.9c-0.9-1.8-1-3.6-1.3-5.3c0-0.2,0-0.5-0.1-0.7c-0.5-2.1-0.3-4.3-0.1-6.4
			c0.1-1.9,0.5-3.8,0.6-5.7c0.1-2.2,0.4-4.4,1.3-6.5c0.2-0.4,0.3-0.9,0.4-1.4c0.1-0.5-0.1-0.9-0.6-1.2c-0.5-0.3-1-0.2-1.3,0.2
			c-0.3,0.4-0.5,0.8-0.7,1.2c-0.9,1.8-1.2,3.8-1.6,5.7c-0.5,2.5-0.7,5-1.2,7.5c-0.2,1.3-0.2,2.6,0.1,3.8c0.5,2.2,1.2,4.3,1.9,6.4
			c0.3,0.9,0.9,1.7,1.7,2.2C24.7,210,24.9,209.9,25.4,209.9z M56.3,183.1c-1-0.2-1.8-0.5-2.7-0.6c-0.9-0.2-1.5,0.2-1.8,1.1
			c-0.5,1.5-0.9,3.1-1.3,4.6c-0.3,1.1,0,1.7,1.1,2c2.4,0.9,4.9,1.4,7.4,1.8c0.4,0.1,0.8,0.1,1.1-0.2c0.2-0.5-0.2-0.9-0.4-1.3
			c-0.3-0.6-0.6-1.1-1-1.6c-0.5-0.6-0.8-1.3-1.1-2.1C57.2,185.6,56.8,184.3,56.3,183.1z M84.1,167c-0.6-0.6-1.3-0.5-1.8-0.9
			c-1-0.7-2.1-0.6-3.2-0.3c-0.6,0.2-1.2,0.3-1.8,0.5c-3,1.1-6.1,1.8-9.2,2.6c-0.5,0.1-0.9,0.2-1.4,0.4c-1.5,0.7-3.1,1.1-4.8,1.5
			c-1.2,0.3-2.5,0.6-3.5,1.2c0,0.9,0.6,1.2,1.2,1.6c0.3,0,0.6-0.1,0.9-0.2c1.5-0.4,2.9-1,4.4-1c0.2,0,0.5-0.1,0.7-0.2
			c1-0.7,2.2-0.8,3.4-1.1c1.4-0.4,2.8-0.7,4.2-1.1c0.8-0.2,1.6-0.7,2.5-0.9c1.5-0.4,3-0.7,4.4-1C81.3,167.9,82.7,167.5,84.1,167z
			 M497.2,314c1.8-0.4,3.7-0.7,5.5-1.1c2-0.5,4-1,6-1.5c0.9-0.2,2.1,0.1,2.7-0.6c0.8-0.9-0.1-2-0.1-3c0-1.3-0.7-2.4-1.3-3.4
			c-0.6-0.1-0.9,0.1-1.2,0.4c-1.1,1-2.3,2-3.4,3c-1.7,1.6-3.6,3.1-5.8,4.1C498.6,312.3,497.8,312.9,497.2,314z M530.1,340.7
			c0.7,0.2,1,0,1.2-0.1c0.8-0.6,1.6-1.3,2.5-1.9c0.4-0.3,0.5-0.8,0.4-1.3c-0.4-3.5-0.9-6.9-1.4-10.4c0-0.1-0.2-0.2-0.4-0.4
			c-0.8,0.2-1.7,0.2-2.5,0.9c-0.1,3.4-0.2,6.8-0.2,10.2C529.8,338.7,530,339.7,530.1,340.7z M121.5,142.5c0-0.8,0-1.5,0-2.2
			c0-0.3-0.3-0.6-0.6-0.6c-1.6,0.2-3,0.9-3.6,2.3c-1.1,2.5-1,5.1,0.4,7.5c0.4,0.7,0.9,0.9,1.6,0.5c0.9-0.4,1.7-0.8,2.5-1.3
			c0.7-0.4,0.9-0.8,0.5-1.6C121.5,145.8,121.3,144.1,121.5,142.5z M539.3,296.8c-0.3-0.1-0.4-0.1-0.6-0.1c-1.9,0.3-2.3,0.6-1.9,2.6
			c0.4,2,1.4,3.8,1.5,5.8c0.1,1.1,0.6,1.3,1.7,1c0.4-0.1,0.8-0.2,1.1-0.4c0.6-0.2,0.8-0.7,0.6-1.3
			C541.1,301.9,540.6,299.3,539.3,296.8z M145.9,127.5c-1,0.3-2.3,0.2-3.5,0.5c-1.4,0.3-2.9,0.6-4.2,1.4c-2,1.2-3.9,2.7-6.2,3.6
			c-0.4,0.1-0.9,0.4-1,0.9c0.7,0.4,1.2,0,1.8-0.2c2.1-0.8,4.2-1.6,6.3-2.2c2.1-0.6,4.2-1.4,6.5-1.6c0.2,0,0.3-0.1,0.5-0.1
			c0.5-0.2,0.8-0.7,0.6-1.4C146.6,128.1,146.5,127.8,145.9,127.5z M41.1,190.1c-0.5-0.2-0.8,0.1-1.1,0.4c-0.9,0.7-1.8,0.9-2.9,1
			c-0.3,0-0.6,0-1,0.1c-0.7,0.1-1.3,0.8-1.4,1.4c-0.1,1.2,0,2.2,1.2,2.9c0.9,0.5,1.8,1,2.7,1.5c0.2,0.1,0.4,0.2,0.9-0.2
			c0.5-0.7,0.4-1.8,0.8-2.9c0.5-1.3,0.6-2.6,0.9-3.9c0-0.1,0-0.2-0.1-0.2C41.3,190.2,41.2,190.2,41.1,190.1z M143.8,124.9
			c-2.1-3.4-1.9-4.6-1.9-7.7c-0.7-0.3-1.3-0.1-1.7,0.4c-1.9,2-2.4,3.9-0.9,6.8c0.3,0.6,0.9,0.9,1.5,1.1
			C141.9,125.5,142.9,125.5,143.8,124.9z M27.4,189.6c0.4,0.2,0.7,0.4,0.9,0.4c1.8-0.4,3.6-0.8,4.7-2.4c0.2-0.3,0.3-0.6,0.3-0.9
			c0.1-0.6-0.1-1.2-0.7-1.4c-1.1-0.4-2.1-1.1-3.4-1c-0.3,0.5-0.7,1-0.8,1.5C28,186.9,27.7,188.2,27.4,189.6z M38.1,174.1
			c-1.8-0.7-2.3-0.6-2.7,0.6c-0.6,1.6-1.2,3.3-1.7,4.9c-0.2,0.8-0.2,1.6-0.1,2.4c0.1,0.4,0.4,0.6,0.9,0.7c0.4,0.1,0.8-0.1,0.9-0.6
			C36.2,179.5,37.1,176.8,38.1,174.1z M342.4,180.8c-2.2-1.5-4.5-2.5-6.9-3.4c-0.3-0.1-0.6-0.1-0.9,0.3c0.2,1.4,0.9,2.4,2.4,2.8
			c0.9,0.2,1.7,0.7,2.4,1.4c1.5,1.6,2,1.5,3-0.6C342.5,181.2,342.4,181.2,342.4,180.8z M520.6,343.6c0.3,0.1,0.6,0.2,0.9,0.2
			c1.5,0.3,3,0,4.5,0c1.5,0,2.6-0.8,3.5-2.4c-2.5-0.4-4.9-0.4-7.2,0.5C521.6,342.3,520.8,342.6,520.6,343.6z M42.4,177.1
			c0-0.7-0.2-1.3-0.8-1.7c-0.3-0.2-0.9-0.2-1.1,0.1c-1.2,1.6-2.2,3.3-2.4,5.3c-0.1,0.4,0.4,0.8,0.7,0.7c0.2,0,0.3,0,0.5-0.1
			c1.5-0.8,2.3-2.2,2.9-3.6C42.4,177.6,42.4,177.3,42.4,177.1z M48.1,189.1c0-1.3,0-2.3,0.1-3.3c0.1-1.1,0.8-2,0.7-3.2
			c-0.8-0.2-1.4-0.1-1.9,0.3c-0.7,0.5-1.1,1.1-1.2,2c-0.1,1,0,1.9,0.3,2.8C46.3,188.5,47,188.9,48.1,189.1z M525.4,346.9
			c-0.5-0.5-1.2-0.4-1.8-0.4c-1.5,0.1-3,0.1-4.5,0.3c-0.4,0-0.6,0.5-0.6,0.9c0,0.5,0.3,1,0.8,1c1.5,0.1,3,0.1,4.5,0.1
			C525,348.7,525.2,348.4,525.4,346.9z M88.3,121.9c0-1-0.2-1.7-0.6-2.2c-0.6-0.8-0.9-1.7-1.1-2.6c-0.3-1.7-1.3-3.1-2.2-4.5
			c-0.2-0.3-0.5-0.7-1-0.4c-0.3,0.2-0.3,0.5-0.4,0.8c0,0.8,0.2,1.4,0.7,1.9c0.5,0.5,1.1,1,1.3,1.7c0.5,1.3,1.4,2.3,1.8,3.6
			C87.1,120.8,87.4,121.5,88.3,121.9z M42.6,187.2c0.3-1.1,0-2,0.4-2.8c0.4-0.8,0.7-1.7,0.5-2.9c-1.7,0.9-3.2,1.8-4.7,2.6
			c-0.1,0-0.1,0.3-0.1,0.4c0.5,0.6,1.4,0.3,1.9,1C41.1,186.2,41.7,186.7,42.6,187.2z M53.6,87.6c0-1.8-0.4-4.1-0.8-5.1
			c-0.1-0.2-0.2-0.4-0.4-0.6c-0.3-0.4-0.9-0.5-1.3-0.2c-0.5,0.4-0.8,0.8-0.6,1.4c0.2,0.6,0.5,1.2,0.6,1.8
			C51.3,86.4,52.2,87,53.6,87.6z M87.7,79.4c0.8-0.5,0.7-1.3,0.7-1.9c0.1-1,0-2-0.7-2.9c-0.2-0.3-0.6-0.5-1-0.5
			c-0.4,0-0.8,0.6-0.8,1c0,0.4,0.1,0.8,0.3,1.1c0.5,0.8,0.8,1.7,1.1,2.6C87.3,79.1,87.5,79.2,87.7,79.4z M339.7,352
			c-1.7-0.1-2.7,0.1-3.7,0.8c-0.6,0.4-0.9,1-0.7,1.3c0.3,0.3,1,0.5,1.5,0.3c0.2-0.1,0.5-0.2,0.6-0.4
			C337.9,353.2,338.7,352.8,339.7,352z M45.8,177.2c-0.3,2,0.1,2.6,1.7,2.5c0.4,0,0.8-0.1,1.2-0.2c0.2-0.1,0.4-0.3,0.4-0.5
			c0-0.2-0.1-0.5-0.2-0.6C47.9,177.8,47,177.3,45.8,177.2z M144.4,119.7c0.1,1.3,0.5,2.5,1.4,3.4c0.2,0.2,0.4,0.3,0.6,0.1
			c0.1-0.1,0.2-0.3,0.2-0.4c-0.5-1.3-1.1-2.6-1.3-4c0-0.1-0.3-0.2-0.4-0.2c-0.1,0-0.3,0.1-0.4,0.2
			C144.5,119.1,144.4,119.4,144.4,119.7z M37.2,188.8c0.5,0,1-0.1,1.2-0.6c0.2-0.4-0.2-0.8-1-1.1c-0.2-0.1-0.5-0.1-0.7-0.1
			c-0.3,0-0.8,0.6-0.7,1.1c0,0.3,0.2,0.6,0.6,0.6C36.8,188.8,37,188.8,37.2,188.8z M35.1,210.3c0.1-1.3-0.5-2.1-1.1-3
			c-0.7,0.3-0.6,0.8-0.5,1.2C33.7,209.4,34.1,210,35.1,210.3z M338.4,220.4c0.4,0,0.8,0,1-0.4c0.1-0.2,0.2-0.5,0.2-0.6
			c-0.1-0.2-0.4-0.4-0.5-0.3c-0.5,0.1-0.9,0.2-1.3,0.6c-0.1,0.2-0.1,0.5,0.1,0.6C338.1,220.3,338.2,220.4,338.4,220.4z M89,166.9
			c-0.9-0.4-1.5-0.4-2.3,0.1C87.5,167.5,88.1,167.5,89,166.9z M167.8,119.9c-0.1-0.8-0.4-1.3-1-1.6c-0.1-0.1-0.3,0-0.4,0.1
			c-0.1,0.1-0.1,0.3,0,0.4C166.6,119.3,166.9,119.7,167.8,119.9z M164.7,116.8c0-0.4-0.5-0.9-0.9-0.9c-0.1,0-0.1,0.1-0.2,0.1
			c-0.1,0.3,0.1,0.5,0.3,0.8c0.2,0.2,0.3,0.3,0.6,0.2C164.6,117,164.7,116.9,164.7,116.8z"></path>
		<path d="M420.5,197.5c-1.1-0.2-1.8-0.5-2.1-1.4c0.1-0.6,0.6-0.9,0.9-1.3c1-1.3,1.7-2.7,0.9-4.4c-0.3-0.6-0.3-1.2,0.1-1.9
			c0.6-0.4,1.3-0.5,2.1-0.3c0.5,1,0.9,2.1,0.9,3.3c0,0.7-0.1,1.4-0.5,2.1C422,194.9,421.3,196.2,420.5,197.5z"></path>
		<path d="M429.5,168.2c0.4,0,0.8-0.1,1.1,0c0.7,0.1,1,0.5,0.9,1.1c0,0.2-0.1,0.5-0.1,0.7c-0.2,0.5-0.5,1-1.1,1.1
			c-0.6,0.1-1.1-0.2-1.4-0.7C428.8,169.7,429.2,169.1,429.5,168.2z"></path>
		<path d="M187.3,181.7c2.1,0.7,4.3,0.3,6.4,0.3c1.8,0,3.7-0.2,5.5-0.2c1,0,2.1,0,3.1,0c2.1,0.1,4.3-0.3,6.4,0.1
			c0.5,0.1,1.1,0,1.7-0.1c1.2-0.1,2.4,0,3.6-0.1c2.2-0.1,4.4,0.5,6.7,0c0.3-0.1,0.6,0,1,0c4.2,0.4,8.4-0.3,12.7,0
			c0.7,0,1.4-0.1,2.1,0.3c0.4,0.2,0.6,0.5,0.6,1c0,0.5-0.3,0.7-0.7,0.8c-0.2,0-0.5,0.1-0.7,0.1c-2.3,0.1-4.6,0.3-6.9,0.4
			c-0.6,0-1.1,0-1.7-0.1c-0.6-0.1-1.3-0.1-1.9,0c-2.9,0.5-5.9,0.2-8.8,0.3c-0.9,0-1.7,0-2.6,0c-1.2,0.1-2.4,0.1-3.6,0
			c-1.4-0.2-2.7,0.4-4,0.4c-1.3-0.1-2.5-0.4-3.8-0.3c-1.2,0.1-2.4,0.5-3.6,0.4c-2.1-0.2-4.1-0.1-6.2-0.1c-0.9,0-1.7-0.2-2.6-0.3
			c-0.9-0.1-1.5,0.2-2,1c-1.2,2.1-2.5,4.1-3.7,6.1c-0.5,0.8-1,1.6-1.6,2.4c-0.9,1.2-1.8,2.4-2.3,3.9c-0.1,0.4-0.4,0.9-0.7,1.3
			c-1.8,2.2-2.8,4.8-4.1,7.2c-1.3,2.3-2.7,4.5-4.2,6.7c-0.7,1-1.7,1.1-2.7,1c-0.6-0.4-0.7-1-0.8-1.5c-0.2-1.7-0.2-3.5-0.3-5.2
			c-0.1-1.6-0.3-3.2-0.5-4.8c-0.1-0.6-0.5-1-1.1-1.1c-0.5-0.1-1.1,0-1.7,0c-0.5,0-0.9,0.1-1.4,0.2c-0.6,0.1-1.1-0.2-1.4-0.8
			c-0.3-0.6-0.2-1.3,0.2-1.8c0.1-0.2,0.4-0.3,0.6-0.3c2.2,0.6,4.4,0.6,6.6,1c0.5,1.3,0.6,2.5,0.5,3.8c-0.1,1.8,0.5,3.4,1.1,5.1
			c0.7-0.3,1-0.9,1.4-1.4c1.5-2.4,2.9-4.8,4.4-7.1c0.7-1,0.7-2.3,1.6-3.2c0.8-0.8,1.3-1.8,1.9-2.7c0.8-1.3,1-2.8,2-4
			c1-1.2,1.7-2.5,2.5-3.8c0.6-0.9,1.1-2,1.6-2.9C186.3,182.8,186.6,182.3,187.3,181.7z"></path>
		<path d="M234.2,196c1.1,0,1.9,0,2.6,0c0.6,0,1,0.5,1.1,1.1c0.2,0.8-0.2,1.4-1,1.5c-0.6,0.1-1.3,0.1-1.9,0.1
			c-0.9,0.1-1.4,0.7-1.6,1.5c-0.1,0.5-0.1,1.1-0.2,1.7c-0.2,2.1-1.2,3.8-2.7,5.2c-1.3,1.1-3.4,1.3-4.9,0.5c-0.8-0.4-1.3-1.9-1.1-3
			c0.3-1.1,0.7-2.1,1.4-3c0.5-0.7,1.2-1.3,1.4-2.3c-0.5-0.1-1.1-0.2-1.6-0.4c-2.2-0.8-3.2-2.9-2.6-5.2c0.1-0.3,0.2-0.6,0.3-0.9
			c0.2-1.1,0.9-1.4,2-1.3c0.5,0.7,0.6,1.6,0.4,2.5c-0.1,0.4-0.2,0.8-0.2,1.2c-0.1,0.9,0.7,1.5,1.5,1.2c0.5-0.2,1.1-0.4,1.4-0.8
			c0.9-1.1,2.2-1.8,3-3.1c0.3-0.5,0.7-0.7,1.2-0.5c0.6,0.2,1.2,0.5,1.4,1.2C234.2,194,234.2,194.9,234.2,196z M230.4,200.9
			c-2.3,0.7-3,2.4-3.6,4.1c-0.1,0.3,0.1,0.6,0.4,0.8c0.3,0.2,0.6,0.2,0.9,0C229.6,204.7,230.5,203.2,230.4,200.9z"></path>
		<path d="M234.5,162.6c-1.2-0.6-2.4-0.1-3.5,0c-1.5,0.1-3,0.1-4.5,0.1c-3.1,0-6.2,0-9.3,0.2c-3.3,0.2-6.7,0.2-10,0.2
			c-0.7,0-1.4-0.1-2.1-0.4c-0.5-0.2-0.8-0.6-0.8-1.1c0-0.5,0.3-0.9,0.7-1.2c0.6-0.3,1.2-0.5,1.8-0.3c1.2,0.3,2.4,0.2,3.6,0.1
			c4-0.3,8-0.3,12-0.2c2.6,0,5.1-0.1,7.7-0.2c0.8,0,1.6,0,2.4,0c0.9,0,1.7,0,2.6-0.2c0.8-0.3,1.6,0,2.3,0.3c0.5,0.2,0.7,0.6,0.8,1.1
			c0.1,0.5-0.2,1-0.7,1.1C236.4,162.4,235.4,162.5,234.5,162.6z"></path>
		<path d="M200.3,198c-0.4,0.3-0.8,0.6-1,0.8c-1.1,1.2-2.5,1.3-4,0.9c-0.6-0.2-0.8-0.5-0.8-1c0-0.6,0.4-1.2,0.9-1.3
			c0.3-0.1,0.6,0,0.9-0.1c2.5-0.2,3.1-1.6,3.4-4.1c0.1-0.4-0.3-0.7-0.7-0.9c-0.4-0.2-0.8-0.2-1.1,0.1c-0.2,0.2-0.4,0.5-0.7,0.7
			c-0.7,0.4-1.7-0.1-1.8-0.9c-0.1-0.6,0-1.1,0.5-1.5c0.9-0.9,1.9-1.4,3.2-1.1c1.1,0.3,2.1,0.6,2.9,1.6c1.2-0.6,2.3-0.9,3.5-1.1
			c0.8-0.1,1.4,0.2,2,0.6c0.4,0.3,0.5,1.1,0.3,1.6c-0.2,0.4-0.6,0.5-1,0.6c-0.4,0-0.8,0.1-1.2,0c-1-0.1-1.7,0.4-2,1.3
			c-0.2,0.5-0.4,1-0.5,1.6c-0.3,1.3,0.8,2.4,2.1,2.1c0.3-0.1,0.6-0.3,0.9-0.3c0.6-0.1,1.1,0.1,1.2,0.4c0.3,0.8,0.1,1.5-0.6,1.8
			C204.3,200.8,202.1,200.3,200.3,198z"></path>
		<path d="M214.9,143.6c1.1,0,2.2,0.3,3.3-0.2c0.2-0.1,0.5,0,0.7,0c3.2,0.6,6.5,0.1,9.8,0.3c3.2,0.2,6.4-0.3,9.6,0.3
			c0.4,0.1,0.8,0.1,1.2,0.3c0.3,0.1,0.4,0.4,0.4,0.8c0,0.3-0.2,0.6-0.5,0.8c-0.3,0.1-0.6,0.2-0.9,0.2c-1,0.1-1.9,0.2-2.9,0.3
			c-0.5,0-1,0.1-1.4,0c-1.4-0.4-2.8-0.5-4.2,0c-0.5,0.2-0.9,0-1.4-0.1c-0.4-0.1-1-0.3-1.4-0.2c-2.8,0.6-5.6,0-8.3,0.1
			c-2,0.1-4.1-0.1-6.2-0.2c-0.5,0-0.8-0.5-0.8-1.1c0-0.6,0.3-1.1,0.7-1.1C213.3,143.6,214.1,143.6,214.9,143.6z"></path>
		<path d="M217.3,135.2c1.4-0.5,2.8-0.4,4.2-0.3c2.2,0.1,4.3,0.2,6.4-0.2c0.5-0.1,1,0,1.4,0c2.9,0.3,5.7,0.2,8.6,0.2
			c1.3,0,2.5,0.1,3.8,0.2c0.6,0,0.9,0.4,0.9,0.9c0,0.6-0.3,1.1-0.9,1.2c-1.2,0.2-2.3,0.4-3.6,0.3c-2.1-0.3-4.3-0.2-6.4-0.1
			c-1.8,0.1-3.6,0.3-5.4,0c-1.7-0.3-3.5-0.2-5.2,0c-1,0.1-1.9-0.1-2.8-0.3C217.2,137,217.1,136.9,217.3,135.2z"></path>
		<path d="M208.5,152.5c0.1-0.1,0.3-0.2,0.4-0.2c2.2-0.1,4.4-0.3,6.6-0.4c1.8-0.1,3.7,0,5.5,0c1.2-0.1,2.4,0.2,3.5,0.5
			c0.4,0.1,0.6,0.4,0.7,0.9c0,0.5-0.2,0.7-0.6,1c-0.5,0.3-1,0.4-1.6,0.4c-2.9,0.1-5.9,0.2-8.8,0.3c-1.3,0-2.7-0.3-4,0.1
			c-0.2,0.1-0.5,0-0.7,0c-0.6-0.1-1.1-0.3-1.3-0.9C208.1,153.7,207.9,153.5,208.5,152.5z"></path>
		<path d="M212.6,193.5c0.6-0.3,1.1-0.1,1.7-0.2c0.5-0.1,0.9-0.2,1.4-0.2c0.9-1.6,0.9-1.6,2.3-1.6c0.6,0.5,0.3,1.4,1,2.1
			c0.5,0.5,2.1,0.3,1.6,1.9c-0.2,0.3-0.5,0.4-0.8,0.4c-1.4,0-2.3,0.6-2.7,1.9c-0.1,0.2-0.3,0.4-0.4,0.6c-0.5,0.5-1.6,0.3-1.8-0.4
			c-0.2-0.5-0.2-1.1-0.3-1.5c-0.6-0.8-1.5-0.4-2-1C212.2,194.8,212.1,194.1,212.6,193.5z"></path>
		<path d="M232.8,254.8c-0.5-0.4-0.8-0.7-0.8-1.1c-0.1-0.7,0-1.2,0.6-1.4c2.3-0.7,4.2-2.1,6.6-2.8c2.7-0.7,5.4-2,8-3
			c0.2-0.1,0.4-0.3,0.6-0.3c1.9-0.2,3.7-1,5.4-1.7c1.8-0.7,3.6-1.3,5.4-2c1.7-0.7,3.3-1.6,5.1-1.9c1.8-1.2,4-1.4,6.1-2.1
			c1.9-0.7,3.9-1.4,5.7-2.4c0.2-0.1,0.4-0.2,0.7-0.3c2.7-0.9,5.4-2,8.2-2.6c0.9-0.2,1.7-0.4,2.5-0.9c0.3-0.2,0.6-0.3,0.9-0.4
			c2.3-0.8,4.7-1.6,7-2.4c0.7-0.2,1.4-0.4,2.1-0.3c0.5,0,0.9,0.3,1.1,0.8c0.2,0.5,0.2,1.1-0.3,1.6c-0.7,0.6-1.4,1-2.3,1.3
			c-1,0.3-2,0.6-3,0.9c-0.5,0.2-1.2,0.3-1.5,0.7c-1.2,1.5-3,1.7-4.5,2.4c-1.6,0.7-3.3,1.1-4.8,2c-0.8,0.5-1.8,0.5-2.7,0.8
			c-2.7,0.8-5.1,2.2-7.8,2.9c-0.6,0.1-1.2,0.5-1.8,0.8c-0.4,0.2-0.8,0.5-1.3,0.6c-2.6,0.7-4.9,1.9-7.4,2.6c-1.5,0.4-3,1.1-4.5,1.7
			c-1.2,0.5-2.3,1.1-3.6,1.2c-0.4,0-0.7,0.3-1.1,0.5c-1,0.6-2.1,1.2-3.3,1.3c-0.4,0-0.8,0.2-1.1,0.4c-2.1,1.5-4.6,1.8-6.9,2.7
			c-0.3,0.1-0.7,0.2-0.9,0c-0.7-0.8-1.5-0.5-2.2-0.3C235.5,254.1,234.2,254.4,232.8,254.8z"></path>
		<path d="M311,264.3c0.5,1.3,0.2,2.1-0.8,2.9c-0.9,0.6-1.7,1.2-2.8,1.3c-0.2,0-0.3,0-0.5,0.1c-2.4,0.9-4.7,1.8-7.1,2.8
			c-0.7,0.3-1.4,0.7-2.2,1c-3.6,1.2-7.3,2.4-10.9,3.6c-0.6,0.2-1.2,0.4-1.8,0.7c-2.1,1.1-4.2,2.1-6.5,3c-1,0.4-2,0.6-3,0.9
			c-2.3,0.6-4.5,1.6-6.8,2.2c-0.4,0.1-0.9,0.4-1.2,0.7c-1.1,0.9-2.4,1.4-3.7,1.7c-1.7,0.4-3.4,1-4.9,1.8c-2.1,1-4.3,1.5-6.5,2.3
			c-0.3,0.1-0.7,0.3-0.9,0.2c-0.8-0.3-1.4,0.1-2,0.5c-0.3,0.2-0.5,0.4-0.8,0.5c-0.4,0.2-0.8,0-1.1-0.3c-0.2-0.3-0.4-0.7-0.5-1.1
			c-0.2-0.7,0-1.1,0.6-1.3c1.3-0.4,2.6-0.8,3.9-1.3c0.5-0.1,0.9-0.3,1.3-0.5c1.1-0.7,2.2-1.5,3.7-1.6c0.4,0,0.7-0.4,1.1-0.5
			c0.4-0.2,0.9-0.5,1.3-0.6c3.3-0.8,6.5-2.1,9.8-3c0.6-0.2,1.1-0.4,1.3-1c0.2-0.9,0.9-1.1,1.6-1.3c1.4-0.3,2.5-0.8,3.8-1.5
			c1.1-0.6,2.4-1,3.6-1.3c1.5-0.5,3.1-0.8,4.6-1.3c0.8-0.2,1.5-0.5,2.3-0.8c3-1.1,6-2.2,8.9-3.4c2.6-1.1,5.5-1.5,8.1-2.8
			c0.5-0.2,1.1-0.3,1.6-0.5c0.7-0.3,1.6-0.5,2.2-1C308,264.2,309.4,264.1,311,264.3z"></path>
		<path d="M240.3,272.2c-0.8,0-1.5-0.7-1.5-1.6c0-0.3,0.1-0.6,0.4-0.8c1.4-0.9,2.8-1.9,4.4-2.3c2.6-0.7,5-1.8,7.6-2.2
			c0.2,0,0.3-0.1,0.5-0.1c2.2-1.4,4.7-2,7.1-2.9c0.6-0.2,1.2-0.4,1.8-0.6c1-0.2,2-0.5,3-0.9c2.6-0.9,5.1-1.9,7.7-2.7
			c3.4-1.1,6.8-2.4,10.2-3.3c1.1-0.3,2.2-1,3.4-0.9c0.4,0,0.8,0.1,1,0.5c0.4,0.6,0.4,1.2,0,1.7c-0.5,0.6-1.2,0.8-1.9,1
			c-3,0.9-6,1.8-8.9,2.8c-2.3,0.7-4.5,1.6-6.8,2.4c-0.9,0.3-1.8,0.6-2.7,0.8c-0.8,0.2-1.5,0.5-2.3,0.8c-1,0.4-1.9,0.8-2.9,1.2
			c-0.1,0.1-0.3,0.1-0.4,0.2c-2.1,1.5-4.6,1.7-6.9,2.4c-0.2,0.1-0.5,0.1-0.7,0.2c-2,1.1-4.2,1.5-6.2,2.4c-1.3,0.6-2.7,1-4,1.5
			C241.6,272.1,241,272.3,240.3,272.2z"></path>
		<path d="M255,303.4c-0.7,0-1.2-0.4-1.4-1.1c-0.2-0.6,0.1-1.1,0.5-1.5c0.6-0.5,1.2-0.7,1.9-0.9c1.2-0.4,2.4-0.7,3.7-1.1
			c0.4-0.1,0.8-0.2,1.1-0.4c2.2-1.3,4.8-1.8,7.2-2.6c1-0.3,2-0.5,3-0.9c2.5-1.2,5.3-1.7,7.8-2.9c2.3-1,4.8-1.7,7.2-2.5
			c0.7-0.2,1.4-0.4,2.1-0.4c0.4,0,0.8,0.1,1,0.5c0.2,0.4,0.2,1-0.2,1.3c-0.7,0.6-1.4,1.3-2.4,1.5c-2.1,0.4-4,1.6-6,2.3
			c-0.4,0.2-0.9,0.3-1.3,0.5c-1.3,0.4-2.6,0.8-3.8,1.4c-0.8,0.4-1.7,0.8-2.7,0.9c-0.6,0.1-1.2,0.3-1.8,0.6c-2.8,1.1-5.7,2-8.6,2.8
			c-1.2,0.3-2.4,0.7-3.5,1.4C257.6,303.1,255.9,303.4,255,303.4z"></path>
		<path d="M300.6,141.5c-1,0-2.6,0.2-4.1,0c-2.2-0.3-4.4-0.1-6.7,0c-2.1,0.1-4.2,0-6.2,0.2c-1.1,0.1-2.2,0-3.4,0
			c-1.9-0.1-3.8-0.1-5.7,0.1c-1.1,0.1-2.2,0.2-3.4,0.2c-0.8,0-1.2-0.5-1.3-1.4c0-0.5,0.3-1,0.8-1.1c0.2,0,0.5-0.1,0.7-0.1
			c2.2,0.3,4.5-0.1,6.7,0c0.6,0,1.1,0,1.7-0.1c2.8-0.6,5.6-0.3,8.4-0.4c3.7-0.1,7.3,0.1,11-0.4c2.7-0.3,5.4-0.2,8.1-0.1
			c3.4,0.1,6.9-0.2,10.3-0.3c3.8-0.1,7.5-0.1,11.3-0.1c1.5,0,3,0.1,4.5,0.1c0.6,0,0.9,0.3,1,0.8c0.1,0.7-0.1,1.1-0.8,1.3
			c-0.5,0.1-1.1,0.2-1.7,0.2c-2.8,0-5.6,0-8.4,0.5c-0.6,0.1-1.3,0-1.9,0c-4.2,0-8.5,0-12.7,0.1C306.4,141.2,303.7,141.4,300.6,141.5
			z"></path>
		<path d="M320.9,150.7c-1.4,0-2.7-0.2-4,0.2c-0.2,0.1-0.5,0.1-0.7,0.1c-2.1-0.4-4.1,0.2-6.2,0.1c-2.1-0.1-4.1,0-6.2,0.1
			c-4,0.1-8,0.1-12,0.2c-5.8,0.1-11.6,0.3-17.5,0.4c-1.3,0-2.5,0.1-3.8,0.2c-0.4,0-0.7-0.3-0.8-0.7c-0.1-0.5-0.3-1.1,0.1-1.6
			c0.1-0.1,0.2-0.2,0.4-0.3c0.1-0.1,0.3-0.1,0.5-0.1c3,0.2,5.9-0.4,8.8-0.3c3.2,0.1,6.4,0.1,9.5-0.4c1.2-0.2,2.5-0.1,3.8,0
			c1.9,0,3.8,0.1,5.7,0c1.9-0.1,3.8,0.2,5.7-0.4c0.4-0.1,1-0.1,1.4-0.1c5.5,0,11-0.1,16.5-0.1c1.4,0,2.7,0.4,4,0.6
			c0.3,0,0.5,0.3,0.5,0.7c0,0.4-0.1,0.7-0.4,0.8c-1,0.3-2,0.7-3,0.6C322.5,150.6,321.7,150.7,320.9,150.7z"></path>
		<path d="M282.1,160c2.8-0.3,5.7-0.1,8.7-0.1c2.6,0,5.1-0.5,7.6-0.5c1.5,0,3-0.2,4.5-0.2c3.7,0,7.4,0,11,0c1.4,0,2.7,0,4.1,0
			c0.5,0,0.8,0.4,0.9,0.9c0.1,0.5-0.2,1-0.7,1.1c-0.6,0.1-1.3,0.1-1.9,0.1c-1.3,0-2.6,0.1-3.8,0c-1.8-0.1-3.5,0.6-5.2,0.5
			c-4.3-0.1-8.6,0.5-12.9,0.3c-3-0.1-6.1,0.1-9.1,0.1c-2.7,0-5.4,0.5-8.1,0.1c-0.6-0.1-1.3,0-1.9,0.1c-2.1,0.4-4.1,0.2-6.2,0.2
			c-0.9,0-1.3-0.6-1.1-1.4c0.1-0.3,0.2-0.6,0.6-0.7c0.8-0.1,1.6-0.3,2.4-0.4C274.6,160.1,278.3,160,282.1,160z"></path>
		<path d="M343.2,265c-0.1-0.3-0.1-0.6-0.2-0.9c0-0.5,0.2-0.8,0.6-0.9c0.5-0.2,1.1-0.3,1.6-0.3c1.5,0,3-0.1,4.5,0.1
			c1.2,0.2,2.6,0.2,3.8,0c1.8-0.3,3.7-0.2,5.5-0.3c1.7-0.1,3.3,0.2,5-0.3c0.6-0.2,1.4,0.1,2.1,0.1c2.9,0,5.7-0.1,8.6-0.2
			c1.7,0,3.4-0.1,5-0.1c3.4,0,6.9,0,10.3,0c1.2,0,2.4,0.2,3.6,0.4c0.4,0.1,0.7,0.3,0.7,0.8c0,0.5-0.3,0.8-0.7,0.8
			c-1.4,0.2-2.8,0.4-4.3,0.5c-2.2,0.1-4.5,0-6.7,0.1c-1.7,0.1-3.4-0.1-5,0.3c-0.7,0.2-1.5,0.1-2.1,0c-2.3-0.5-4.6-0.2-6.9,0
			c-1.8,0.2-3.5,0.2-5.3,0c-0.7-0.1-1.4-0.2-2.1-0.1c-1.9,0.3-3.8,0.3-5.7,0.2c-3.1-0.1-6.2,0-9.3,0
			C345.2,265.5,344.2,265.6,343.2,265C343.2,265.1,343.2,265,343.2,265z"></path>
		<path d="M246.5,84.2c1.9,0.3,4.4,0.2,7,0.7c1.8,0.4,3.2,1.4,4.6,2.4c1.2,0.9,1.7,3.7,1.2,5.1c-1.1,2.7-2.8,4.6-5.7,5.3
			c-1.2,0.3-2.4,0.8-3.6,1.2c-1.7,0.6-3.4,0.7-5.2,0.8c-1.7,0.2-3.5,0.1-5.3,0.1c-0.5,0-1,0-1.4-0.1c-2-0.5-4-1.1-5.8-2.1
			c-1.4-0.8-2.6-2-3-3.8c-0.2-0.8-0.1-1.4,0.3-2c1.7-2.4,3.6-4.5,6.2-5.8c0.2-0.1,0.4-0.3,0.7-0.3C239.6,85.3,242.6,84.2,246.5,84.2
			z M242.8,97.2c1.8-0.1,3.7,0.1,5.4-0.8c0.3-0.1,0.6-0.2,0.9-0.2c2.5-0.2,4.4-1.8,6.4-3c0.4-0.2,0.7-0.7,0.9-1.1
			c0.6-0.9,0.6-1.8,0-2.7c-0.2-0.3-0.5-0.6-0.8-0.9c-2.1-1.5-4.6-2.4-7.2-2.2c-2,0.1-4.1,0.2-6.2,0.5c-2.6,0.4-4.9,1.4-7.3,2.3
			c-0.6,0.2-1.1,0.7-1.6,1c-1.8,1.4-1.7,3.7,0.2,5c0.5,0.3,0.9,0.7,1.4,0.9c0.3,0.2,0.7,0.4,1.1,0.5
			C238.3,96.8,240.5,97.4,242.8,97.2z"></path>
		<path d="M276.3,106.6c-3.8-0.3-7.6,0.1-11.3,0c-0.4,0-0.8,0-1.2-0.1c-0.6-0.1-1.1-0.8-1-1.4c0-0.6,0.5-1.1,1.1-1.1
			c2.4,0,4.8-0.6,7.1,0.1c0.6,0.2,1.3,0.2,1.9,0.2c2.2-0.1,4.5,0.3,6.7-0.3c1.6,0.3,3.2-0.2,4.8,0c1,0.2,2.1,0,3.1-0.1
			c0.8,0,1.6,0.1,2.3,0.5c0.6,0.3,0.6,1.2,0,1.6c-0.6,0.4-1.3,0.5-2.1,0.5c-2.6,0-5.1,0-7.7,0C278.8,106.5,277.5,106.4,276.3,106.6z"></path>
		<path d="M275.4,85.4c2.1,0.3,4.6,0.2,7-0.1c0.8-0.1,1.6,0.2,2.3,0.4c0.4,0.1,0.5,0.4,0.6,0.7c0.1,0.3,0,0.7-0.3,0.9
			c-0.3,0.2-0.7,0.5-1.1,0.5c-0.7,0.1-1.4,0.2-2.1,0.1c-2.4,0-4.8,0-7.2,0.3c-2.5,0.2-4.9,0.1-7.4,0.1c-0.7,0-1.3-0.2-1.7-0.6
			c-0.6-0.6-0.4-1.7,0.4-1.9c0.4-0.1,0.8-0.1,1.2-0.2C269.7,85.5,272.4,85.4,275.4,85.4z"></path>
		<path d="M274.9,96.4c-2.2,0.1-4.3-0.1-6.4,0.4c-1.1,0.2-2.2-0.2-3.3-0.5c-0.4-0.1-0.6-0.5-0.6-0.9c-0.1-0.9,0.2-1.4,1.1-1.5
			c1.7-0.1,3.4-0.2,5,0.1c1,0.2,1.9,0.2,2.9,0.1c2.2-0.2,4.3,0.1,6.4,0.4c0.5,0.1,0.8,0.5,0.7,1.1c0,0.6-0.3,1-0.8,1
			C278.3,96.4,276.6,96.4,274.9,96.4z"></path>
		<path d="M183.5,123.7c0.4,0.3,0.8,0.4,1.1,0.7c0.6,0.6,0.7,1,0.2,1.7c-0.7,1.1-1.4,2.4-2.2,3.4c-2.1,2.5-3.6,5.4-5.5,8.1
			c-1.7,2.4-3.3,4.8-4.9,7.3c-1.2,1.8-2.4,3.5-3.5,5.4c-0.8,1.4-1.8,2.6-2.7,3.9c-1.6,2.3-3.5,4.5-5,6.9c-0.9,1.6-2.3,3-3.6,4.5
			c-0.5,0.6-1,0.7-1.7,0.4c-1.1-0.5-1.2-1.2-0.5-2.1c2.2-2.8,4.4-5.6,6.1-8.8c0.3-0.7,0.8-1.2,1.3-1.7c1.6-2,2.8-4.2,4.5-6.2
			c1-1.1,1.4-2.6,2.2-3.9c0.9-1.5,1.7-3.1,3-4.3c0.2-0.2,0.5-0.5,0.6-0.8c0.9-2.5,2.8-4.2,4.3-6.2c1-1.2,1.8-2.6,2.7-3.9
			C180.9,126.6,181.8,124.9,183.5,123.7z"></path>
		<path d="M163.3,170.1c0.8-1.2,1.3-2.4,2.2-3.5c1.6-2.1,3.2-4.3,4.6-6.6c1.4-2.4,3.3-4.5,4.8-6.8c1.4-2.2,3.2-4.1,4.4-6.5
			c0.5-0.9,1.3-1.6,1.9-2.4c1-1.2,2-2.5,2.7-3.9c0.3-0.6,0.6-1.1,1-1.6c1.6-2.2,3.3-4.3,4.8-6.5c0.7-1,1.2-2.2,2.3-3
			c1,0.4,1,0.4,1.7,1.1c-0.2,0.8-0.5,1.5-1.1,2.1c-1.2,1.3-1.9,2.9-2.8,4.4c-0.9,1.4-1.8,2.8-2.8,4.2c-1.3,1.7-2.5,3.5-3.6,5.3
			c-1,1.6-2.2,3.1-3.3,4.7c-2.3,3.1-4.5,6.2-6.5,9.4c-0.5,0.8-1.2,1.5-1.7,2.3c-1.1,1.5-2.1,3.2-3.2,4.8c-0.8,1.2-1.5,2.4-2.6,3.4
			c-0.9,0.8-1.3,0.8-2.2,0.1C163.7,170.7,163.6,170.4,163.3,170.1z"></path>
		<path d="M167,136.8c0,0.2,0,0.5-0.1,0.8c-0.4,0.9-0.8,1.8-1.4,2.5c-1.1,1.1-1.8,2.4-2.6,3.7c-0.8,1.3-1.6,2.5-2.5,3.8
			c-0.4,0.5-0.7,1-1.3,1.4c-0.5,0.4-0.9,0.9-1.2,1.4c-2,3.2-4.3,6.2-6.4,9.2c-0.2,0.3-0.4,0.7-0.7,1c-0.5,0.5-1.2,0.6-1.7,0.2
			c-0.6-0.4-0.8-0.9-0.7-1.6c0.1-0.6,0.5-1,0.8-1.5c1.1-1.4,2.1-2.8,3.2-4.1c0.1-0.1,0.3-0.2,0.3-0.4c0.3-1.6,1.6-2.5,2.5-3.7
			c0.3-0.4,0.6-0.8,0.8-1.2c0.9-2.1,2.3-3.8,3.5-5.7c0.5-0.8,1.1-1.6,1.8-2.2c0.5-0.5,0.9-1.1,1.2-1.8c0.4-1,1-1.8,1.7-2.6
			c0.3-0.4,0.7-0.6,1.2-0.7C166.2,135.4,167,136,167,136.8z"></path>
		<path d="M444.2,167.2c-1.1,0.4-1.8,0.1-2.3-0.9c0.4-1,0.8-2,1.2-3c0.3-0.7,0.5-1.4,0.5-2.1c0.2-2.6,0-5.3-0.6-7.8
			c-0.2-0.8-0.6-1.5-1-2.2c-0.6-1.1-1.3-2.2-1.8-3.4c-0.4-0.9-1.1-1.5-2.1-1.8c-0.3-0.1-0.6-0.1-0.9-0.2c-0.6-0.2-0.8-0.7-0.7-1.3
			c0.1-0.5,0.4-0.9,0.9-1c0.9-0.2,1.8,0,2.5,0.6c1.2,1.2,2.5,2.2,3.4,3.7c1.1,1.7,1.8,3.6,2.3,5.5c0.5,1.8,0.8,3.7,0.9,5.7
			c0.1,1.9-0.3,3.7-0.8,5.4C445.4,165.3,444.7,166.3,444.2,167.2z"></path>
		<path d="M416.7,144c0.1-1.9,0.9-4.2,1.6-6.5c0.3-1.1,1.4-1.7,2.1-2.6c0.8-0.9,1.9-1.6,2.9-2.4c0.2-0.2,0.6-0.3,0.9-0.3
			c0.6-0.1,1.1,0.5,0.9,1.1c-0.1,0.3-0.3,0.6-0.5,0.8c-0.4,0.4-0.8,0.8-1.2,1.1c-1.5,1.1-2.5,2.6-3.2,4.4c-0.5,1.4-0.8,2.7-0.9,4.2
			c0,0.6,0.1,1.1,0,1.7c0,1.1-0.7,1.6-1.8,1.3c-0.5-0.1-0.8-0.5-0.9-1C416.7,145.3,416.7,144.9,416.7,144z"></path>
		<path d="M412.2,135.5c0.6,0,0.9,0.3,0.9,0.7c0.1,0.6,0.1,1.1-0.4,1.5c-0.3,0.3-0.7,0.7-0.9,1.1c-1.9,2.8-2.7,5.9-2.1,9.3
			c0.2,0.9-0.3,1.4-1.2,1.3c-0.4-0.1-0.7-0.3-0.8-0.7c-0.6-2.9-0.9-5.8,0.5-8.6c0.3-1.9,1.9-2.8,3-4.2
			C411.5,135.5,411.9,135.5,412.2,135.5z"></path>
		<path d="M436,133.6c-0.5,0.2-1,0.4-1.4,0.6c-0.9,0.5-1.8,1-2.3,2c-0.2,0.3-0.5,0.6-0.7,0.9c-0.8,0.8-1.2,1.8-1.3,3
			c0,0.5-0.1,0.9-0.2,1.4c-0.1,0.4-0.5,0.6-0.9,0.6c-0.4,0-0.8-0.1-1-0.5c-0.2-0.5-0.3-1.1,0-1.6c0.4-1,0.7-2.1,0.8-3.2
			c0.1-0.9,0.5-1.6,1.3-2.2c0.7-0.6,1.3-1.2,1.9-1.8c0.7-0.6,1.4-1,2.2-1.3c1.1-0.4,1.8,0.1,1.9,1.4C436.1,133,436,133.2,436,133.6z"></path>
		<path d="M435.7,156.4c0,0.8-0.3,1.1-1,1.3c-0.5,0.1-1-0.1-1.2-0.6c-0.7-2.4-1.5-4.7-2.2-7.1c-0.1-0.4-0.2-0.8-0.2-1.2
			c0-0.4,0.2-0.8,0.6-0.9c0.5-0.2,1.1,0,1.3,0.3c0.3,0.6,0.7,1.1,0.8,1.7c0.6,1.9,1.1,3.8,1.7,5.7
			C435.7,156,435.7,156.3,435.7,156.4z"></path>
		<path d="M421.4,156.9c0.1-1.6,0.4-3,1.1-4.4c0.2-0.5,0.6-0.7,1.1-0.7c0.6,0,1.1,0.5,1,1c0,0.3-0.1,0.6-0.3,0.9
			c-0.9,1.5-1.1,3.1-0.4,4.8c0.3,0.6,0.2,1.2,0.2,1.9c0,0.6-0.4,0.8-0.9,1c-0.4,0.2-0.8,0.1-1.1-0.2c-0.3-0.4-0.5-0.8-0.6-1.3
			C421.5,158.9,421.5,157.9,421.4,156.9z"></path>
		<path d="M274.8,41c2.3,0,4.6,0,6.9,0c0.9,0,1.8-0.1,2.6,0.2c0.4,0.1,0.6,0.5,0.6,1c0,0.5-0.2,0.8-0.7,0.8c-0.5,0.1-1,0.2-1.4,0.1
			c-2.5-0.1-4.9,0.4-7.4,0.2c-3.1,0.6-6.2,0.1-9.3,0.6c-1,0.2-1.6-0.8-1.4-1.7c0.1-0.4,0.3-0.7,0.8-0.8c0.5-0.1,0.9-0.3,1.4-0.2
			c1.7,0.2,3.3-0.1,5-0.1C272.9,41,273.8,41,274.8,41C274.8,41,274.8,41,274.8,41z"></path>
		<path d="M284.4,33.8c0.1,0.4,0.3,0.7,0.3,1c0.1,0.6-0.3,1-0.7,1.1c-0.2,0-0.3,0.1-0.5,0.1c-3.2-0.2-6.3,0.8-9.5,0.2
			c-1.1-0.2-2.2,0-3.3-0.1c-0.6,0-1.3-0.1-1.9-0.2c-0.4-0.1-0.6-0.5-0.7-0.9c0-0.5,0.2-0.8,0.6-0.9c1.4-0.3,2.8-0.5,4.3-0.5
			c1.4,0,2.9,0,4.3-0.2C279.7,33.2,282.1,33.4,284.4,33.8z"></path>
		<path d="M270.8,30.2c-0.6-0.8-0.5-1.3-0.3-1.9c0.2-0.1,0.4-0.3,0.6-0.3c2.6,0,5.2-0.5,7.8-0.2c0.9,0.1,1.7,0,2.6-0.1
			c0.9-0.1,1.7-0.1,2.6,0.2c0.5,0.2,0.8,0.6,0.8,1.1c0,0.5-0.4,0.9-0.8,1c-0.4,0.1-0.8,0.2-1.2,0.2
			C278.9,30.3,274.8,30.2,270.8,30.2z"></path>
		<path d="M284.3,24.2c-0.8,0.5-1.7,0.7-2.7,0.7c-2.1,0-4.1,0-6.2,0c-0.5,0-1.1-0.1-1.6-0.3c-0.7-0.2-1-0.7-0.9-1.5
			c0-0.4,0.2-0.8,0.7-0.9c0.5-0.1,0.9-0.2,1.4-0.2c2.4,0,4.8,0.1,7.2,0.2c0.4,0,0.8,0,1.2,0.1C284.4,22.5,284.5,22.8,284.3,24.2z"></path>
		<path d="M258.1,57.9c3-0.4,5.9,0,8.6-0.2c0.9,0.7,1.2,1.5,0.9,2.4c-0.7,1.9-0.2,3.8-0.7,5.7c-0.2,0.8,0.4,1.5,1,2
			c0.8,0.8,1.6,1.5,2.2,2.5c0.8,1.3,0.7,2.6,0,3.8c-0.4,0.7-0.9,1.1-1.7,1.1c-3.5,0.1-7,0.8-10.5,0.3c-0.6-0.1-1.3-0.1-1.9,0
			c-1.4,0.2-2.7-0.2-4-0.3c-0.2,0-0.5-0.1-0.7-0.2c-0.5-0.3-0.9-0.6-1.4-0.9c-0.2-0.7-0.4-1.4-0.6-2.1c0.8-1.6,2.2-2.6,3.5-3.8
			c0.7-0.6,1.3-1.2,2.1-1.6c1.2-0.7,1.6-1.8,2.1-3.1C257.5,61.8,257.6,60,258.1,57.9z M262.6,60.9c-0.1,1.2-0.2,2.4,0.1,3.5
			c0.3,1-0.1,1.4-1.2,1.6c-0.8,0.2-1.6-0.1-2.3-0.2c-0.2,0.1-0.4,0.2-0.5,0.3c-0.9,1.5-2.3,2.6-3.7,3.6c-0.9,0.7-1.8,1.5-2.4,2.6
			c0.7,0.7,1.5,0.8,2.3,0.8c3.5,0,7,0,10.5,0c0.6,0,1.1-0.1,1.7-0.2c0.5-0.1,0.8-0.5,0.8-1.1c0-0.5-0.2-0.9-0.5-1.3
			c-0.6-0.8-1.1-1.5-1.8-2.3c-0.7-0.8-1.1-1.8-1-2.8c0-0.8,0.2-1.6,0.2-2.4c0-0.6,0.1-1.1,0-1.7c0-0.5-0.4-0.8-0.9-0.9
			C263.6,60.5,263.2,60.5,262.6,60.9z"></path>
		<path d="M276.7,55.7c2.1-0.8,4.1-0.7,6-0.6c1.1,0,1.7,0.6,2.1,1.6c0.2,0.7,0.2,1.4,0.2,2.1c0,1.5-0.1,3,0.3,4.5
			c0.1,0.5,0.1,1,0,1.4c-0.4,1.4-0.3,2.8-0.3,4.3c0,1.1-0.2,2.1-0.5,3.1c-0.8,2.8-4.5,4.3-6.9,2.1c-0.8-0.7-1.4-1.4-1.6-2.5
			c-0.2-1.3-0.4-2.5-0.4-3.8c0-1.7,0-3.4,0-5c0-0.3,0-0.6,0-1c0.2-1,0.5-2,0.6-3C276.5,57.8,276.6,56.8,276.7,55.7z M281,59.4
			c0.1,0.2,0.3,0.3,0.3,0.5c0.3,1,0,1.4-0.9,1.5c-0.5,0.1-1,0.1-1.4,0.2c-0.4,0.1-0.6,0.5-0.6,0.9c0,0.5,0.4,0.7,0.8,0.7
			c0.5,0,1-0.1,1.4,0c0.7,0,1.1,0.6,1,1.6c0,0.6-0.3,0.8-1.1,0.8c-0.7,0-1.4,0.1-2.1,0.2c-0.3,0.1-0.5,0.4-0.4,0.8
			c0.1,0.2,0.3,0.4,0.5,0.4c0.4,0.1,0.8,0,1.2,0.1c0.9,0.1,1.3,0.5,1.3,1.3c0,0.7-0.3,1.1-1.2,1.2c-0.5,0.1-1.1-0.1-1.6,0.4
			c-0.3,1.9-0.1,2.2,1.3,2.8c0.3,0.1,0.6,0.2,0.9,0.3c0.5,0.1,1-0.1,1.2-0.6c0.3-0.7,0.4-1.4,0.5-2.1c0.5-2.8,0.4-5.7,0.4-8.6
			c0-1.3-0.1-2.7-0.5-4c-1.1-0.3-2-0.2-2.9,0c-0.4,0.1-0.5,0.4-0.5,0.7c0,0.3,0.1,0.6,0.5,0.7C279.8,59.2,280.4,59.3,281,59.4z"></path>
		<path d="M69.6,86.7c-2-1.7-2.1-4-1.9-6.3c0.1-0.6,0.2-1.3,0.9-1.6c0.7-0.4,1.4-0.1,2,0.3c0.4,0.7,0.1,1.3-0.1,1.8
			c-0.3,0.9-0.2,1.9,0,2.8c0.1,0.6,0.9,0.9,1.3,0.4c0.4-0.5,0.8-1,1.5-0.9c0.6,0.1,0.9,0.3,0.9,0.9c0.1,0.7-0.1,1.2-0.7,1.7
			C72.4,86.8,71.7,87,69.6,86.7z"></path>
		<path d="M71.2,94.1c0.2,0,0.3,0,0.5,0.1c1.6,1.2,3,0.5,4.2-0.7c0.4-0.4,0.8-0.8,1.3-1c0.4-0.1,0.8-0.2,1.1,0.1
			c0.3,0.3,0.4,0.7,0.3,1.1c-0.1,0.4-0.2,0.8-0.5,1.1C77.1,96,75.8,97,74,97.2c-0.6,0.1-1.1,0.1-1.6-0.2c-0.4-0.3-0.8-0.4-1.3-0.7
			C70,95.6,70,95.1,71.2,94.1z"></path>
		<path d="M65.4,94.4c-0.3-0.2-0.6-0.3-0.8-0.5c-0.4-0.4-0.5-0.8-0.2-1.3c0.3-0.5,0.6-1,1.2-1.1c1.1-0.2,2-0.9,2.9-1.6
			c0.6-0.5,1.3-0.6,2-0.5c0.5,0,0.9,0.4,0.9,0.9c0.1,0.6,0.1,1.2-0.4,1.5c-1,0.7-1.8,1.9-3.2,1.7C66.8,93.4,66.2,94.2,65.4,94.4z"></path>
		<path d="M80.8,90.6c-1.1,0.2-2.1,0.8-3.1,0.5c-1.2-0.4-2.5-0.4-3.5-1.3C74,89.3,74,88.8,74,88.3c0.1-0.4,0.3-0.7,0.8-0.8
			c0.9-0.2,1.7,0.2,2.6,0.5c0.8,0.2,1.5,0.4,2.3,0.4c1.1,0,1.3,0.2,1.3,1.4C81,90,80.9,90.2,80.8,90.6z"></path>
		<path d="M65.5,78.1c0.2,0.8,0.4,1.4,0.6,2c0.1,0.6,0,1.1-0.2,1.6c-0.2,0.5-0.6,0.8-1.1,0.8c-0.4,0-0.8,0-1.2,0
			c-0.5,0-0.9-0.3-1.1-0.8c-0.3-1-0.9-2.1-0.2-3C63,77.6,64.2,77.8,65.5,78.1z"></path>
		<path d="M78.6,78.4c-0.1,0.4-0.1,0.8-0.3,1.1c-0.4,0.5-0.9,1.2-1.7,1.1c-0.9-0.1-1.6-0.6-1.9-1.5c-0.1-0.3-0.1-0.6-0.2-0.9
			c-0.4-2.2,0.6-2.4,2.2-2.1c0.2,0,0.4,0.2,0.6,0.3C78.3,76.7,78.7,77.4,78.6,78.4z"></path>
		<path d="M458.6,288.8c-0.2,0.2-0.3,0.5-0.7,0.5" class="st0"></path>
		<path d="M424.6,250.4c-0.5,0.7-1,1.4-1.4,2.2" class="st0"></path>
		<path d="M131.8,206.7c-0.1,0.4-0.2,0.8-0.2,1.2" class="st0"></path>
		<path d="M190.6,153c-0.4,0.6-0.8,1.1-1.2,1.7" class="st0"></path>
		<path d="M444.7,300.8c-0.2,0.2-0.5,0.3-0.5,0.7" class="st0"></path>
		<path d="M456.2,290.7c-0.4,0.3-0.6,0.9-1.2,1" class="st0"></path>
		<path d="M350.6,298.4c0.2,0.2,0.5,0.3,0.5,0.7" class="st0"></path>
		<path d="M284.9,34.9c-0.2,0-0.5,0-0.7,0" class="st0"></path>
		<path d="M555.1,339.7c-0.2,0.4-0.3,0.8-0.5,1.2" class="st0"></path>
		<path d="M423.8,318.8c-0.2,0.2-0.5,0.5-0.7,0.7" class="st0"></path>
		<path d="M436.3,228.3c-0.2,0.2-0.4,0.4-0.5,0.7c-0.3,1.3-0.9,2.6-1.9,3.6c-0.2,0.2-0.2,0.5-0.3,0.7" class="st0"></path>
		<path d="M400.6,349.8c0,0.2,0,0.5,0,0.7" class="st0"></path>
		<path d="M207.6,127c-0.6-0.2-1.1,0.3-1.7,0.2" class="st0"></path>
		<path d="M168.7,199.5c0,0.3,0.2,0.7-0.2,1" class="st0"></path>
		<path d="M279.8,199.8c-0.4-0.1-0.8-0.2-1.2-0.2" class="st0"></path>
		<path d="M504.7,439.5c0,0.3,0.2,0.7-0.2,1" class="st0"></path>
		<path d="M429.8,240.3c-0.8,1.4-1.2,3-2.2,4.3c-0.9,1.2-1.4,2.7-2.2,4.1" class="st0"></path>
		<path d="M422.2,188c0,0.3,0.2,0.7-0.2,1" class="st0"></path>
	</g>
</g>
</svg>
